<?xml version="1.0" encoding="utf-8"?>
<!-- Generator: Adobe Illustrator 23.0.1, SVG Export Plug-In . SVG Version: 6.00 Build 0)  -->
<svg version="1.1" id="Layer_1" xmlns="http://www.w3.org/2000/svg" xmlns:xlink="http://www.w3.org/1999/xlink" x="0px" y="0px"
	 viewBox="0 0 1920 1080" style="enable-background:new 0 0 1920 1080;" xml:space="preserve">
<style type="text/css">
	.st0{fill:#FFFFFF;}
	.st1{fill:#4D75F2;}
	.st2{fill:none;stroke:#4D75F2;stroke-width:5;stroke-miterlimit:10;}
	.st3{fill:none;stroke:#4D75F2;stroke-width:4;stroke-miterlimit:10;}
	.st4{fill:none;stroke:#FFFFFF;stroke-width:4;stroke-miterlimit:10;}
	.st5{fill:none;stroke:#4D75F2;stroke-width:3.5;stroke-miterlimit:10;}
	.st6{fill:none;stroke:#FFFFFF;stroke-width:3.5;stroke-miterlimit:10;}
	.st7{fill:none;stroke:#FFFFFF;stroke-width:3;stroke-miterlimit:10;}
	.st8{fill:#2FD3D4;}
</style>
<g>
	<g>
		<g>
			<path class="st0" d="M1341.99,608.74c16.53-0.09,33.07-0.16,49.6-0.25c4.46-0.02,4.46-6.96,0-6.94
				c-16.53,0.09-33.07,0.16-49.6,0.25C1337.52,601.83,1337.52,608.77,1341.99,608.74L1341.99,608.74z"/>
		</g>
	</g>
	<g>
		<g>
			<path class="st0" d="M1341.99,580.71c24.4-0.05,48.82-0.12,73.21-0.16c4.46,0,4.46-6.94,0-6.94c-24.4,0.05-48.82,0.12-73.21,0.16
				C1337.52,573.77,1337.52,580.71,1341.99,580.71L1341.99,580.71z"/>
		</g>
	</g>
	<g>
		<g>
			<path class="st0" d="M1341.99,552.95c24.4-0.05,48.82-0.12,73.21-0.16c4.46,0,4.46-6.94,0-6.94c-24.4,0.05-48.82,0.12-73.21,0.16
				C1337.52,546.01,1337.52,552.95,1341.99,552.95L1341.99,552.95z"/>
		</g>
	</g>
	<g>
		<g>
			<path class="st0" d="M1341.99,525.19c24.4-0.05,48.82-0.12,73.21-0.16c4.46,0,4.46-6.94,0-6.94c-24.4,0.05-48.82,0.12-73.21,0.16
				C1337.52,518.25,1337.52,525.19,1341.99,525.19L1341.99,525.19z"/>
		</g>
	</g>
	<g>
		<g>
			<path class="st0" d="M1182.42,351.71c24.4-0.05,48.82-0.12,73.21-0.16c4.46,0,4.46-6.94,0-6.94c-24.4,0.05-48.82,0.12-73.21,0.16
				C1177.96,344.77,1177.96,351.71,1182.42,351.71L1182.42,351.71z"/>
		</g>
	</g>
	<g>
		<g>
			<path class="st0" d="M671.36,65.18c28.26-0.05,56.52-0.12,84.78-0.16c4.46,0,4.46-6.94,0-6.94c-28.26,0.05-56.52,0.12-84.78,0.16
				C666.9,58.24,666.9,65.18,671.36,65.18L671.36,65.18z"/>
		</g>
	</g>
	<g>
		<g>
			<path class="st0" d="M605.82,65.25c15.42-0.05,30.83-0.12,46.25-0.16c4.46-0.02,4.46-6.96,0-6.94
				c-15.42,0.05-30.83,0.12-46.25,0.16C601.36,58.31,601.36,65.25,605.82,65.25L605.82,65.25z"/>
		</g>
	</g>
	<g>
		<g>
			<path class="st0" d="M709.89,93.01c15.42-0.05,30.83-0.12,46.25-0.16c4.46-0.02,4.46-6.96,0-6.94
				c-15.42,0.05-30.83,0.12-46.25,0.16C705.42,86.07,705.42,93.01,709.89,93.01L709.89,93.01z"/>
		</g>
	</g>
	<g>
		<g>
			<path class="st0" d="M675.2,93.72c6.94-0.02,13.88-0.05,20.81-0.07c4.46-0.02,4.46-6.96,0-6.94c-6.94,0.02-13.88,0.05-20.81,0.07
				C670.73,86.81,670.73,93.75,675.2,93.72L675.2,93.72z"/>
		</g>
	</g>
	<g>
		<g>
			<path class="st0" d="M633.57,91.02c7.7-0.02,15.42-0.02,23.13-0.05c4.46,0,4.46-6.94,0-6.94c-7.7,0.02-15.42,0.02-23.13,0.05
				C629.11,84.08,629.11,91.02,633.57,91.02L633.57,91.02z"/>
		</g>
	</g>
	<g>
		<g>
			<path class="st0" d="M649.76,117.64c7.7-0.02,15.42-0.02,23.13-0.05c4.46,0,4.46-6.94,0-6.94c-7.7,0.02-15.42,0.02-23.13,0.05
				C645.3,110.72,645.3,117.66,649.76,117.64L649.76,117.64z"/>
		</g>
	</g>
	<g>
		<g>
			<path class="st0" d="M691.39,118.47c20.05-0.05,40.08-0.12,60.13-0.16c4.46-0.02,4.46-6.96,0-6.94
				c-20.05,0.05-40.08,0.12-60.13,0.16C686.92,111.53,686.92,118.47,691.39,118.47L691.39,118.47z"/>
		</g>
	</g>
	<g>
		<g>
			<path class="st0" d="M1270.3,240.91c17.46-0.07,34.94-0.12,52.4-0.19c4.46-0.02,4.46-6.96,0-6.94
				c-17.46,0.07-34.94,0.12-52.4,0.19C1265.84,233.99,1265.84,240.93,1270.3,240.91L1270.3,240.91z"/>
		</g>
	</g>
	<g>
		<g>
			<path class="st1" d="M1182.42,328.57c24.4-0.05,48.82-0.12,73.21-0.16c4.46,0,4.46-6.94,0-6.94c-24.4,0.05-48.82,0.12-73.21,0.16
				C1177.96,321.64,1177.96,328.57,1182.42,328.57L1182.42,328.57z"/>
		</g>
	</g>
	<g>
		<g>
			<path class="st1" d="M1198.33,437.06c12.72-12.56,25.41-25.14,38.13-37.7c4.23-4.19-2.31-10.73-6.54-6.55
				c-12.72,12.56-25.41,25.14-38.13,37.7C1187.54,434.72,1194.08,441.27,1198.33,437.06L1198.33,437.06z"/>
		</g>
	</g>
	<g>
		<g>
			<path class="st1" d="M1198.59,434.31c-1.3-12.31-2.57-24.59-3.86-36.89c-0.46-4.39-7.4-4.44-6.94,0
				c1.29,12.31,2.57,24.59,3.86,36.89C1192.11,438.7,1199.05,438.75,1198.59,434.31L1198.59,434.31z"/>
		</g>
	</g>
	<g>
		<g>
			<path class="st1" d="M1381.3,368.11c51.38-0.07,102.77-0.12,154.15-0.19c4.46,0,4.46-6.94,0-6.94
				c-51.38,0.07-102.77,0.12-154.15,0.19C1376.84,361.17,1376.84,368.11,1381.3,368.11L1381.3,368.11z"/>
		</g>
	</g>
	<g>
		<g>
			<path class="st1" d="M1265.68,965.57c29.02-0.09,58.07-0.19,87.09-0.3c4.46-0.02,4.46-6.96,0-6.94
				c-29.02,0.09-58.07,0.19-87.09,0.3C1261.21,958.65,1261.21,965.59,1265.68,965.57L1265.68,965.57z"/>
		</g>
	</g>
	<g>
		<g>
			<path class="st1" d="M1228.67,991.47c9.76-0.14,19.52-0.25,29.28-0.39c4.46-0.07,4.46-7.01,0-6.94
				c-9.76,0.14-19.52,0.25-29.28,0.39C1224.21,984.6,1224.21,991.54,1228.67,991.47L1228.67,991.47z"/>
		</g>
	</g>
	<g>
		<g>
			<path class="st1" d="M1244.86,1019.23c9.76-0.14,19.52-0.25,29.28-0.39c4.46-0.07,4.46-7.01,0-6.94
				c-9.76,0.14-19.52,0.25-29.28,0.39C1240.4,1012.36,1240.4,1019.3,1244.86,1019.23L1244.86,1019.23z"/>
		</g>
	</g>
	<g>
		<g>
			<path class="st1" d="M1272.61,991.73c6.68-0.16,13.34-0.3,20.03-0.46c4.46-0.09,4.46-7.03,0-6.94
				c-6.68,0.16-13.34,0.3-20.03,0.46C1268.15,984.88,1268.15,991.82,1272.61,991.73L1272.61,991.73z"/>
		</g>
	</g>
	<g>
		<g>
			<path class="st1" d="M1307.3,991.84c15.93-0.16,31.84-0.32,47.78-0.51c4.46-0.05,4.46-6.99,0-6.94
				c-15.93,0.16-31.84,0.32-47.78,0.51C1302.84,984.95,1302.84,991.89,1307.3,991.84L1307.3,991.84z"/>
		</g>
	</g>
	<g>
		<g>
			<path class="st1" d="M1288.8,1019.67c19.77-0.19,39.57-0.35,59.34-0.53c4.46-0.05,4.46-6.99,0-6.94
				c-19.77,0.18-39.57,0.35-59.34,0.53C1284.34,1012.78,1284.34,1019.72,1288.8,1019.67L1288.8,1019.67z"/>
		</g>
	</g>
	<g>
		<g>
			<path class="st1" d="M1270.3,261.77c10.52-0.05,21.07-0.09,31.59-0.14c4.46-0.02,4.46-6.96,0-6.94
				c-10.52,0.05-21.07,0.09-31.59,0.14C1265.84,254.86,1265.84,261.79,1270.3,261.77L1270.3,261.77z"/>
		</g>
	</g>
	<g>
		<g>
			<path class="st0" d="M1182.42,375.12c13.62-0.05,27.22-0.09,40.84-0.14c4.46-0.02,4.46-6.96,0-6.94
				c-13.62,0.05-27.22,0.09-40.84,0.14C1177.96,368.18,1177.96,375.12,1182.42,375.12L1182.42,375.12z"/>
		</g>
	</g>
	<g>
		<g>
			<g>
				<path class="st0" d="M561.28,454.92c-5.13,2.64-10.24,3.35-15.66,4.97c-3.33,0.99-7.33,3.77-10.64,4.39
					c-6.8,1.3-11.72-4.05-18.06-1.6c-2.43,0.93-3.28,3.03-5.34,4.28c-5.46,3.38-7.05,1.46-11.63,3.65
					c-3.24,1.55-5.32,4.93-4.88,8.54c0.76,6.15,12.65,8.07,1.32,7.08c-3.49-0.3-6.75-0.46-9.34,2.27c-2.94,3.1-0.74,2.89-2.08,6.15
					c-0.62,1.5-1.85,3.35-2.59,4.9c-1.46,3.08-2.15,5.64,0.05,8.67c2.71,3.75,7.4,3.77,11.38,2.38c5.09-1.78,6.45-5.46,12.58-5.85
					c2.54-0.16,4.49,1.36,7.24,0.79c1.32-0.28,6.68-4.16,7.15-4.02c-0.44-0.14-2.2,2.64-2.29,3.08c-1.34,5.88-0.07,9.88,4.39,14.27
					c2.73,2.68,5.87,4.83,9.83,3.59c4.07-1.27,4.37-6.25,10.08-4.21c3.21,1.13,7.05,8.28,10.08,10.52
					c3.17,2.34,6.78,4.44,10.66,2.36c0.88-0.46,2.75-3.08,3.19-3.22c4.14-1.2,11.05,5.81,13.57,7.89c3.42,2.82,8.35-2.06,4.9-4.9
					c-4.26-3.52-9.48-8.7-14.99-10.11c-4.39-1.13-4.95,0.9-8.39,1.99c-0.81,2.31-2.15,2.31-4.07,0.02c-2.36-0.9-4.28-2.38-5.76-4.42
					c-2.34-2.24-4.05-5.71-6.94-7.38c-2.61-1.5-5.6-2.2-8.49-0.95c-3.33,1.41-4.02,6.5-8.81,3.91c-10.87-5.88-0.83-6.62-0.14-9.76
					c0.72-3.26,2.03-5.2-1.06-8.05c-2.78-2.54-5.9-1.39-9-0.62c-3.89,0.95-7.98,1.64-12.07,2.1c-1.9,0.21-3.49,0.16-5.48,0.93
					c-1.2,0.46-10.31,7.54-11.42,4.81c-0.09-0.23,2.73-2.01,2.82-2.61c1.04-6.55,3.98-6.94,10.5-6.82
					c6.78,0.12,14.73-4.72,8.05-11.38c-0.69-0.69-4.39-2.54-4.42-2.75c-0.3-3.79,4-2.59,5.6-3.75c1.46-1.06,3.82-3.4,5.34-4.26
					c4.32-2.43,6.13-1.02,10.04-0.44c7.89,1.16,9.62-0.9,17.6-3.84c6.89-2.54,14.04-3.28,20.65-6.68
					C568.75,458.87,565.26,452.88,561.28,454.92L561.28,454.92z"/>
			</g>
		</g>
		<g>
			<g>
				<path class="st0" d="M500.67,515.34c-8.26-0.81-22.29,2.43-26.92,10.11c-3.93,6.55-1.2,15.45,4.79,19.66
					c3.77,2.64,7.54,2.61,11.86,3.03c5.18,0.49,6.59,0.25,8.79,5.16c1.85,4.12,0.97,10.2,1.55,14.69
					c0.99,7.75,5.71,14.3,14.45,12.61c9.74-1.87,12.26-11.8,12.79-20.19c0.28-4.35-2.15-5.27,0.92-10.32
					c0.83-1.36,2.75-2.2,3.77-3.59c1.53-2.15,2.94-5.04,1.8-7.63c-1.27-2.89-3.93-1.94-6.15-3.38c-4.39-2.85-3.08-6.52-5.85-10.62
					c-2.04-2.98-4.44-4.53-7.89-5.46c-2.24-0.6-4.39,0.02-6.71-0.6c-3.01-0.79-5.18-2.31-8.23-3.05c-4.35-1.06-6.2,5.64-1.85,6.68
					c3.42,0.83,7.89,3.24,11.33,4.33c14.68,4.6,4.67,7.31,11.4,13.69c3.65,3.45,5.64-0.62,2.47,5.2c-2.08,3.82-2.8,4.23-3.01,9.23
					c-0.32,8.21,5.39,11.68-5.94,10.32c-8.9-1.09-6.38-1.71-7.47-9.32c-0.62-4.3-0.95-9.21-4.02-12.56
					c-3.21-3.49-4.93-2.34-8.81-2.73c-29.81-3.05-5.64-19.62,6.89-18.37C505.11,522.72,505.09,515.75,500.67,515.34L500.67,515.34z"
					/>
			</g>
		</g>
		<g>
			<g>
				<path class="st0" d="M434.9,440.76c1.48,4.39,2.61,11.89,8.9,11.15c2.27-0.28,4.39-3.77,5.87-3.86c2.8-0.16,7.45,7.61,9.2,10.06
					c2.22,3.08,17.97,4.93,1.11,13.46c-3.93,1.99-7.68,0.44-10.29-2.48c-2.47-2.73-3.58-6.75-6.38-9.04
					c-1.85-1.5-3.12-1.78-5.57-1.83c-2.34-0.05-5.5,1.5-7.86,0.76c-2.27-0.72-4.58-3.22-6.73-4.33c-3.95-2.06-7.47,3.93-3.49,5.99
					c5.09,2.64,8.51,6.25,14.45,6.38c4.81,0.12,4.32-2.71,7.22,3.22c0.95,1.94,1.85,3.91,3.47,5.41c6.29,5.81,19.19,4.49,24.35-2.2
					c8.21-10.66-3.35-17.33-8.19-25.17c-2.38-3.84-4.12-7.73-9.32-8.1c-1.85-0.14-3.7,0.51-5.18,1.5c-1.27,0.79-2.22,1.87-2.82,3.24
					c-0.67-2.01-1.36-4.05-2.04-6.06C440.18,434.7,433.47,436.51,434.9,440.76L434.9,440.76z"/>
			</g>
		</g>
		<g>
			<g>
				<path class="st0" d="M412.75,472.22c3.65-0.19,7.98,1.27,6.31,4.07c-0.44,0.74-3.98,1.97-4.79,2.64
					c-2.1,1.73-3.98,4.21-4.09,7.08c-0.23,5.48,4.19,7.24,9.04,8.07c2.41,0.42,4.19,0.58,6.22-0.67c0.67-0.42,1.39-1.53,2.04-1.83
					c0.32-0.62,0.67-1.27,0.99-1.9c5.97,1.48,7.33,2.8,4.09,3.96c-1.41,2.34-5.97,2.96-7.65,5.81c-1.6,2.71-1.76,5.41-1.04,8.49
					c1.36,5.97,3.75,6.11-2.41,9.23c-3.03,1.55-6.08,2.29-8.28,5.16c-3.26,4.28-2.59,9.11,0.86,12.88
					c3.08,3.35,8.6,7.68,12.44,10.25c2.5,1.69,4.56,2.5,7.59,2.89c1.9,0.25,4.14-0.58,5.97-0.14c9.5,2.2,10.85,10.04,11.38,17.26
					c0.55,7.8-1.2,15.68-2.8,23.25c-0.9,4.35,5.78,6.22,6.68,1.85c2.5-11.98,5.11-24.89,0.88-36.78c-3.4-9.6-8.44-11.2-17.67-12.42
					c-1.92-0.25-15.15-6.34-16.65-9.99c-3.26-7.96,6.48-7.31,10.59-11.13c1.8-1.67,2.34-2.64,2.38-4.95
					c0.05-2.36-2.13-3.52-2.59-5.55c-2.04-8.97,0-7.82,5.16-10.8c6.17-3.56,9.99-8.33,4.67-15.15c-5.48-7.01-12.35-5-18.18-0.32
					c-0.99,0.79-2.17,6.66-5.11,3.26c-3.12-3.61,5.13-4.3,6.29-5.37c2.43-2.2,3.75-2.85,3.65-6.68c-0.18-8.37-9.44-9.74-16.03-9.41
					C408.31,465.49,408.26,472.43,412.75,472.22L412.75,472.22z"/>
			</g>
		</g>
		<ellipse class="st2" cx="492.51" cy="508.28" rx="91.34" ry="91.37"/>
	</g>
	<g>
		<path class="st2" d="M714.51,263.09c0,35.97-26.48,65.74-60.98,70.92c-3.49,0.53-7.08,0.79-10.71,0.79
			c-39.59,0-71.69-32.11-71.69-71.71s32.1-71.71,71.69-71.71S714.51,223.49,714.51,263.09z"/>
	</g>
	<g>
		<path class="st3" d="M950.83,38.07c-6.06,9.21-17.85,12.38-27.57,7.86c-0.97-0.46-1.94-0.99-2.87-1.6
			c-10.13-6.66-12.95-20.31-6.27-30.44c6.68-10.13,20.3-12.95,30.43-6.27C954.69,14.31,957.49,27.94,950.83,38.07z"/>
	</g>
	<g>
		<path class="st3" d="M1219.22,157.84c0,16.82-12.37,30.74-28.51,33.17c-1.64,0.25-3.31,0.37-5.02,0.37
			c-18.52,0-33.53-15.01-33.53-33.54s15.01-33.54,33.53-33.54C1204.21,124.3,1219.22,139.31,1219.22,157.84z"/>
	</g>
	<g>
		<path class="st4" d="M1479.95,863.07c0,10.87-8,19.89-18.43,21.44c-1.06,0.16-2.13,0.23-3.24,0.23c-11.98,0-21.69-9.72-21.69-21.7
			c0-11.98,9.71-21.7,21.69-21.7C1470.26,841.35,1479.95,851.09,1479.95,863.07z"/>
	</g>
	<line class="st5" x1="656.7" y1="492.09" x2="686.76" y2="448.14"/>
	<line class="st5" x1="756.14" y1="450.45" x2="793.14" y2="404.19"/>
	<line class="st5" x1="698.32" y1="445.83" x2="742.26" y2="455.08"/>
	<g>
		<g>
			<path class="st6" d="M661.32,496.44c0,3.33-2.45,6.11-5.67,6.57c-0.32,0.05-0.65,0.07-0.99,0.07c-3.68,0-6.66-2.98-6.66-6.66
				c0-3.68,2.98-6.66,6.66-6.66S661.32,492.76,661.32,496.44z"/>
		</g>
		<g>
			<path class="st6" d="M698.32,443.24c0,3.33-2.45,6.11-5.67,6.57c-0.32,0.05-0.65,0.07-0.99,0.07c-3.68,0-6.66-2.98-6.66-6.66
				c0-3.68,2.98-6.66,6.66-6.66C695.34,436.55,698.32,439.56,698.32,443.24z"/>
		</g>
		<g>
			<path class="st6" d="M756.14,457.12c0,3.33-2.45,6.11-5.67,6.57c-0.32,0.05-0.65,0.07-0.99,0.07c-3.68,0-6.66-2.98-6.66-6.66
				s2.98-6.66,6.66-6.66S756.14,453.44,756.14,457.12z"/>
		</g>
		<g>
			<path class="st6" d="M804.7,399.29c0,3.33-2.45,6.11-5.67,6.57c-0.32,0.05-0.65,0.07-0.99,0.07c-3.68,0-6.66-2.98-6.66-6.66
				c0-3.68,2.98-6.66,6.66-6.66S804.7,395.61,804.7,399.29z"/>
		</g>
	</g>
	<g>
		<path class="st3" d="M1357.97,864.23c0-56.05,45.42-101.5,101.47-101.5c42.67,0,79.18,26.35,94.17,63.66"/>
		<path class="st3" d="M1560.89,864.23c0,50.89-37.46,93.06-86.3,100.37c-4.95,0.74-10.01,1.13-15.15,1.13
			c-45.53,0-84.06-30-96.89-71.31"/>
	</g>
	<g>
		<path class="st4" d="M1197.25,156.69c0,5.81-4.28,10.59-9.83,11.43c-0.55,0.09-1.13,0.14-1.73,0.14
			c-6.38,0-11.56-5.18-11.56-11.57s5.18-11.57,11.56-11.57S1197.25,150.3,1197.25,156.69z"/>
	</g>
	<g>
		<path class="st7" d="M941.72,25.99c0,4.65-3.42,8.49-7.86,9.16c-0.44,0.07-0.9,0.09-1.39,0.09c-5.11,0-9.25-4.14-9.25-9.25
			s4.14-9.25,9.25-9.25C937.58,16.74,941.72,20.88,941.72,25.99z"/>
	</g>
	<polyline class="st2" points="699.96,219.79 643.98,261.93 651.86,334.8 	"/>
	<path class="st1" d="M1330.03,530.26h-11.56c-2.54,0-4.63-2.08-4.63-4.63v-6.94c0-2.54,2.08-4.63,4.63-4.63h11.56
		c2.54,0,4.63,2.08,4.63,4.63v6.94C1334.66,528.18,1332.58,530.26,1330.03,530.26z"/>
	<path class="st1" d="M1330.03,556.86h-11.56c-2.54,0-4.63-2.08-4.63-4.63v-6.94c0-2.54,2.08-4.63,4.63-4.63h11.56
		c2.54,0,4.63,2.08,4.63,4.63v6.94C1334.66,554.78,1332.58,556.86,1330.03,556.86z"/>
	<path class="st1" d="M1329.64,584.62h-11.56c-2.54,0-4.63-2.08-4.63-4.63v-6.94c0-2.54,2.08-4.63,4.63-4.63h11.56
		c2.54,0,4.63,2.08,4.63,4.63v6.94C1334.26,582.53,1332.18,584.62,1329.64,584.62z"/>
	<path class="st1" d="M1329.64,612.37h-11.56c-2.54,0-4.63-2.08-4.63-4.63v-6.94c0-2.54,2.08-4.63,4.63-4.63h11.56
		c2.54,0,4.63,2.08,4.63,4.63v6.94C1334.26,610.29,1332.18,612.37,1329.64,612.37z"/>
	<g>
		<g>
			<g>
				<path class="st1" d="M495.61,879.4c25.18-0.07,50.34-0.16,75.53-0.23c4.46-0.02,4.46-6.96,0-6.94
					c-25.18,0.07-50.34,0.16-75.53,0.23C491.14,872.46,491.14,879.4,495.61,879.4L495.61,879.4z"/>
			</g>
		</g>
		<g>
			<g>
				<path class="st1" d="M495.61,897.91c25.18-0.07,50.34-0.16,75.53-0.23c4.46-0.02,4.46-6.96,0-6.94
					c-25.18,0.07-50.34,0.16-75.53,0.23C491.14,890.97,491.14,897.91,495.61,897.91L495.61,897.91z"/>
			</g>
		</g>
		<g>
			<g>
				<path class="st1" d="M405.42,897.91c25.18-0.07,50.34-0.16,75.53-0.23c4.46-0.02,4.46-6.96,0-6.94
					c-25.18,0.07-50.34,0.16-75.53,0.23C400.96,890.97,400.96,897.91,405.42,897.91L405.42,897.91z"/>
			</g>
		</g>
		<g>
			<g>
				<path class="st1" d="M313.34,887.22c6.48,14.5,12.97,29.03,19.45,43.53c1.83,4.07,7.79,0.56,5.99-3.49
					c-6.48-14.5-12.97-29.03-19.45-43.53C317.5,879.66,311.53,883.17,313.34,887.22L313.34,887.22z"/>
			</g>
		</g>
		<g>
			<g>
				<path class="st1" d="M353.11,883.7c-6.73,14.69-13.44,29.4-20.17,44.09c-1.85,4.02,4.14,7.56,5.99,3.49
					c6.73-14.69,13.44-29.4,20.17-44.09C360.95,883.17,354.96,879.63,353.11,883.7L353.11,883.7z"/>
			</g>
		</g>
		<g>
			<g>
				<path class="st1" d="M405.42,879.4c25.18-0.07,50.34-0.16,75.53-0.23c4.46-0.02,4.46-6.96,0-6.94
					c-25.18,0.07-50.34,0.16-75.53,0.23C400.96,872.46,400.96,879.4,405.42,879.4L405.42,879.4z"/>
			</g>
		</g>
		<path class="st6" d="M564.2,811.3H409.26c-2.54,0-4.63-2.08-4.63-4.63v-39.32c0-2.54,2.08-4.63,4.63-4.63H564.2
			c2.54,0,4.63,2.08,4.63,4.63v39.32C568.82,809.22,566.74,811.3,564.2,811.3z"/>
		<path class="st5" d="M571.13,714.15H381.51c-2.54,0-4.63-2.08-4.63-4.63v-18.51c0-2.54,2.08-4.63,4.63-4.63h189.63
			c2.54,0,4.63,2.08,4.63,4.63v18.51C575.76,712.07,573.68,714.15,571.13,714.15z"/>
		<path class="st5" d="M316.76,883.01V693.33c0-2.54,2.08-4.63,4.63-4.63h30.06c2.54,0,4.63,2.08,4.63,4.63v189.68
			c0,2.54-2.08,4.63-4.63,4.63h-30.06C318.84,887.64,316.76,885.55,316.76,883.01z"/>
		<path class="st6" d="M474.01,857.57h-62.44c-2.54,0-4.63-2.08-4.63-4.63v-18.51c0-2.54,2.08-4.63,4.63-4.63h62.44
			c2.54,0,4.63,2.08,4.63,4.63v18.51C478.63,855.48,476.55,857.57,474.01,857.57z"/>
		<path class="st6" d="M564.2,857.57h-62.44c-2.54,0-4.63-2.08-4.63-4.63v-18.51c0-2.54,2.08-4.63,4.63-4.63h62.44
			c2.54,0,4.63,2.08,4.63,4.63v18.51C568.82,855.48,566.74,857.57,564.2,857.57z"/>
		<g>
			<g>
				<path class="st1" d="M384.65,688.85c-0.07,3.1-0.05,6.2,0.07,9.3c0.16,4.46,7.1,4.46,6.94,0c-0.12-3.1-0.12-6.2-0.07-9.3
					C391.68,684.38,384.75,684.38,384.65,688.85L384.65,688.85z"/>
			</g>
		</g>
		<g>
			<g>
				<path class="st1" d="M400.84,688.85c-0.07,3.1-0.05,6.2,0.07,9.3c0.16,4.46,7.1,4.46,6.94,0c-0.12-3.1-0.12-6.2-0.07-9.3
					C407.87,684.38,400.93,684.38,400.84,688.85L400.84,688.85z"/>
			</g>
		</g>
		<g>
			<g>
				<path class="st1" d="M417.03,688.85c-0.07,3.1-0.05,6.2,0.07,9.3c0.16,4.46,7.1,4.46,6.94,0c-0.12-3.1-0.12-6.2-0.07-9.3
					C424.06,684.38,417.12,684.38,417.03,688.85L417.03,688.85z"/>
			</g>
		</g>
		<g>
			<g>
				<path class="st1" d="M433.22,688.85c-0.07,3.1-0.05,6.2,0.07,9.3c0.16,4.46,7.1,4.46,6.94,0c-0.12-3.1-0.12-6.2-0.07-9.3
					C440.25,684.38,433.31,684.38,433.22,688.85L433.22,688.85z"/>
			</g>
		</g>
		<g>
			<g>
				<path class="st1" d="M449.4,688.85c-0.07,3.1-0.05,6.2,0.07,9.3c0.16,4.46,7.1,4.46,6.94,0c-0.12-3.1-0.12-6.2-0.07-9.3
					C456.43,684.38,449.5,684.38,449.4,688.85L449.4,688.85z"/>
			</g>
		</g>
		<g>
			<g>
				<path class="st1" d="M465.59,688.85c-0.07,3.1-0.05,6.2,0.07,9.3c0.16,4.46,7.1,4.46,6.94,0c-0.12-3.1-0.12-6.2-0.07-9.3
					C472.62,684.38,465.68,684.38,465.59,688.85L465.59,688.85z"/>
			</g>
		</g>
		<g>
			<g>
				<path class="st1" d="M481.78,688.85c-0.07,3.1-0.05,6.2,0.07,9.3c0.16,4.46,7.1,4.46,6.94,0c-0.12-3.1-0.12-6.2-0.07-9.3
					C488.81,684.38,481.87,684.38,481.78,688.85L481.78,688.85z"/>
			</g>
		</g>
		<g>
			<g>
				<path class="st1" d="M497.97,688.85c-0.07,3.1-0.05,6.2,0.07,9.3c0.16,4.46,7.1,4.46,6.94,0c-0.12-3.1-0.12-6.2-0.07-9.3
					C505,684.38,498.06,684.38,497.97,688.85L497.97,688.85z"/>
			</g>
		</g>
		<g>
			<g>
				<path class="st1" d="M514.15,688.85c-0.07,3.1-0.05,6.2,0.07,9.3c0.16,4.46,7.1,4.46,6.94,0c-0.12-3.1-0.12-6.2-0.07-9.3
					C521.18,684.38,514.25,684.38,514.15,688.85L514.15,688.85z"/>
			</g>
		</g>
		<g>
			<g>
				<path class="st1" d="M530.34,688.85c-0.07,3.1-0.05,6.2,0.07,9.3c0.16,4.46,7.1,4.46,6.94,0c-0.12-3.1-0.12-6.2-0.07-9.3
					C537.37,684.38,530.43,684.38,530.34,688.85L530.34,688.85z"/>
			</g>
		</g>
		<g>
			<g>
				<path class="st1" d="M546.53,688.85c-0.07,3.1-0.05,6.2,0.07,9.3c0.16,4.46,7.1,4.46,6.94,0c-0.12-3.1-0.12-6.2-0.07-9.3
					C553.56,684.38,546.62,684.38,546.53,688.85L546.53,688.85z"/>
			</g>
		</g>
		<g>
			<g>
				<path class="st1" d="M560.4,688.85c-0.07,3.1-0.05,6.2,0.07,9.3c0.16,4.46,7.1,4.46,6.94,0c-0.12-3.1-0.12-6.2-0.07-9.3
					C567.43,684.38,560.5,684.38,560.4,688.85L560.4,688.85z"/>
			</g>
		</g>
		<g>
			<g>
				<path class="st1" d="M318.28,709.8c12.16,0,24.33,0,36.51,0c4.46,0,4.46-6.94,0-6.94c-12.16,0-24.33,0-36.51,0
					C313.82,702.86,313.82,709.8,318.28,709.8L318.28,709.8z"/>
			</g>
		</g>
	</g>
	<g>
		<g>
			<path class="st1" d="M1362.62,899.16c5.94,0,5.97-9.25,0-9.25S1356.65,899.16,1362.62,899.16L1362.62,899.16z"/>
		</g>
	</g>
	<g>
		<g>
			<path class="st1" d="M1362.62,899.36c5.94,0,5.97-9.25,0-9.25S1356.65,899.36,1362.62,899.36L1362.62,899.36z"/>
		</g>
	</g>
	<g>
		<g>
			<path class="st1" d="M1362.45,899.46c5.94,0,5.97-9.25,0-9.25C1356.51,890.2,1356.49,899.46,1362.45,899.46L1362.45,899.46z"/>
		</g>
	</g>
	<g>
		<g>
			<path class="st1" d="M1362.68,899.23c5.94,0,5.97-9.25,0-9.25S1356.72,899.23,1362.68,899.23L1362.68,899.23z"/>
		</g>
	</g>
	<g>
		<g>
			<path class="st1" d="M1358.04,868.67c5.94,0,5.97-9.25,0-9.25C1352.07,859.42,1352.07,868.67,1358.04,868.67L1358.04,868.67z"/>
		</g>
	</g>
	<g>
		<g>
			<path class="st1" d="M1358.04,868.67c5.94,0,5.97-9.25,0-9.25C1352.07,859.42,1352.07,868.67,1358.04,868.67L1358.04,868.67z"/>
		</g>
	</g>
	<g>
		<g>
			<path class="st1" d="M1358.04,868.67c5.94,0,5.97-9.25,0-9.25C1352.07,859.42,1352.07,868.67,1358.04,868.67L1358.04,868.67z"/>
		</g>
	</g>
	<g>
		<g>
			<path class="st1" d="M1358.04,868.67c5.94,0,5.97-9.25,0-9.25C1352.07,859.42,1352.07,868.67,1358.04,868.67L1358.04,868.67z"/>
		</g>
	</g>
	<g>
		<g>
			<path class="st1" d="M1358.04,868.67c5.94,0,5.97-9.25,0-9.25C1352.07,859.42,1352.07,868.67,1358.04,868.67L1358.04,868.67z"/>
		</g>
	</g>
	<g>
		<g>
			<path class="st1" d="M1357.94,868.67c5.94,0,5.97-9.25,0-9.25C1352,859.42,1352,868.67,1357.94,868.67L1357.94,868.67z"/>
		</g>
	</g>
	<g>
		<g>
			<path class="st1" d="M1357.94,868.67c5.94,0,5.97-9.25,0-9.25C1352,859.42,1352,868.67,1357.94,868.67L1357.94,868.67z"/>
		</g>
	</g>
	<g>
		<g>
			<path class="st1" d="M1357.94,868.67c5.94,0,5.97-9.25,0-9.25C1352,859.42,1352,868.67,1357.94,868.67L1357.94,868.67z"/>
		</g>
	</g>
	<g>
		<g>
			<path class="st1" d="M1357.87,868.6c5.94,0,5.97-9.25,0-9.25C1351.93,859.35,1351.91,868.6,1357.87,868.6L1357.87,868.6z"/>
		</g>
	</g>
	<g>
		<g>
			<path class="st1" d="M1357.87,868.6c5.94,0,5.97-9.25,0-9.25C1351.93,859.35,1351.91,868.6,1357.87,868.6L1357.87,868.6z"/>
		</g>
	</g>
	<g>
		<g>
			<path class="st1" d="M1357.87,868.6c5.94,0,5.97-9.25,0-9.25C1351.93,859.35,1351.91,868.6,1357.87,868.6L1357.87,868.6z"/>
		</g>
	</g>
	<g>
		<g>
			<path class="st1" d="M1357.94,868.6c5.94,0,5.97-9.25,0-9.25C1352,859.35,1352,868.6,1357.94,868.6L1357.94,868.6z"/>
		</g>
	</g>
	<g>
		<g>
			<path class="st1" d="M1357.94,868.6c5.94,0,5.97-9.25,0-9.25C1352,859.35,1352,868.6,1357.94,868.6L1357.94,868.6z"/>
		</g>
	</g>
	<g>
		<g>
			<path class="st1" d="M1366.18,846.42c-4.02,5.25-8.16,10.43-11.75,16.01c-3.24,5.02,4.76,9.67,7.98,4.67
				c3.58-5.57,7.72-10.76,11.75-16.01c1.53-1.99,0.3-5.16-1.67-6.34C1370.13,843.34,1367.68,844.45,1366.18,846.42L1366.18,846.42z"
				/>
		</g>
	</g>
	<g>
		<g>
			<path class="st1" d="M1341.34,848.96c2.54,3.59,5.02,7.24,7.38,10.96c2.04,3.22,3.65,6.75,6.98,8.79c5.09,3.1,9.76-4.9,4.67-7.98
				c-2.17-1.32-3.79-5.67-5.18-7.82c-1.9-2.91-3.86-5.78-5.87-8.63C1345.92,839.48,1337.89,844.08,1341.34,848.96L1341.34,848.96z"
				/>
		</g>
	</g>
	<g>
		<g>
			<path class="st1" d="M1560.61,869.11c5.94,0,5.97-9.25,0-9.25C1554.67,859.86,1554.65,869.11,1560.61,869.11L1560.61,869.11z"/>
		</g>
	</g>
	<g>
		<g>
			<path class="st1" d="M1560.84,869.11c5.94,0,5.97-9.25,0-9.25C1554.88,859.86,1554.88,869.11,1560.84,869.11L1560.84,869.11z"/>
		</g>
	</g>
	<g>
		<g>
			<path class="st1" d="M1560.84,869.11c5.94,0,5.97-9.25,0-9.25C1554.88,859.86,1554.88,869.11,1560.84,869.11L1560.84,869.11z"/>
		</g>
	</g>
	<g>
		<g>
			<path class="st1" d="M1560.84,869.11c5.94,0,5.97-9.25,0-9.25C1554.88,859.86,1554.88,869.11,1560.84,869.11L1560.84,869.11z"/>
		</g>
	</g>
	<g>
		<g>
			<path class="st1" d="M1560.91,869.41c5.94,0,5.97-9.25,0-9.25C1554.97,860.16,1554.95,869.41,1560.91,869.41L1560.91,869.41z"/>
		</g>
	</g>
	<g>
		<g>
			<path class="st1" d="M1560.91,869.41c5.94,0,5.97-9.25,0-9.25C1554.97,860.16,1554.95,869.41,1560.91,869.41L1560.91,869.41z"/>
		</g>
	</g>
	<g>
		<g>
			<path class="st1" d="M1560.91,869.41c5.94,0,5.97-9.25,0-9.25C1554.97,860.16,1554.95,869.41,1560.91,869.41L1560.91,869.41z"/>
		</g>
	</g>
	<g>
		<g>
			<path class="st1" d="M1561.05,869.55c5.94,0,5.97-9.25,0-9.25C1555.11,860.3,1555.11,869.55,1561.05,869.55L1561.05,869.55z"/>
		</g>
	</g>
	<g>
		<g>
			<path class="st1" d="M1561.14,869.62c5.94,0,5.97-9.25,0-9.25C1555.18,860.36,1555.18,869.62,1561.14,869.62L1561.14,869.62z"/>
		</g>
	</g>
	<g>
		<g>
			<path class="st1" d="M1556.38,862.26c-1.9,2.54-4.53,4.67-6.71,6.96c-2.31,2.41-4.58,4.86-6.82,7.31
				c-3.98,4.39,2.54,10.96,6.54,6.55c4.88-5.41,10.61-10.34,14.98-16.15c1.5-2.01,0.3-5.16-1.66-6.34
				C1560.38,859.19,1557.88,860.27,1556.38,862.26L1556.38,862.26z"/>
		</g>
	</g>
	<g>
		<g>
			<path class="st1" d="M1556.96,866.59c2.73,6.5,7.45,11.82,11.68,17.37c1.53,2.01,3.98,3.01,6.34,1.67
				c1.97-1.11,3.17-4.35,1.66-6.34c-3.61-4.74-8.42-9.62-10.75-15.17c-0.97-2.31-3.05-3.93-5.69-3.24
				C1558.02,861.48,1555.99,864.3,1556.96,866.59L1556.96,866.59z"/>
		</g>
	</g>
	<g>
		<g>
			<path class="st1" d="M1553.65,831.03c5.94,0,5.97-9.25,0-9.25C1547.71,821.78,1547.69,831.03,1553.65,831.03L1553.65,831.03z"/>
		</g>
	</g>
	<g>
		<g>
			<path class="st1" d="M1553.56,831.13c5.94,0,5.97-9.25,0-9.25C1547.62,821.87,1547.59,831.13,1553.56,831.13L1553.56,831.13z"/>
		</g>
	</g>
	<g>
		<g>
			<path class="st1" d="M1553.56,831.13c5.94,0,5.97-9.25,0-9.25C1547.62,821.87,1547.59,831.13,1553.56,831.13L1553.56,831.13z"/>
		</g>
	</g>
	<g>
		<g>
			<path class="st1" d="M1408.68,880c0.3,0.49,0.37,0.56,0.19,0.23c0.09,0.32,0.18,0.65,0.25,0.99c0.18,0.76,0.37,1.53,0.6,2.29
				c0.49,1.62,1.06,3.22,1.71,4.77c0.95,2.31,3.08,3.96,5.69,3.24c2.17-0.6,4.19-3.38,3.24-5.69c-0.74-1.78-1.39-3.59-1.9-5.44
				c-0.49-1.73-0.76-3.56-1.8-5.07c-1.41-2.06-4.07-2.98-6.34-1.67C1408.29,874.87,1407.27,877.92,1408.68,880L1408.68,880z"/>
		</g>
	</g>
	<g>
		<g>
			<path class="st1" d="M1414.12,883.61c-6.08,4.28-12.9,10.66-16.37,17.44c-3.52,6.87,3.1,15.43,8.12,19.8
				c4.65,4.05,11.96,7.01,17.9,3.93c3.15-1.64,5.73-5.39,8.19-7.86c4.49-4.51,3.95-5.41,10.34-2.24c5.32,2.64,10.01-5.34,4.67-7.98
				c-3.61-1.8-8.35-5.46-12.63-4.74c-4.37,0.74-7.05,6.45-9.87,9.28c-1.27,1.27-4.07,5.11-5.85,5.55
				c-3.93,0.99-9.64-4.93-10.75-8.03c-2.38-6.64,5.87-13.6,10.92-17.14C1423.62,888.19,1418.99,880.17,1414.12,883.61
				L1414.12,883.61z"/>
		</g>
	</g>
	<g>
		<g>
			<path class="st1" d="M1440.5,911.23c-0.62,7.24-3.1,18.83,1.94,25.21c4.56,5.78,13.44,5.02,19.98,4.97
				c6.17-0.07,11.31-0.46,13.6-6.87c2.43-6.78,2.43-18.97,0.23-25.7c-0.72,1.73-1.41,3.49-2.13,5.23c2.84-1.67,5.57-3.38,8.3-5.2
				c-1.87-0.23-3.75-0.49-5.6-0.72c5.67,6.18,12.21,14.41,20.42,17.19c8.05,2.71,11.56-2.5,16.4-8.56c3.68-4.6,8.81-9.85,6.38-16.1
				c-2.54-6.55-11.93-11.01-16.47-16.1c-3.98-4.44-10.5,2.1-6.54,6.55c2.54,2.85,5.16,5.34,8.09,7.77c4.12,3.42,5.48,3.01,4.88,7.45
				c-1.64,2.45-3.45,4.79-5.41,6.99c-2.5,4.93-6.04,4.58-10.61-1.04c-3.93-2.87-7.31-7.12-10.57-10.69
				c-1.32-1.43-3.98-1.83-5.6-0.72c-2.73,1.83-5.46,3.56-8.3,5.2c-1.69,0.99-2.75,3.28-2.13,5.23c1.18,3.61,0.58,7.45,0.44,11.13
				c-0.23,6.29,0.42,8.72-7.08,9.72c-1.71-0.02-3.42-0.05-5.13-0.05c-4.86,0.39-6.98-1.25-6.41-4.95
				c-1.57-4.3,0.19-11.45,0.58-15.89C1450.26,905.29,1441.01,905.33,1440.5,911.23L1440.5,911.23z"/>
		</g>
	</g>
	<g>
		<g>
			<path class="st1" d="M1505.76,887.73c0.14-3.05,0.83-5.92,1.87-8.79c0.88-2.34-0.97-5.07-3.24-5.69
				c-2.59-0.72-4.81,0.88-5.69,3.24c-1.34,3.61-2.04,7.4-2.22,11.24c-0.12,2.5,2.22,4.63,4.63,4.63
				C1503.75,892.36,1505.64,890.23,1505.76,887.73L1505.76,887.73z"/>
		</g>
	</g>
	<g>
		<g>
			<path class="st1" d="M1503.56,882.25c5.18-0.62,10.36-0.97,15.59-0.97c3.03,0,6.13,0.35,8.95-0.99
				c5.97-2.89,6.11-10.52,6.08-16.24c-0.02-5.51,0.12-14.04-5.69-17.07c-3.49-1.83-8.56-0.9-12.37-0.9c-2.17,0-5.8,0.79-7.72,0.02
				c-2.4-0.95-2.98-2.48-4.35-4.7c-3.12-5.07-11.12-0.42-7.98,4.67c2.34,3.79,3.89,8.1,8.51,9.11c2.8,0.62,6.11,0.16,8.95,0.14
				c1.62,0,9.25-1.04,10.29-0.02c2.17,2.08,2.08,15.08-0.53,16.82c-1.53,1.02-7.45-0.05-9.39,0.02c-3.47,0.14-6.94,0.46-10.38,0.88
				C1497.74,873.69,1497.67,882.94,1503.56,882.25L1503.56,882.25z"/>
		</g>
	</g>
	<g>
		<g>
			<path class="st1" d="M1502.78,845.86c5.02-6.48,12.07-13.55,14.78-21.37c2.59-7.52-1.8-13.88-7.45-18.44
				c-5.02-4.05-11.26-7.73-17.64-4.56c-2.82,1.39-4.81,4.02-6.71,6.45c-1.66,2.15-4.67,8.67-6.96,9.78c1.55,0,3.12,0,4.67,0
				c-3.56-1.69-6.57-3.54-10.38-4.56c-5.76-1.53-8.21,7.4-2.45,8.93c4.07,1.09,7.96,5.11,12.3,3.86c3.84-1.11,5.34-5.55,7.33-8.54
				c1.2-1.78,3.42-5.97,5.43-6.96c3.24-1.6,8.42,1.71,10.41,4.23c6.34,8-5.41,18.85-9.85,24.61
				C1492.63,843.96,1499.12,850.58,1502.78,845.86L1502.78,845.86z"/>
		</g>
	</g>
	<g>
		<g>
			<path class="st1" d="M1475.6,817.41c0.53-7.43-1.13-16.33-2.94-23.5c-1.69-6.75-8.09-7.4-14.25-7.59
				c-5.67-0.16-15.05-0.02-17.25,6.45c-1.13,3.31-0.99,7.33-1.32,10.76c-0.46,4.72-0.83,9.46-1.11,14.2c-0.37,5.94,8.88,5.92,9.25,0
				c0.3-4.74,0.65-9.46,1.11-14.2c0.21-2.15-0.25-6.04,1.83-7.36c1.67-1.04,5.57-0.67,7.49-0.6c1.48,0.05,4.79,0.12,5.32,0.79
				c0.95,1.18,0.86,5.2,1.11,6.75c0.76,4.74,1.85,9.46,1.5,14.3C1465.92,823.35,1475.17,823.33,1475.6,817.41L1475.6,817.41z"/>
		</g>
	</g>
	<g>
		<g>
			<path class="st1" d="M1441.66,814.84c-1.11,0.39-4.09,1.99-5.39,1.92c-1.04-0.07-1.53-0.97-2.94-2.64
				c-2.82-3.33-7.15-6.43-10.71-8.97c-5.67-4.02-11.45-4.26-16.44,0.88c-4.19,4.3-10.78,11.68-9.87,18.23
				c1.06,7.75,11.1,12.86,15.36,18.81c3.42,4.81,11.45,0.18,7.98-4.67c-3.31-4.63-7.84-7.84-11.35-12.17
				c-2.78-3.42-2.52-4.46,0.02-7.91c0.86-1.13,1.73-2.29,2.59-3.42c3.82-2.89,6.94-2.82,9.37,0.16c4.6,2.52,7.68,8.79,12.58,10.69
				c3.82,1.48,7.63-0.72,11.26-2.01C1449.68,821.8,1447.28,812.85,1441.66,814.84L1441.66,814.84z"/>
		</g>
	</g>
	<g>
		<g>
			<path class="st1" d="M1413.79,838.71c-1.27,1.41-2.47,2.78-3.35,4.46c-0.46,1.04-0.88,2.1-1.25,3.17
				c1.57-0.18,1.53-0.28-0.18-0.25c-4.65,1.09-10.92-0.02-15.79,0.58c-8.51,1.04-10.57,3.84-11.03,12.21
				c-0.39,7.36-1.32,16.31,5.3,21.4c6.82,5.23,18.34,3.1,26.06,1.8c5.85-0.97,3.38-9.9-2.45-8.93c-5.83,0.97-19.29,3.33-19.98-5.64
				c-0.21-2.8,0.76-5.9,0.3-8.63c0.76-1.53,0.46-2.38-0.9-2.54c1.76-0.32,3.54-0.56,5.32-0.69c5.18-0.51,11.77,0.99,16.67-0.42
				c5.13-1.48,4.65-6.43,7.82-9.97C1424.31,840.84,1417.79,834.27,1413.79,838.71L1413.79,838.71z"/>
		</g>
	</g>
	<g>
		<g>
			<path class="st1" d="M1387.98,859.28c5.94,0,5.97-9.25,0-9.25C1382.04,850.03,1382.04,859.28,1387.98,859.28L1387.98,859.28z"/>
		</g>
	</g>
	<path class="st5" d="M441.63,302.41"/>
	<g>
		<g>
			<path class="st1" d="M442.84,306.95c8.05,3.56,14.82,9.16,22.76,12.84c4.02,1.87,7.56-4.12,3.49-5.99
				c-7.93-3.68-14.71-9.3-22.76-12.84C442.3,299.15,438.77,305.14,442.84,306.95L442.84,306.95z"/>
		</g>
	</g>
	<g>
		<g>
			<path class="st1" d="M441.33,306.74c9.9,5.9,19.77,11.82,29.65,17.76c5.11,3.08,9.76-4.9,4.67-7.98
				c-9.87-5.94-19.75-11.87-29.65-17.76C440.87,295.71,436.2,303.69,441.33,306.74L441.33,306.74z"/>
		</g>
	</g>
	<g>
		<g>
			<path class="st1" d="M475.91,324.48c10.43-4.65,20.21-11.29,29.9-17.28c5.06-3.12,0.42-11.13-4.67-7.98
				c-9.69,5.99-19.49,12.63-29.9,17.28C465.8,318.93,470.52,326.89,475.91,324.48L475.91,324.48z"/>
		</g>
	</g>
	<g>
		<g>
			<path class="st1" d="M468.27,320.29c0.58,11.54,0.81,23.09,0.69,34.65c-0.07,5.94,9.18,5.97,9.25,0
				c0.12-11.57-0.12-23.11-0.69-34.65C477.22,314.35,467.97,314.33,468.27,320.29L468.27,320.29z"/>
		</g>
	</g>
	<g>
		<g>
			<path class="st1" d="M437.68,303.34c1.25,11.84,0.6,24.06,0.3,35.95c-0.14,5.94,9.11,5.94,9.25,0c0.3-11.89,0.95-24.1-0.3-35.95
				C446.31,297.46,437.06,297.39,437.68,303.34L437.68,303.34z"/>
		</g>
	</g>
	<g>
		<g>
			<path class="st1" d="M440.78,342.82c9.87,6.5,19.56,13.93,30.87,17.7c5.67,1.9,8.09-7.06,2.45-8.93
				c-10.41-3.47-19.59-10.78-28.68-16.75C440.45,331.56,435.81,339.56,440.78,342.82L440.78,342.82z"/>
		</g>
	</g>
	<g>
		<g>
			<path class="st1" d="M475.67,360.29c10.57-6.52,21.39-12.61,32.44-18.23c5.3-2.71,0.62-10.69-4.67-7.98
				c-11.08,5.64-21.88,11.7-32.44,18.23C465.94,355.43,470.59,363.43,475.67,360.29L475.67,360.29z"/>
		</g>
	</g>
	<g>
		<g>
			<path class="st1" d="M506.04,342.43c5.94,0,5.97-9.25,0-9.25C500.09,333.18,500.07,342.43,506.04,342.43L506.04,342.43z"/>
		</g>
	</g>
	<g>
		<g>
			<path class="st1" d="M500.02,303.13c0.14,11.57,0.37,23.09,1.64,34.58c0.65,5.85,9.92,5.92,9.25,0
				c-1.3-11.5-1.5-23.04-1.64-34.58C509.21,297.19,499.96,297.16,500.02,303.13L500.02,303.13z"/>
		</g>
	</g>
	<g>
		<g>
			<path class="st1" d="M444.06,306.44c11.17-4.23,20.67-12.19,31.17-17.74c5.27-2.78,0.6-10.78-4.67-7.98
				c-9.71,5.14-18.66,12.91-28.95,16.82C436.11,299.61,438.49,308.57,444.06,306.44L444.06,306.44z"/>
		</g>
	</g>
	<g>
		<g>
			<path class="st1" d="M472.44,289.53c5,1.97,9.41,5.34,14.22,7.7c4.09,2.01,11.05,4.07,13.85,7.86c3.49,4.74,11.54,0.12,7.98-4.67
				c-3.72-5.02-9.87-7.66-15.36-10.29c-6.2-2.98-11.86-6.99-18.27-9.51C469.34,278.43,466.93,287.38,472.44,289.53L472.44,289.53z"
				/>
		</g>
	</g>
	<polyline class="st3" points="593.1,689.86 593.1,733.58 593.1,858.72 	"/>
	<line class="st3" x1="376.88" y1="734.97" x2="591.95" y2="734.97"/>
	<line class="st3" x1="377.44" y1="924.65" x2="377.44" y2="741.91"/>
	<line class="st3" x1="386.13" y1="924.65" x2="610.45" y2="924.65"/>
	<line class="st3" x1="638.2" y1="721.09" x2="638.2" y2="894.58"/>
	<g>
		<g>
			<path class="st1" d="M377.32,739.69c5.94,0,5.97-9.25,0-9.25C371.38,730.44,371.36,739.69,377.32,739.69L377.32,739.69z"/>
		</g>
	</g>
	<g>
		<g>
			<path class="st1" d="M377.18,741.61c5.94,0,5.97-9.25,0-9.25S371.22,741.61,377.18,741.61L377.18,741.61z"/>
		</g>
	</g>
	<g>
		<g>
			<path class="st1" d="M376.88,740.13c5.94,0,5.97-9.25,0-9.25C370.94,730.88,370.92,740.13,376.88,740.13L376.88,740.13z"/>
		</g>
	</g>
	<g>
		<g>
			<path class="st1" d="M376.74,745.45c5.94,0,5.97-9.25,0-9.25S370.78,745.45,376.74,745.45L376.74,745.45z"/>
		</g>
	</g>
	<g>
		<g>
			<path class="st1" d="M376.74,745.45c5.94,0,5.97-9.25,0-9.25S370.78,745.45,376.74,745.45L376.74,745.45z"/>
		</g>
	</g>
	<g>
		<g>
			<path class="st1" d="M372.12,739.94c0,0.25,0,0.49,0,0.74c0,2.43,2.13,4.74,4.63,4.63c2.5-0.12,4.63-2.04,4.63-4.63
				c0-0.25,0-0.49,0-0.74c0-2.43-2.13-4.74-4.63-4.63C374.22,735.43,372.12,737.35,372.12,739.94L372.12,739.94z"/>
		</g>
	</g>
	<g>
		<g>
			<path class="st1" d="M372.26,740.68c0,0.69,0,1.39,0,2.06c0,2.43,2.13,4.74,4.63,4.63c2.5-0.12,4.63-2.04,4.63-4.63
				c0-0.69,0-1.39,0-2.06c0-2.43-2.13-4.74-4.63-4.63C374.39,736.17,372.26,738.09,372.26,740.68L372.26,740.68z"/>
		</g>
	</g>
	<g>
		<g>
			<path class="st1" d="M376.74,744.71c5.94,0,5.97-9.25,0-9.25S370.78,744.71,376.74,744.71L376.74,744.71z"/>
		</g>
	</g>
	<g>
		<g>
			<path class="st1" d="M376.44,742.05c5.94,0,5.97-9.25,0-9.25S370.48,742.05,376.44,742.05L376.44,742.05z"/>
		</g>
	</g>
	<g>
		<g>
			<path class="st1" d="M376.58,740.73c5.94,0,5.97-9.25,0-9.25C370.64,731.48,370.62,740.73,376.58,740.73L376.58,740.73z"/>
		</g>
	</g>
	<g>
		<g>
			<path class="st1" d="M376.74,740.43c5.94,0,5.97-9.25,0-9.25S370.78,740.43,376.74,740.43L376.74,740.43z"/>
		</g>
	</g>
	<g>
		<g>
			<path class="st1" d="M376.74,743.83c5.94,0,5.97-9.25,0-9.25S370.78,743.83,376.74,743.83L376.74,743.83z"/>
		</g>
	</g>
	<g>
		<g>
			<path class="st1" d="M377.32,930.15c5.94,0,5.97-9.25,0-9.25C371.38,920.9,371.36,930.15,377.32,930.15L377.32,930.15z"/>
		</g>
	</g>
	<g>
		<g>
			<path class="st1" d="M387.06,920c-2.66,0.09-5.32,0.21-7.98,0.3c-2.5,0.09-4.63,2.06-4.63,4.63c0,2.43,2.13,4.72,4.63,4.63
				c2.66-0.09,5.32-0.21,7.98-0.3c2.5-0.09,4.63-2.06,4.63-4.63C391.68,922.19,389.58,919.9,387.06,920L387.06,920z"/>
		</g>
	</g>
	<g>
		<g>
			<path class="st1" d="M378.66,929.57c5.94,0,5.97-9.25,0-9.25S372.7,929.57,378.66,929.57L378.66,929.57z"/>
		</g>
	</g>
	<g>
		<g>
			<path class="st1" d="M378.94,929.87c5.94,0,5.97-9.25,0-9.25C373,920.62,373,929.87,378.94,929.87L378.94,929.87z"/>
		</g>
	</g>
	<g>
		<g>
			<path class="st1" d="M378.94,929.87c0.05,0,0.09,0,0.14,0c2.43,0,4.74-2.13,4.63-4.63c-0.12-2.5-2.04-4.63-4.63-4.63
				c-0.05,0-0.09,0-0.14,0c-2.43,0-4.74,2.13-4.63,4.63C374.43,927.75,376.35,929.87,378.94,929.87L378.94,929.87z"/>
		</g>
	</g>
	<g>
		<g>
			<path class="st1" d="M381.9,929.27c0.09,0,0.21,0,0.3,0c2.43,0,4.74-2.13,4.63-4.63c-0.12-2.5-2.04-4.63-4.63-4.63
				c-0.09,0-0.21,0-0.3,0c-2.43,0-4.74,2.13-4.63,4.63C377.39,927.14,379.31,929.27,381.9,929.27L381.9,929.27z"/>
		</g>
	</g>
	<g>
		<g>
			<path class="st1" d="M592.85,864.51c17.44-0.3,31.7,3.52,38.25,21.26c7.17,19.43-6.15,35.25-26.15,33.93
				c-5.94-0.39-5.92,8.86,0,9.25c21.69,1.43,41.74-15.71,37.14-38.44c-2.17-10.76-7.93-21.95-17.02-28.38
				c-9.53-6.73-20.93-7.03-32.21-6.85C586.91,855.37,586.88,864.62,592.85,864.51L592.85,864.51z"/>
		</g>
	</g>
	<g>
		<g>
			<path class="st1" d="M592.85,693.5c8.79,0.05,18.45-0.97,26.29,3.72c8.93,5.34,15.45,15.73,14.73,26.18
				c-0.39,5.94,8.86,5.92,9.25,0c0.83-12.4-5.97-24.08-15.61-31.6c-10.31-8.05-22.25-7.52-34.69-7.56
				C586.88,684.22,586.88,693.47,592.85,693.5L592.85,693.5z"/>
		</g>
	</g>
	<g>
		<g>
			<path class="st1" d="M633.83,719.56c0,0.39,0,0.79,0,1.18c0,2.43,2.13,4.74,4.63,4.63c2.5-0.12,4.63-2.04,4.63-4.63
				c0-0.39,0-0.79,0-1.18c0-2.43-2.13-4.74-4.63-4.63C635.93,715.05,633.83,716.97,633.83,719.56L633.83,719.56z"/>
		</g>
	</g>
	<g>
		<g>
			<path class="st1" d="M633.67,720.74c0,0.05,0,0.09,0,0.14c0,2.43,2.13,4.74,4.63,4.63c2.5-0.12,4.63-2.04,4.63-4.63
				c0-0.05,0-0.09,0-0.14c0-2.43-2.13-4.74-4.63-4.63C635.79,716.23,633.67,718.15,633.67,720.74L633.67,720.74z"/>
		</g>
	</g>
	<g>
		<g>
			<path class="st1" d="M642.92,720.74c0-0.74,0-1.48,0-2.22c0-2.43-2.13-4.74-4.63-4.63c-2.5,0.12-4.63,2.04-4.63,4.63
				c0,0.74,0,1.48,0,2.22c0,2.43,2.13,4.74,4.63,4.63C640.81,725.25,642.92,723.33,642.92,720.74L642.92,720.74z"/>
		</g>
	</g>
	<g>
		<g>
			<path class="st1" d="M633.69,717.34c-0.07,1.23-0.02,2.45,0.12,3.7c0.28,2.41,1.92,4.74,4.63,4.63c2.27-0.09,4.93-2.06,4.63-4.63
				c-0.14-1.23-0.18-2.45-0.12-3.7c0.12-2.43-2.22-4.74-4.63-4.63C635.7,712.83,633.8,714.75,633.69,717.34L633.69,717.34z"/>
		</g>
	</g>
	<g>
		<g>
			<path class="st1" d="M633.83,717.81c-0.05,0.49-0.12,0.99-0.16,1.48c-0.25,2.41,2.31,4.72,4.63,4.63
				c2.73-0.12,4.35-2.04,4.63-4.63c0.05-0.49,0.12-0.99,0.16-1.48c0.28-2.41-2.31-4.72-4.63-4.63
				C635.72,713.3,634.13,715.22,633.83,717.81L633.83,717.81z"/>
		</g>
	</g>
	<path class="st3" d="M1411.76,479.37h13.85c2.54,0,4.63,2.08,4.63,4.63v161.92c0,2.54-2.08,4.63-4.63,4.63h-122.56
		c-2.54,0-4.63-2.08-4.63-4.63V483.99c0-2.54,2.08-4.63,4.63-4.63h11.89"/>
	<path class="st3" d="M1410.58,464.33h34.69c3.82,0,6.94,3.12,6.94,6.94v191.99c0,3.82-3.12,6.94-6.94,6.94h-161.88
		c-3.82,0-6.94-3.12-6.94-6.94V471.27c0-3.82,3.12-6.94,6.94-6.94h33.3"/>
	<g>
		<g>
			<path class="st1" d="M1320.76,484.16c1.23-5.11-0.99-11.1,1.18-15.82c2.5-5.46,8.63-5.74,13.85-5.48c5.94,0.3,5.94-8.95,0-9.25
				c-7.24-0.37-14.68,0.83-19.59,6.68c-2.01,2.41-3.42,5.23-3.98,8.33c-0.81,4.37,0.67,8.77-0.37,13.07
				C1310.45,487.46,1319.37,489.94,1320.76,484.16L1320.76,484.16z"/>
		</g>
	</g>
	<line class="st3" x1="1316.55" y1="483.39" x2="1411.27" y2="483.39"/>
	<g>
		<g>
			<path class="st1" d="M1412.17,487.93c1.23-0.39,2.34-1.04,2.98-2.22c0.69-1.25,0.55-2.61,0.35-3.96
				c-0.32-1.85-2.59-2.89-4.28-2.43c-1.97,0.53-2.73,2.41-2.43,4.28c-0.44-0.88,0.07-1.67,1.53-2.36c-1.78,0.58-2.94,2.41-2.43,4.28
				C1408.38,487.26,1410.37,488.51,1412.17,487.93L1412.17,487.93z"/>
		</g>
	</g>
	<g>
		<g>
			<path class="st1" d="M1317.64,481.24c0.25,0.25,0.51,0.49,0.76,0.72c-0.12-0.21-0.21-0.39-0.3-0.6c0.16,0.58,0.32,1.16,0.46,1.76
				c-0.02-0.12-0.02-0.25-0.05-0.37c-0.23-1.8-1.43-3.56-3.47-3.47c-1.69,0.07-3.72,1.55-3.47,3.47c0.3,2.34,1.62,4.81,4.19,5.2
				c1.78,0.28,3.82-0.46,4.28-2.43C1320.46,483.83,1319.56,481.54,1317.64,481.24L1317.64,481.24z"/>
		</g>
	</g>
	<line class="st3" x1="1335.42" y1="458.55" x2="1397.86" y2="458.55"/>
	<g>
		<g>
			<path class="st1" d="M1396.1,462.92c1.99,0.35,4.6,0.49,6.43,1.34c2.06,0.99,3.12,3.22,3.86,5.27c1.48,4.09,0.67,8.49,1.5,12.7
				c1.13,5.83,10.06,3.38,8.93-2.45c-0.6-3.08-0.09-6.25-0.65-9.35c-0.53-2.89-1.57-5.69-3.05-8.23c-3.42-5.85-8.16-7.08-14.57-8.21
				C1392.72,452.95,1390.23,461.88,1396.1,462.92L1396.1,462.92z"/>
		</g>
	</g>
	<g>
		<g>
			<path class="st1" d="M1336.3,456.24c-4.16,0-8.3,0-12.46,0c-4.46,0-4.46,6.94,0,6.94c4.16,0,8.3,0,12.46,0
				C1340.76,463.18,1340.76,456.24,1336.3,456.24L1336.3,456.24z"/>
		</g>
	</g>
	<g>
		<g>
			<path class="st1" d="M1334.08,460.47c5.67,0.14,11.33,0.28,17,0.42c-0.3-2.27-0.62-4.53-0.92-6.82
				c-0.56,0.12-1.11,0.23-1.67,0.35c-4.37,0.9-2.52,7.59,1.85,6.68c0.55-0.12,1.11-0.23,1.67-0.35c3.93-0.81,2.89-6.73-0.93-6.82
				c-5.67-0.14-11.33-0.28-17-0.42C1329.62,453.44,1329.62,460.38,1334.08,460.47L1334.08,460.47z"/>
		</g>
	</g>
	<g>
		<g>
			<path class="st1" d="M1340.51,456.95c2.31-10.76,13.55-11.2,22.62-11.26c10.82-0.09,20.51-2.13,23.75,12.03
				c1.32,5.81,10.24,3.35,8.93-2.45c-4.12-18.02-16.53-18.94-32.68-18.83c-14.27,0.12-28,1.6-31.54,18.07
				C1330.33,460.28,1339.26,462.78,1340.51,456.95L1340.51,456.95z"/>
		</g>
	</g>
	<g>
		<path class="st3" d="M1573.03,474.74c0,16.82-12.37,30.74-28.51,33.17c-1.64,0.25-3.31,0.37-5.02,0.37
			c-18.52,0-33.53-15.01-33.53-33.54c0-18.53,15.01-33.54,33.53-33.54C1558.02,441.2,1573.03,456.21,1573.03,474.74z"/>
	</g>
	<g>
		<path class="st4" d="M1551.06,473.59c0,5.81-4.28,10.59-9.83,11.43c-0.56,0.09-1.13,0.14-1.73,0.14
			c-6.38,0-11.56-5.18-11.56-11.57s5.18-11.57,11.56-11.57S1551.06,467.2,1551.06,473.59z"/>
	</g>
	<g>
		<path class="st3" d="M1585.75,584.62c0,5.81-4.28,10.59-9.83,11.43c-0.56,0.09-1.13,0.14-1.73,0.14
			c-6.38,0-11.56-5.18-11.56-11.57s5.18-11.57,11.56-11.57C1580.57,573.05,1585.75,578.23,1585.75,584.62z"/>
	</g>
	<g>
		<path class="st3" d="M1585.75,621.63c0,5.81-4.28,10.59-9.83,11.43c-0.56,0.09-1.13,0.14-1.73,0.14
			c-6.38,0-11.56-5.18-11.56-11.57s5.18-11.57,11.56-11.57C1580.57,610.06,1585.75,615.24,1585.75,621.63z"/>
	</g>
	<g>
		<path class="st3" d="M1585.75,658.64c0,5.81-4.28,10.59-9.83,11.43c-0.56,0.09-1.13,0.14-1.73,0.14
			c-6.38,0-11.56-5.18-11.56-11.57s5.18-11.57,11.56-11.57C1580.57,647.07,1585.75,652.25,1585.75,658.64z"/>
	</g>
	<path class="st5" d="M1389.76,364.87v-64.44c0-2.73,1.94-4.95,4.3-4.95h21.48c2.36,0,4.3,2.22,4.3,4.95v64.44"/>
	<path class="st5" d="M1436.01,364.87v-83.76c0-3.54,1.94-6.45,4.3-6.45h21.48c2.36,0,4.3,2.89,4.3,6.45v83.76"/>
	<path class="st5" d="M1484.58,364.87v-103.1c0-4.37,1.94-7.93,4.3-7.93h21.48c2.36,0,4.3,3.56,4.3,7.93v103.1"/>
	<path class="st5" d="M1086.83,43.34"/>
	<g>
		<g>
			<path class="st1" d="M1088.03,47.88c8.05,3.56,14.82,9.16,22.76,12.84c4.02,1.87,7.56-4.12,3.49-5.99
				c-7.93-3.68-14.71-9.3-22.76-12.84C1087.5,40.08,1083.96,46.07,1088.03,47.88L1088.03,47.88z"/>
		</g>
	</g>
	<g>
		<g>
			<path class="st1" d="M1086.52,47.67c9.9,5.9,19.77,11.82,29.65,17.76c5.11,3.08,9.76-4.9,4.67-7.98
				c-9.87-5.94-19.75-11.87-29.65-17.76C1086.06,36.63,1081.39,44.61,1086.52,47.67L1086.52,47.67z"/>
		</g>
	</g>
	<g>
		<g>
			<path class="st1" d="M1121.1,65.41c10.43-4.65,20.21-11.29,29.9-17.28c5.06-3.12,0.42-11.13-4.67-7.98
				c-9.69,5.99-19.49,12.63-29.9,17.28C1110.99,59.86,1115.71,67.82,1121.1,65.41L1121.1,65.41z"/>
		</g>
	</g>
	<g>
		<g>
			<path class="st1" d="M1113.47,61.22c0.58,11.54,0.81,23.09,0.69,34.65c-0.07,5.94,9.18,5.97,9.25,0
				c0.12-11.57-0.12-23.11-0.69-34.65C1122.41,55.28,1113.16,55.25,1113.47,61.22L1113.47,61.22z"/>
		</g>
	</g>
	<g>
		<g>
			<path class="st1" d="M1082.87,44.27c1.25,11.84,0.6,24.06,0.3,35.95c-0.14,5.94,9.11,5.94,9.25,0c0.3-11.89,0.95-24.1-0.3-35.95
				C1091.5,38.39,1082.25,38.32,1082.87,44.27L1082.87,44.27z"/>
		</g>
	</g>
	<g>
		<g>
			<path class="st1" d="M1085.97,83.75c9.87,6.5,19.56,13.93,30.87,17.7c5.67,1.9,8.09-7.06,2.45-8.93
				c-10.41-3.47-19.59-10.78-28.68-16.75C1085.65,72.49,1081,80.49,1085.97,83.75L1085.97,83.75z"/>
		</g>
	</g>
	<g>
		<g>
			<path class="st1" d="M1120.87,101.22c10.57-6.52,21.39-12.61,32.44-18.23c5.3-2.71,0.62-10.69-4.67-7.98
				c-11.08,5.64-21.88,11.7-32.44,18.23C1111.13,96.36,1115.78,104.36,1120.87,101.22L1120.87,101.22z"/>
		</g>
	</g>
	<g>
		<g>
			<path class="st1" d="M1151.23,83.36c5.94,0,5.97-9.25,0-9.25C1145.29,74.11,1145.26,83.36,1151.23,83.36L1151.23,83.36z"/>
		</g>
	</g>
	<g>
		<g>
			<path class="st1" d="M1145.22,44.06c0.14,11.57,0.37,23.09,1.64,34.58c0.65,5.85,9.92,5.92,9.25,0
				c-1.3-11.5-1.5-23.04-1.64-34.58C1154.4,38.11,1145.15,38.09,1145.22,44.06L1145.22,44.06z"/>
		</g>
	</g>
	<g>
		<g>
			<path class="st1" d="M1089.25,47.37c11.17-4.23,20.67-12.19,31.17-17.74c5.27-2.78,0.6-10.78-4.67-7.98
				c-9.71,5.14-18.66,12.91-28.95,16.82C1081.3,40.54,1083.68,49.5,1089.25,47.37L1089.25,47.37z"/>
		</g>
	</g>
	<g>
		<g>
			<path class="st1" d="M1117.63,30.46c4.99,1.97,9.41,5.34,14.22,7.7c4.09,2.01,11.05,4.07,13.85,7.86
				c3.49,4.74,11.54,0.12,7.98-4.67c-3.72-5.02-9.87-7.66-15.36-10.29c-6.2-2.98-11.86-6.99-18.27-9.51
				C1114.53,19.35,1112.12,28.31,1117.63,30.46L1117.63,30.46z"/>
		</g>
	</g>
	<path class="st5" d="M1195.07,397.25h-34.25c-3.82,0-6.94-3.12-6.94-6.94v-87.9c0-3.82,3.12-6.94,6.94-6.94h117.94
		c3.82,0,6.94,3.12,6.94,6.94v87.9c0,3.82-3.12,6.94-6.94,6.94h-47.08"/>
	<path class="st5" d="M1288.36,279.28h-30.41c-3.82,0-6.94-3.12-6.94-6.94v-53.2c0-3.82,3.12-6.94,6.94-6.94h76.31
		c3.82,0,6.94,3.12,6.94,6.94v53.2c0,3.82-3.12,6.94-6.94,6.94h-21.69"/>
	<g>
		<g>
			<path class="st1" d="M1284.75,283.21c4.79,4.02,8.81,8.84,13.6,12.86c4.32,3.63,7.28,8.42,11.96,11.68
				c4.88,3.42,9.5-4.58,4.67-7.98c-4.23-2.98-7.12-7.75-11.12-11.1c-4.44-3.75-8.12-8.28-12.56-12.01
				C1286.77,272.87,1280.17,279.37,1284.75,283.21L1284.75,283.21z"/>
		</g>
	</g>
	<g>
		<g>
			<path class="st1" d="M1308.29,279.28c-0.74,7.98-0.88,15.94-0.37,23.94c0.37,5.92,9.62,5.94,9.25,0
				c-0.51-8-0.37-15.96,0.37-23.94C1318.1,273.34,1308.85,273.38,1308.29,279.28L1308.29,279.28z"/>
		</g>
	</g>
</g>
<g>
	<path class="st8" d="M989.12,407.01c5.39,0.28,11.56-0.83,16.42-3.31c1.57-0.79,3.84-1.85,4.93-3.24
		c5.78-7.4-3.56-13.32-9.27-12.61c0,0,0,0,0,0.02c-0.18,0.35-0.62,0.42-0.95,0.25c-0.02-0.02-0.05-0.02-0.07-0.05
		c-0.09,0.02-0.21,0.05-0.3,0.07c-0.35,0.14-0.6-0.02-0.74-0.28c-4.32,0.25-8.56,0.88-12.58,2.68c-2.1,0.95-5.09,2.31-6.43,4.28
		C973.07,405.21,984.57,406.78,989.12,407.01z"/>
	<path class="st8" d="M1098.39,170.22c1.09-1.55,2.24-3.08,3.45-4.53c4.32-5.97,8.23-12.19,11.54-18.81
		c2.08-4.16,5.04-9.16,6.01-13.74c2.66-12.56-6.73-20.84-17.23-15.45c-15.45,7.96-24.84,32.99-30.85,48.18
		c-12.44,31.39-18.41,64.79-27.61,97.17c-5.13,18.04-11.26,35.81-18.41,53.16c-5.9,14.32-11.56,32.78-21.76,44.62
		c-7.12,8.28-16.28,7.86-26.25,6.01c-8.51-1.6-20.65-4.81-27.57,2.59c-5.99,6.38-3.01,25.54-2.36,35.18
		c0.09,0.12,0.21,0.23,0.3,0.35c0.28,0.37,0.09,0.72-0.23,0.9c0,0.14,0.02,0.3,0.02,0.44c0.02,0.9-1.36,0.88-1.39,0
		c-0.02-0.37-0.05-0.81-0.07-1.2c-7.03-8.93-21.78-14.02-21.23-27.18c0.53-12.75,13.85-27.06,23.4-34.3
		c16.19-12.26,34.78-21.86,49.35-36.25c15.96-15.78,16.51-44.5,0.46-60.88c-2.71-2.94-5.99-5-9.8-6.18
		c-4.95,3.89-5.27,7.03-0.95,9.44c1.69,2.57,5.41,4.35,7.56,6.52c3.17,3.19,5.71,6.52,6.06,11.2c1.06,13.58-16.16,25.56-24.98,33.1
		c-13.83,11.84-29.65,20.98-43.87,32.31c-7.54,6.01-14.66,12.68-20.35,20.52c-5.23,7.19-16.14,24.03-10.34,33.19
		c0.09,0.14,0.09,0.25,0.09,0.39c0.02,0.02,0.07,0.02,0.09,0.05c0.81,0.35,0.46,1.69-0.37,1.34c-4.6-1.92-9.34-3.77-13.41-6.71
		c-3.82-2.75-6.38-6.68-10.11-9.51c-6.27-6.92-10.36-1.64-12.28,15.82c1.48,1.25,2.98,2.48,4.46,3.72c2.87,1.87,6.31,3.35,9.55,4.37
		c6.78,2.08,13.92,2.59,20.95,2.57c8.33-0.02,15.73-0.39,22.52,5.18c3.05,2.5,5.46,5.74,7.4,9.14c0.28,0.49,1.53,4.21,2.31,6.82
		c0.23,0.05,0.42,0.23,0.49,0.44c0.25,0.28,0.23,0.76-0.09,1.02c0,0.02,0.02,0.05,0.02,0.07c0.18-0.28,0.51-0.44,0.86-0.19
		c0.21,0.16,0.42,0.3,0.62,0.46c0.35,0.25,0.42,0.58,0.25,0.95c-0.09,0.23-0.21,0.46-0.3,0.72c-0.25,0.6-1.09,0.32-1.27-0.16
		c-0.21-0.58-0.44-1.13-0.67-1.71c-0.09,0-0.14-0.05-0.21-0.09c-0.09,0.05-0.16,0.14-0.3,0.14c-0.07,0-0.09-0.05-0.16-0.07
		c-9.62,2.41-19.33,4.49-29.11,1.57c-8.7-2.59-17.02-7.73-24.72-12.35c-20.23-12.14-35.75-32.06-61.63-29.01
		c-27.57,3.26-42.43,31.44-48.68,55.75c-6.29,24.36-5,49.69-2.59,74.48c8.21,0.25,12.26-2.24,12.12-7.52
		c0.07-1.23,0.14-2.45,0.21-3.68c0.16-2.89,0.35-5.76,0.56-8.63c0.39-5.04,0.88-10.06,1.48-15.08c1.2-10.09,2.84-20.12,4.88-30.07
		c2.66-12.88,5-30.72,17.46-38.21c21.95-13.21,51.64,14.23,60.63,32.31c7.08,14.23,7.15,31.09,7.08,46.63
		c-0.07,14.09-2.64,26.21-11.35,37.54c-8.26,10.73-18.82,21.3-31.47,26.72c-14.01,5.97-19.01-8.65-31.36-13.81
		c-16.81-7.01-50.51-13.12-64.43,1.53c-14.48,15.24-12,39.18-12.05,58.8c0.07,0.12,0.14,0.23,0.12,0.39
		c-0.53,11.68-1.62,23.87-0.76,35.55c-0.88,7.22,2.87,8.67,11.22,4.35c0.67-3.7,0.97-7.4,0.9-11.15c0.05-5.32-0.58-10.64-0.79-15.96
		c-0.67-16.98,2.71-34.19,12.51-48.39c8.02-11.66,18.57-11.06,30.92-6.13c15.68,6.27,22.64,19.96,27.87,35.25
		c10.45,30.6,6.45,67.96-20.86,88.62c-3.79,2.87-9.64,7.59-14.73,7.47c-1.69-0.05-5.34-2.17-6.54-2.68
		c-10.2-4.33-19.66-8.07-29.37,0.37c-18.29,15.87-19.68,46.19-10.75,66.92c0.16,0.35,0,0.69-0.23,0.88
		c2.43,5.48,4.93,10.96,7.59,16.33c0.88,1.76,1.76,3.52,2.66,5.27c2.96,7.15,7.86,3.54,14.73-10.85c-0.39-1.99-2.8-5.11-3.86-7.08
		c-4.97-9.07-10.2-18.41-11.72-28.8c-1.92-13,7.89-26.12,22.69-21.7c6.61,1.97,10.66,8.97,14.38,14.27
		c6.43,9.18,12.35,18.83,17.39,28.87c6.06,12.1,9.57,26.58-2.2,36.36c-8.46,7.03-18.96,11.8-27.75,18.57
		c-9.83,7.59-27.1,19.45-27.77,33.08c-0.58,11.36,8.02,31.5,16.19,39.6c4.65,4.63,16.7,6.85,17.46-1.53
		c0.32-3.52-2.94-7.52-4.49-10.85c-2.54-5.51-6.29-10.71-8.58-16.31c-5.6-13.74,10.87-24.8,20.35-32.22
		c16.97-13.23,46.67-26.07,53.74-47.86c4.86-14.92-6.5-32.43-12.21-45.75c-2.64-6.13-6.8-10.48-3.24-16.19
		c4.28-6.87,13.64-12.56,19.36-18.37c8.42-8.58,15.26-17.83,18.75-29.42c0-0.02,0-0.02,0-0.05c7.84-23.89,10.06-48.55,6.57-73.47
		c-0.05-0.32,0.02-0.58,0.32-0.79c27.06-18.46,51.68-41.03,64.47-71.82c4.53-12.07,6.08-23.99,5.94-36.85
		c-0.09-8.14-0.49-16.31,2.52-24.03c1.87-4.86,9.5-17.65,15.77-11.94c0.16,0.16,0.25,0.46,0.18,0.67c-0.23,0.65-1.39,1.94-1.55,2.41
		c-3.1,2.96-5.25,6.5-6.45,10.62c-0.67,2.1-1.23,4.26-1.64,6.43c-2.5,11.66-2.2,22.46-0.86,34.16c2.29,20.08-2.34,33.59-14.18,49.85
		c-5.71,7.84-11.68,15.5-17.69,23.09c-2.54,3.15-5.09,6.34-7.59,9.53c4.93,6.15,8.76,6.66,11.54,1.53
		c4.56-3.12,9.46-11.57,12.6-15.73c13.11-17.16,25.41-35.07,36.33-53.71c5.71-9.76,11.03-19.96,13.69-31.02
		c2.98-12.42-0.69-20.59-2.31-32.41c-1.32-9.65,4.39-19.01,15.24-15.73c11.47,3.47,13.99,16.96,12.7,27.16
		c-2.52,19.99-11.24,40.5-18.41,59.19c0,0.12,0,0.25-0.09,0.39c-0.97,1.55-1.2,3.33-1.87,5c-0.3,0.72-0.67,1.41-1.06,2.08
		c0.02,0.14,0.02,0.28-0.05,0.42c-17.23,40.53-42,76.66-65.86,113.44c-11.22,17.28-22.36,33.63-36.51,48.67
		c-7.17,7.61-14.68,14.9-22.13,22.23c-5.43,5.37-10.18,8.51-8.88,18.41c0.62,4.79,3.72,9.88,4.74,14.76
		c7.54,36.5-15.19,70.04-33.16,99.63c-22.32,36.71-50.2,70.85-54.39,115.15c0.18,0.09,0.32,0.28,0.3,0.58
		c-1.39,14.83-1.6,29.65-0.99,44.53c0.3,7.45,0.76,14.87,1.29,22.3c0.35,4.81-1.53,8.81,4.37,9.23c5.55,0.42,4.97-2.94,6.91-7.91
		c0.25-0.67,1.06-0.65,1.34,0c3.89,9.39,7.7,18.81,11.66,28.15c6.08,14.3,14.06,23.52,30.43,24.8c20.07,1.57,39.66-6.73,55.71-18.23
		c5.71-4.09,16.93-16.15,25.37-10.92c3.7,2.29,4.09,6.64,4.05,10.55c-0.05,3.19-1.09,6.41-1.04,9.55
		c0.23,13.88,16.33,0.53,19.86-4.49c0.25-0.35,0.65-0.37,0.95-0.21c10.57-15.73,21.25-31.48,33.97-45.57
		c13.83-15.31,30.18-26.69,47.31-38c9.99-6.59,20.07-13.05,30.22-19.36c5.09-3.15,10.2-6.27,15.31-9.37
		c2.27-1.34,4.53-2.71,6.78-4.12c0.99-14.39-2.04-18.99-9.04-13.83c-9.99,2.38-21.28,11.17-30.27,16.15
		c-9.07,5.02-18.15,10.09-26.99,15.54c-19.08,11.8-31.87,27.39-43.34,46.4c-5.02,8.3-9.64,16.91-15.1,24.96
		c-2.15,3.15-5.06,8.74-9.5,8.97c-5.32,0.28-6.73-5.09-8.7-9c-5.46-10.94-10.85-21.88-18.62-31.41
		c-17.37-21.3-39.91-26.74-66.35-21.05c-0.88,0.18-1.25-1.16-0.37-1.34c0.49-0.09,0.95-0.18,1.43-0.3
		c4.14-23.18,16.3-42.93,30.76-61.16c17.32-21.88,36.21-42.61,54.44-63.75c10.22-11.87,21.16-23.43,30.43-36.06
		c3.95-5.39,7.38-11.01,10.22-17.05c1.92-4.12,3.42-9.16,7.01-12.24c2.94-2.52,7.77-4.12,11.4-2.06c6.59,3.77,2.66,13.16,2.47,19.11
		l0,0c0.69-0.56,1.69,0.44,0.97,0.97c4.49,6.57,8.76,8,12.86,4.3c1.23-0.83,2.43-1.67,3.65-2.5c3.05-2.08,6.08-4.19,9.13-6.27
		c6.08-4.19,12.19-8.35,18.27-12.54c11.4-7.82,22.73-15.75,34.2-23.46c15.84-10.64,34.92-20.26,53.19-9.55
		c0.35,0.21,0.49,0.81,0.14,1.09c-31.52,25.63-59.52,55.33-82.86,88.64c-10.01,14.3-19.84,29.26-27.1,45.15
		c-3.95,8.65-7.15,17.63-8.9,26.99c0.51-2.78-1.92,9.46-1.3,10.55c5.09,2.87,10.18,5.74,15.26,8.63c0.72-0.95,1.41-1.9,2.13-2.82
		c3.35-3.26,5.39-8.67,7.15-12.88c6.41-15.38,9.07-31.94,16.16-47.1c6.52-13.93,15.22-26.76,24.86-38.72
		c11.98-14.83,25.53-28.29,39.01-41.73c6.41-6.36,13.16-12.56,19.08-19.41c4.58-5.3,8.28-11.2,10.29-17.95
		c2.64-8.84,2.57-11.33-3.17-18.53c-4.93-6.18-5.76-7.19-12.95-7.54c-3.1-0.14-6.47,0.14-9.53,0.67c-4.53,0.76-8.97,2.15-13.27,3.72
		c-9.69,3.59-19.1,8.12-28.28,12.88c-16.14,8.35-38.39,18.41-48.91,33.66c-0.39,0.56-1.16,0.28-1.29-0.21
		c-0.16-0.09-0.32-0.16-0.51-0.25c-0.35-0.16-0.39-0.6-0.25-0.93c-5.09-2.94-6.59-16.82-6.59-20.89
		c-0.05-10.02,3.63-19.48,7.26-28.66c4.79-12.12,9.41-24.26,13.46-36.66c3.19-9.81,5.39-20.03,10.41-29.08
		c17.18-52.28,44.12-101.34,53.56-156l0,0c0.25-3.1,0.67-6.18,1.2-9.23c0-0.07,0.05-0.09,0.07-0.14c8.09-46.22,6.84-96-20.84-135.78
		c-0.25-0.35-0.09-0.69,0.18-0.88c-0.3-0.05-0.55-0.25-0.51-0.65c5.41-44.99,17.23-89.36,36.33-130.53
		c9.57-20.66,23.19-36.62,38.32-53.36c2.13-2.36,4.26-4.72,6.24-7.22c5.39-6.82,4.67-4.72-2.1-14.18
		c-6.94-9.69-6.48-9.67-14.82-3.86c-2.36,1.64-4.49,3.45-6.54,5.41c-8.83,8.42-15.03,18.67-19.12,30.09
		c-0.3,0.83-1.64,0.46-1.34-0.37c2.08-5.83,5.57-13.3,10.15-20.29c0-0.16,0.02-0.32,0.16-0.46
		C1097.44,171.51,1097.9,170.87,1098.39,170.22z M1022.7,400.21c-1.27,11.89-14.06,16.01-24.35,16.26
		c-9.83,0.25-26.06-3.35-26.83-15.64c-0.72-11.75,12.49-16.86,22.27-18.44c0.07-0.07,0.16-0.12,0.25-0.14
		c1.99-0.65,4.02-1.06,6.13-1.27c0.05,0,0.09,0,0.14,0.02C1012.04,377.57,1024.02,387.74,1022.7,400.21z"/>
	<path d="M1126.9,151.06c-6.73-0.14-12.95,2.98-18.45,7.75c-4.35,6.45-8.51,11.77-10.55,14.3c-0.44,0.56-1.13,0.05-1.13-0.51
		c-4.58,6.99-8.07,14.46-10.15,20.29c-0.3,0.83,1.04,1.2,1.34,0.37c4.07-11.43,10.29-21.67,19.12-30.09
		c2.06-1.97,4.19-3.77,6.54-5.41c8.35-5.78,7.89-5.81,14.82,3.86c6.78,9.46,7.49,7.36,2.1,14.18c-1.97,2.5-4.12,4.86-6.24,7.22
		c-15.12,16.75-28.74,32.71-38.32,53.36c-19.08,41.17-30.92,85.52-36.33,130.53c-0.05,0.39,0.21,0.6,0.51,0.65
		c0.16-0.12,0.37-0.16,0.55-0.12c0.16-0.12,0.3-0.28,0.32-0.51c3.93-32.8,11.31-65.07,22.45-96.16c5.71-15.96,12-32.06,20.35-46.86
		c8.39-14.9,20.05-27.25,31.43-39.86c5.48-6.08,13.41-13.42,12.65-22.41C1137.42,155.37,1133.17,151.18,1126.9,151.06z"/>
	<path d="M947.45,406.3c0-0.14-0.02-0.3-0.02-0.44c-0.3,0.16-0.72,0.16-0.97-0.19c-0.14-0.19-0.32-0.37-0.46-0.58
		c0.02,0.39,0.07,0.83,0.07,1.2C946.09,407.18,947.47,407.18,947.45,406.3z"/>
	<path d="M949.72,369.42c6.94-7.4,19.06-4.16,27.57-2.59c9.94,1.85,19.12,2.27,26.25-6.01c10.2-11.87,15.86-30.3,21.76-44.62
		c7.15-17.35,13.27-35.11,18.41-53.16c9.2-32.38,15.17-65.79,27.61-97.17c6.01-15.17,15.4-40.23,30.85-48.18
		c10.5-5.41,19.89,2.89,17.23,15.45c-0.97,4.58-3.93,9.58-6.01,13.74c-3.31,6.62-7.22,12.84-11.54,18.81
		c-1.2,1.46-2.34,2.98-3.45,4.53c-0.49,0.62-0.97,1.3-1.46,1.92c-0.12,0.14-0.16,0.3-0.16,0.46c0,0.58,0.69,1.06,1.13,0.51
		c2.01-2.52,6.17-7.84,10.55-14.3c10.38-15.41,21.9-37.4,8.12-43.83c-22.25-10.41-39.47,33.26-45.09,46.79
		c-12.51,30.02-18.62,62.15-27.06,93.43c-4.99,18.53-10.98,36.78-18.06,54.61c-3.7,9.35-7.68,18.57-11.93,27.67
		c-4.83,10.32-9.71,25.14-21.74,28.13c-13.2,3.26-29.32-7.54-41.81,1.11c-9.85,6.82-6.22,24.54-5.09,36.04
		c0.53,0.6,1.06,1.23,1.55,1.87C946.71,394.96,943.73,375.81,949.72,369.42z"/>
	<path d="M901.34,386.57c-5.8-9.18,5.09-26,10.34-33.19c5.69-7.84,12.81-14.5,20.35-20.52c14.22-11.33,30.04-20.47,43.87-32.31
		c8.81-7.54,26.04-19.55,24.98-33.1c-0.37-4.65-2.89-8-6.06-11.2c-2.15-2.17-5.87-3.96-7.56-6.52c-4.32-2.41-4.02-5.55,0.95-9.44
		c3.82,1.18,7.08,3.24,9.81,6.18c16.05,16.38,15.49,45.11-0.46,60.88c-14.55,14.39-33.16,23.99-49.35,36.25
		c-9.55,7.24-22.87,21.56-23.4,34.3c-0.55,13.18,14.2,18.25,21.23,27.18c0.16,0.19,0.32,0.37,0.46,0.58
		c0.25,0.35,0.67,0.35,0.97,0.19c0.32-0.16,0.49-0.53,0.23-0.9c-0.09-0.12-0.21-0.23-0.3-0.35c-0.51-0.65-1.02-1.27-1.55-1.87
		c-2.75-3.1-5.9-5.62-9.23-8.28c-2.38-1.92-5.04-3.75-6.8-6.34c-5.46-8.05-2.27-16.75,2.41-24.22
		c10.85-17.42,28.31-26.46,44.4-38.26c10.73-7.86,24.14-16.05,30.43-28.27c5.53-10.71,5.11-23.71,1.53-34.95
		c-2.84-8.91-8.3-18.46-17.18-22.46c-2.94-1.32-12.28-3.61-12.19,2.59c0.07,4.09,8.56,9.39,11.15,11.64
		c5.85,5.04,7.38,6.64,7.03,15.17c-0.39,9.55-3.98,13-10.5,19.25c-12.72,12.21-26.59,22.39-41.05,32.45
		c-13,9.07-25.92,18.67-35.34,31.6c-5.48,7.54-15.61,23.73-10.87,33.52c0.6,0.25,1.23,0.51,1.85,0.79
		C901.45,386.84,901.43,386.7,901.34,386.57z"/>
	<path d="M932.6,419.76c-0.79-2.61-2.04-6.34-2.31-6.82c-1.94-3.4-4.35-6.64-7.4-9.14c-6.8-5.57-14.2-5.2-22.52-5.18
		c-7.03,0.02-14.2-0.49-20.95-2.57c-3.26-0.99-6.68-2.5-9.55-4.37c-1.48-1.25-2.98-2.48-4.46-3.72
		c1.92-17.46,6.01-22.74,12.28-15.82c3.72,2.82,6.29,6.75,10.11,9.51c4.07,2.94,8.81,4.79,13.41,6.71c0.83,0.35,1.18-0.99,0.37-1.34
		c-0.02-0.02-0.07-0.02-0.09-0.05c-0.62-0.25-1.23-0.51-1.85-0.79c-5.55-2.36-10.55-4.83-15.03-9.16c-2.06-1.97-3.7-4.42-5.94-6.2
		c-2.68-2.13-5.94-4.33-9.6-3.89c-7.96,0.93-10.73,10.34-8.05,16.86c3.98,9.67,16.28,13.76,25.62,15.31c6.57,1.09,13,0.6,19.59,0.79
		c13.74,0.37,20.95,8.49,25.78,19.99c0.12-0.02,0.23-0.07,0.37-0.09C932.42,419.74,932.51,419.74,932.6,419.76z"/>
	<path d="M932.56,421.33c0.23,0.56,0.44,1.13,0.67,1.71c0.18,0.49,1.02,0.76,1.27,0.16c0.09-0.23,0.21-0.46,0.3-0.72
		c0.16-0.37,0.09-0.69-0.25-0.95c-0.21-0.16-0.42-0.3-0.62-0.46c-0.35-0.25-0.69-0.09-0.86,0.19c0-0.02-0.02-0.05-0.02-0.07
		c-0.12,0.09-0.21,0.16-0.39,0.16C932.58,421.38,932.58,421.35,932.56,421.33z"/>
	<path d="M763.88,513.39c0.02,0.25,0.16,0.44,0.35,0.53c-0.14-0.3-0.25-0.6-0.37-0.9C763.86,513.14,763.86,513.28,763.88,513.39z"/>
	<path d="M764.9,511.75c0.07,0,0.14,0,0.21,0c-2.38-24.8-3.68-50.13,2.59-74.48c6.27-24.31,21.11-52.51,48.68-55.75
		c25.88-3.05,41.39,16.86,61.63,29.01c7.7,4.63,16.05,9.76,24.72,12.35c9.78,2.91,19.49,0.83,29.11-1.57
		c-0.69-0.19-0.67-1.32,0.16-1.32c0.14,0,0.21,0.07,0.3,0.14c0.09-0.05,0.16-0.14,0.3-0.14c0.21,0,0.37,0.09,0.49,0.21
		c-0.09-0.21-0.25-0.39-0.49-0.44c-0.09-0.02-0.18-0.02-0.3,0.02c-0.12,0.02-0.23,0.07-0.37,0.09c-9.53,2.38-19.12,4.56-28.81,1.69
		c-6.64-1.97-13-5.76-19.01-9.11c-11.61-6.5-21.34-14.87-32.05-22.62c-14.55-10.55-33.97-13.53-50.46-5.53
		c-18.25,8.86-28.79,30.26-34.2,48.83c-7.45,25.49-6.22,52.28-3.72,78.44C764.02,511.13,764.76,511.13,764.9,511.75z"/>
	<path d="M932.33,421.24c0.07,0.05,0.14,0.09,0.21,0.09c0.02,0,0.05,0.02,0.07,0.02c0.18,0,0.28-0.09,0.39-0.16
		c0.3-0.25,0.35-0.72,0.09-1.02c-0.12-0.12-0.25-0.21-0.49-0.21c-0.14,0-0.21,0.07-0.3,0.14
		C932.77,420.36,932.77,421.01,932.33,421.24z"/>
	<path d="M932.33,421.24c0.44-0.25,0.44-0.88,0-1.13c-0.09-0.05-0.16-0.14-0.3-0.14c-0.83,0-0.86,1.13-0.16,1.32
		c0.07,0.02,0.09,0.07,0.16,0.07C932.16,421.38,932.23,421.29,932.33,421.24z"/>
	<path d="M718.88,598.26c0.02-19.62-2.43-43.58,12.05-58.8c13.92-14.67,47.61-8.56,64.43-1.53c12.35,5.16,17.34,19.78,31.36,13.81
		c12.65-5.39,23.22-15.98,31.47-26.72c8.72-11.33,11.29-23.46,11.35-37.54c0.07-15.54,0.02-32.41-7.08-46.63
		c-9.02-18.09-38.69-45.5-60.63-32.31c-12.49,7.52-14.8,25.35-17.46,38.21c-2.06,9.95-3.68,19.99-4.88,30.07
		c-0.6,5.02-1.09,10.04-1.48,15.08c-0.23,2.87-0.39,5.76-0.56,8.63c-0.07,1.23-0.14,2.45-0.21,3.68c0.14,5.27-3.91,7.77-12.12,7.52
		c-0.07,0-0.14,0-0.21,0c-0.16-0.62-0.88-0.6-1.2-0.23c-0.12,0.14-0.18,0.35-0.14,0.58c0.07,0.32,0.18,0.62,0.28,0.93
		c0.12,0.32,0.23,0.62,0.37,0.9c2.17,4.58,7.56,5.14,11.33,0.76c2.5-2.87,2.75-6.92,3.05-10.48c0.88-10.57,1.39-21.05,2.78-31.57
		c2.29-17.42,3.82-41.75,14.48-56.32c15.33-20.96,44.17-2.27,56.73,12.47c13.97,16.35,15.36,36.22,15.49,56.83
		c0.16,22.14-8.02,38.56-24.54,53.23c-8.7,7.73-19.59,16.56-31.15,9.18c-5.8-3.7-9.69-8.6-16.42-11.4
		c-12.46-5.2-27.52-6.59-40.93-6.87c-39.01-0.81-37.35,41.64-37.58,69.9c0,0.07,0.05,0.09,0.07,0.16c0.02-0.37,0.05-0.76,0.05-1.13
		C717.66,597.94,718.56,597.82,718.88,598.26z"/>
	<path d="M717.68,752.2c0.23,0.51,0.46,0.99,0.67,1.5c0.23-0.18,0.39-0.53,0.23-0.88c-8.93-20.7-7.54-51.05,10.75-66.92
		c9.71-8.42,19.19-4.7,29.37-0.37c1.23,0.51,4.88,2.66,6.54,2.68c5.09,0.12,10.94-4.6,14.73-7.47
		c27.31-20.66,31.31-58.01,20.86-88.62c-5.23-15.31-12.19-29.01-27.87-35.25c-12.35-4.93-22.89-5.53-30.92,6.13
		c-9.81,14.23-13.18,31.41-12.51,48.39c0.21,5.32,0.86,10.64,0.79,15.96c0.07,3.75-0.23,7.47-0.9,11.15
		c-8.35,4.33-12.09,2.87-11.22-4.35c-0.86-11.68,0.23-23.87,0.76-35.55c0-0.16-0.05-0.3-0.12-0.39c-0.32-0.44-1.23-0.32-1.27,0.39
		c-0.02,0.37-0.05,0.74-0.05,1.13c-0.55,11.33-1.6,23.13-0.72,34.42c0.25,3.38,0.35,8.3,3.65,10.41
		c10.06,6.41,11.22-12.19,11.24-17.21c0.07-23.02-3.24-48.71,14.27-67.29c12.88-13.67,37.25,0.97,44.96,13.39
		c5.8,9.32,9.57,20.31,11.89,31c4.97,23.04,1.34,47.97-14.31,66.27c-3.47,4.05-7.45,7.68-11.89,10.66
		c-6.96,4.7-13.02,3.52-20.91,1.2c-6.01-1.78-10.98-4.44-17.39-3.12c-12.72,2.61-20.35,17.79-23.82,29.03
		c-4.44,14.46-3.4,29.54,2.2,43.42C717.05,751.76,717.47,751.76,717.68,752.2z"/>
	<path d="M841.79,659.21c-3.49,11.59-10.31,20.82-18.75,29.42c-5.71,5.81-15.08,11.5-19.36,18.37c-3.56,5.71,0.6,10.09,3.24,16.19
		c5.74,13.32,17.07,30.81,12.21,45.75c-7.1,21.79-36.77,34.63-53.74,47.86c-9.5,7.4-25.95,18.48-20.35,32.22
		c2.29,5.6,6.01,10.8,8.58,16.31c1.53,3.31,4.81,7.33,4.49,10.85c-0.76,8.37-12.81,6.15-17.46,1.53
		c-8.16-8.1-16.74-28.27-16.19-39.6c0.69-13.65,17.95-25.51,27.77-33.08c8.79-6.75,19.29-11.54,27.75-18.57
		c11.77-9.78,8.26-24.26,2.2-36.36c-5.02-10.04-10.94-19.66-17.39-28.87c-3.72-5.32-7.77-12.31-14.38-14.27
		c-14.8-4.42-24.63,8.67-22.69,21.7c1.53,10.39,6.75,19.73,11.72,28.8c1.06,1.94,3.47,5.09,3.86,7.08
		c-6.85,14.39-11.77,18-14.73,10.85c-0.9-1.76-1.78-3.49-2.66-5.27c-2.66-5.39-5.16-10.85-7.59-16.33c-0.23-0.51-0.46-0.99-0.67-1.5
		c-0.18-0.44-0.6-0.44-0.92-0.23c-0.28,0.18-0.46,0.53-0.28,0.93c3.31,7.54,13,41.2,26.64,30.76c13.74-10.52-8.09-35.76-11.63-46.05
		c-3.15-9.14-6.66-23.11,7.01-27.8c11.31-3.89,19.22,3.72,25.14,12.1c7.82,11.1,16.35,23.62,20.84,36.52
		c3.84,11.08,2.5,21.44-7.75,28.66c-3.91,2.75-8.23,4.93-12.23,7.52c-10.08,6.55-19.59,14.02-28.33,22.3
		c-5.16,4.88-11.4,10.02-12.77,17.37c-1.9,10.2,3.84,21.84,8.19,30.72c3.08,6.31,15.79,30.97,26.8,20.86
		c4.37-4.02,0.79-11.13-0.92-15.36c-2.1-5.18-5.23-10.02-7.28-15.2c-5.02-12.68-1.18-22.28,7.82-30.51
		c16.95-15.5,38.9-25.31,54.3-42.54c17.27-19.29,4.65-39.39-4.14-59.79c-4.97-11.54-0.92-16.93,6.94-24.29
		c4.3-4.02,8.6-8.05,12.58-12.42c7.1-7.84,12.63-16.45,15.61-26.65c0-0.02,0-0.05,0-0.09c-0.05,0.16-0.09,0.32-0.16,0.49
		C842.86,660.37,841.56,660.02,841.79,659.21z"/>
	<path d="M913.11,513.26c0.02-0.05,0.05-0.12,0.05-0.16c-12.81,30.79-37.44,53.36-64.47,71.82c-0.28,0.19-0.37,0.46-0.32,0.79
		c3.52,24.91,1.27,49.57-6.57,73.47c0,0.02,0,0.02,0,0.05c-0.21,0.81,1.06,1.16,1.34,0.32c0.05-0.16,0.09-0.32,0.16-0.49
		c4.69-14.46,7.61-29.31,8.14-44.53c0.28-7.8-2.31-17.39-1.13-24.89c1.13-7.15,8.79-10.25,14.04-14.3
		c21.32-16.54,39.57-36.55,50.07-61.65C914.01,514.41,912.79,514.04,913.11,513.26z"/>
	<path d="M914.5,513.44L914.5,513.44L914.5,513.44L914.5,513.44z"/>
	<path d="M969.03,516.31c7.17-18.69,15.89-39.21,18.41-59.19c1.3-10.2-1.25-23.69-12.7-27.16c-10.85-3.28-16.56,6.08-15.24,15.73
		c1.62,11.84,5.3,19.99,2.31,32.41c-2.66,11.06-7.98,21.28-13.69,31.02c-10.92,18.64-23.22,36.55-36.33,53.71
		c-3.17,4.14-8.07,12.61-12.6,15.73c-2.78,5.14-6.61,4.63-11.54-1.53c2.5-3.19,5.04-6.36,7.59-9.53c6.01-7.61,12-15.24,17.69-23.09
		c11.84-16.28,16.44-29.77,14.18-49.85c-1.34-11.7-1.64-22.51,0.86-34.17c0.42-2.17,0.97-4.33,1.64-6.43
		c1.2-4.12,3.35-7.66,6.45-10.62c0.16-0.46,1.29-1.76,1.55-2.41c0.07-0.21,0-0.53-0.18-0.67c-6.24-5.71-13.88,7.08-15.77,11.94
		c-3.01,7.73-2.59,15.89-2.52,24.03c0.14,12.86-1.41,24.77-5.94,36.85c-0.02,0.05-0.05,0.12-0.05,0.16
		c-0.3,0.81,0.92,1.16,1.29,0.44c0.02-0.02,0.05-0.05,0.05-0.07c0.02-0.05,0.05-0.12,0.05-0.16v-0.02c2.75-7.33,4.79-14.8,5.6-22.6
		c1.04-10.09-0.55-20.29,0.95-30.33c0.79-5.27,2.64-13.49,7.38-16.65c1.11-0.25,2.2-0.49,3.31-0.74c3.52-1.43,4.23-1.27,2.2,0.44
		c-0.46,2.48-0.9,0.6-1.23,1.32c-2.82,6.36-5.43,11.31-6.71,18.41c-3.05,17.19,2.66,33.86,0.12,50.8
		c-3.17,21.03-21.88,40.06-34.69,55.95c-2.78,3.45-10.98,12.03-4.39,16.33c8.16,5.34,19.82-14.9,23.29-19.36
		c10.78-13.88,20.91-28.27,30.34-43.09c9.02-14.16,18.48-28.96,22.5-45.45c1.83-7.52,2.47-15.01,0.62-22.58
		c-0.42-1.76-1.11-3.42-1.57-5.18c-2.24-8.56-2.71-7.26,6.45-13.16c7.31-4.72,7.38-7.26,12.4-1.78c3.98,4.33,5.3,9.99,5.39,15.61
		c0.16,10.96-4.46,22.65-7.7,32.99c-3.35,10.66-7.08,21.19-11.08,31.62c-0.02,0.07-0.02,0.14-0.02,0.21
		c0.02-0.05,0.05-0.12,0.09-0.16C968.12,515.38,969,515.73,969.03,516.31z"/>
	<path d="M749.75,956.5c4.19-44.27,32.07-78.42,54.39-115.15c17.99-29.59,40.7-63.15,33.16-99.63c-1.02-4.88-4.12-9.99-4.74-14.76
		c-1.29-9.92,3.45-13.07,8.88-18.41c7.45-7.33,14.96-14.62,22.13-22.23c14.18-15.04,25.32-31.39,36.51-48.67
		c23.84-36.78,48.63-72.91,65.86-113.44c0.07-0.14,0.07-0.28,0.05-0.42c-0.39,0.72-0.79,1.43-1.09,2.2
		c-0.23,0.62-1.09,0.58-1.32,0.12c-13.53,31.11-31.31,59.82-49.86,88.15c-9.55,14.57-18.59,29.61-28.61,43.88
		c-10.55,15.01-23.24,28.27-36.24,41.15c-5.97,5.92-20.17,14.53-19.45,24.22c0.25,3.49,3.45,7.75,4.58,11.26
		c1.5,4.65,2.52,9.55,3.01,14.43c0.88,8.86,0,17.81-2.08,26.44c-7.68,31.78-28.86,61.11-46.71,87.99
		c-19.24,28.98-37.16,59.01-40.05,94.45c-0.02,0.3,0.12,0.49,0.32,0.6c0.05-0.53,0.07-1.04,0.12-1.57
		C748.71,956.48,749.36,956.29,749.75,956.5z"/>
	<path d="M964.91,525.95c0.3-0.76,0.69-1.48,1.09-2.2c0.37-0.67,0.76-1.36,1.06-2.08c0.69-1.67,0.9-3.45,1.87-5
		c0.09-0.14,0.09-0.28,0.09-0.39c-0.05-0.56-0.9-0.93-1.29-0.3c-0.02,0.05-0.05,0.12-0.09,0.16c-0.86,1.43-1.16,3.03-1.71,4.58
		c-0.6,1.69-1.71,3.17-2.36,4.86c-0.07,0.19-0.05,0.37,0.02,0.49C963.82,526.53,964.68,526.6,964.91,525.95z"/>
	<path d="M908.69,1066.33c0.42-0.62,0.83-1.25,1.25-1.87c-0.3-0.16-0.69-0.14-0.95,0.21c-3.54,5.02-19.66,18.37-19.86,4.49
		c-0.05-3.17,1.02-6.38,1.04-9.55c0.05-3.91-0.35-8.26-4.05-10.55c-8.46-5.23-19.68,6.82-25.37,10.92
		c-16.05,11.5-35.64,19.8-55.71,18.23c-16.35-1.27-24.35-10.52-30.43-24.8c-3.98-9.34-7.77-18.76-11.66-28.15
		c-0.28-0.65-1.09-0.67-1.34,0c-1.92,4.97-1.36,8.33-6.91,7.91c-5.87-0.44-4.02-4.42-4.37-9.23c-0.53-7.43-0.99-14.85-1.29-22.3
		c-0.6-14.87-0.39-29.7,0.99-44.53c0.02-0.3-0.12-0.49-0.3-0.58c-0.39-0.21-1.04-0.02-1.09,0.58c-0.05,0.53-0.07,1.04-0.12,1.57
		c-1.78,20.26-1.23,40.53,0.12,60.81c0.25,3.75-1.71,22.18,4.44,22.95c2.91,0.35,3.91-2.38,5.06-4.42c1.39-2.45,1.57-8.58,5.13-8.35
		c1.11,0.07,5.18,12.51,5.83,14.09c4.74,11.47,8.81,26.42,20.88,32.36c11.35,5.6,26.22,4.35,38.09,1.27
		c7.61-1.97,14.92-5.04,21.78-8.84c7.63-4.19,13.97-10.99,21.53-14.97c7.12-3.75,16.49,0.69,17.14,9c0.25,3.19-1.67,6.75-1.2,9.9
		c0.42,2.73-0.23,3.77,2.34,5.2c6.68,3.77,15.1-5.2,19.17-10.5C908.6,1067,908.46,1066.67,908.69,1066.33z"/>
	<path d="M816.7,983.33c0-0.05,0.02-0.12,0.02-0.16c-0.49,0.09-0.95,0.18-1.43,0.3c-0.88,0.18-0.51,1.53,0.37,1.34
		c26.41-5.69,48.96-0.28,66.35,21.05c7.77,9.53,13.16,20.49,18.62,31.41c1.94,3.91,3.35,9.28,8.7,9c4.44-0.23,7.35-5.81,9.5-8.97
		c5.46-8.05,10.08-16.65,15.1-24.96c11.47-19.01,24.26-34.6,43.34-46.4c8.83-5.46,17.92-10.52,26.99-15.54
		c9-4.97,20.28-13.79,30.27-16.15c7.03-5.18,10.04-0.58,9.04,13.83c-2.24,1.39-4.51,2.78-6.78,4.12c-5.11,3.1-10.22,6.2-15.31,9.37
		c-10.15,6.31-20.23,12.77-30.22,19.36c-17.14,11.31-33.46,22.67-47.31,38c-12.72,14.09-23.4,29.84-33.97,45.57
		c-0.42,0.62-0.83,1.25-1.25,1.87c-0.23,0.35-0.09,0.67,0.16,0.86c0.3,0.21,0.76,0.23,1.02-0.16
		c10.92-16.26,21.85-32.59,35.01-47.16c14.2-15.73,31.29-27.43,48.91-39.02c16.9-11.13,35.61-20.56,51.85-32.59
		c4.95-3.68,10.87-11.68,5.02-17.49c-2.82-2.8-6.22-2.2-9.62-1.25c-8.95,2.54-18.06,9.09-26.22,13.49
		c-16.72,9.02-34.32,17.81-49.53,29.28c-12.4,9.35-21.6,21.58-29.74,34.67c-4.49,7.22-8.67,14.64-13.11,21.91
		c-2.06,3.38-4.05,7.49-6.75,10.36c-8.7,9.25-13.32-1.71-16.56-8.21c-7.89-15.8-17.55-31.37-32.56-41.29
		c-14.92-9.88-31.47-10.13-48.38-6.87c-0.05,0.28-0.12,0.56-0.16,0.83C817.88,984.58,816.54,984.21,816.7,983.33z"/>
	<path d="M960.98,790.83c-3.63-2.08-8.46-0.46-11.4,2.06c-3.61,3.1-5.09,8.12-7.01,12.24c-2.82,6.06-6.27,11.68-10.22,17.05
		c-9.3,12.63-20.21,24.2-30.43,36.06c-18.22,21.14-37.12,41.84-54.44,63.75c-14.43,18.25-26.62,37.98-30.76,61.16
		c0,0.05-0.02,0.12-0.02,0.16c-0.16,0.88,1.18,1.25,1.34,0.37c0.05-0.28,0.12-0.56,0.16-0.83c7.65-41.22,40.54-72.38,66.85-102.91
		c14.5-16.82,29.51-33.33,43.48-50.61c5.06-6.25,9.85-12.72,13.53-19.92c1.13-2.24,2.17-4.53,3.12-6.85
		c2.15-7.15,8.23-8.58,18.25-4.23c0.62,3.01-1.41,8.67-1.34,12.28c0,0.23,0.09,0.39,0.23,0.49c0.35-0.42,0.72-0.81,1.18-1.18
		C963.64,803.99,967.57,794.63,960.98,790.83z"/>
	<path d="M993.56,785.53c-0.14,0.14-0.3,0.28-0.44,0.42c-0.23,0.21-0.55,0.25-0.83,0.12c-0.02,0-0.02-0.02-0.05-0.02
		c0.14,0.49,0.92,0.76,1.29,0.21c10.52-15.24,32.77-25.31,48.91-33.66c9.18-4.74,18.59-9.3,28.28-12.88
		c4.3-1.6,8.74-2.96,13.27-3.72c3.05-0.51,6.43-0.81,9.53-0.67c7.21,0.32,8.05,1.34,12.95,7.54c5.73,7.22,5.8,9.72,3.17,18.53
		c-2.01,6.75-5.71,12.65-10.29,17.95c-5.92,6.82-12.67,13.02-19.08,19.41c-13.51,13.44-27.06,26.9-39.01,41.73
		c-9.64,11.96-18.34,24.77-24.86,38.72c-7.1,15.17-9.76,31.71-16.16,47.1c-1.76,4.21-3.79,9.62-7.15,12.88
		c-0.72,0.95-1.41,1.87-2.13,2.82c-5.09-2.87-10.18-5.74-15.26-8.63c-0.62-1.09,1.83-13.32,1.29-10.55
		c1.76-9.37,4.93-18.34,8.9-26.99c7.26-15.89,17.11-30.86,27.1-45.15c23.31-33.31,51.31-63.01,82.86-88.64
		c0.35-0.28,0.21-0.88-0.14-1.09c-18.27-10.71-37.35-1.09-53.19,9.55c-11.47,7.7-22.8,15.64-34.2,23.46
		c-6.08,4.19-12.19,8.35-18.27,12.54c-3.05,2.08-6.08,4.19-9.13,6.27c-1.23,0.83-2.43,1.67-3.65,2.5c-4.07,3.7-8.37,2.29-12.86-4.3
		c0.69-0.56-0.28-1.53-0.97-0.97l0,0c-0.46,0.37-0.83,0.76-1.18,1.18c-1.69,2.01-1.97,4.6-0.07,7.01c6.06,7.73,18.5-3.56,23.1-6.71
		c13.39-9.18,26.8-18.39,40.19-27.57c13.44-9.21,27.89-21.72,44.17-25.35c4.81-1.06,24.17-3.31,22.15,5.02
		c-0.44,1.83-7.49,6.29-9.02,7.61c-2.96,2.57-5.9,5.2-8.81,7.84c-11.59,10.64-22.62,21.88-32.98,33.73
		c-18.52,21.17-35.34,44.16-49.19,68.63c-6.04,10.69-11.38,21.86-14.52,33.75c-2.01,7.68-6.17,21.03-0.51,28.17
		c14.62,18.39,28.47-26.9,30.71-34.7c9.25-32.11,25.62-58.15,48.15-82.69c10.68-11.64,22.04-22.6,33.18-33.79
		c9.02-9.04,18.34-17.79,22.11-30.37c2.38-7.96,3.77-17.9-3.47-23.69c-9.48-7.56-25.11-3.86-35.31-0.39
		c-15.82,5.39-31.06,13.55-45.44,21.93c-11.56,6.75-25.23,13.67-33.44,24.57c0.14,0.12,0.23,0.25,0.28,0.42
		C993.79,784.89,993.84,785.28,993.56,785.53z"/>
	<path d="M1049.99,368.41c27.68,39.79,28.93,89.59,20.84,135.78c0.28-0.67,1.43-0.3,1.27,0.51c-0.02,0.12-0.02,0.23-0.05,0.35
		c0.02-0.05,0.05-0.07,0.05-0.12c8.23-46.68,7.05-97.04-20.91-137.24c-0.12-0.19-0.28-0.25-0.44-0.3c-0.21-0.05-0.39,0.02-0.55,0.12
		C1049.89,367.74,1049.73,368.06,1049.99,368.41z"/>
	<path d="M1017.13,670.6c0.05-0.16,0.12-0.32,0.16-0.51c-0.16,0.3-0.32,0.6-0.49,0.88C1016.94,670.9,1017.06,670.78,1017.13,670.6z"
		/>
	<path d="M1069.57,513.6c-9.46,54.66-36.38,103.72-53.56,156c0.16-0.3,0.32-0.62,0.49-0.93c0.32-0.56,1.04-0.35,1.25,0.12
		c17.25-52,43.96-100.85,53.26-155.3c0.02-0.09,0-0.16,0-0.23c0,0.12-0.02,0.23-0.05,0.35
		C1070.87,514.48,1069.5,514.48,1069.57,513.6z"/>
	<path d="M1016.48,668.68c-0.18,0.3-0.32,0.62-0.49,0.93c-5.04,9.04-7.24,19.29-10.41,29.08c-4.02,12.4-8.65,24.54-13.46,36.66
		c-3.63,9.18-7.31,18.64-7.26,28.66c0.02,4.07,1.5,17.93,6.59,20.89c-0.14,0.32-0.09,0.74,0.25,0.93c0.16,0.09,0.32,0.16,0.51,0.25
		c0.02,0,0.02,0.02,0.05,0.02c0.28,0.14,0.6,0.12,0.83-0.12c0.14-0.14,0.3-0.28,0.44-0.42c0.28-0.25,0.23-0.65,0.02-0.93
		c-0.05-0.16-0.14-0.3-0.28-0.42c-0.05-0.02-0.07-0.05-0.12-0.07c-14.8-18.57-2.24-41.38,4.97-60.3
		c6.45-16.91,9.87-36.94,18.62-52.83c0.16-0.3,0.32-0.6,0.49-0.88c0.14-0.23,0.25-0.49,0.39-0.72c0.12-0.21,0.12-0.42,0.05-0.58
		C1017.54,668.33,1016.83,668.12,1016.48,668.68z"/>
	<path d="M1070.82,504.21c-0.02,0.05-0.05,0.09-0.07,0.14c-0.53,3.05-0.92,6.13-1.2,9.23l0,0c-0.07,0.88,1.32,0.88,1.39,0
		c0-0.12,0.02-0.23,0.05-0.35c0.23-2.75,0.6-5.48,1.06-8.19c0.02-0.12,0.02-0.23,0.05-0.35
		C1072.23,503.91,1071.1,503.54,1070.82,504.21z"/>
	<path d="M1000.31,381.01c0.74,0.07,0.69,1.3-0.14,1.36c-0.37,0.05-0.72,0.12-1.09,0.16c0.14,0.12,0.35,0.16,0.58,0.09
		c15.17-5.51,28.84,14.27,17.67,25.93c-5.18,5.41-14.06,6.68-21.16,6.52c-8.14-0.21-20.54-2.98-22.96-12.26
		c-3.42-13,13.3-18.23,22.55-19.29c0.3-0.05,0.49-0.23,0.58-0.44c-0.65,0.16-1.29,0.32-1.92,0.53c-0.74,0.25-1.11-0.74-0.62-1.18
		c-9.78,1.55-22.99,6.68-22.27,18.44c0.76,12.26,17,15.87,26.83,15.64c10.29-0.25,23.1-4.37,24.35-16.26
		C1024.02,387.74,1012.04,377.57,1000.31,381.01z"/>
	<path d="M994.42,383.6c0.62-0.21,1.27-0.37,1.92-0.53c0.9-0.23,1.83-0.39,2.75-0.53c0.37-0.05,0.72-0.14,1.09-0.16
		c0.83-0.09,0.88-1.3,0.14-1.36c-0.05,0-0.09-0.02-0.14-0.02c-2.08,0.21-4.12,0.62-6.13,1.27c-0.12,0.05-0.18,0.09-0.25,0.14
		C993.31,382.86,993.68,383.86,994.42,383.6z"/>
	<path d="M977.1,396.95c-2.73,7.68,5.94,11.26,12.03,11.43c7.63,0.21,21.44-1.85,24.61-10.27c2.87-7.63-6.24-11.47-12.44-11.4
		c-0.12-0.19-0.28-0.32-0.55-0.3C993.12,386.68,980.17,388.37,977.1,396.95z M986.53,390.57c4-1.8,8.23-2.43,12.58-2.68
		c0.14,0.25,0.39,0.42,0.74,0.28c0.09-0.05,0.21-0.05,0.3-0.07c0.02,0.02,0.05,0.02,0.07,0.05c0.32,0.16,0.76,0.09,0.95-0.25
		c0,0,0,0,0-0.02c5.71-0.72,15.05,5.2,9.27,12.61c-1.09,1.39-3.35,2.45-4.93,3.24c-4.86,2.48-11.01,3.59-16.42,3.31
		c-4.56-0.23-16.05-1.8-9.02-12.17C981.44,392.86,984.43,391.49,986.53,390.57z"/>
</g>
</svg>
