<?xml version="1.0" encoding="utf-8"?>
<!-- Generator: Adobe Illustrator 23.0.1, SVG Export Plug-In . SVG Version: 6.00 Build 0)  -->
<svg version="1.1" id="Layer_1" xmlns="http://www.w3.org/2000/svg" xmlns:xlink="http://www.w3.org/1999/xlink" x="0px" y="0px"
	 viewBox="0 0 1920 1080" style="enable-background:new 0 0 1920 1080;" xml:space="preserve">
<style type="text/css">
	.st0{fill:#FFFFFF;}
	.st1{fill:#4D75F2;}
	.st2{fill:none;stroke:#4D75F2;stroke-width:5;stroke-miterlimit:10;}
	.st3{fill:none;stroke:#4D75F2;stroke-width:4;stroke-miterlimit:10;}
	.st4{fill:none;stroke:#FFFFFF;stroke-width:4;stroke-miterlimit:10;}
	.st5{fill:none;stroke:#4D75F2;stroke-width:3.5;stroke-miterlimit:10;}
	.st6{fill:none;stroke:#FFFFFF;stroke-width:3.5;stroke-miterlimit:10;}
	.st7{fill:none;stroke:#FFFFFF;stroke-width:3;stroke-miterlimit:10;}
	.st8{fill:#2FD3D4;}
</style>
<g>
	<g>
		<g>
			<path class="st0" d="M2102.7,2262.23c63.92-0.35,127.83-0.6,191.75-0.95c17.25-0.09,17.25-26,0-25.91
				c-63.92,0.35-127.83,0.6-191.75,0.95C2085.45,2236.4,2085.45,2262.31,2102.7,2262.23L2102.7,2262.23z"/>
		</g>
	</g>
	<g>
		<g>
			<path class="st0" d="M2102.7,2157.54c94.31-0.17,188.71-0.43,283.02-0.6c17.25,0,17.25-25.91,0-25.91
				c-94.31,0.17-188.71,0.43-283.02,0.6C2085.45,2131.63,2085.45,2157.54,2102.7,2157.54L2102.7,2157.54z"/>
		</g>
	</g>
	<g>
		<g>
			<path class="st0" d="M2102.7,2053.89c94.31-0.17,188.71-0.43,283.02-0.6c17.25,0,17.25-25.91,0-25.91
				c-94.31,0.17-188.71,0.43-283.02,0.6C2085.45,2027.97,2085.45,2053.89,2102.7,2053.89L2102.7,2053.89z"/>
		</g>
	</g>
	<g>
		<g>
			<path class="st0" d="M2102.7,1950.23c94.31-0.17,188.71-0.43,283.02-0.6c17.25,0,17.25-25.91,0-25.91
				c-94.31,0.17-188.71,0.43-283.02,0.6C2085.45,1924.32,2085.45,1950.23,2102.7,1950.23L2102.7,1950.23z"/>
		</g>
	</g>
	<g>
		<g>
			<path class="st0" d="M1485.89,1302.4c94.31-0.17,188.71-0.43,283.02-0.6c17.25,0,17.25-25.91,0-25.91
				c-94.31,0.17-188.71,0.43-283.02,0.6C1468.63,1276.49,1468.63,1302.4,1485.89,1302.4L1485.89,1302.4z"/>
		</g>
	</g>
	<g>
		<g>
			<path class="st0" d="M-489.71,232.45c109.24-0.17,218.48-0.43,327.72-0.6c17.25,0,17.25-25.91,0-25.91
				c-109.24,0.17-218.48,0.43-327.72,0.6C-506.96,206.54-506.96,232.45-489.71,232.45L-489.71,232.45z"/>
		</g>
	</g>
	<g>
		<g>
			<path class="st0" d="M-743.05,232.71c59.63-0.17,119.16-0.43,178.79-0.6c17.25-0.09,17.25-26,0-25.91
				c-59.63,0.17-119.16,0.43-178.79,0.6C-760.31,206.8-760.31,232.71-743.05,232.71L-743.05,232.71z"/>
		</g>
	</g>
	<g>
		<g>
			<path class="st0" d="M-340.78,336.36c59.63-0.17,119.16-0.43,178.79-0.6c17.25-0.09,17.25-26,0-25.91
				c-59.63,0.17-119.16,0.43-178.79,0.6C-358.03,310.45-358.03,336.36-340.78,336.36L-340.78,336.36z"/>
		</g>
	</g>
	<g>
		<g>
			<path class="st0" d="M-474.87,339.04c26.82-0.09,53.64-0.17,80.45-0.26c17.25-0.09,17.25-26,0-25.91
				c-26.82,0.09-53.64,0.17-80.45,0.26C-492.12,313.21-492.12,339.13-474.87,339.04L-474.87,339.04z"/>
		</g>
	</g>
	<g>
		<g>
			<path class="st0" d="M-635.78,328.93c29.77-0.09,59.63-0.09,89.39-0.17c17.25,0,17.25-25.91,0-25.91
				c-29.77,0.09-59.63,0.09-89.39,0.17C-653.03,303.02-653.03,328.93-635.78,328.93L-635.78,328.93z"/>
		</g>
	</g>
	<g>
		<g>
			<path class="st0" d="M-573.2,428.35c29.77-0.09,59.63-0.09,89.39-0.17c17.25,0,17.25-25.91,0-25.91
				c-29.77,0.09-59.63,0.09-89.39,0.17C-590.46,402.53-590.46,428.44-573.2,428.35L-573.2,428.35z"/>
		</g>
	</g>
	<g>
		<g>
			<path class="st0" d="M-412.3,431.46c77.5-0.17,154.92-0.43,232.42-0.6c17.25-0.09,17.25-26,0-25.91
				c-77.5,0.17-154.92,0.43-232.42,0.6C-429.55,405.55-429.55,431.46-412.3,431.46L-412.3,431.46z"/>
		</g>
	</g>
	<g>
		<g>
			<path class="st0" d="M1825.58,888.66c67.49-0.26,135.07-0.43,202.57-0.69c17.25-0.09,17.25-26,0-25.91
				c-67.49,0.26-135.07,0.43-202.57,0.69C1808.33,862.83,1808.33,888.74,1825.58,888.66L1825.58,888.66z"/>
		</g>
	</g>
	<g>
		<g>
			<path class="st1" d="M1485.89,1216.03c94.31-0.17,188.71-0.43,283.02-0.6c17.25,0,17.25-25.91,0-25.91
				c-94.31,0.17-188.71,0.43-283.02,0.6C1468.63,1190.11,1468.63,1216.03,1485.89,1216.03L1485.89,1216.03z"/>
		</g>
	</g>
	<g>
		<g>
			<path class="st1" d="M1547.39,1621.14c49.17-46.9,98.24-93.89,147.41-140.79c16.36-15.63-8.94-40.08-25.3-24.44
				c-49.17,46.9-98.24,93.89-147.41,140.79C1505.64,1612.41,1530.94,1636.86,1547.39,1621.14L1547.39,1621.14z"/>
		</g>
	</g>
	<g>
		<g>
			<path class="st1" d="M1548.37,1610.86c-5.01-45.95-9.92-91.82-14.93-137.77c-1.79-16.41-28.61-16.58-26.82,0
				c5.01,45.95,9.92,91.82,14.93,137.77C1523.34,1627.27,1550.16,1627.44,1548.37,1610.86L1548.37,1610.86z"/>
		</g>
	</g>
	<g>
		<g>
			<path class="st1" d="M2254.67,1363.65c198.63-0.26,397.26-0.43,595.9-0.69c17.25,0,17.25-25.91,0-25.91
				c-198.63,0.26-397.27,0.43-595.9,0.69C2237.42,1337.73,2237.42,1363.65,2254.67,1363.65L2254.67,1363.65z"/>
		</g>
	</g>
	<g>
		<g>
			<path class="st1" d="M1807.7,3594.68c112.19-0.35,224.47-0.69,336.66-1.12c17.25-0.09,17.25-26,0-25.91
				c-112.19,0.35-224.47,0.69-336.66,1.12C1790.45,3568.85,1790.45,3594.77,1807.7,3594.68L1807.7,3594.68z"/>
		</g>
	</g>
	<g>
		<g>
			<path class="st1" d="M1664.67,3691.42c37.72-0.52,75.45-0.95,113.17-1.47c17.25-0.26,17.25-26.17,0-25.91
				c-37.72,0.52-75.45,0.95-113.17,1.47C1647.42,3665.77,1647.42,3691.68,1664.67,3691.42L1664.67,3691.42z"/>
		</g>
	</g>
	<g>
		<g>
			<path class="st1" d="M1727.25,3795.08c37.72-0.52,75.45-0.95,113.17-1.47c17.25-0.26,17.25-26.17,0-25.91
				c-37.72,0.52-75.45,0.95-113.17,1.47C1710,3769.42,1710,3795.34,1727.25,3795.08L1727.25,3795.08z"/>
		</g>
	</g>
	<g>
		<g>
			<path class="st1" d="M1834.52,3692.37c25.83-0.6,51.58-1.12,77.41-1.73c17.25-0.35,17.25-26.26,0-25.91
				c-25.83,0.6-51.58,1.12-77.41,1.73C1817.27,3666.81,1817.27,3692.72,1834.52,3692.37L1834.52,3692.37z"/>
		</g>
	</g>
	<g>
		<g>
			<path class="st1" d="M1968.61,3692.81c61.59-0.6,123.09-1.21,184.69-1.9c17.25-0.17,17.25-26.09,0-25.91
				c-61.59,0.6-123.09,1.21-184.69,1.9C1951.36,3667.07,1951.36,3692.98,1968.61,3692.81L1968.61,3692.81z"/>
		</g>
	</g>
	<g>
		<g>
			<path class="st1" d="M1897.1,3796.72c76.43-0.69,152.95-1.3,229.38-1.99c17.25-0.17,17.25-26.09,0-25.91
				c-76.43,0.69-152.95,1.3-229.38,1.99C1879.84,3770.98,1879.84,3796.89,1897.1,3796.72L1897.1,3796.72z"/>
		</g>
	</g>
	<g>
		<g>
			<path class="st1" d="M1825.58,966.57c40.67-0.17,81.44-0.35,122.11-0.52c17.25-0.09,17.25-26,0-25.91
				c-40.67,0.17-81.44,0.35-122.11,0.52C1808.33,940.74,1808.33,966.66,1825.58,966.57L1825.58,966.57z"/>
		</g>
	</g>
	<g>
		<g>
			<path class="st0" d="M1485.89,1389.82c52.65-0.17,105.22-0.35,157.87-0.52c17.25-0.09,17.25-26,0-25.91
				c-52.65,0.17-105.22,0.35-157.87,0.52C1468.63,1363.91,1468.63,1389.82,1485.89,1389.82L1485.89,1389.82z"/>
		</g>
	</g>
	<g>
		<g>
			<g>
				<path class="st0" d="M-915.22,1687.82c-19.85,9.85-39.6,12.52-60.52,18.57c-12.87,3.71-28.34,14.08-41.12,16.41
					c-26.28,4.84-45.32-15.12-69.82-5.96c-9.39,3.46-12.69,11.32-20.65,15.98c-21.1,12.61-27.27,5.44-44.96,13.65
					c-12.52,5.79-20.56,18.4-18.86,31.87c2.95,22.98,48.9,30.15,5.1,26.43c-13.5-1.12-26.1-1.73-36.11,8.47
					c-11.35,11.57-2.86,10.8-8.05,22.98c-2.41,5.61-7.15,12.52-10.01,18.31c-5.63,11.49-8.31,21.08,0.18,32.39
					c10.46,13.99,28.61,14.08,43.98,8.9c19.67-6.65,24.94-20.38,48.63-21.85c9.83-0.6,17.34,5.1,27.98,2.94
					c5.1-1.04,25.83-15.55,27.62-15.03c-1.7-0.52-8.49,9.85-8.85,11.49c-5.18,21.94-0.27,36.88,16.98,53.29
					c10.55,10.02,22.71,18.05,37.99,13.39c15.73-4.75,16.9-23.32,38.98-15.72c12.43,4.23,27.27,30.92,38.98,39.3
					c12.25,8.72,26.19,16.58,41.21,8.81c3.4-1.73,10.64-11.49,12.34-12.01c16-4.49,42.73,21.68,52.47,29.45
					c13.23,10.54,32.27-7.69,18.95-18.31c-16.45-13.13-36.65-32.48-57.93-37.75c-16.98-4.23-19.13,3.37-32.45,7.43
					c-3.13,8.64-8.31,8.64-15.73,0.09c-9.12-3.37-16.54-8.9-22.26-16.5c-9.03-8.38-15.64-21.34-26.82-27.55
					c-10.1-5.61-21.63-8.21-32.81-3.54c-12.87,5.27-15.55,24.27-34.06,14.6c-42.01-21.94-3.22-24.7-0.54-36.45
					c2.77-12.18,7.87-19.43-4.11-30.06c-10.73-9.5-22.8-5.18-34.77-2.33c-15.02,3.54-30.84,6.13-46.66,7.86
					c-7.33,0.78-13.5,0.6-21.19,3.45c-4.65,1.73-39.87,28.16-44.16,17.97c-0.36-0.86,10.55-7.51,10.91-9.76
					c4.02-24.44,15.38-25.91,40.58-25.48c26.19,0.43,56.94-17.62,31.11-42.5c-2.68-2.59-16.98-9.5-17.07-10.28
					c-1.16-14.17,15.47-9.67,21.63-13.99c5.63-3.97,14.75-12.7,20.65-15.89c16.72-9.07,23.69-3.8,38.8-1.64
					c30.48,4.32,37.19-3.37,68.03-14.34c26.64-9.5,54.26-12.27,79.83-24.96C-886.35,1702.59-899.85,1680.22-915.22,1687.82
					L-915.22,1687.82z"/>
			</g>
		</g>
		<g>
			<g>
				<path class="st0" d="M-1149.53,1913.44c-31.91-3.02-86.18,9.07-104.05,37.75c-15.2,24.44-4.65,57.7,18.5,73.42
					c14.57,9.85,29.14,9.76,45.86,11.32c20.02,1.81,25.48,0.95,33.97,19.26c7.15,15.38,3.75,38.09,5.99,54.85
					c3.84,28.94,22.08,53.38,55.87,47.08c37.63-7,47.38-44.05,49.43-75.41c1.07-16.24-8.31-19.69,3.58-38.52
					c3.22-5.1,10.64-8.21,14.57-13.39c5.9-8.03,11.35-18.83,6.97-28.5c-4.92-10.8-15.2-7.26-23.78-12.61
					c-16.98-10.62-11.89-24.36-22.62-39.65c-7.87-11.14-17.16-16.93-30.48-20.38c-8.67-2.25-16.98,0.09-25.92-2.25
					c-11.62-2.94-20.02-8.64-31.82-11.4c-16.81-3.97-23.96,21.08-7.15,24.96c13.23,3.11,30.48,12.09,43.8,16.15
					c56.76,17.19,18.06,27.3,44.07,51.14c14.12,12.87,21.81-2.33,9.57,19.43c-8.05,14.25-10.82,15.81-11.62,34.46
					c-1.25,30.66,20.83,43.62-22.97,38.52c-34.42-4.06-24.67-6.39-28.87-34.81c-2.41-16.07-3.67-34.38-15.55-46.9
					c-12.43-13.04-19.04-8.72-34.06-10.19c-115.23-11.4-21.81-73.25,26.64-68.58C-1132.36,1940.99-1132.45,1914.99-1149.53,1913.44
					L-1149.53,1913.44z"/>
			</g>
		</g>
		<g>
			<g>
				<path class="st0" d="M-1403.76,1634.96c5.72,16.41,10.1,44.4,34.42,41.63c8.76-1.04,16.98-14.08,22.71-14.43
					c10.82-0.6,28.78,28.42,35.58,37.57c8.58,11.49,69.46,18.4,4.29,50.27c-15.2,7.43-29.68,1.64-39.78-9.24
					c-9.57-10.19-13.86-25.22-24.67-33.77c-7.15-5.61-12.07-6.65-21.54-6.82c-9.03-0.17-21.28,5.61-30.39,2.85
					c-8.76-2.68-17.7-12.01-26.01-16.15c-15.29-7.69-28.87,14.68-13.5,22.37c19.67,9.85,32.9,23.32,55.87,23.84
					c18.59,0.43,16.72-10.11,27.89,12.01c3.67,7.26,7.15,14.6,13.41,20.21c24.32,21.68,74.2,16.76,94.13-8.21
					c31.73-39.82-12.96-64.7-31.65-93.98c-9.21-14.34-15.91-28.85-36.03-30.23c-7.15-0.52-14.3,1.9-20.02,5.61
					c-4.92,2.94-8.58,7-10.91,12.09c-2.59-7.51-5.27-15.12-7.87-22.63C-1383.38,1612.33-1409.3,1619.06-1403.76,1634.96
					L-1403.76,1634.96z"/>
			</g>
		</g>
		<g>
			<g>
				<path class="st0" d="M-1489.4,1752.43c14.12-0.69,30.84,4.75,24.4,15.2c-1.7,2.76-15.38,7.34-18.5,9.85
					c-8.13,6.48-15.38,15.72-15.82,26.43c-0.89,20.47,16.18,27.04,34.95,30.15c9.3,1.55,16.18,2.16,24.05-2.51
					c2.59-1.55,5.36-5.7,7.87-6.82c1.25-2.33,2.59-4.75,3.84-7.08c23.06,5.53,28.34,10.45,15.82,14.77
					c-5.45,8.72-23.06,11.06-29.59,21.68c-6.17,10.11-6.79,20.21-4.02,31.7c5.27,22.29,14.48,22.8-9.3,34.46
					c-11.71,5.79-23.51,8.55-32,19.26c-12.6,15.98-10.01,34.03,3.31,48.11c11.89,12.52,33.25,28.68,48.09,38.27
					c9.65,6.31,17.61,9.33,29.32,10.8c7.33,0.95,16-2.16,23.06-0.52c36.74,8.21,41.93,37.49,43.98,64.44
					c2.15,29.11-4.65,58.56-10.82,86.81c-3.49,16.24,22.35,23.24,25.83,6.91c9.65-44.74,19.76-92.94,3.4-137.34
					c-13.14-35.85-32.63-41.81-68.3-46.38c-7.42-0.95-58.55-23.67-64.36-37.31c-12.6-29.71,25.03-27.3,40.94-41.55
					c6.97-6.22,9.03-9.85,9.21-18.48c0.18-8.81-8.22-13.13-10.01-20.73c-7.87-33.51,0-29.2,19.93-40.34
					c23.87-13.3,38.62-31.1,18.06-56.58c-21.19-26.17-47.74-18.66-70.26-1.21c-3.84,2.94-8.4,24.88-19.76,12.18
					c-12.07-13.47,19.85-16.07,24.32-20.04c9.39-8.21,14.48-10.62,14.12-24.96c-0.72-31.27-36.47-36.36-61.95-35.16
					C-1506.56,1727.29-1506.74,1753.21-1489.4,1752.43L-1489.4,1752.43z"/>
			</g>
		</g>
		<ellipse class="st2" cx="-1181.08" cy="1887.09" rx="353.1" ry="341.19"/>
	</g>
	<g>
		<path class="st2" d="M-322.9,971.49c0,134.32-102.36,245.48-235.73,264.83c-13.5,1.99-27.35,2.94-41.39,2.94
			c-153.04,0-277.12-119.89-277.12-267.77s124.08-267.77,277.12-267.77S-322.9,823.62-322.9,971.49z"/>
	</g>
	<g>
		<path class="st3" d="M590.61,131.22c-23.42,34.38-69.01,46.21-106.56,29.37c-3.75-1.73-7.51-3.71-11.08-5.96
			c-39.15-24.88-50.06-75.84-24.23-113.67s78.49-48.37,117.64-23.41C605.54,42.51,616.36,93.38,590.61,131.22z"/>
	</g>
	<g>
		<path class="st3" d="M1628.11,578.48c0,62.8-47.83,114.8-110.22,123.86c-6.35,0.95-12.78,1.38-19.4,1.38
			c-71.6,0-129.62-56.06-129.62-125.25s58.02-125.25,129.62-125.25C1570.1,453.23,1628.11,509.29,1628.11,578.48z"/>
	</g>
	<g>
		<path class="st4" d="M2636.02,3211.94c0,40.6-30.93,74.28-71.25,80.07c-4.11,0.6-8.22,0.86-12.52,0.86
			c-46.31,0-83.85-36.28-83.85-81.02c0-44.74,37.55-81.02,83.85-81.02S2636.02,3167.2,2636.02,3211.94z"/>
	</g>
	<line class="st5" x1="-546.39" y1="1826.63" x2="-430.17" y2="1662.51"/>
	<line class="st5" x1="-161.99" y1="1671.15" x2="-18.96" y2="1498.39"/>
	<line class="st5" x1="-385.48" y1="1653.87" x2="-215.63" y2="1688.42"/>
	<g>
		<g>
			<path class="st6" d="M-528.51,1842.87c0,12.44-9.48,22.8-21.9,24.53c-1.25,0.17-2.5,0.26-3.84,0.26
				c-14.21,0-25.75-11.14-25.75-24.88c0-13.73,11.53-24.88,25.75-24.88S-528.51,1829.13-528.51,1842.87z"/>
		</g>
		<g>
			<path class="st6" d="M-385.48,1644.2c0,12.44-9.48,22.8-21.9,24.53c-1.25,0.17-2.5,0.26-3.84,0.26
				c-14.21,0-25.75-11.14-25.75-24.88c0-13.73,11.53-24.88,25.75-24.88S-385.48,1630.47-385.48,1644.2z"/>
		</g>
		<g>
			<path class="st6" d="M-161.99,1696.03c0,12.44-9.48,22.8-21.9,24.53c-1.25,0.17-2.5,0.26-3.84,0.26
				c-14.21,0-25.75-11.14-25.75-24.88c0-13.73,11.53-24.88,25.75-24.88S-161.99,1682.29-161.99,1696.03z"/>
		</g>
		<g>
			<path class="st6" d="M25.73,1480.08c0,12.44-9.48,22.8-21.9,24.53c-1.25,0.17-2.5,0.26-3.84,0.26
				c-14.21,0-25.75-11.14-25.75-24.88s11.53-24.88,25.75-24.88S25.73,1466.35,25.73,1480.08z"/>
		</g>
	</g>
	<g>
		<path class="st3" d="M2164.47,3216.26c0-209.29,175.57-379.02,392.26-379.02c164.93,0,306.08,98.38,364.01,237.71"/>
		<path class="st3" d="M2948.9,3216.26c0,190.03-144.82,347.5-333.62,374.79c-19.13,2.76-38.71,4.23-58.55,4.23
			c-176.02,0-324.95-112.03-374.56-266.3"/>
	</g>
	<g>
		<path class="st4" d="M1543.19,574.16c0,21.68-16.54,39.56-37.99,42.67c-2.15,0.35-4.38,0.52-6.7,0.52
			c-24.67,0-44.7-19.35-44.7-43.19c0-23.84,20.02-43.19,44.7-43.19S1543.19,550.32,1543.19,574.16z"/>
	</g>
	<g>
		<path class="st7" d="M555.39,86.13c0,17.36-13.23,31.7-30.39,34.21c-1.7,0.26-3.49,0.35-5.36,0.35
			c-19.76,0-35.76-15.46-35.76-34.55s16-34.55,35.76-34.55C539.39,51.58,555.39,67.04,555.39,86.13z"/>
	</g>
	<polyline class="st2" points="-379.13,809.8 -595.55,967.18 -565.07,1239.26 	"/>
	<path class="st1" d="M2056.49,1969.15h-44.7c-9.83,0-17.88-7.77-17.88-17.28v-25.91c0-9.5,8.05-17.28,17.88-17.28h44.7
		c9.83,0,17.88,7.77,17.88,17.28v25.91C2074.36,1961.38,2066.32,1969.15,2056.49,1969.15z"/>
	<path class="st1" d="M2056.49,2068.48h-44.7c-9.83,0-17.88-7.77-17.88-17.28v-25.91c0-9.5,8.05-17.28,17.88-17.28h44.7
		c9.83,0,17.88,7.77,17.88,17.28v25.91C2074.36,2060.71,2066.32,2068.48,2056.49,2068.48z"/>
	<path class="st1" d="M2054.97,2172.14h-44.7c-9.83,0-17.88-7.77-17.88-17.28v-25.91c0-9.5,8.05-17.28,17.88-17.28h44.7
		c9.83,0,17.88,7.77,17.88,17.28v25.91C2072.84,2164.36,2064.8,2172.14,2054.97,2172.14z"/>
	<path class="st1" d="M2054.97,2275.79h-44.7c-9.83,0-17.88-7.77-17.88-17.28v-25.91c0-9.5,8.05-17.28,17.88-17.28h44.7
		c9.83,0,17.88,7.77,17.88,17.28v25.91C2072.84,2268.01,2064.8,2275.79,2054.97,2275.79z"/>
	<g>
		<g>
			<g>
				<path class="st1" d="M-1169.1,3272.93c97.35-0.26,194.61-0.6,291.96-0.86c17.25-0.09,17.25-26,0-25.91
					c-97.35,0.26-194.61,0.6-291.96,0.86C-1186.36,3247.01-1186.36,3272.93-1169.1,3272.93L-1169.1,3272.93z"/>
			</g>
		</g>
		<g>
			<g>
				<path class="st1" d="M-1169.1,3342.03c97.35-0.26,194.61-0.6,291.96-0.86c17.25-0.09,17.25-26,0-25.91
					c-97.35,0.26-194.61,0.6-291.96,0.86C-1186.36,3316.11-1186.36,3342.03-1169.1,3342.03L-1169.1,3342.03z"/>
			</g>
		</g>
		<g>
			<g>
				<path class="st1" d="M-1517.74,3342.03c97.35-0.26,194.61-0.6,291.96-0.86c17.25-0.09,17.25-26,0-25.91
					c-97.35,0.26-194.61,0.6-291.96,0.86C-1534.99,3316.11-1534.99,3342.03-1517.74,3342.03L-1517.74,3342.03z"/>
			</g>
		</g>
		<g>
			<g>
				<path class="st1" d="M-1873.7,3302.12c25.03,54.16,50.15,108.4,75.18,162.56c7.06,15.2,30.13,2.07,23.15-13.04
					c-25.03-54.16-50.15-108.4-75.18-162.56C-1857.61,3273.88-1880.67,3287.01-1873.7,3302.12L-1873.7,3302.12z"/>
			</g>
		</g>
		<g>
			<g>
				<path class="st1" d="M-1719.95,3288.99c-26.01,54.85-51.94,109.79-77.95,164.63c-7.15,15.03,16,28.25,23.15,13.04
					c26.01-54.85,51.94-109.79,77.95-164.63C-1689.64,3287.01-1712.79,3273.79-1719.95,3288.99L-1719.95,3288.99z"/>
			</g>
		</g>
		<g>
			<g>
				<path class="st1" d="M-1517.74,3272.93c97.35-0.26,194.61-0.6,291.96-0.86c17.25-0.09,17.25-26,0-25.91
					c-97.35,0.26-194.61,0.6-291.96,0.86C-1534.99,3247.01-1534.99,3272.93-1517.74,3272.93L-1517.74,3272.93z"/>
			</g>
		</g>
		<path class="st6" d="M-903.96,3018.63h-598.94c-9.83,0-17.88-7.77-17.88-17.28v-146.84c0-9.5,8.05-17.28,17.88-17.28h598.94
			c9.83,0,17.88,7.77,17.88,17.28v146.84C-886.08,3010.86-894.13,3018.63-903.96,3018.63z"/>
		<path class="st5" d="M-877.14,2655.85h-733.03c-9.83,0-17.88-7.77-17.88-17.28v-69.1c0-9.5,8.05-17.28,17.88-17.28h733.03
			c9.83,0,17.88,7.77,17.88,17.28v69.1C-859.26,2648.07-867.31,2655.85-877.14,2655.85z"/>
		<path class="st5" d="M-1860.47,3286.4v-708.29c0-9.5,8.05-17.28,17.88-17.28h116.21c9.83,0,17.88,7.77,17.88,17.28v708.29
			c0,9.5-8.05,17.28-17.88,17.28h-116.21C-1852.43,3303.68-1860.47,3295.9-1860.47,3286.4z"/>
		<path class="st6" d="M-1252.6,3191.39h-241.36c-9.83,0-17.88-7.77-17.88-17.28v-69.1c0-9.5,8.05-17.28,17.88-17.28h241.36
			c9.83,0,17.88,7.77,17.88,17.28v69.1C-1234.72,3183.61-1242.76,3191.39-1252.6,3191.39z"/>
		<path class="st6" d="M-903.96,3191.39h-241.36c-9.83,0-17.88-7.77-17.88-17.28v-69.1c0-9.5,8.05-17.28,17.88-17.28h241.36
			c9.83,0,17.88,7.77,17.88,17.28v69.1C-886.08,3183.61-894.13,3191.39-903.96,3191.39z"/>
		<g>
			<g>
				<path class="st1" d="M-1598.01,2561.35c-0.27,11.57-0.18,23.15,0.27,34.72c0.63,16.67,27.44,16.67,26.82,0
					c-0.45-11.57-0.45-23.15-0.27-34.72C-1570.84,2544.68-1597.65,2544.68-1598.01,2561.35L-1598.01,2561.35z"/>
			</g>
		</g>
		<g>
			<g>
				<path class="st1" d="M-1535.44,2561.35c-0.27,11.57-0.18,23.15,0.27,34.72c0.63,16.67,27.44,16.67,26.82,0
					c-0.45-11.57-0.45-23.15-0.27-34.72C-1508.26,2544.68-1535.08,2544.68-1535.44,2561.35L-1535.44,2561.35z"/>
			</g>
		</g>
		<g>
			<g>
				<path class="st1" d="M-1472.86,2561.35c-0.27,11.57-0.18,23.15,0.27,34.72c0.63,16.67,27.44,16.67,26.82,0
					c-0.45-11.57-0.45-23.15-0.27-34.72C-1445.69,2544.68-1472.5,2544.68-1472.86,2561.35L-1472.86,2561.35z"/>
			</g>
		</g>
		<g>
			<g>
				<path class="st1" d="M-1410.29,2561.35c-0.27,11.57-0.18,23.15,0.27,34.72c0.63,16.67,27.44,16.67,26.82,0
					c-0.45-11.57-0.45-23.15-0.27-34.72C-1383.11,2544.68-1409.93,2544.68-1410.29,2561.35L-1410.29,2561.35z"/>
			</g>
		</g>
		<g>
			<g>
				<path class="st1" d="M-1347.71,2561.35c-0.27,11.57-0.18,23.15,0.27,34.72c0.63,16.67,27.44,16.67,26.82,0
					c-0.45-11.57-0.45-23.15-0.27-34.72C-1320.53,2544.68-1347.35,2544.68-1347.71,2561.35L-1347.71,2561.35z"/>
			</g>
		</g>
		<g>
			<g>
				<path class="st1" d="M-1285.14,2561.35c-0.27,11.57-0.18,23.15,0.27,34.72c0.63,16.67,27.44,16.67,26.82,0
					c-0.45-11.57-0.45-23.15-0.27-34.72C-1257.96,2544.68-1284.78,2544.68-1285.14,2561.35L-1285.14,2561.35z"/>
			</g>
		</g>
		<g>
			<g>
				<path class="st1" d="M-1222.56,2561.35c-0.27,11.57-0.18,23.15,0.27,34.72c0.63,16.67,27.44,16.67,26.82,0
					c-0.45-11.57-0.45-23.15-0.27-34.72C-1195.38,2544.68-1222.2,2544.68-1222.56,2561.35L-1222.56,2561.35z"/>
			</g>
		</g>
		<g>
			<g>
				<path class="st1" d="M-1159.98,2561.35c-0.27,11.57-0.18,23.15,0.27,34.72c0.63,16.67,27.44,16.67,26.82,0
					c-0.45-11.57-0.45-23.15-0.27-34.72C-1132.81,2544.68-1159.63,2544.68-1159.98,2561.35L-1159.98,2561.35z"/>
			</g>
		</g>
		<g>
			<g>
				<path class="st1" d="M-1097.41,2561.35c-0.27,11.57-0.18,23.15,0.27,34.72c0.63,16.67,27.44,16.67,26.82,0
					c-0.45-11.57-0.45-23.15-0.27-34.72C-1070.23,2544.68-1097.05,2544.68-1097.41,2561.35L-1097.41,2561.35z"/>
			</g>
		</g>
		<g>
			<g>
				<path class="st1" d="M-1034.83,2561.35c-0.27,11.57-0.18,23.15,0.27,34.72c0.63,16.67,27.44,16.67,26.82,0
					c-0.45-11.57-0.45-23.15-0.27-34.72C-1007.66,2544.68-1034.48,2544.68-1034.83,2561.35L-1034.83,2561.35z"/>
			</g>
		</g>
		<g>
			<g>
				<path class="st1" d="M-972.26,2561.35c-0.27,11.57-0.18,23.15,0.27,34.72c0.63,16.67,27.44,16.67,26.82,0
					c-0.45-11.57-0.45-23.15-0.27-34.72C-945.08,2544.68-971.9,2544.68-972.26,2561.35L-972.26,2561.35z"/>
			</g>
		</g>
		<g>
			<g>
				<path class="st1" d="M-918.62,2561.35c-0.27,11.57-0.18,23.15,0.27,34.72c0.63,16.67,27.44,16.67,26.82,0
					c-0.45-11.57-0.45-23.15-0.27-34.72C-891.45,2544.68-918.26,2544.68-918.62,2561.35L-918.62,2561.35z"/>
			</g>
		</g>
		<g>
			<g>
				<path class="st1" d="M-1854.57,2639.61c47.02,0,94.04,0,141.15,0c17.25,0,17.25-25.91,0-25.91c-47.02,0-94.04,0-141.15,0
					C-1871.82,2613.7-1871.82,2639.61-1854.57,2639.61L-1854.57,2639.61z"/>
			</g>
		</g>
	</g>
	<g>
		<g>
			<path class="st1" d="M2182.44,3346.69c22.97,0,23.06-34.55,0-34.55C2159.38,3312.14,2159.38,3346.69,2182.44,3346.69
				L2182.44,3346.69z"/>
		</g>
	</g>
	<g>
		<g>
			<path class="st1" d="M2182.44,3347.47c22.97,0,23.06-34.55,0-34.55C2159.38,3312.92,2159.38,3347.47,2182.44,3347.47
				L2182.44,3347.47z"/>
		</g>
	</g>
	<g>
		<g>
			<path class="st1" d="M2181.82,3347.82c22.97,0,23.06-34.55,0-34.55C2158.84,3313.26,2158.75,3347.82,2181.82,3347.82
				L2181.82,3347.82z"/>
		</g>
	</g>
	<g>
		<g>
			<path class="st1" d="M2182.71,3346.95c22.97,0,23.06-34.55,0-34.55C2159.65,3312.4,2159.65,3346.95,2182.71,3346.95
				L2182.71,3346.95z"/>
		</g>
	</g>
	<g>
		<g>
			<path class="st1" d="M2164.74,3232.85c22.97,0,23.06-34.55,0-34.55C2141.68,3198.3,2141.68,3232.85,2164.74,3232.85
				L2164.74,3232.85z"/>
		</g>
	</g>
	<g>
		<g>
			<path class="st1" d="M2164.74,3232.85c22.97,0,23.06-34.55,0-34.55C2141.68,3198.3,2141.68,3232.85,2164.74,3232.85
				L2164.74,3232.85z"/>
		</g>
	</g>
	<g>
		<g>
			<path class="st1" d="M2164.74,3232.85c22.97,0,23.06-34.55,0-34.55C2141.68,3198.3,2141.68,3232.85,2164.74,3232.85
				L2164.74,3232.85z"/>
		</g>
	</g>
	<g>
		<g>
			<path class="st1" d="M2164.74,3232.85c22.97,0,23.06-34.55,0-34.55C2141.68,3198.3,2141.68,3232.85,2164.74,3232.85
				L2164.74,3232.85z"/>
		</g>
	</g>
	<g>
		<g>
			<path class="st1" d="M2164.74,3232.85c22.97,0,23.06-34.55,0-34.55C2141.68,3198.3,2141.68,3232.85,2164.74,3232.85
				L2164.74,3232.85z"/>
		</g>
	</g>
	<g>
		<g>
			<path class="st1" d="M2164.38,3232.85c22.97,0,23.06-34.55,0-34.55C2141.41,3198.3,2141.41,3232.85,2164.38,3232.85
				L2164.38,3232.85z"/>
		</g>
	</g>
	<g>
		<g>
			<path class="st1" d="M2164.38,3232.85c22.97,0,23.06-34.55,0-34.55C2141.41,3198.3,2141.41,3232.85,2164.38,3232.85
				L2164.38,3232.85z"/>
		</g>
	</g>
	<g>
		<g>
			<path class="st1" d="M2164.38,3232.85c22.97,0,23.06-34.55,0-34.55C2141.41,3198.3,2141.41,3232.85,2164.38,3232.85
				L2164.38,3232.85z"/>
		</g>
	</g>
	<g>
		<g>
			<path class="st1" d="M2164.12,3232.59c22.97,0,23.06-34.55,0-34.55C2141.14,3198.04,2141.05,3232.59,2164.12,3232.59
				L2164.12,3232.59z"/>
		</g>
	</g>
	<g>
		<g>
			<path class="st1" d="M2164.12,3232.59c22.97,0,23.06-34.55,0-34.55C2141.14,3198.04,2141.05,3232.59,2164.12,3232.59
				L2164.12,3232.59z"/>
		</g>
	</g>
	<g>
		<g>
			<path class="st1" d="M2164.12,3232.59c22.97,0,23.06-34.55,0-34.55C2141.14,3198.04,2141.05,3232.59,2164.12,3232.59
				L2164.12,3232.59z"/>
		</g>
	</g>
	<g>
		<g>
			<path class="st1" d="M2164.38,3232.59c22.97,0,23.06-34.55,0-34.55C2141.41,3198.04,2141.41,3232.59,2164.38,3232.59
				L2164.38,3232.59z"/>
		</g>
	</g>
	<g>
		<g>
			<path class="st1" d="M2164.38,3232.59c22.97,0,23.06-34.55,0-34.55C2141.41,3198.04,2141.41,3232.59,2164.38,3232.59
				L2164.38,3232.59z"/>
		</g>
	</g>
	<g>
		<g>
			<path class="st1" d="M2196.21,3149.75c-15.55,19.61-31.56,38.96-45.41,59.77c-12.52,18.74,18.42,36.11,30.84,17.45
				c13.86-20.82,29.86-40.17,45.41-59.77c5.9-7.43,1.16-19.26-6.44-23.67C2211.49,3138.26,2202.02,3142.41,2196.21,3149.75
				L2196.21,3149.75z"/>
		</g>
	</g>
	<g>
		<g>
			<path class="st1" d="M2100.2,3159.25c9.83,13.39,19.4,27.04,28.52,40.94c7.87,12.01,14.12,25.22,27,32.82
				c19.67,11.57,37.72-18.31,18.06-29.8c-8.4-4.92-14.66-21.16-20.02-29.2c-7.33-10.88-14.93-21.59-22.71-32.22
				C2117.9,3123.84,2086.88,3141.03,2100.2,3159.25L2100.2,3159.25z"/>
		</g>
	</g>
	<g>
		<g>
			<path class="st1" d="M2947.83,3234.49c22.97,0,23.06-34.55,0-34.55C2924.85,3199.94,2924.77,3234.49,2947.83,3234.49
				L2947.83,3234.49z"/>
		</g>
	</g>
	<g>
		<g>
			<path class="st1" d="M2948.72,3234.49c22.97,0,23.06-34.55,0-34.55C2925.66,3199.94,2925.66,3234.49,2948.72,3234.49
				L2948.72,3234.49z"/>
		</g>
	</g>
	<g>
		<g>
			<path class="st1" d="M2948.72,3234.49c22.97,0,23.06-34.55,0-34.55C2925.66,3199.94,2925.66,3234.49,2948.72,3234.49
				L2948.72,3234.49z"/>
		</g>
	</g>
	<g>
		<g>
			<path class="st1" d="M2948.72,3234.49c22.97,0,23.06-34.55,0-34.55C2925.66,3199.94,2925.66,3234.49,2948.72,3234.49
				L2948.72,3234.49z"/>
		</g>
	</g>
	<g>
		<g>
			<path class="st1" d="M2948.99,3235.61c22.97,0,23.06-34.55,0-34.55C2926.02,3201.06,2925.93,3235.61,2948.99,3235.61
				L2948.99,3235.61z"/>
		</g>
	</g>
	<g>
		<g>
			<path class="st1" d="M2948.99,3235.61c22.97,0,23.06-34.55,0-34.55C2926.02,3201.06,2925.93,3235.61,2948.99,3235.61
				L2948.99,3235.61z"/>
		</g>
	</g>
	<g>
		<g>
			<path class="st1" d="M2948.99,3235.61c22.97,0,23.06-34.55,0-34.55C2926.02,3201.06,2925.93,3235.61,2948.99,3235.61
				L2948.99,3235.61z"/>
		</g>
	</g>
	<g>
		<g>
			<path class="st1" d="M2949.53,3236.13c22.97,0,23.06-34.55,0-34.55C2926.55,3201.58,2926.55,3236.13,2949.53,3236.13
				L2949.53,3236.13z"/>
		</g>
	</g>
	<g>
		<g>
			<path class="st1" d="M2949.89,3236.39c22.97,0,23.06-34.55,0-34.55C2926.82,3201.84,2926.82,3236.39,2949.89,3236.39
				L2949.89,3236.39z"/>
		</g>
	</g>
	<g>
		<g>
			<path class="st1" d="M2931.47,3208.92c-7.33,9.5-17.52,17.45-25.92,26c-8.94,8.98-17.7,18.14-26.37,27.3
				c-15.38,16.41,9.83,40.94,25.3,24.44c18.86-20.21,41.03-38.61,57.93-60.29c5.81-7.51,1.16-19.26-6.44-23.67
				C2946.94,3197.43,2937.28,3201.49,2931.47,3208.92L2931.47,3208.92z"/>
		</g>
	</g>
	<g>
		<g>
			<path class="st1" d="M2933.7,3225.07c10.55,24.27,28.78,44.14,45.14,64.87c5.9,7.51,15.38,11.23,24.49,6.22
				c7.6-4.15,12.25-16.24,6.44-23.67c-13.95-17.71-32.54-35.93-41.57-56.66c-3.75-8.64-11.8-14.68-21.99-12.09
				C2937.82,3205.98,2929.95,3216.52,2933.7,3225.07L2933.7,3225.07z"/>
		</g>
	</g>
	<g>
		<g>
			<path class="st1" d="M2920.92,3092.31c22.97,0,23.06-34.55,0-34.55C2897.95,3057.76,2897.86,3092.31,2920.92,3092.31
				L2920.92,3092.31z"/>
		</g>
	</g>
	<g>
		<g>
			<path class="st1" d="M2920.56,3092.66c22.97,0,23.06-34.55,0-34.55C2897.59,3058.11,2897.5,3092.66,2920.56,3092.66
				L2920.56,3092.66z"/>
		</g>
	</g>
	<g>
		<g>
			<path class="st1" d="M2920.56,3092.66c22.97,0,23.06-34.55,0-34.55C2897.59,3058.11,2897.5,3092.66,2920.56,3092.66
				L2920.56,3092.66z"/>
		</g>
	</g>
	<g>
		<g>
			<path class="st1" d="M2360.51,3275.17c1.16,1.81,1.43,2.07,0.72,0.86c0.36,1.21,0.71,2.42,0.98,3.71
				c0.72,2.85,1.43,5.7,2.32,8.55c1.88,6.05,4.11,12.01,6.61,17.79c3.67,8.64,11.89,14.77,21.99,12.09
				c8.4-2.25,16.18-12.61,12.52-21.25c-2.86-6.65-5.36-13.39-7.33-20.3c-1.88-6.48-2.95-13.3-6.97-18.92
				c-5.45-7.69-15.73-11.14-24.49-6.22C2358.99,3256,2355.06,3267.4,2360.51,3275.17L2360.51,3275.17z"/>
		</g>
	</g>
	<g>
		<g>
			<path class="st1" d="M2381.52,3288.65c-23.51,15.98-49.88,39.82-63.29,65.13c-13.59,25.65,11.98,57.61,31.38,73.94
				c17.97,15.12,46.22,26.17,69.19,14.68c12.16-6.13,22.17-20.13,31.65-29.37c17.34-16.84,15.29-20.21,39.96-8.38
				c20.56,9.85,38.71-19.95,18.06-29.8c-13.95-6.74-32.27-20.38-48.81-17.71c-16.9,2.76-27.26,24.1-38.17,34.64
				c-4.92,4.75-15.73,19.09-22.62,20.73c-15.2,3.71-37.28-18.4-41.57-29.97c-9.21-24.79,22.71-50.79,42.19-64.01
				C2418.26,3305.75,2400.38,3275.78,2381.52,3288.65L2381.52,3288.65z"/>
		</g>
	</g>
	<g>
		<g>
			<path class="st1" d="M2483.52,3391.78c-2.41,27.04-11.98,70.31,7.51,94.15c17.61,21.59,51.94,18.74,77.24,18.57
				c23.87-0.26,43.71-1.73,52.56-25.65c9.39-25.31,9.39-70.83,0.89-95.96c-2.77,6.48-5.45,13.04-8.22,19.52
				c11-6.22,21.54-12.61,32.09-19.44c-7.24-0.86-14.48-1.81-21.63-2.68c21.9,23.06,47.2,53.81,78.93,64.18
				c31.11,10.11,44.7-9.33,63.38-31.96c14.21-17.19,34.06-36.8,24.67-60.12c-9.83-24.44-46.13-41.12-63.65-60.12
				c-15.38-16.58-40.58,7.86-25.3,24.44c9.83,10.62,19.93,19.95,31.29,29.02c15.91,12.78,21.19,11.23,18.86,27.81
				c-6.35,9.16-13.32,17.88-20.92,26.09c-9.65,18.4-23.33,17.1-41.03-3.89c-15.2-10.71-28.25-26.6-40.85-39.91
				c-5.1-5.36-15.38-6.82-21.63-2.68c-10.55,6.82-21.1,13.3-32.09,19.43c-6.53,3.71-10.64,12.27-8.22,19.52
				c4.56,13.47,2.23,27.81,1.7,41.55c-0.89,23.49,1.61,32.56-27.35,36.28c-6.61-0.09-13.23-0.17-19.85-0.17
				c-18.77,1.47-27-4.66-24.76-18.48c-6.08-16.07,0.72-42.76,2.23-59.34C2521.24,3369.58,2485.49,3369.76,2483.52,3391.78
				L2483.52,3391.78z"/>
		</g>
	</g>
	<g>
		<g>
			<path class="st1" d="M2735.79,3304.02c0.54-11.4,3.22-22.11,7.24-32.82c3.4-8.72-3.75-18.92-12.52-21.25
				c-10.01-2.68-18.59,3.28-21.99,12.09c-5.19,13.47-7.87,27.64-8.58,41.98c-0.45,9.33,8.58,17.28,17.88,17.28
				C2728.01,3321.3,2735.34,3313.35,2735.79,3304.02L2735.79,3304.02z"/>
		</g>
	</g>
	<g>
		<g>
			<path class="st1" d="M2727.3,3283.55c20.02-2.33,40.05-3.63,60.25-3.63c11.71,0,23.69,1.3,34.6-3.71
				c23.06-10.8,23.6-39.3,23.51-60.64c-0.09-20.56,0.45-52.43-21.99-63.75c-13.5-6.82-33.08-3.37-47.83-3.37
				c-8.4,0-22.44,2.94-29.86,0.09c-9.3-3.54-11.53-9.24-16.81-17.53c-12.07-18.92-43-1.55-30.84,17.45
				c9.03,14.17,15.02,30.23,32.9,34.03c10.82,2.33,23.6,0.6,34.6,0.52c6.26,0,35.76-3.89,39.78-0.09c8.4,7.77,8.05,56.32-2.06,62.8
				c-5.9,3.8-28.78-0.17-36.29,0.09c-13.41,0.52-26.82,1.73-40.14,3.28C2704.77,3251.59,2704.5,3286.14,2727.3,3283.55
				L2727.3,3283.55z"/>
		</g>
	</g>
	<g>
		<g>
			<path class="st1" d="M2724.26,3147.68c19.4-24.19,46.66-50.62,57.12-79.81c10.01-28.07-6.97-51.83-28.78-68.84
				c-19.4-15.12-43.53-28.85-68.21-17.02c-10.91,5.18-18.59,15.03-25.92,24.1c-6.44,8.03-18.06,32.39-26.91,36.54
				c5.99,0,12.07,0,18.06,0c-13.77-6.31-25.39-13.22-40.14-17.02c-22.26-5.7-31.73,27.64-9.48,33.34
				c15.73,4.06,30.75,19.09,47.56,14.43c14.84-4.15,20.65-20.73,28.34-31.87c4.65-6.65,13.23-22.29,21.01-26
				c12.52-5.96,32.54,6.39,40.23,15.81c24.49,29.89-20.92,70.4-38.08,91.91C2685.01,3140.6,2710.13,3165.3,2724.26,3147.68
				L2724.26,3147.68z"/>
		</g>
	</g>
	<g>
		<g>
			<path class="st1" d="M2619.22,3041.44c2.06-27.73-4.38-60.98-11.35-87.76c-6.53-25.22-31.29-27.64-55.07-28.33
				c-21.9-0.6-58.2-0.09-66.69,24.1c-4.38,12.35-3.84,27.38-5.1,40.17c-1.79,17.62-3.22,35.33-4.29,53.04
				c-1.43,22.2,34.33,22.11,35.76,0c1.16-17.71,2.5-35.33,4.29-53.04c0.8-8.03-0.98-22.54,7.06-27.47
				c6.44-3.89,21.54-2.5,28.96-2.25c5.72,0.17,18.5,0.43,20.56,2.94c3.66,4.41,3.31,19.43,4.29,25.22
				c2.95,17.71,7.15,35.33,5.81,53.38C2581.76,3063.63,2617.52,3063.55,2619.22,3041.44L2619.22,3041.44z"/>
		</g>
	</g>
	<g>
		<g>
			<path class="st1" d="M2487.99,3031.85c-4.29,1.47-15.82,7.43-20.83,7.17c-4.02-0.26-5.9-3.63-11.35-9.85
				c-10.91-12.44-27.62-24.01-41.39-33.51c-21.9-15.03-44.25-15.89-63.56,3.28c-16.18,16.07-41.66,43.62-38.17,68.07
				c4.11,28.94,42.91,48.03,59.36,70.22c13.23,17.97,44.25,0.69,30.84-17.45c-12.78-17.28-30.3-29.28-43.89-45.43
				c-10.73-12.78-9.74-16.67,0.09-29.54c3.31-4.23,6.7-8.55,10.01-12.78c14.75-10.8,26.82-10.54,36.2,0.6
				c17.79,9.42,29.68,32.82,48.63,39.91c14.75,5.53,29.5-2.68,43.53-7.51C2519.01,3057.85,2509.71,3024.42,2487.99,3031.85
				L2487.99,3031.85z"/>
		</g>
	</g>
	<g>
		<g>
			<path class="st1" d="M2380.27,3120.99c-4.92,5.27-9.57,10.37-12.96,16.67c-1.79,3.89-3.4,7.86-4.83,11.83
				c6.08-0.69,5.9-1.04-0.71-0.95c-17.97,4.06-42.19-0.09-61.06,2.16c-32.9,3.89-40.85,14.34-42.64,45.61
				c-1.52,27.47-5.1,60.9,20.47,79.9c26.37,19.52,70.89,11.57,100.75,6.74c22.62-3.63,13.05-36.97-9.48-33.34
				c-22.53,3.63-74.55,12.44-77.24-21.08c-0.8-10.45,2.95-22.03,1.16-32.22c2.95-5.7,1.79-8.9-3.49-9.5
				c6.79-1.21,13.68-2.07,20.56-2.59c20.02-1.9,45.5,3.71,64.45-1.55c19.85-5.53,17.97-24.01,30.21-37.23
				C2420.94,3128.94,2395.73,3104.4,2380.27,3120.99L2380.27,3120.99z"/>
		</g>
	</g>
	<g>
		<g>
			<path class="st1" d="M2280.51,3197.78c22.97,0,23.06-34.55,0-34.55C2257.53,3163.23,2257.53,3197.78,2280.51,3197.78
				L2280.51,3197.78z"/>
		</g>
	</g>
	<path class="st5" d="M-1377.75,1118.34"/>
	<g>
		<g>
			<path class="st1" d="M-1373.1,1135.27c31.11,13.3,57.3,34.21,87.96,47.94c15.55,7,29.23-15.38,13.5-22.37
				c-30.66-13.73-56.85-34.72-87.96-47.94C-1375.15,1106.16-1388.83,1128.53-1373.1,1135.27L-1373.1,1135.27z"/>
		</g>
	</g>
	<g>
		<g>
			<path class="st1" d="M-1378.91,1134.49c38.26,22.03,76.43,44.14,114.6,66.34c19.76,11.49,37.72-18.31,18.06-29.8
				c-38.17-22.2-76.34-44.31-114.6-66.34C-1380.7,1093.29-1398.75,1123.09-1378.91,1134.49L-1378.91,1134.49z"/>
		</g>
	</g>
	<g>
		<g>
			<path class="st1" d="M-1245.27,1200.74c40.32-17.36,78.13-42.15,115.59-64.52c19.58-11.66,1.61-41.55-18.06-29.8
				c-37.46,22.37-75.36,47.16-115.59,64.52C-1284.33,1180.01-1266.09,1209.72-1245.27,1200.74L-1245.27,1200.74z"/>
		</g>
	</g>
	<g>
		<g>
			<path class="st1" d="M-1274.77,1185.1c2.23,43.1,3.13,86.2,2.68,129.39c-0.27,22.2,35.49,22.29,35.76,0
				c0.45-43.19-0.45-86.29-2.68-129.39C-1240.17,1162.91-1275.93,1162.82-1274.77,1185.1L-1274.77,1185.1z"/>
		</g>
	</g>
	<g>
		<g>
			<path class="st1" d="M-1393.03,1121.79c4.83,44.22,2.32,89.83,1.16,134.23c-0.54,22.2,35.22,22.2,35.76,0
				c1.16-44.4,3.67-90.01-1.16-134.23C-1359.69,1099.85-1395.45,1099.59-1393.03,1121.79L-1393.03,1121.79z"/>
		</g>
	</g>
	<g>
		<g>
			<path class="st1" d="M-1381.05,1269.24c38.17,24.27,75.63,52,119.34,66.08c21.9,7.08,31.29-26.35,9.48-33.34
				c-40.23-12.96-75.72-40.25-110.85-62.54C-1382.31,1227.17-1400.27,1257.06-1381.05,1269.24L-1381.05,1269.24z"/>
		</g>
	</g>
	<g>
		<g>
			<path class="st1" d="M-1246.16,1334.45c40.85-24.36,82.69-47.08,125.42-68.07c20.47-10.11,2.41-39.91-18.06-29.8
				c-42.82,21.08-84.57,43.71-125.42,68.07C-1283.79,1316.31-1265.83,1346.2-1246.16,1334.45L-1246.16,1334.45z"/>
		</g>
	</g>
	<g>
		<g>
			<path class="st1" d="M-1128.79,1267.77c22.97,0,23.06-34.55,0-34.55C-1151.76,1233.22-1151.85,1267.77-1128.79,1267.77
				L-1128.79,1267.77z"/>
		</g>
	</g>
	<g>
		<g>
			<path class="st1" d="M-1152.03,1121.01c0.54,43.19,1.43,86.2,6.35,129.13c2.5,21.85,38.35,22.11,35.76,0
				c-5.01-42.93-5.81-86.03-6.35-129.13C-1116.54,1098.81-1152.3,1098.73-1152.03,1121.01L-1152.03,1121.01z"/>
		</g>
	</g>
	<g>
		<g>
			<path class="st1" d="M-1368.36,1133.36c43.18-15.81,79.92-45.52,120.5-66.25c20.38-10.37,2.32-40.25-18.06-29.8
				c-37.55,19.18-72.14,48.2-111.92,62.8C-1399.11,1107.88-1389.9,1141.31-1368.36,1133.36L-1368.36,1133.36z"/>
		</g>
	</g>
	<g>
		<g>
			<path class="st1" d="M-1258.67,1070.22c19.31,7.34,36.38,19.95,54.98,28.76c15.82,7.51,42.73,15.2,53.55,29.37
				c13.5,17.71,44.61,0.43,30.84-17.45c-14.39-18.74-38.17-28.59-59.36-38.44c-23.96-11.14-45.86-26.09-70.62-35.5
				C-1270.65,1028.76-1279.95,1062.19-1258.67,1070.22L-1258.67,1070.22z"/>
		</g>
	</g>
	<polyline class="st3" points="-792.22,2565.15 -792.22,2728.4 -792.22,3195.71 	"/>
	<line class="st3" x1="-1628.05" y1="2733.59" x2="-796.69" y2="2733.59"/>
	<line class="st3" x1="-1625.9" y1="3441.88" x2="-1625.9" y2="2759.5"/>
	<line class="st3" x1="-1592.29" y1="3441.88" x2="-725.17" y2="3441.88"/>
	<line class="st3" x1="-617.9" y1="2681.76" x2="-617.9" y2="3329.59"/>
	<g>
		<g>
			<path class="st1" d="M-1626.35,2751.21c22.97,0,23.06-34.55,0-34.55C-1649.32,2716.66-1649.41,2751.21-1626.35,2751.21
				L-1626.35,2751.21z"/>
		</g>
	</g>
	<g>
		<g>
			<path class="st1" d="M-1626.89,2758.38c22.97,0,23.06-34.55,0-34.55C-1649.95,2723.83-1649.95,2758.38-1626.89,2758.38
				L-1626.89,2758.38z"/>
		</g>
	</g>
	<g>
		<g>
			<path class="st1" d="M-1628.05,2752.85c22.97,0,23.06-34.55,0-34.55C-1651.02,2718.3-1651.11,2752.85-1628.05,2752.85
				L-1628.05,2752.85z"/>
		</g>
	</g>
	<g>
		<g>
			<path class="st1" d="M-1628.59,2772.72c22.97,0,23.06-34.55,0-34.55S-1651.65,2772.72-1628.59,2772.72L-1628.59,2772.72z"/>
		</g>
	</g>
	<g>
		<g>
			<path class="st1" d="M-1628.59,2772.72c22.97,0,23.06-34.55,0-34.55S-1651.65,2772.72-1628.59,2772.72L-1628.59,2772.72z"/>
		</g>
	</g>
	<g>
		<g>
			<path class="st1" d="M-1646.46,2752.16c0,0.95,0,1.81,0,2.76c0,9.07,8.22,17.71,17.88,17.28c9.65-0.43,17.88-7.6,17.88-17.28
				c0-0.95,0-1.81,0-2.76c0-9.07-8.22-17.71-17.88-17.28C-1638.33,2735.32-1646.46,2742.48-1646.46,2752.16L-1646.46,2752.16z"/>
		</g>
	</g>
	<g>
		<g>
			<path class="st1" d="M-1645.93,2754.92c0,2.59,0,5.18,0,7.69c0,9.07,8.22,17.71,17.88,17.28c9.65-0.43,17.88-7.6,17.88-17.28
				c0-2.59,0-5.18,0-7.69c0-9.07-8.22-17.71-17.88-17.28C-1637.7,2738.08-1645.93,2745.25-1645.93,2754.92L-1645.93,2754.92z"/>
		</g>
	</g>
	<g>
		<g>
			<path class="st1" d="M-1628.59,2769.95c22.97,0,23.06-34.55,0-34.55S-1651.65,2769.95-1628.59,2769.95L-1628.59,2769.95z"/>
		</g>
	</g>
	<g>
		<g>
			<path class="st1" d="M-1629.75,2760.02c22.97,0,23.06-34.55,0-34.55C-1652.81,2725.47-1652.81,2760.02-1629.75,2760.02
				L-1629.75,2760.02z"/>
		</g>
	</g>
	<g>
		<g>
			<path class="st1" d="M-1629.21,2755.1c22.97,0,23.06-34.55,0-34.55C-1652.18,2720.54-1652.27,2755.1-1629.21,2755.1
				L-1629.21,2755.1z"/>
		</g>
	</g>
	<g>
		<g>
			<path class="st1" d="M-1628.59,2753.97c22.97,0,23.06-34.55,0-34.55S-1651.65,2753.97-1628.59,2753.97L-1628.59,2753.97z"/>
		</g>
	</g>
	<g>
		<g>
			<path class="st1" d="M-1628.59,2766.67c22.97,0,23.06-34.55,0-34.55S-1651.65,2766.67-1628.59,2766.67L-1628.59,2766.67z"/>
		</g>
	</g>
	<g>
		<g>
			<path class="st1" d="M-1626.35,3462.44c22.97,0,23.06-34.55,0-34.55C-1649.32,3427.89-1649.41,3462.44-1626.35,3462.44
				L-1626.35,3462.44z"/>
		</g>
	</g>
	<g>
		<g>
			<path class="st1" d="M-1588.72,3424.52c-10.28,0.35-20.56,0.78-30.84,1.12c-9.65,0.35-17.88,7.69-17.88,17.28
				c0,9.07,8.22,17.62,17.88,17.28c10.28-0.35,20.56-0.78,30.84-1.12c9.65-0.35,17.88-7.69,17.88-17.28
				C-1570.84,3432.72-1578.97,3424.17-1588.72,3424.52L-1588.72,3424.52z"/>
		</g>
	</g>
	<g>
		<g>
			<path class="st1" d="M-1621.17,3460.28c22.97,0,23.06-34.55,0-34.55C-1644.23,3425.73-1644.23,3460.28-1621.17,3460.28
				L-1621.17,3460.28z"/>
		</g>
	</g>
	<g>
		<g>
			<path class="st1" d="M-1620.09,3461.4c22.97,0,23.06-34.55,0-34.55C-1643.07,3426.85-1643.07,3461.4-1620.09,3461.4
				L-1620.09,3461.4z"/>
		</g>
	</g>
	<g>
		<g>
			<path class="st1" d="M-1620.09,3461.4c0.18,0,0.36,0,0.54,0c9.39,0,18.33-7.95,17.88-17.28s-7.87-17.28-17.88-17.28
				c-0.18,0-0.36,0-0.54,0c-9.39,0-18.33,7.95-17.88,17.28C-1637.52,3453.45-1630.1,3461.4-1620.09,3461.4L-1620.09,3461.4z"/>
		</g>
	</g>
	<g>
		<g>
			<path class="st1" d="M-1608.65,3459.16c0.36,0,0.8,0,1.16,0c9.39,0,18.33-7.95,17.88-17.28s-7.87-17.28-17.88-17.28
				c-0.36,0-0.8,0-1.16,0c-9.39,0-18.33,7.95-17.88,17.28S-1618.66,3459.16-1608.65,3459.16L-1608.65,3459.16z"/>
		</g>
	</g>
	<g>
		<g>
			<path class="st1" d="M-793.2,3217.3c67.4-1.12,122.56,13.13,147.86,79.38c27.71,72.56-23.78,131.64-101.1,126.72
				c-22.97-1.47-22.88,33.08,0,34.55c83.85,5.36,161.36-58.65,143.57-143.56c-8.4-40.17-30.66-81.97-65.79-105.98
				c-36.83-25.14-80.9-26.26-124.53-25.57C-816.18,3183.18-816.27,3217.73-793.2,3217.3L-793.2,3217.3z"/>
		</g>
	</g>
	<g>
		<g>
			<path class="st1" d="M-793.2,2578.71c33.97,0.17,71.34-3.63,101.64,13.91c34.51,19.95,59.71,58.74,56.94,97.78
				c-1.52,22.2,34.24,22.11,35.76,0c3.22-46.3-23.06-89.92-60.34-117.99c-39.87-30.06-86-28.07-134.09-28.25
				C-816.27,2544.08-816.27,2578.63-793.2,2578.71L-793.2,2578.71z"/>
		</g>
	</g>
	<g>
		<g>
			<path class="st1" d="M-634.8,2676.06c0,1.47,0,2.94,0,4.41c0,9.07,8.22,17.71,17.88,17.28c9.65-0.43,17.88-7.6,17.88-17.28
				c0-1.47,0-2.94,0-4.41c0-9.07-8.22-17.71-17.88-17.28C-626.66,2659.22-634.8,2666.39-634.8,2676.06L-634.8,2676.06z"/>
		</g>
	</g>
	<g>
		<g>
			<path class="st1" d="M-635.42,2680.47c0,0.17,0,0.35,0,0.52c0,9.07,8.22,17.71,17.88,17.28c9.65-0.43,17.88-7.6,17.88-17.28
				c0-0.17,0-0.35,0-0.52c0-9.07-8.22-17.71-17.88-17.28C-627.2,2663.62-635.42,2670.79-635.42,2680.47L-635.42,2680.47z"/>
		</g>
	</g>
	<g>
		<g>
			<path class="st1" d="M-599.67,2680.47c0-2.76,0-5.53,0-8.29c0-9.07-8.22-17.71-17.88-17.28c-9.65,0.43-17.88,7.6-17.88,17.28
				c0,2.76,0,5.53,0,8.29c0,9.07,8.22,17.71,17.88,17.28C-607.8,2697.31-599.67,2690.14-599.67,2680.47L-599.67,2680.47z"/>
		</g>
	</g>
	<g>
		<g>
			<path class="st1" d="M-635.33,2667.77c-0.27,4.58-0.09,9.16,0.45,13.82c1.07,8.98,7.42,17.71,17.88,17.28
				c8.76-0.35,19.04-7.69,17.88-17.28c-0.54-4.58-0.72-9.16-0.45-13.82c0.45-9.07-8.58-17.71-17.88-17.28
				C-627.56,2650.92-634.89,2658.09-635.33,2667.77L-635.33,2667.77z"/>
		</g>
	</g>
	<g>
		<g>
			<path class="st1" d="M-634.8,2669.5c-0.18,1.81-0.45,3.71-0.63,5.53c-0.98,8.98,8.94,17.62,17.88,17.28
				c10.55-0.43,16.81-7.6,17.88-17.28c0.18-1.81,0.45-3.71,0.63-5.53c1.07-8.98-8.94-17.62-17.88-17.28
				C-627.47,2652.65-633.63,2659.82-634.8,2669.5L-634.8,2669.5z"/>
		</g>
	</g>
	<path class="st3" d="M2372.4,1779.12h53.55c9.83,0,17.88,7.77,17.88,17.28v604.64c0,9.5-8.05,17.28-17.88,17.28h-473.79
		c-9.83,0-17.88-7.77-17.88-17.28V1796.4c0-9.5,8.05-17.28,17.88-17.28h45.95"/>
	<path class="st3" d="M2367.84,1722.98h134.09c14.75,0,26.82,11.66,26.82,25.91v716.93c0,14.25-12.07,25.91-26.82,25.91h-625.76
		c-14.75,0-26.82-11.66-26.82-25.91v-716.93c0-14.25,12.07-25.91,26.82-25.91h128.73"/>
	<g>
		<g>
			<path class="st1" d="M2020.64,1797c4.74-19.09-3.84-41.46,4.56-59.08c9.65-20.38,33.34-21.42,53.55-20.47
				c22.97,1.12,22.97-33.43,0-34.55c-27.98-1.38-56.76,3.11-75.72,24.96c-7.78,8.98-13.23,19.52-15.38,31.1
				c-3.13,16.33,2.59,32.74-1.43,48.8C1980.77,1809.35,2015.28,1818.59,2020.64,1797L2020.64,1797z"/>
		</g>
	</g>
	<line class="st3" x1="2004.37" y1="1794.15" x2="2370.53" y2="1794.15"/>
	<g>
		<g>
			<path class="st1" d="M2374.01,1811.08c4.74-1.47,9.03-3.89,11.53-8.29c2.68-4.66,2.15-9.76,1.34-14.77
				c-1.25-6.91-10.01-10.8-16.54-9.07c-7.6,1.99-10.55,8.98-9.39,15.98c-1.7-3.28,0.27-6.22,5.9-8.81
				c-6.88,2.16-11.35,8.98-9.39,15.98C2359.35,1808.57,2367.04,1813.24,2374.01,1811.08L2374.01,1811.08z"/>
		</g>
	</g>
	<g>
		<g>
			<path class="st1" d="M2008.57,1786.12c0.98,0.95,1.97,1.81,2.95,2.68c-0.45-0.78-0.8-1.47-1.16-2.25
				c0.63,2.16,1.25,4.32,1.79,6.56c-0.09-0.43-0.09-0.95-0.18-1.38c-0.89-6.74-5.54-13.3-13.41-12.96
				c-6.53,0.26-14.39,5.79-13.41,12.96c1.16,8.72,6.26,17.97,16.18,19.43c6.88,1.04,14.75-1.73,16.54-9.07
				C2019.48,1795.79,2015.99,1787.24,2008.57,1786.12L2008.57,1786.12z"/>
		</g>
	</g>
	<line class="st3" x1="2077.31" y1="1701.38" x2="2318.68" y2="1701.38"/>
	<g>
		<g>
			<path class="st1" d="M2311.88,1717.71c7.69,1.3,17.79,1.81,24.85,5.01c7.96,3.71,12.07,12.01,14.93,19.69
				c5.72,15.29,2.59,31.7,5.81,47.42c4.38,21.77,38.89,12.61,34.51-9.16c-2.32-11.49-0.36-23.32-2.5-34.9
				c-2.06-10.8-6.08-21.25-11.8-30.75c-13.23-21.85-31.56-26.43-56.32-30.66C2298.83,1680.48,2289.18,1713.82,2311.88,1717.71
				L2311.88,1717.71z"/>
		</g>
	</g>
	<g>
		<g>
			<path class="st1" d="M2080.71,1692.74c-16.09,0-32.09,0-48.18,0c-17.25,0-17.25,25.91,0,25.91c16.09,0,32.09,0,48.18,0
				C2097.96,1718.66,2097.96,1692.74,2080.71,1692.74L2080.71,1692.74z"/>
		</g>
	</g>
	<g>
		<g>
			<path class="st1" d="M2072.13,1708.55c21.9,0.52,43.8,1.04,65.7,1.55c-1.16-8.47-2.41-16.93-3.58-25.48
				c-2.15,0.43-4.29,0.86-6.44,1.3c-16.9,3.37-9.74,28.33,7.15,24.96c2.15-0.43,4.29-0.86,6.44-1.3
				c15.2-3.02,11.17-25.14-3.58-25.48c-21.9-0.52-43.8-1.04-65.7-1.55C2054.88,1682.29,2054.88,1708.2,2072.13,1708.55
				L2072.13,1708.55z"/>
		</g>
	</g>
	<g>
		<g>
			<path class="st1" d="M2096.98,1695.42c8.94-40.17,52.38-41.81,87.43-42.07c41.84-0.35,79.29-7.95,91.81,44.92
				c5.1,21.68,39.6,12.52,34.51-9.16c-15.91-67.29-63.92-70.74-126.31-70.31c-55.16,0.43-108.26,5.96-121.93,67.46
				C2057.65,1707.86,2092.15,1717.19,2096.98,1695.42L2096.98,1695.42z"/>
		</g>
	</g>
	<g>
		<path class="st3" d="M2995.83,1761.84c0,62.8-47.83,114.8-110.22,123.86c-6.35,0.95-12.78,1.38-19.4,1.38
			c-71.6,0-129.62-56.06-129.62-125.25c0-69.19,58.02-125.25,129.62-125.25S2995.83,1692.66,2995.83,1761.84z"/>
	</g>
	<g>
		<path class="st4" d="M2910.91,1757.53c0,21.68-16.54,39.56-37.99,42.67c-2.15,0.35-4.38,0.52-6.7,0.52
			c-24.67,0-44.7-19.35-44.7-43.19s20.02-43.19,44.7-43.19C2890.89,1714.34,2910.91,1733.69,2910.91,1757.53z"/>
	</g>
	<g>
		<path class="st3" d="M3045,2172.14c0,21.68-16.54,39.56-37.99,42.67c-2.15,0.35-4.38,0.52-6.7,0.52
			c-24.67,0-44.7-19.35-44.7-43.19s20.02-43.19,44.7-43.19S3045,2148.3,3045,2172.14z"/>
	</g>
	<g>
		<path class="st3" d="M3045,2310.34c0,21.68-16.54,39.56-37.99,42.67c-2.15,0.35-4.38,0.52-6.7,0.52
			c-24.67,0-44.7-19.35-44.7-43.19s20.02-43.19,44.7-43.19S3045,2286.5,3045,2310.34z"/>
	</g>
	<g>
		<path class="st3" d="M3045,2448.54c0,21.68-16.54,39.56-37.99,42.67c-2.15,0.35-4.38,0.52-6.7,0.52
			c-24.67,0-44.7-19.35-44.7-43.19c0-23.84,20.02-43.19,44.7-43.19S3045,2424.7,3045,2448.54z"/>
	</g>
	<path class="st5" d="M2287.39,1351.55v-240.65c0-10.19,7.51-18.48,16.63-18.48h83.05c9.12,0,16.63,8.29,16.63,18.48v240.65"/>
	<path class="st5" d="M2466.18,1351.55v-312.77c0-13.22,7.51-24.1,16.63-24.1h83.05c9.12,0,16.63,10.8,16.63,24.1v312.77"/>
	<path class="st5" d="M2653.9,1351.55V966.57c0-16.33,7.51-29.63,16.63-29.63h83.05c9.12,0,16.63,13.3,16.63,29.63v384.98"/>
	<path class="st5" d="M1116.33,150.91"/>
	<g>
		<g>
			<path class="st1" d="M1120.98,167.84c31.11,13.3,57.3,34.21,87.96,47.94c15.55,7,29.23-15.38,13.5-22.37
				c-30.66-13.73-56.85-34.72-87.96-47.94C1118.93,138.73,1105.25,161.1,1120.98,167.84L1120.98,167.84z"/>
		</g>
	</g>
	<g>
		<g>
			<path class="st1" d="M1115.17,167.06c38.26,22.03,76.43,44.14,114.6,66.34c19.76,11.49,37.72-18.31,18.06-29.8
				c-38.17-22.2-76.34-44.31-114.6-66.34C1113.38,125.86,1095.33,155.66,1115.17,167.06L1115.17,167.06z"/>
		</g>
	</g>
	<g>
		<g>
			<path class="st1" d="M1248.82,233.32c40.32-17.36,78.13-42.15,115.59-64.52c19.58-11.66,1.61-41.55-18.06-29.8
				c-37.46,22.37-75.36,47.16-115.59,64.52C1209.75,212.58,1227.99,242.3,1248.82,233.32L1248.82,233.32z"/>
		</g>
	</g>
	<g>
		<g>
			<path class="st1" d="M1219.32,217.68c2.23,43.1,3.13,86.2,2.68,129.39c-0.27,22.2,35.49,22.29,35.76,0
				c0.45-43.19-0.45-86.29-2.68-129.39C1253.91,195.48,1218.15,195.4,1219.32,217.68L1219.32,217.68z"/>
		</g>
	</g>
	<g>
		<g>
			<path class="st1" d="M1101.05,154.37c4.83,44.23,2.32,89.83,1.16,134.23c-0.54,22.2,35.22,22.2,35.76,0
				c1.16-44.4,3.67-90-1.16-134.23C1134.39,132.43,1098.63,132.17,1101.05,154.37L1101.05,154.37z"/>
		</g>
	</g>
	<g>
		<g>
			<path class="st1" d="M1113.03,301.81c38.17,24.27,75.63,52,119.34,66.08c21.9,7.08,31.29-26.35,9.48-33.34
				c-40.23-12.96-75.72-40.25-110.85-62.54C1111.77,259.75,1093.81,289.63,1113.03,301.81L1113.03,301.81z"/>
		</g>
	</g>
	<g>
		<g>
			<path class="st1" d="M1247.92,367.03c40.85-24.36,82.69-47.08,125.42-68.07c20.47-10.11,2.41-39.91-18.06-29.8
				c-42.82,21.08-84.57,43.71-125.42,68.07C1210.29,348.89,1228.25,378.77,1247.92,367.03L1247.92,367.03z"/>
		</g>
	</g>
	<g>
		<g>
			<path class="st1" d="M1365.29,300.34c22.97,0,23.06-34.55,0-34.55C1342.32,265.79,1342.23,300.34,1365.29,300.34L1365.29,300.34z
				"/>
		</g>
	</g>
	<g>
		<g>
			<path class="st1" d="M1342.05,153.59c0.54,43.19,1.43,86.2,6.35,129.13c2.5,21.85,38.35,22.11,35.76,0
				c-5.01-42.93-5.81-86.03-6.35-129.13C1377.54,131.39,1341.78,131.3,1342.05,153.59L1342.05,153.59z"/>
		</g>
	</g>
	<g>
		<g>
			<path class="st1" d="M1125.72,165.94c43.18-15.81,79.92-45.52,120.5-66.25c20.38-10.37,2.32-40.25-18.06-29.8
				c-37.55,19.18-72.14,48.2-111.92,62.8C1094.97,140.46,1104.18,173.89,1125.72,165.94L1125.72,165.94z"/>
		</g>
	</g>
	<g>
		<g>
			<path class="st1" d="M1235.41,102.8c19.31,7.34,36.38,19.95,54.98,28.76c15.82,7.51,42.73,15.2,53.55,29.37
				c13.5,17.71,44.61,0.43,30.84-17.45c-14.39-18.74-38.17-28.59-59.36-38.44c-23.96-11.14-45.86-26.09-70.62-35.5
				C1223.43,61.34,1214.13,94.77,1235.41,102.8L1235.41,102.8z"/>
		</g>
	</g>
	<path class="st5" d="M1534.79,1472.48h-132.39c-14.75,0-26.82-11.66-26.82-25.91v-328.23c0-14.25,12.07-25.91,26.82-25.91h455.91
		c14.75,0,26.82,11.66,26.82,25.91v328.23c0,14.25-12.07,25.91-26.82,25.91H1676.3"/>
	<path class="st5" d="M1895.4,1031.96h-117.55c-14.75,0-26.82-11.66-26.82-25.91V807.38c0-14.25,12.07-25.91,26.82-25.91h295
		c14.75,0,26.82,11.66,26.82,25.91v198.67c0,14.25-12.07,25.91-26.82,25.91h-83.85"/>
	<g>
		<g>
			<path class="st1" d="M1881.45,1046.64c18.5,15.03,34.06,33,52.56,48.03c16.72,13.56,28.16,31.44,46.22,43.62
				c18.86,12.78,36.74-17.1,18.06-29.8c-16.36-11.14-27.53-28.94-43-41.46c-17.16-13.99-31.38-30.92-48.54-44.83
				C1889.23,1008.03,1863.75,1032.3,1881.45,1046.64L1881.45,1046.64z"/>
		</g>
	</g>
	<g>
		<g>
			<path class="st1" d="M1972.46,1031.96c-2.86,29.8-3.4,59.51-1.43,89.4c1.43,22.11,37.19,22.2,35.76,0
				c-1.97-29.89-1.43-59.6,1.43-89.4C2010.36,1009.76,1974.6,1009.93,1972.46,1031.96L1972.46,1031.96z"/>
		</g>
	</g>
</g>
<g>
	<path class="st8" d="M738.65,1508.93c20.83,1.04,44.7-3.11,63.47-12.35c6.08-2.94,14.84-6.91,19.04-12.09
		c22.35-27.64-13.77-49.75-35.85-47.08c0,0,0,0,0,0.09c-0.72,1.3-2.41,1.55-3.67,0.95c-0.09-0.09-0.18-0.09-0.27-0.17
		c-0.36,0.09-0.8,0.17-1.16,0.26c-1.34,0.52-2.32-0.09-2.86-1.04c-16.72,0.95-33.08,3.28-48.63,10.02
		c-8.13,3.54-19.67,8.64-24.85,15.98C676.61,1502.2,721.04,1508.07,738.65,1508.93z"/>
	<path class="st8" d="M1161.03,624.69c4.2-5.79,8.67-11.49,13.32-16.93c16.72-22.29,31.82-45.52,44.61-70.22
		c8.05-15.55,19.49-34.21,23.24-51.31c10.28-46.9-26.01-77.83-66.6-57.7c-59.71,29.71-96.01,123.17-119.25,179.92
		c-48.09,117.21-71.16,241.94-106.74,362.87c-19.85,67.37-43.53,133.71-71.16,198.49c-22.8,53.47-44.7,122.4-84.12,166.62
		c-27.53,30.92-62.93,29.37-101.46,22.46c-32.9-5.96-79.83-17.97-106.56,9.67c-23.15,23.84-11.62,95.36-9.12,131.38
		c0.36,0.43,0.8,0.86,1.16,1.3c1.07,1.38,0.36,2.68-0.89,3.37c0,0.52,0.09,1.12,0.09,1.64c0.09,3.37-5.27,3.28-5.36,0
		c-0.09-1.38-0.18-3.02-0.27-4.49c-27.18-33.34-84.21-52.34-82.06-101.49c2.06-47.59,53.55-101.06,90.47-128.1
		c62.58-45.78,134.45-81.63,190.77-135.35c61.68-58.91,63.83-166.19,1.79-227.34c-10.46-10.97-23.15-18.66-37.9-23.06
		c-19.13,14.51-20.38,26.26-3.67,35.24c6.53,9.59,20.92,16.24,29.23,24.36c12.25,11.92,22.08,24.36,23.42,41.81
		c4.11,50.7-62.49,95.45-96.54,123.61c-53.46,44.22-114.6,78.34-169.58,120.67c-29.14,22.46-56.68,47.33-78.67,76.62
		c-20.2,26.86-62.4,89.75-39.96,123.95c0.36,0.52,0.36,0.95,0.36,1.47c0.09,0.09,0.27,0.09,0.36,0.17c3.13,1.3,1.79,6.31-1.43,5.01
		c-17.79-7.17-36.12-14.08-51.85-25.05c-14.75-10.28-24.67-24.96-39.06-35.5c-24.23-25.83-40.05-6.13-47.47,59.08
		c5.72,4.66,11.53,9.24,17.25,13.91c11.08,7,24.4,12.52,36.92,16.33c26.19,7.77,53.81,9.67,80.99,9.59
		c32.18-0.09,60.79-1.47,87.07,19.35c11.8,9.33,21.1,21.42,28.61,34.12c1.07,1.81,5.9,15.72,8.94,25.48
		c0.89,0.17,1.61,0.86,1.88,1.64c0.98,1.04,0.89,2.85-0.36,3.8c0,0.09,0.09,0.17,0.09,0.26c0.72-1.04,1.97-1.64,3.31-0.69
		c0.8,0.6,1.61,1.12,2.41,1.73c1.34,0.95,1.61,2.16,0.98,3.54c-0.36,0.86-0.8,1.73-1.16,2.68c-0.98,2.25-4.2,1.21-4.92-0.6
		c-0.8-2.16-1.7-4.23-2.59-6.39c-0.36,0-0.54-0.17-0.8-0.35c-0.36,0.17-0.63,0.52-1.16,0.52c-0.27,0-0.36-0.17-0.63-0.26
		c-37.19,8.98-74.73,16.76-112.55,5.87c-33.61-9.67-65.79-28.85-95.56-46.13c-78.22-45.35-138.2-119.72-238.23-108.32
		c-106.56,12.18-164.04,117.39-188.17,208.17c-24.32,90.96-19.31,185.54-10.01,278.13c31.73,0.95,47.38-8.38,46.84-28.07
		c0.27-4.58,0.54-9.16,0.8-13.73c0.63-10.8,1.34-21.51,2.15-32.22c1.52-18.83,3.4-37.57,5.72-56.32
		c4.65-37.66,11-75.15,18.86-112.29c10.28-48.11,19.31-114.71,67.49-142.7c84.83-49.32,199.62,53.12,234.39,120.67
		c27.35,53.12,27.62,116.09,27.35,174.14c-0.27,52.6-10.19,97.87-43.89,140.19c-31.91,40.08-72.77,79.55-121.66,99.77
		c-54.17,22.29-73.48-32.31-121.22-51.57c-64.99-26.17-195.24-48.98-249.05,5.7c-55.96,56.92-46.4,146.32-46.57,219.57
		c0.27,0.43,0.54,0.86,0.45,1.47c-2.06,43.62-6.26,89.14-2.95,132.76c-3.4,26.95,11.08,32.39,43.36,16.24
		c2.59-13.82,3.75-27.64,3.49-41.63c0.18-19.87-2.23-39.73-3.04-59.6c-2.59-63.4,10.46-127.67,48.36-180.7
		c31.02-43.53,71.78-41.29,119.52-22.89c60.61,23.41,87.52,74.54,107.72,131.64c40.41,114.28,24.94,253.78-80.63,330.91
		c-14.66,10.71-37.28,28.33-56.94,27.9c-6.53-0.17-20.65-8.12-25.3-10.02c-39.42-16.15-75.98-30.15-113.53,1.38
		c-70.71,59.25-76.07,172.5-41.57,249.89c0.63,1.3,0,2.59-0.89,3.28c9.39,20.47,19.04,40.94,29.32,60.98
		c3.4,6.56,6.79,13.13,10.28,19.69c11.44,26.69,30.39,13.22,56.94-40.51c-1.52-7.43-10.82-19.09-14.93-26.43
		c-19.22-33.86-39.42-68.76-45.32-107.54c-7.42-48.54,30.48-97.52,87.7-81.02c25.57,7.34,41.21,33.51,55.6,53.29
		c24.85,34.29,47.74,70.31,67.22,107.8c23.42,45.18,37.01,99.25-8.49,135.78c-32.72,26.26-73.3,44.05-107.27,69.36
		c-37.99,28.33-104.77,72.64-107.36,123.52c-2.23,42.41,31.02,117.65,62.58,147.88c17.97,17.28,64.54,25.57,67.49-5.7
		c1.25-13.13-11.35-28.07-17.34-40.51c-9.83-20.56-24.32-39.99-33.17-60.9c-21.63-51.31,42.01-92.6,78.67-120.32
		c65.61-49.41,180.4-97.35,207.75-178.71c18.77-55.71-25.12-121.1-47.2-170.85c-10.19-22.89-26.28-39.13-12.52-60.46
		c16.54-25.65,52.74-46.9,74.82-68.58c32.54-32.05,59-66.6,72.5-109.87c0-0.09,0-0.09,0-0.17c30.3-89.23,38.89-181.31,25.39-274.33
		c-0.18-1.21,0.09-2.16,1.25-2.94c104.59-68.93,199.79-153.23,249.23-268.2c17.52-45.09,23.51-89.57,22.97-137.6
		c-0.36-30.4-1.88-60.9,9.74-89.75c7.24-18.14,36.74-65.91,60.97-44.57c0.63,0.6,0.98,1.73,0.72,2.51
		c-0.89,2.42-5.36,7.26-5.99,8.98c-11.98,11.06-20.29,24.27-24.94,39.65c-2.59,7.86-4.74,15.89-6.35,24.01
		c-9.65,43.53-8.49,83.87-3.31,127.58c8.85,74.98-9.03,125.42-54.8,186.14c-22.08,29.28-45.14,57.87-68.39,86.2
		c-9.83,11.75-19.67,23.67-29.32,35.59c19.04,22.98,33.88,24.88,44.61,5.7c17.61-11.66,36.56-43.19,48.72-58.74
		c50.69-64.09,98.24-130.95,140.44-200.57c22.08-36.45,42.64-74.54,52.92-115.83c11.53-46.38-2.68-76.88-8.94-121.01
		c-5.1-36.02,16.98-71,58.91-58.74c44.34,12.96,54.08,63.31,49.08,101.41c-9.74,74.63-43.45,151.25-71.16,221.04
		c0,0.43,0,0.95-0.36,1.47c-3.75,5.79-4.65,12.44-7.24,18.66c-1.16,2.68-2.59,5.27-4.11,7.77c0.09,0.52,0.09,1.04-0.18,1.55
		c-66.6,151.33-162.34,286.25-254.59,423.59c-43.36,64.52-86.44,125.59-141.15,181.74c-27.71,28.42-56.76,55.63-85.55,83.01
		c-21.01,20.04-39.33,31.79-34.33,68.76c2.41,17.88,14.39,36.88,18.33,55.11c29.14,136.3-58.73,261.55-128.19,372.03
		C-62.95,3268-170.75,3395.5-186.93,3560.91c0.72,0.35,1.25,1.04,1.16,2.16c-5.36,55.37-6.17,110.74-3.84,166.28
		c1.16,27.81,2.95,55.54,5.01,83.27c1.34,17.97-5.9,32.91,16.9,34.46c21.45,1.55,19.22-10.97,26.73-29.54c0.98-2.5,4.11-2.42,5.18,0
		c15.02,35.07,29.77,70.22,45.05,105.12c23.51,53.38,54.35,87.85,117.64,92.6c77.59,5.87,153.31-25.14,215.35-68.07
		c22.08-15.29,65.44-60.29,98.06-40.77c14.3,8.55,15.82,24.79,15.64,39.39c-0.18,11.92-4.2,23.93-4.02,35.67
		c0.89,51.83,63.11,1.99,76.79-16.76c0.98-1.3,2.5-1.38,3.67-0.78c40.85-58.74,82.15-117.56,131.32-170.16
		c53.46-57.18,116.66-99.68,182.9-141.92c38.62-24.62,77.59-48.72,116.84-72.3c19.67-11.75,39.42-23.41,59.18-34.98
		c8.76-5.01,17.52-10.11,26.19-15.38c3.84-53.73-7.87-70.92-34.95-51.65c-38.62,8.9-82.24,41.72-117.02,60.29
		c-35.04,18.74-70.17,37.66-104.32,58.05c-73.75,44.05-123.18,102.27-167.52,173.27c-19.4,31.01-37.28,63.14-58.37,93.2
		c-8.31,11.75-19.58,32.65-36.74,33.51c-20.56,1.04-26.01-19-33.61-33.6c-21.1-40.86-41.93-81.71-71.96-117.3
		c-67.13-79.55-154.29-99.85-256.47-78.6c-3.4,0.69-4.83-4.32-1.43-5.01c1.88-0.35,3.67-0.69,5.54-1.12
		c16-86.55,63.02-160.32,118.89-228.38c66.96-81.71,139.99-159.11,210.43-238.06c39.51-44.31,81.8-87.5,117.64-134.66
		c15.29-20.13,28.52-41.12,39.51-63.66c7.42-15.38,13.23-34.21,27.09-45.69c11.35-9.42,30.04-15.38,44.07-7.69
		c25.48,14.08,10.28,49.15,9.57,71.35l0,0c2.68-2.07,6.53,1.64,3.75,3.63c17.34,24.53,33.88,29.89,49.7,16.07
		c4.74-3.11,9.39-6.22,14.12-9.33c11.8-7.77,23.51-15.63,35.31-23.41c23.51-15.63,47.11-31.18,70.62-46.82
		c44.07-29.2,87.87-58.82,132.21-87.59c61.23-39.73,134.98-75.67,205.61-35.67c1.34,0.78,1.88,3.02,0.54,4.06
		c-121.84,95.71-230.1,206.61-320.3,331c-38.71,53.38-76.7,109.27-104.77,168.61c-15.29,32.3-27.62,65.82-34.42,100.8
		c1.97-10.37-7.42,35.33-5.01,39.39c19.67,10.71,39.33,21.42,59,32.22c2.77-3.54,5.45-7.08,8.22-10.54
		c12.96-12.18,20.83-32.39,27.62-48.11c24.76-57.44,35.04-119.29,62.49-175.86c25.21-52,58.82-99.94,96.1-144.6
		c46.31-55.37,98.69-105.64,150.81-155.82c24.76-23.75,50.86-46.9,73.75-72.47c17.7-19.78,32-41.81,39.78-67.03
		c10.19-33,9.92-42.32-12.25-69.19c-19.04-23.06-22.26-26.86-50.06-28.16c-11.98-0.52-25.03,0.52-36.83,2.51
		c-17.52,2.85-34.68,8.03-51.31,13.91c-37.46,13.39-73.84,30.32-109.33,48.11c-62.4,31.18-148.39,68.76-189.07,125.68
		c-1.52,2.07-4.47,1.04-5.01-0.78c-0.63-0.35-1.25-0.6-1.97-0.95c-1.34-0.6-1.52-2.25-0.98-3.46c-19.67-10.97-25.48-62.8-25.48-78
		c-0.18-37.4,14.03-72.73,28.07-107.02c18.5-45.26,36.38-90.61,52.03-136.91c12.34-36.62,20.83-74.8,40.23-108.58
		c66.42-195.21,170.56-378.42,207.04-582.53l0,0c0.98-11.57,2.59-23.06,4.65-34.46c0-0.26,0.18-0.35,0.27-0.52
		c31.29-172.58,26.46-358.47-80.54-507.03c-0.98-1.3-0.36-2.59,0.72-3.28c-1.16-0.17-2.15-0.95-1.97-2.42
		c20.92-168,66.6-333.67,140.44-487.43c37.01-77.13,89.66-136.73,148.13-199.27c8.22-8.81,16.45-17.62,24.14-26.95
		c20.83-25.48,18.06-17.62-8.13-52.95c-26.82-36.19-25.03-36.11-57.3-14.42c-9.12,6.13-17.34,12.87-25.3,20.21
		c-34.15,31.44-58.11,69.71-73.93,112.38c-1.16,3.11-6.35,1.73-5.18-1.38c8.05-21.77,21.54-49.67,39.24-75.75
		c0-0.6,0.09-1.21,0.63-1.73C1157.37,629.53,1159.15,627.11,1161.03,624.69z M868.45,1483.54c-4.92,44.4-54.35,59.77-94.13,60.72
		c-37.99,0.95-100.75-12.52-103.7-58.39c-2.77-43.88,48.27-62.97,86.09-68.84c0.27-0.26,0.63-0.43,0.98-0.52
		c7.69-2.42,15.55-3.97,23.69-4.75c0.18,0,0.36,0,0.54,0.09C827.24,1398.97,873.54,1436.98,868.45,1483.54z"/>
	<path d="M1271.25,553.17c-26.01-0.52-50.06,11.14-71.34,28.94c-16.81,24.1-32.9,43.97-40.76,53.38c-1.7,2.07-4.38,0.17-4.38-1.9
		c-17.7,26.09-31.2,53.99-39.24,75.75c-1.16,3.11,4.02,4.49,5.18,1.38c15.73-42.67,39.78-80.94,73.93-112.38
		c7.96-7.34,16.18-14.08,25.3-20.21c32.27-21.59,30.48-21.68,57.3,14.42c26.19,35.33,28.96,27.47,8.13,52.95
		c-7.6,9.33-15.91,18.14-24.14,26.95c-58.46,62.54-111.12,122.14-148.13,199.27c-73.75,153.75-119.52,319.34-140.44,487.43
		c-0.18,1.47,0.8,2.25,1.97,2.42c0.63-0.43,1.43-0.6,2.15-0.43c0.63-0.43,1.16-1.04,1.25-1.9c15.2-122.48,43.71-242.98,86.8-359.07
		c22.08-59.6,46.4-119.72,78.67-175c32.45-55.63,77.5-101.75,121.49-148.83c21.19-22.72,51.85-50.1,48.9-83.7
		C1311.93,569.24,1295.48,553.6,1271.25,553.17z"/>
	<path d="M577.56,1506.25c0-0.52-0.09-1.12-0.09-1.64c-1.16,0.6-2.77,0.6-3.75-0.69c-0.54-0.69-1.25-1.38-1.79-2.16
		c0.09,1.47,0.27,3.11,0.27,4.49C572.28,1509.54,577.65,1509.54,577.56,1506.25z"/>
	<path d="M586.32,1368.57c26.82-27.64,73.66-15.55,106.56-9.67c38.44,6.91,73.93,8.46,101.46-22.46
		c39.42-44.31,61.32-113.15,84.12-166.62c27.62-64.78,51.31-131.12,71.16-198.49c35.58-120.93,58.64-245.66,106.74-362.87
		c23.24-56.66,59.54-150.21,119.25-179.92c40.58-20.21,76.88,10.8,66.6,57.7c-3.75,17.1-15.2,35.76-23.24,51.31
		c-12.78,24.7-27.89,47.94-44.61,70.22c-4.65,5.44-9.03,11.14-13.32,16.93c-1.88,2.33-3.75,4.84-5.63,7.17
		c-0.45,0.52-0.63,1.12-0.63,1.73c0,2.16,2.68,3.97,4.38,1.9c7.78-9.42,23.87-29.28,40.76-53.38
		c40.14-57.53,84.66-139.67,31.38-163.68c-86-38.87-152.59,124.21-174.32,174.74c-48.36,112.12-71.96,232.1-104.59,348.88
		c-19.31,69.19-42.46,137.34-69.82,203.94c-14.3,34.9-29.68,69.36-46.13,103.31c-18.68,38.52-37.55,93.89-84.03,105.03
		c-51.04,12.18-113.35-28.16-161.62,4.15c-38.08,25.48-24.05,91.65-19.67,134.58c2.06,2.25,4.11,4.58,5.99,7
		C574.7,1463.93,563.17,1392.41,586.32,1368.57z"/>
	<path d="M399.31,1432.58c-22.44-34.29,19.67-97.09,39.96-123.95c21.99-29.28,49.52-54.16,78.67-76.62
		c54.98-42.32,116.12-76.44,169.58-120.67c34.06-28.16,100.66-72.99,96.54-123.61c-1.43-17.36-11.17-29.89-23.42-41.81
		c-8.31-8.12-22.71-14.77-29.23-24.36c-16.72-8.98-15.55-20.73,3.67-35.24c14.75,4.41,27.35,12.09,37.9,23.06
		c62.04,61.16,59.89,168.44-1.79,227.34c-56.23,53.73-128.19,89.57-190.77,135.35c-36.92,27.04-88.41,80.5-90.47,128.1
		c-2.15,49.23,54.89,68.15,82.06,101.49c0.63,0.69,1.25,1.38,1.79,2.16c0.98,1.3,2.59,1.3,3.75,0.69c1.25-0.6,1.88-1.99,0.89-3.37
		c-0.36-0.43-0.8-0.86-1.16-1.3c-1.97-2.42-3.93-4.75-5.99-7c-10.64-11.57-22.8-20.99-35.67-30.92
		c-9.21-7.17-19.49-13.99-26.28-23.67c-21.1-30.06-8.76-62.54,9.3-90.44c41.93-65.04,109.42-98.82,171.64-142.87
		c41.48-29.37,93.33-59.95,117.64-105.55c21.37-39.99,19.76-88.54,5.9-130.52c-11-33.26-32.09-68.93-66.42-83.87
		c-11.35-4.92-47.47-13.47-47.11,9.67c0.27,15.29,33.08,35.07,43.09,43.45c22.62,18.83,28.52,24.79,27.18,56.66
		c-1.52,35.67-15.38,48.54-40.58,71.87c-49.17,45.61-102.8,83.61-158.67,121.19c-50.24,33.86-100.21,69.71-136.59,117.99
		c-21.19,28.16-60.34,88.62-42.02,125.16c2.32,0.95,4.74,1.9,7.15,2.94C399.75,1433.61,399.67,1433.09,399.31,1432.58z"/>
	<path d="M520.17,1556.53c-3.04-9.76-7.87-23.67-8.94-25.48c-7.51-12.7-16.81-24.79-28.61-34.12
		c-26.28-20.82-54.89-19.43-87.07-19.35c-27.18,0.09-54.89-1.81-80.99-9.59c-12.6-3.71-25.83-9.33-36.92-16.33
		c-5.72-4.66-11.53-9.24-17.25-13.91c7.42-65.21,23.24-84.91,47.47-59.08c14.39,10.54,24.32,25.22,39.06,35.5
		c15.73,10.97,34.06,17.88,51.85,25.05c3.22,1.3,4.56-3.71,1.43-5.01c-0.09-0.09-0.27-0.09-0.36-0.17c-2.41-0.95-4.74-1.9-7.15-2.94
		c-21.45-8.81-40.76-18.05-58.11-34.21c-7.96-7.34-14.3-16.5-22.97-23.15c-10.37-7.95-22.97-16.15-37.1-14.51
		c-30.75,3.46-41.48,38.61-31.11,62.97c15.38,36.11,62.93,51.39,99.05,57.18c25.39,4.06,50.24,2.25,75.72,2.94
		c53.1,1.38,80.99,31.7,99.67,74.63c0.45-0.09,0.89-0.26,1.43-0.35C519.45,1556.44,519.81,1556.44,520.17,1556.53z"/>
	<path d="M519.99,1562.4c0.89,2.07,1.7,4.23,2.59,6.39c0.72,1.81,3.93,2.85,4.92,0.6c0.36-0.86,0.8-1.73,1.16-2.68
		c0.63-1.38,0.36-2.59-0.98-3.54c-0.8-0.6-1.61-1.12-2.41-1.73c-1.34-0.95-2.68-0.35-3.31,0.69c0-0.09-0.09-0.17-0.09-0.26
		c-0.45,0.35-0.8,0.6-1.52,0.6C520.08,1562.57,520.08,1562.49,519.99,1562.4z"/>
	<path d="M-132.05,1906.18c0.09,0.95,0.63,1.64,1.34,1.99c-0.54-1.12-0.98-2.25-1.43-3.37
		C-132.14,1905.23-132.14,1905.75-132.05,1906.18z"/>
	<path d="M-128.11,1900.05c0.27,0,0.54,0,0.8,0c-9.21-92.6-14.21-187.18,10.01-278.13c24.23-90.78,81.62-196.08,188.17-208.17
		c100.03-11.4,160.01,62.97,238.23,108.32c29.77,17.28,62.04,36.45,95.56,46.13c37.81,10.88,75.36,3.11,112.55-5.87
		c-2.68-0.69-2.59-4.92,0.63-4.92c0.54,0,0.8,0.26,1.16,0.52c0.36-0.17,0.63-0.52,1.16-0.52c0.8,0,1.43,0.35,1.88,0.78
		c-0.36-0.78-0.98-1.47-1.88-1.64c-0.36-0.09-0.72-0.09-1.16,0.09c-0.45,0.09-0.89,0.26-1.43,0.35
		c-36.83,8.9-73.93,17.02-111.38,6.31c-25.66-7.34-50.24-21.51-73.48-34.03c-44.88-24.27-82.51-55.54-123.9-84.48
		c-56.23-39.39-131.32-50.53-195.06-20.64c-70.53,33.08-111.29,112.98-132.21,182.34c-28.78,95.19-24.05,195.21-14.39,292.9
		C-131.51,1897.72-128.65,1897.72-128.11,1900.05z"/>
	<path d="M519.1,1562.05c0.27,0.17,0.54,0.35,0.8,0.35c0.09,0,0.18,0.09,0.27,0.09c0.72,0,1.07-0.35,1.52-0.6
		c1.16-0.95,1.34-2.68,0.36-3.8c-0.45-0.43-0.98-0.78-1.88-0.78c-0.54,0-0.8,0.26-1.16,0.52
		C520.79,1558.77,520.79,1561.19,519.1,1562.05z"/>
	<path d="M519.1,1562.05c1.7-0.95,1.7-3.28,0-4.23c-0.36-0.17-0.63-0.52-1.16-0.52c-3.22,0-3.31,4.23-0.63,4.92
		c0.27,0.09,0.36,0.26,0.63,0.26C518.47,1562.57,518.74,1562.23,519.1,1562.05z"/>
	<path d="M-306.01,2223.1c0.09-73.25-9.39-162.73,46.57-219.57c53.81-54.76,184.06-31.96,249.05-5.7
		c47.74,19.26,67.05,73.85,121.22,51.57c48.9-20.13,89.75-59.69,121.66-99.77c33.7-42.32,43.62-87.59,43.89-140.19
		c0.27-58.05,0.09-121.01-27.35-174.14c-34.86-67.55-149.56-169.9-234.39-120.67c-48.27,28.07-57.21,94.67-67.49,142.69
		c-7.96,37.14-14.21,74.63-18.86,112.29c-2.32,18.74-4.2,37.49-5.72,56.32c-0.89,10.71-1.52,21.51-2.15,32.22
		c-0.27,4.58-0.54,9.16-0.8,13.73c0.54,19.69-15.11,29.02-46.84,28.07c-0.27,0-0.54,0-0.8,0c-0.63-2.33-3.4-2.25-4.65-0.86
		c-0.45,0.52-0.72,1.3-0.54,2.16c0.27,1.21,0.72,2.33,1.07,3.46c0.45,1.21,0.89,2.33,1.43,3.37c8.4,17.1,29.23,19.18,43.8,2.85
		c9.65-10.71,10.64-25.83,11.8-39.13c3.4-39.47,5.36-78.6,10.73-117.9c8.85-65.04,14.75-155.91,55.96-210.33
		c59.27-78.26,170.74-8.46,219.28,46.56c53.99,61.07,59.36,135.27,59.89,212.23c0.63,82.66-31.02,143.99-94.85,198.75
		c-33.61,28.85-75.72,61.85-120.41,34.29c-22.44-13.82-37.46-32.13-63.47-42.58c-48.18-19.43-106.38-24.62-158.23-25.65
		c-150.81-3.02-144.37,155.48-145.26,261.03c0,0.26,0.18,0.35,0.27,0.6c0.09-1.38,0.18-2.85,0.18-4.23
		C-310.75,2221.89-307.26,2221.46-306.01,2223.1z"/>
	<path d="M-310.66,2797.94c0.89,1.9,1.79,3.71,2.59,5.61c0.89-0.69,1.52-1.99,0.89-3.28c-34.51-77.31-29.14-190.63,41.57-249.89
		c37.55-31.44,74.2-17.53,113.53-1.38c4.74,1.9,18.86,9.93,25.3,10.02c19.67,0.43,42.28-17.19,56.94-27.9
		c105.57-77.13,121.04-216.63,80.63-330.91c-20.2-57.18-47.11-108.32-107.72-131.64c-47.74-18.4-88.5-20.64-119.52,22.89
		c-37.9,53.12-50.95,117.3-48.36,180.7c0.8,19.87,3.31,39.73,3.04,59.6c0.27,13.99-0.89,27.9-3.49,41.63
		c-32.27,16.15-46.75,10.71-43.36-16.24c-3.31-43.62,0.89-89.14,2.95-132.76c0-0.6-0.18-1.12-0.45-1.47
		c-1.25-1.64-4.74-1.21-4.92,1.47c-0.09,1.38-0.18,2.76-0.18,4.23c-2.15,42.32-6.17,86.38-2.77,128.53
		c0.98,12.61,1.34,31.01,14.12,38.87c38.89,23.93,43.36-45.52,43.45-64.26c0.27-85.95-12.52-181.91,55.16-251.27
		c49.79-51.05,144.01,3.63,173.78,50.01c22.44,34.81,37.01,75.84,45.95,115.75c19.22,86.03,5.18,179.15-55.33,247.47
		c-13.41,15.12-28.78,28.68-45.95,39.82c-26.91,17.53-50.33,13.13-80.81,4.49c-23.24-6.65-42.46-16.58-67.22-11.66
		c-49.17,9.76-78.67,66.42-92.08,108.4c-17.16,53.99-13.14,110.3,8.49,162.13C-313.07,2796.3-311.46,2796.3-310.66,2797.94z"/>
	<path d="M169.12,2450.7c-13.5,43.28-39.87,77.74-72.5,109.87c-22.08,21.68-58.28,42.93-74.82,68.58
		c-13.77,21.34,2.32,37.66,12.52,60.46c22.17,49.75,65.97,115.05,47.2,170.85c-27.44,81.37-142.14,129.31-207.75,178.71
		c-36.74,27.64-100.3,69.02-78.67,120.32c8.85,20.9,23.24,40.34,33.17,60.9c5.9,12.35,18.59,27.38,17.34,40.51
		c-2.95,31.27-49.52,22.98-67.49,5.7c-31.56-30.23-64.72-105.55-62.58-147.88c2.68-50.96,69.37-95.27,107.36-123.52
		c33.97-25.22,74.55-43.1,107.27-69.36c45.5-36.54,31.91-90.61,8.49-135.78c-19.4-37.49-42.28-73.42-67.22-107.8
		c-14.39-19.87-30.04-45.95-55.6-53.29c-57.21-16.5-95.2,32.39-87.7,81.02c5.9,38.78,26.1,73.68,45.32,107.54
		c4.11,7.26,13.41,19,14.93,26.43c-26.46,53.73-45.5,67.2-56.94,40.51c-3.49-6.56-6.88-13.04-10.28-19.69
		c-10.28-20.13-19.93-40.51-29.32-60.98c-0.89-1.9-1.79-3.71-2.59-5.61c-0.72-1.64-2.32-1.64-3.58-0.86
		c-1.07,0.69-1.79,1.99-1.07,3.46c12.78,28.16,50.24,153.84,102.98,114.88c53.1-39.3-31.29-133.54-44.96-171.98
		c-12.16-34.12-25.75-86.29,27.09-103.83c43.71-14.51,74.29,13.91,97.17,45.18c30.22,41.46,63.2,88.19,80.54,136.39
		c14.84,41.37,9.65,80.07-29.95,107.02c-15.11,10.28-31.82,18.4-47.29,28.07c-38.98,24.44-75.72,52.34-109.51,83.27
		c-19.93,18.23-44.07,37.4-49.35,64.87c-7.33,38.09,14.84,81.54,31.65,114.71c11.89,23.58,61.06,115.66,103.61,77.91
		c16.9-15.03,3.04-41.55-3.58-57.35c-8.13-19.35-20.2-37.4-28.16-56.75c-19.4-47.33-4.56-83.18,30.22-113.93
		c65.53-57.87,150.36-94.5,209.9-158.85c66.78-72.04,17.97-147.1-16-223.28c-19.22-43.1-3.58-63.23,26.82-90.7
		c16.63-15.03,33.25-30.06,48.63-46.38c27.44-29.28,48.81-61.41,60.34-99.51c0-0.09,0-0.17,0-0.35c-0.18,0.6-0.36,1.21-0.63,1.81
		C173.23,2455.02,168.23,2453.73,169.12,2450.7z"/>
	<path d="M444.81,1905.66c0.09-0.17,0.18-0.43,0.18-0.6c-49.52,114.97-144.73,199.27-249.23,268.2c-1.07,0.69-1.43,1.73-1.25,2.94
		c13.59,93.03,4.92,185.11-25.39,274.33c0,0.09,0,0.09,0,0.17c-0.8,3.02,4.11,4.32,5.18,1.21c0.18-0.6,0.36-1.21,0.63-1.81
		c18.15-53.99,29.41-109.44,31.47-166.28c1.07-29.11-8.94-64.96-4.38-92.94c4.38-26.69,33.97-38.26,54.26-53.38
		c82.42-61.76,152.95-136.48,193.54-230.2C448.3,1909.98,443.56,1908.6,444.81,1905.66z"/>
	<path d="M450.17,1906.35L450.17,1906.35L450.17,1906.35L450.17,1906.35z"/>
	<path d="M660.96,1917.06c27.71-69.79,61.41-146.41,71.16-221.04c5.01-38.09-4.83-88.45-49.08-101.41
		c-41.93-12.27-64.01,22.72-58.91,58.74c6.26,44.22,20.47,74.63,8.94,121.01c-10.28,41.29-30.84,79.47-52.92,115.83
		c-42.19,69.62-89.75,136.48-140.44,200.57c-12.25,15.46-31.2,47.08-48.72,58.74c-10.73,19.18-25.57,17.28-44.61-5.7
		c9.65-11.92,19.49-23.75,29.32-35.59c23.24-28.42,46.4-56.92,68.39-86.2c45.77-60.81,63.56-111.17,54.8-186.14
		c-5.18-43.71-6.35-84.05,3.31-127.58c1.61-8.12,3.75-16.15,6.35-24.01c4.65-15.38,12.96-28.59,24.94-39.65
		c0.63-1.73,5.01-6.56,5.99-8.98c0.27-0.78,0-1.99-0.72-2.51c-24.14-21.34-53.64,26.43-60.97,44.57
		c-11.62,28.85-10.01,59.34-9.74,89.75c0.54,48.03-5.45,92.51-22.97,137.6c-0.09,0.17-0.18,0.43-0.18,0.6
		c-1.16,3.02,3.58,4.32,5.01,1.64c0.09-0.09,0.18-0.17,0.18-0.26c0.09-0.17,0.18-0.43,0.18-0.6v-0.09
		c10.64-27.38,18.5-55.28,21.63-84.39c4.02-37.66-2.15-75.75,3.67-113.24c3.04-19.69,10.19-50.36,28.52-62.19
		c4.29-0.95,8.49-1.81,12.78-2.76c13.59-5.36,16.36-4.75,8.49,1.64c-1.79,9.24-3.49,2.25-4.74,4.92
		c-10.91,23.75-21.01,42.24-25.92,68.76c-11.8,64.18,10.28,126.46,0.45,189.68c-12.25,78.52-84.57,149.61-134.09,208.95
		c-10.73,12.87-42.46,44.92-16.98,60.98c31.56,19.95,76.61-55.63,90.02-72.3c41.66-51.83,80.81-105.55,117.28-160.92
		c34.86-52.86,71.43-108.14,86.98-169.73c7.06-28.07,9.57-56.06,2.41-84.3c-1.61-6.56-4.29-12.78-6.08-19.35
		c-8.67-31.96-10.46-27.12,24.94-49.15c28.25-17.62,28.52-27.12,47.91-6.65c15.38,16.15,20.47,37.32,20.83,58.3
		c0.63,40.94-17.25,84.56-29.77,123.17c-12.96,39.82-27.35,79.12-42.82,118.08c-0.09,0.26-0.09,0.52-0.09,0.78
		c0.09-0.17,0.18-0.43,0.36-0.6C657.48,1913.61,660.87,1914.91,660.96,1917.06z"/>
	<path d="M-186.67,3560.82C-170.49,3395.5-62.68,3268,23.59,3130.84c69.55-110.48,157.33-235.81,128.19-372.03
		c-3.93-18.23-15.91-37.31-18.33-55.11c-5.01-37.06,13.32-48.8,34.33-68.76c28.78-27.38,57.84-54.59,85.55-83.01
		c54.8-56.15,97.89-117.21,141.15-181.74c92.16-137.34,187.99-272.26,254.59-423.59c0.27-0.52,0.27-1.04,0.18-1.55
		c-1.52,2.68-3.04,5.36-4.2,8.21c-0.89,2.33-4.2,2.16-5.1,0.43c-52.3,116.18-121.04,223.37-192.73,329.18
		c-36.92,54.42-71.87,110.56-110.58,163.86c-40.76,56.06-89.84,105.55-140.08,153.67c-23.06,22.11-77.95,54.24-75.18,90.44
		c0.98,13.04,13.32,28.94,17.7,42.07c5.81,17.36,9.74,35.67,11.62,53.9c3.4,33.08,0,66.51-8.05,98.73
		C112.98,3004.21,31.1,3113.73-37.92,3214.1c-74.38,108.23-143.66,220.35-154.83,352.68c-0.09,1.12,0.45,1.81,1.25,2.25
		c0.18-1.99,0.27-3.89,0.45-5.87C-190.69,3560.74-188.19,3560.04-186.67,3560.82z"/>
	<path d="M645.05,1953.08c1.16-2.85,2.68-5.53,4.2-8.21c1.43-2.51,2.95-5.1,4.11-7.77c2.68-6.22,3.49-12.87,7.24-18.66
		c0.36-0.52,0.36-1.04,0.36-1.47c-0.18-2.07-3.49-3.46-5.01-1.12c-0.09,0.17-0.18,0.43-0.36,0.6c-3.31,5.36-4.47,11.32-6.61,17.1
		c-2.32,6.31-6.62,11.83-9.12,18.14c-0.27,0.69-0.18,1.38,0.09,1.81C640.85,1955.24,644.16,1955.5,645.05,1953.08z"/>
	<path d="M427.74,3970.94c1.61-2.33,3.22-4.66,4.83-7c-1.16-0.6-2.68-0.52-3.67,0.78c-13.68,18.74-75.98,68.58-76.79,16.76
		c-0.18-11.83,3.93-23.84,4.02-35.67c0.18-14.6-1.34-30.84-15.64-39.39c-32.72-19.52-76.07,25.48-98.06,40.77
		c-62.04,42.93-137.76,73.94-215.35,68.07c-63.2-4.75-94.13-39.3-117.64-92.6c-15.38-34.9-30.04-70.05-45.05-105.12
		c-1.07-2.42-4.2-2.5-5.18,0c-7.42,18.57-5.27,31.1-26.73,29.54c-22.71-1.64-15.55-16.5-16.9-34.46
		c-2.06-27.73-3.84-55.45-5.01-83.27c-2.32-55.54-1.52-110.91,3.84-166.28c0.09-1.12-0.45-1.81-1.16-2.16
		c-1.52-0.78-4.02-0.09-4.2,2.16c-0.18,1.99-0.27,3.89-0.45,5.87c-6.88,75.67-4.74,151.33,0.45,227.09
		c0.98,13.99-6.62,82.84,17.16,85.69c11.26,1.3,15.11-8.9,19.58-16.5c5.36-9.16,6.08-32.05,19.85-31.18
		c4.29,0.26,20.02,46.73,22.53,52.6c18.33,42.84,34.06,98.64,80.72,120.84c43.89,20.9,101.37,16.24,147.23,4.75
		c29.41-7.34,57.66-18.83,84.21-33c29.5-15.63,53.99-41.03,83.23-55.89c27.53-13.99,63.74,2.59,66.24,33.6
		c0.98,11.92-6.44,25.22-4.65,36.97c1.61,10.19-0.89,14.08,9.03,19.43c25.83,14.08,58.37-19.43,74.11-39.22
		C427.38,3973.44,426.84,3972.24,427.74,3970.94z"/>
	<path d="M72.13,3661.02c0-0.17,0.09-0.43,0.09-0.6c-1.88,0.35-3.67,0.69-5.54,1.12c-3.4,0.69-1.97,5.7,1.43,5.01
		c102.09-21.25,189.25-1.04,256.47,78.6c30.04,35.59,50.86,76.53,71.96,117.3c7.51,14.6,12.96,34.64,33.61,33.6
		c17.16-0.86,28.43-21.68,36.74-33.51c21.1-30.06,38.98-62.19,58.37-93.2c44.34-71,93.77-129.22,167.52-173.27
		c34.15-20.38,69.28-39.3,104.32-58.05c34.77-18.57,78.4-51.48,117.02-60.29c27.18-19.35,38.8-2.16,34.95,51.65
		c-8.67,5.18-17.43,10.37-26.19,15.38c-19.76,11.57-39.51,23.15-59.18,34.98c-39.24,23.58-78.22,47.68-116.84,72.3
		c-66.24,42.24-129.35,84.65-182.9,141.92c-49.17,52.6-90.47,111.43-131.32,170.16c-1.61,2.33-3.22,4.66-4.83,7
		c-0.89,1.3-0.36,2.5,0.63,3.2c1.16,0.78,2.95,0.86,3.93-0.6c42.19-60.72,84.48-121.71,135.34-176.12
		c54.89-58.74,120.95-102.44,189.07-145.72c65.35-41.55,137.67-76.79,200.42-121.71c19.13-13.73,42.02-43.62,19.4-65.3
		c-10.91-10.45-24.05-8.21-37.19-4.66c-34.6,9.5-69.82,33.95-101.37,50.36c-64.63,33.69-132.66,66.51-191.48,109.35
		c-47.91,34.9-83.49,80.59-114.96,129.48c-17.34,26.95-33.52,54.68-50.69,81.8c-7.96,12.61-15.64,27.99-26.1,38.7
		c-33.61,34.55-51.49-6.39-64.01-30.66c-30.48-59-67.85-117.13-125.87-154.18c-57.66-36.88-121.66-37.83-187.01-25.65
		c-0.18,1.04-0.45,2.07-0.63,3.11C76.69,3665.68,71.5,3664.3,72.13,3661.02z"/>
	<path d="M629.85,2942.19c-14.03-7.77-32.72-1.73-44.07,7.69c-13.95,11.57-19.67,30.32-27.09,45.69
		c-10.91,22.63-24.23,43.62-39.51,63.66c-35.94,47.16-78.13,90.35-117.64,134.66c-70.44,78.95-143.48,156.26-210.43,238.06
		c-55.78,68.15-102.89,141.83-118.89,228.38c0,0.17-0.09,0.43-0.09,0.6c-0.63,3.28,4.56,4.66,5.18,1.38
		c0.18-1.04,0.45-2.07,0.63-3.11c29.59-153.92,156.71-270.27,258.44-384.29c56.05-62.8,114.07-124.47,168.06-188.99
		c19.58-23.32,38.08-47.51,52.3-74.37c4.38-8.38,8.4-16.93,12.07-25.57c8.31-26.69,31.82-32.05,70.53-15.81
		c2.41,11.23-5.45,32.39-5.18,45.87c0,0.86,0.36,1.47,0.89,1.81c1.34-1.55,2.77-3.02,4.56-4.41
		C640.13,2991.34,655.33,2956.35,629.85,2942.19z"/>
	<path d="M755.81,2922.41c-0.54,0.52-1.16,1.04-1.7,1.55c-0.89,0.78-2.15,0.95-3.22,0.43c-0.09,0-0.09-0.09-0.18-0.09
		c0.54,1.81,3.58,2.85,5.01,0.78c40.67-56.92,126.67-94.5,189.07-125.68c35.49-17.71,71.87-34.72,109.33-48.11
		c16.63-5.96,33.79-11.06,51.31-13.91c11.8-1.9,24.85-3.02,36.83-2.51c27.89,1.21,31.11,5.01,50.06,28.16
		c22.17,26.95,22.44,36.28,12.25,69.19c-7.78,25.22-22.08,47.25-39.78,67.03c-22.88,25.48-48.99,48.63-73.75,72.47
		c-52.21,50.19-104.59,100.46-150.81,155.82c-37.28,44.66-70.89,92.51-96.1,144.6c-27.44,56.66-37.72,118.42-62.49,175.86
		c-6.79,15.72-14.66,35.93-27.62,48.11c-2.77,3.54-5.45,7-8.22,10.54c-19.67-10.71-39.33-21.42-59-32.22
		c-2.41-4.06,7.06-49.75,5.01-39.39c6.79-34.98,19.04-68.5,34.42-100.8c28.07-59.34,66.15-115.23,104.77-168.61
		c90.11-124.38,198.36-235.29,320.3-331c1.34-1.04,0.8-3.28-0.54-4.06c-70.62-39.99-144.37-4.06-205.61,35.67
		c-44.34,28.76-88.14,58.39-132.21,87.59c-23.51,15.63-47.11,31.18-70.62,46.82c-11.8,7.77-23.51,15.63-35.31,23.41
		c-4.74,3.11-9.39,6.22-14.12,9.33c-15.73,13.82-32.36,8.55-49.7-16.07c2.68-2.07-1.07-5.7-3.75-3.63l0,0
		c-1.79,1.38-3.22,2.85-4.56,4.41c-6.53,7.51-7.6,17.19-0.27,26.17c23.42,28.85,71.51-13.3,89.3-25.05
		c51.76-34.29,103.61-68.67,155.37-102.96c51.94-34.38,107.81-81.11,170.74-94.67c18.59-3.97,93.42-12.35,85.64,18.74
		c-1.7,6.82-28.96,23.49-34.86,28.42c-11.44,9.59-22.8,19.43-34.06,29.28c-44.79,39.73-87.43,81.71-127.48,125.94
		c-71.6,79.03-136.59,164.89-190.14,256.28c-23.33,39.91-43.98,81.63-56.14,126.02c-7.78,28.68-23.87,78.52-1.97,105.21
		c56.5,68.67,110.04-100.46,118.71-129.57c35.76-119.89,99.05-217.15,186.12-308.8c41.3-43.45,85.19-84.39,128.28-126.2
		c34.86-33.77,70.89-66.42,85.46-113.41c9.21-29.71,14.57-66.86-13.41-88.45c-36.65-28.25-97.08-14.43-136.5-1.47
		c-61.15,20.13-120.06,50.62-175.66,81.89c-44.7,25.22-97.53,51.05-129.26,91.73c0.54,0.43,0.89,0.95,1.07,1.55
		C756.7,2919.99,756.88,2921.46,755.81,2922.41z"/>
	<path d="M973.93,1364.77c107,148.57,111.83,334.54,80.54,507.03c1.07-2.51,5.54-1.12,4.92,1.9c-0.09,0.43-0.09,0.86-0.18,1.3
		c0.09-0.17,0.18-0.26,0.18-0.43c31.82-174.31,27.26-362.35-80.81-512.48c-0.45-0.69-1.07-0.95-1.7-1.12
		c-0.8-0.17-1.52,0.09-2.15,0.43C973.57,1362.26,972.95,1363.47,973.93,1364.77z"/>
	<path d="M846.9,2493.2c0.18-0.6,0.45-1.21,0.63-1.9c-0.63,1.12-1.25,2.25-1.88,3.28C846.19,2494.32,846.63,2493.89,846.9,2493.2z"
		/>
	<path d="M1049.65,1906.96c-36.56,204.11-140.62,387.32-207.04,582.53c0.63-1.12,1.25-2.33,1.88-3.46c1.25-2.07,4.02-1.3,4.83,0.43
		c66.69-194.18,169.94-376.6,205.87-579.94c0.09-0.35,0-0.6,0-0.86c0,0.43-0.09,0.86-0.18,1.3
		C1054.65,1910.24,1049.38,1910.24,1049.65,1906.96z"/>
	<path d="M844.4,2486.03c-0.72,1.12-1.25,2.33-1.88,3.46c-19.49,33.77-27.98,72.04-40.23,108.58
		c-15.55,46.3-33.43,91.65-52.03,136.91c-14.03,34.29-28.25,69.62-28.07,107.02c0.09,15.2,5.81,66.94,25.48,78
		c-0.54,1.21-0.36,2.76,0.98,3.46c0.63,0.35,1.25,0.6,1.97,0.95c0.09,0,0.09,0.09,0.18,0.09c1.07,0.52,2.32,0.43,3.22-0.43
		c0.54-0.52,1.16-1.04,1.7-1.55c1.07-0.95,0.89-2.42,0.09-3.46c-0.18-0.6-0.54-1.12-1.07-1.55c-0.18-0.09-0.27-0.17-0.45-0.26
		c-57.21-69.36-8.67-154.53,19.22-225.19c24.94-63.14,38.17-137.94,71.96-197.29c0.63-1.12,1.25-2.25,1.88-3.28
		c0.54-0.86,0.98-1.81,1.52-2.68c0.45-0.78,0.45-1.55,0.18-2.16C848.51,2484.74,845.74,2483.96,844.4,2486.03z"/>
	<path d="M1054.47,1871.89c-0.09,0.17-0.18,0.35-0.27,0.52c-2.06,11.4-3.58,22.89-4.65,34.46l0,0c-0.27,3.28,5.1,3.28,5.36,0
		c0-0.43,0.09-0.86,0.18-1.3c0.89-10.28,2.32-20.47,4.11-30.58c0.09-0.43,0.09-0.86,0.18-1.3
		C1059.93,1870.77,1055.55,1869.38,1054.47,1871.89z"/>
	<path d="M781.91,1411.84c2.86,0.26,2.68,4.84-0.54,5.1c-1.43,0.17-2.77,0.43-4.2,0.6c0.54,0.43,1.34,0.6,2.23,0.35
		c58.64-20.56,111.47,53.29,68.3,96.83c-20.02,20.21-54.35,24.96-81.8,24.36c-31.47-0.78-79.38-11.14-88.77-45.78
		c-13.23-48.54,51.4-68.07,87.16-72.04c1.16-0.17,1.88-0.86,2.23-1.64c-2.5,0.6-5.01,1.21-7.42,1.99c-2.86,0.95-4.29-2.76-2.41-4.41
		c-37.81,5.79-88.86,24.96-86.09,68.84c2.95,45.78,65.7,59.25,103.7,58.39c39.78-0.95,89.3-16.33,94.13-60.72
		C873.54,1436.98,827.24,1398.97,781.91,1411.84z"/>
	<path d="M759.12,1421.52c2.41-0.78,4.92-1.38,7.42-1.99c3.49-0.86,7.06-1.47,10.64-1.99c1.43-0.17,2.77-0.52,4.2-0.6
		c3.22-0.35,3.4-4.84,0.54-5.1c-0.18,0-0.36-0.09-0.54-0.09c-8.05,0.78-15.91,2.33-23.69,4.75c-0.45,0.17-0.72,0.35-0.98,0.52
		C754.83,1418.75,756.26,1422.47,759.12,1421.52z"/>
	<path d="M692.16,1471.36c-10.55,28.68,22.97,42.07,46.48,42.67c29.5,0.78,82.87-6.91,95.11-38.35
		c11.08-28.5-24.14-42.84-48.09-42.58c-0.45-0.69-1.07-1.21-2.15-1.12C754.11,1433.01,704.05,1439.31,692.16,1471.36z
		 M728.63,1447.52c15.47-6.74,31.82-9.07,48.63-10.02c0.54,0.95,1.52,1.55,2.86,1.04c0.36-0.17,0.8-0.17,1.16-0.26
		c0.09,0.09,0.18,0.09,0.27,0.17c1.25,0.6,2.95,0.35,3.67-0.95c0,0,0,0,0-0.09c22.08-2.68,58.2,19.43,35.85,47.08
		c-4.2,5.18-12.96,9.16-19.04,12.09c-18.77,9.24-42.55,13.39-63.47,12.35c-17.61-0.86-62.04-6.74-34.86-45.43
		C708.97,1456.07,720.5,1450.97,728.63,1447.52z"/>
</g>
</svg>
