<?xml version="1.0" encoding="utf-8"?>
<!-- Generator: Adobe Illustrator 23.0.1, SVG Export Plug-In . SVG Version: 6.00 Build 0)  -->
<svg version="1.1" id="Layer_1" xmlns="http://www.w3.org/2000/svg" xmlns:xlink="http://www.w3.org/1999/xlink" x="0px" y="0px"
	 viewBox="0 0 630 633" style="enable-background:new 0 0 630 633;" xml:space="preserve">
<style type="text/css">
	.st0{display:none;fill:url(#SVGID_1_);stroke:#4D75F2;stroke-miterlimit:10;}
	.st1{fill:#FFFFFF;}
	.st2{fill:#4D75F2;}
	.st3{fill:none;stroke:#4D75F2;stroke-width:5;stroke-miterlimit:10;}
	.st4{fill:none;stroke:#4D75F2;stroke-width:4;stroke-miterlimit:10;}
	.st5{fill:none;stroke:#FFFFFF;stroke-width:4;stroke-miterlimit:10;}
	.st6{fill:none;stroke:#4D75F2;stroke-width:3.5;stroke-miterlimit:10;}
	.st7{fill:none;stroke:#FFFFFF;stroke-width:3.5;stroke-miterlimit:10;}
	.st8{fill:none;stroke:#FFFFFF;stroke-width:3;stroke-miterlimit:10;}
	.st9{fill:#2FD3D4;}
</style>
<linearGradient id="SVGID_1_" gradientUnits="userSpaceOnUse" x1="-84.5" y1="302" x2="745.5" y2="302">
	<stop  offset="1.198083e-07" style="stop-color:#000000;stop-opacity:0.5"/>
	<stop  offset="1" style="stop-color:#000000;stop-opacity:0.5"/>
</linearGradient>
<rect x="-84.5" y="15.5" class="st0" width="830" height="573"/>
<g>
	<g>
		<g>
			<path class="st1" d="M481.34,337.43c7.15-0.04,14.3-0.07,21.45-0.11c1.93-0.01,1.93-3.01,0-3c-7.15,0.04-14.3,0.07-21.45,0.11
				C479.41,334.44,479.41,337.44,481.34,337.43L481.34,337.43z"/>
		</g>
	</g>
	<g>
		<g>
			<path class="st1" d="M481.34,325.31c10.55-0.02,21.11-0.05,31.66-0.07c1.93,0,1.93-3,0-3c-10.55,0.02-21.11,0.05-31.66,0.07
				C479.41,322.31,479.41,325.31,481.34,325.31L481.34,325.31z"/>
		</g>
	</g>
	<g>
		<g>
			<path class="st1" d="M481.34,313.31c10.55-0.02,21.11-0.05,31.66-0.07c1.93,0,1.93-3,0-3c-10.55,0.02-21.11,0.05-31.66,0.07
				C479.41,310.31,479.41,313.31,481.34,313.31L481.34,313.31z"/>
		</g>
	</g>
	<g>
		<g>
			<path class="st1" d="M481.34,301.31c10.55-0.02,21.11-0.05,31.66-0.07c1.93,0,1.93-3,0-3c-10.55,0.02-21.11,0.05-31.66,0.07
				C479.41,298.31,479.41,301.31,481.34,301.31L481.34,301.31z"/>
		</g>
	</g>
	<g>
		<g>
			<path class="st1" d="M412.34,226.31c10.55-0.02,21.11-0.05,31.66-0.07c1.93,0,1.93-3,0-3c-10.55,0.02-21.11,0.05-31.66,0.07
				C410.41,223.31,410.41,226.31,412.34,226.31L412.34,226.31z"/>
		</g>
	</g>
	<g>
		<g>
			<path class="st1" d="M191.34,102.44c12.22-0.02,24.44-0.05,36.66-0.07c1.93,0,1.93-3,0-3c-12.22,0.02-24.44,0.05-36.66,0.07
				C189.41,99.44,189.41,102.44,191.34,102.44L191.34,102.44z"/>
		</g>
	</g>
	<g>
		<g>
			<path class="st1" d="M163,102.47c6.67-0.02,13.33-0.05,20-0.07c1.93-0.01,1.93-3.01,0-3c-6.67,0.02-13.33,0.05-20,0.07
				C161.07,99.47,161.07,102.47,163,102.47L163,102.47z"/>
		</g>
	</g>
	<g>
		<g>
			<path class="st1" d="M208,114.47c6.67-0.02,13.33-0.05,20-0.07c1.93-0.01,1.93-3.01,0-3c-6.67,0.02-13.33,0.05-20,0.07
				C206.07,111.47,206.07,114.47,208,114.47L208,114.47z"/>
		</g>
	</g>
	<g>
		<g>
			<path class="st1" d="M193,114.78c3-0.01,6-0.02,9-0.03c1.93-0.01,1.93-3.01,0-3c-3,0.01-6,0.02-9,0.03
				C191.07,111.79,191.07,114.79,193,114.78L193,114.78z"/>
		</g>
	</g>
	<g>
		<g>
			<path class="st1" d="M175,113.61c3.33-0.01,6.67-0.01,10-0.02c1.93,0,1.93-3,0-3c-3.33,0.01-6.67,0.01-10,0.02
				C173.07,110.61,173.07,113.61,175,113.61L175,113.61z"/>
		</g>
	</g>
	<g>
		<g>
			<path class="st1" d="M182,125.12c3.33-0.01,6.67-0.01,10-0.02c1.93,0,1.93-3,0-3c-3.33,0.01-6.67,0.01-10,0.02
				C180.07,122.13,180.07,125.13,182,125.12L182,125.12z"/>
		</g>
	</g>
	<g>
		<g>
			<path class="st1" d="M200,125.48c8.67-0.02,17.33-0.05,26-0.07c1.93-0.01,1.93-3.01,0-3c-8.67,0.02-17.33,0.05-26,0.07
				C198.07,122.48,198.07,125.48,200,125.48L200,125.48z"/>
		</g>
	</g>
	<g>
		<g>
			<path class="st1" d="M450.34,178.41c7.55-0.03,15.11-0.05,22.66-0.08c1.93-0.01,1.93-3.01,0-3c-7.55,0.03-15.11,0.05-22.66,0.08
				C448.41,175.42,448.41,178.42,450.34,178.41L450.34,178.41z"/>
		</g>
	</g>
	<g>
		<g>
			<path class="st2" d="M412.34,216.31c10.55-0.02,21.11-0.05,31.66-0.07c1.93,0,1.93-3,0-3c-10.55,0.02-21.11,0.05-31.66,0.07
				C410.41,213.31,410.41,216.31,412.34,216.31L412.34,216.31z"/>
		</g>
	</g>
	<g>
		<g>
			<path class="st2" d="M419.22,263.21c5.5-5.43,10.99-10.87,16.49-16.3c1.83-1.81-1-4.64-2.83-2.83
				c-5.5,5.43-10.99,10.87-16.49,16.3C414.55,262.2,417.38,265.03,419.22,263.21L419.22,263.21z"/>
		</g>
	</g>
	<g>
		<g>
			<path class="st2" d="M419.33,262.02c-0.56-5.32-1.11-10.63-1.67-15.95c-0.2-1.9-3.2-1.92-3,0c0.56,5.32,1.11,10.63,1.67,15.95
				C416.53,263.92,419.53,263.94,419.33,262.02L419.33,262.02z"/>
		</g>
	</g>
	<g>
		<g>
			<path class="st2" d="M498.34,233.4c22.22-0.03,44.44-0.05,66.66-0.08c1.93,0,1.93-3,0-3c-22.22,0.03-44.44,0.05-66.66,0.08
				C496.41,230.4,496.41,233.4,498.34,233.4L498.34,233.4z"/>
		</g>
	</g>
	<g>
		<g>
			<path class="st2" d="M448.34,491.69c12.55-0.04,25.11-0.08,37.66-0.13c1.93-0.01,1.93-3.01,0-3
				c-12.55,0.04-25.11,0.08-37.66,0.13C446.41,488.7,446.41,491.7,448.34,491.69L448.34,491.69z"/>
		</g>
	</g>
	<g>
		<g>
			<path class="st2" d="M432.34,502.89c4.22-0.06,8.44-0.11,12.66-0.17c1.93-0.03,1.93-3.03,0-3c-4.22,0.06-8.44,0.11-12.66,0.17
				C430.41,499.92,430.41,502.92,432.34,502.89L432.34,502.89z"/>
		</g>
	</g>
	<g>
		<g>
			<path class="st2" d="M439.34,514.89c4.22-0.06,8.44-0.11,12.66-0.17c1.93-0.03,1.93-3.03,0-3c-4.22,0.06-8.44,0.11-12.66,0.17
				C437.41,511.92,437.41,514.92,439.34,514.89L439.34,514.89z"/>
		</g>
	</g>
	<g>
		<g>
			<path class="st2" d="M451.34,503c2.89-0.07,5.77-0.13,8.66-0.2c1.93-0.04,1.93-3.04,0-3c-2.89,0.07-5.77,0.13-8.66,0.2
				C449.41,500.04,449.41,503.04,451.34,503L451.34,503z"/>
		</g>
	</g>
	<g>
		<g>
			<path class="st2" d="M466.34,503.05c6.89-0.07,13.77-0.14,20.66-0.22c1.93-0.02,1.93-3.02,0-3c-6.89,0.07-13.77,0.14-20.66,0.22
				C464.41,500.07,464.41,503.07,466.34,503.05L466.34,503.05z"/>
		</g>
	</g>
	<g>
		<g>
			<path class="st2" d="M458.34,515.08c8.55-0.08,17.11-0.15,25.66-0.23c1.93-0.02,1.93-3.02,0-3c-8.55,0.08-17.11,0.15-25.66,0.23
				C456.41,512.1,456.41,515.1,458.34,515.08L458.34,515.08z"/>
		</g>
	</g>
	<g>
		<g>
			<path class="st2" d="M450.34,187.43c4.55-0.02,9.11-0.04,13.66-0.06c1.93-0.01,1.93-3.01,0-3c-4.55,0.02-9.11,0.04-13.66,0.06
				C448.41,184.44,448.41,187.44,450.34,187.43L450.34,187.43z"/>
		</g>
	</g>
	<g>
		<g>
			<path class="st1" d="M412.34,236.43c5.89-0.02,11.77-0.04,17.66-0.06c1.93-0.01,1.93-3.01,0-3c-5.89,0.02-11.77,0.04-17.66,0.06
				C410.41,233.43,410.41,236.43,412.34,236.43L412.34,236.43z"/>
		</g>
	</g>
	<g>
		<g>
			<g>
				<path class="st1" d="M143.74,270.93c-2.22,1.14-4.43,1.45-6.77,2.15c-1.44,0.43-3.17,1.63-4.6,1.9
					c-2.94,0.56-5.07-1.75-7.81-0.69c-1.05,0.4-1.42,1.31-2.31,1.85c-2.36,1.46-3.05,0.63-5.03,1.58c-1.4,0.67-2.3,2.13-2.11,3.69
					c0.33,2.66,5.47,3.49,0.57,3.06c-1.51-0.13-2.92-0.2-4.04,0.98c-1.27,1.34-0.32,1.25-0.9,2.66c-0.27,0.65-0.8,1.45-1.12,2.12
					c-0.63,1.33-0.93,2.44,0.02,3.75c1.17,1.62,3.2,1.63,4.92,1.03c2.2-0.77,2.79-2.36,5.44-2.53c1.1-0.07,1.94,0.59,3.13,0.34
					c0.57-0.12,2.89-1.8,3.09-1.74c-0.19-0.06-0.95,1.14-0.99,1.33c-0.58,2.54-0.03,4.27,1.9,6.17c1.18,1.16,2.54,2.09,4.25,1.55
					c1.76-0.55,1.89-2.7,4.36-1.82c1.39,0.49,3.05,3.58,4.36,4.55c1.37,1.01,2.93,1.92,4.61,1.02c0.38-0.2,1.19-1.33,1.38-1.39
					c1.79-0.52,4.78,2.51,5.87,3.41c1.48,1.22,3.61-0.89,2.12-2.12c-1.84-1.52-4.1-3.76-6.48-4.37c-1.9-0.49-2.14,0.39-3.63,0.86
					c-0.35,1-0.93,1-1.76,0.01c-1.02-0.39-1.85-1.03-2.49-1.91c-1.01-0.97-1.75-2.47-3-3.19c-1.13-0.65-2.42-0.95-3.67-0.41
					c-1.44,0.61-1.74,2.81-3.81,1.69c-4.7-2.54-0.36-2.86-0.06-4.22c0.31-1.41,0.88-2.25-0.46-3.48c-1.2-1.1-2.55-0.6-3.89-0.27
					c-1.68,0.41-3.45,0.71-5.22,0.91c-0.82,0.09-1.51,0.07-2.37,0.4c-0.52,0.2-4.46,3.26-4.94,2.08c-0.04-0.1,1.18-0.87,1.22-1.13
					c0.45-2.83,1.72-3,4.54-2.95c2.93,0.05,6.37-2.04,3.48-4.92c-0.3-0.3-1.9-1.1-1.91-1.19c-0.13-1.64,1.73-1.12,2.42-1.62
					c0.63-0.46,1.65-1.47,2.31-1.84c1.87-1.05,2.65-0.44,4.34-0.19c3.41,0.5,4.16-0.39,7.61-1.66c2.98-1.1,6.07-1.42,8.93-2.89
					C146.97,272.64,145.46,270.05,143.74,270.93L143.74,270.93z"/>
			</g>
		</g>
		<g>
			<g>
				<path class="st1" d="M117.53,297.05c-3.57-0.35-9.64,1.05-11.64,4.37c-1.7,2.83-0.52,6.68,2.07,8.5
					c1.63,1.14,3.26,1.13,5.13,1.31c2.24,0.21,2.85,0.11,3.8,2.23c0.8,1.78,0.42,4.41,0.67,6.35c0.43,3.35,2.47,6.18,6.25,5.45
					c4.21-0.81,5.3-5.1,5.53-8.73c0.12-1.88-0.93-2.28,0.4-4.46c0.36-0.59,1.19-0.95,1.63-1.55c0.66-0.93,1.27-2.18,0.78-3.3
					c-0.55-1.25-1.7-0.84-2.66-1.46c-1.9-1.23-1.33-2.82-2.53-4.59c-0.88-1.29-1.92-1.96-3.41-2.36c-0.97-0.26-1.9,0.01-2.9-0.26
					c-1.3-0.34-2.24-1-3.56-1.32c-1.88-0.46-2.68,2.44-0.8,2.89c1.48,0.36,3.41,1.4,4.9,1.87c6.35,1.99,2.02,3.16,4.93,5.92
					c1.58,1.49,2.44-0.27,1.07,2.25c-0.9,1.65-1.21,1.83-1.3,3.99c-0.14,3.55,2.33,5.05-2.57,4.46c-3.85-0.47-2.76-0.74-3.23-4.03
					c-0.27-1.86-0.41-3.98-1.74-5.43c-1.39-1.51-2.13-1.01-3.81-1.18c-12.89-1.32-2.44-8.48,2.98-7.94
					C119.45,300.24,119.44,297.23,117.53,297.05L117.53,297.05z"/>
			</g>
		</g>
		<g>
			<g>
				<path class="st1" d="M89.09,264.81c0.64,1.9,1.13,5.14,3.85,4.82c0.98-0.12,1.9-1.63,2.54-1.67c1.21-0.07,3.22,3.29,3.98,4.35
					c0.96,1.33,7.77,2.13,0.48,5.82c-1.7,0.86-3.32,0.19-4.45-1.07c-1.07-1.18-1.55-2.92-2.76-3.91c-0.8-0.65-1.35-0.77-2.41-0.79
					c-1.01-0.02-2.38,0.65-3.4,0.33c-0.98-0.31-1.98-1.39-2.91-1.87c-1.71-0.89-3.23,1.7-1.51,2.59c2.2,1.14,3.68,2.7,6.25,2.76
					c2.08,0.05,1.87-1.17,3.12,1.39c0.41,0.84,0.8,1.69,1.5,2.34c2.72,2.51,8.3,1.94,10.53-0.95c3.55-4.61-1.45-7.49-3.54-10.88
					c-1.03-1.66-1.78-3.34-4.03-3.5c-0.8-0.06-1.6,0.22-2.24,0.65c-0.55,0.34-0.96,0.81-1.22,1.4c-0.29-0.87-0.59-1.75-0.88-2.62
					C91.37,262.19,88.47,262.97,89.09,264.81L89.09,264.81z"/>
			</g>
		</g>
		<g>
			<g>
				<path class="st1" d="M79.51,278.41c1.58-0.08,3.45,0.55,2.73,1.76c-0.19,0.32-1.72,0.85-2.07,1.14
					c-0.91,0.75-1.72,1.82-1.77,3.06c-0.1,2.37,1.81,3.13,3.91,3.49c1.04,0.18,1.81,0.25,2.69-0.29c0.29-0.18,0.6-0.66,0.88-0.79
					c0.14-0.27,0.29-0.55,0.43-0.82c2.58,0.64,3.17,1.21,1.77,1.71c-0.61,1.01-2.58,1.28-3.31,2.51c-0.69,1.17-0.76,2.34-0.45,3.67
					c0.59,2.58,1.62,2.64-1.04,3.99c-1.31,0.67-2.63,0.99-3.58,2.23c-1.41,1.85-1.12,3.94,0.37,5.57c1.33,1.45,3.72,3.32,5.38,4.43
					c1.08,0.73,1.97,1.08,3.28,1.25c0.82,0.11,1.79-0.25,2.58-0.06c4.11,0.95,4.69,4.34,4.92,7.46c0.24,3.37-0.52,6.78-1.21,10.05
					c-0.39,1.88,2.5,2.69,2.89,0.8c1.08-5.18,2.21-10.76,0.38-15.9c-1.47-4.15-3.65-4.84-7.64-5.37c-0.83-0.11-6.55-2.74-7.2-4.32
					c-1.41-3.44,2.8-3.16,4.58-4.81c0.78-0.72,1.01-1.14,1.03-2.14c0.02-1.02-0.92-1.52-1.12-2.4c-0.88-3.88,0-3.38,2.23-4.67
					c2.67-1.54,4.32-3.6,2.02-6.55c-2.37-3.03-5.34-2.16-7.86-0.14c-0.43,0.34-0.94,2.88-2.21,1.41c-1.35-1.56,2.22-1.86,2.72-2.32
					c1.05-0.95,1.62-1.23,1.58-2.89c-0.08-3.62-4.08-4.21-6.93-4.07C77.59,275.5,77.57,278.5,79.51,278.41L79.51,278.41z"/>
			</g>
		</g>
		<circle class="st3" cx="114" cy="294" r="39.5"/>
	</g>
	<g>
		<path class="st3" d="M210,188c0,15.55-11.45,28.42-26.37,30.66c-1.51,0.23-3.06,0.34-4.63,0.34c-17.12,0-31-13.88-31-31
			s13.88-31,31-31S210,170.88,210,188z"/>
	</g>
	<g>
		<path class="st4" d="M312.19,90.72c-2.62,3.98-7.72,5.35-11.92,3.4c-0.42-0.2-0.84-0.43-1.24-0.69c-4.38-2.88-5.6-8.78-2.71-13.16
			s8.78-5.6,13.16-2.71C313.86,80.45,315.07,86.34,312.19,90.72z"/>
	</g>
	<g>
		<path class="st4" d="M428.25,142.5c0,7.27-5.35,13.29-12.33,14.34c-0.71,0.11-1.43,0.16-2.17,0.16c-8.01,0-14.5-6.49-14.5-14.5
			s6.49-14.5,14.5-14.5S428.25,134.49,428.25,142.5z"/>
	</g>
	<g>
		<path class="st5" d="M541,447.38c0,4.7-3.46,8.6-7.97,9.27c-0.46,0.07-0.92,0.1-1.4,0.1c-5.18,0-9.38-4.2-9.38-9.38
			s4.2-9.38,9.38-9.38S541,442.2,541,447.38z"/>
	</g>
	<line class="st6" x1="185" y1="287" x2="198" y2="268"/>
	<line class="st6" x1="228" y1="269" x2="244" y2="249"/>
	<line class="st6" x1="203" y1="267" x2="222" y2="271"/>
	<g>
		<g>
			<path class="st7" d="M187,288.88c0,1.44-1.06,2.64-2.45,2.84c-0.14,0.02-0.28,0.03-0.43,0.03c-1.59,0-2.88-1.29-2.88-2.88
				s1.29-2.88,2.88-2.88S187,287.29,187,288.88z"/>
		</g>
		<g>
			<path class="st7" d="M203,265.88c0,1.44-1.06,2.64-2.45,2.84c-0.14,0.02-0.28,0.03-0.43,0.03c-1.59,0-2.88-1.29-2.88-2.88
				s1.29-2.88,2.88-2.88S203,264.29,203,265.88z"/>
		</g>
		<g>
			<path class="st7" d="M228,271.88c0,1.44-1.06,2.64-2.45,2.84c-0.14,0.02-0.28,0.03-0.43,0.03c-1.59,0-2.88-1.29-2.88-2.88
				s1.29-2.88,2.88-2.88S228,270.29,228,271.88z"/>
		</g>
		<g>
			<path class="st7" d="M249,246.88c0,1.44-1.06,2.64-2.45,2.84c-0.14,0.02-0.28,0.03-0.43,0.03c-1.59,0-2.88-1.29-2.88-2.88
				s1.29-2.88,2.88-2.88S249,245.29,249,246.88z"/>
		</g>
	</g>
	<g>
		<path class="st4" d="M488.25,447.88c0-24.23,19.64-43.88,43.88-43.88c18.45,0,34.24,11.39,40.72,27.52"/>
		<path class="st4" d="M576,447.88c0,22-16.2,40.23-37.32,43.39c-2.14,0.32-4.33,0.49-6.55,0.49c-19.69,0-36.35-12.97-41.9-30.83"/>
	</g>
	<g>
		<path class="st5" d="M418.75,142c0,2.51-1.85,4.58-4.25,4.94c-0.24,0.04-0.49,0.06-0.75,0.06c-2.76,0-5-2.24-5-5s2.24-5,5-5
			S418.75,139.24,418.75,142z"/>
	</g>
	<g>
		<path class="st8" d="M308.25,85.5c0,2.01-1.48,3.67-3.4,3.96c-0.19,0.03-0.39,0.04-0.6,0.04c-2.21,0-4-1.79-4-4s1.79-4,4-4
			S308.25,83.29,308.25,85.5z"/>
	</g>
	<polyline class="st3" points="203.71,169.28 179.5,187.5 182.91,219 	"/>
	<path class="st2" d="M476.17,303.5h-5c-1.1,0-2-0.9-2-2v-3c0-1.1,0.9-2,2-2h5c1.1,0,2,0.9,2,2v3
		C478.17,302.6,477.27,303.5,476.17,303.5z"/>
	<path class="st2" d="M476.17,315h-5c-1.1,0-2-0.9-2-2v-3c0-1.1,0.9-2,2-2h5c1.1,0,2,0.9,2,2v3C478.17,314.1,477.27,315,476.17,315z
		"/>
	<path class="st2" d="M476,327h-5c-1.1,0-2-0.9-2-2v-3c0-1.1,0.9-2,2-2h5c1.1,0,2,0.9,2,2v3C478,326.1,477.1,327,476,327z"/>
	<path class="st2" d="M476,339h-5c-1.1,0-2-0.9-2-2v-3c0-1.1,0.9-2,2-2h5c1.1,0,2,0.9,2,2v3C478,338.1,477.1,339,476,339z"/>
	<g>
		<g>
			<g>
				<path class="st2" d="M115.34,454.44c10.89-0.03,21.77-0.07,32.66-0.1c1.93-0.01,1.93-3.01,0-3c-10.89,0.03-21.77,0.07-32.66,0.1
					C113.41,451.44,113.41,454.44,115.34,454.44L115.34,454.44z"/>
			</g>
		</g>
		<g>
			<g>
				<path class="st2" d="M115.34,462.44c10.89-0.03,21.77-0.07,32.66-0.1c1.93-0.01,1.93-3.01,0-3c-10.89,0.03-21.77,0.07-32.66,0.1
					C113.41,459.44,113.41,462.44,115.34,462.44L115.34,462.44z"/>
			</g>
		</g>
		<g>
			<g>
				<path class="st2" d="M76.34,462.44c10.89-0.03,21.77-0.07,32.66-0.1c1.93-0.01,1.93-3.01,0-3c-10.89,0.03-21.77,0.07-32.66,0.1
					C74.41,459.44,74.41,462.44,76.34,462.44L76.34,462.44z"/>
			</g>
		</g>
		<g>
			<g>
				<path class="st2" d="M36.52,457.82c2.8,6.27,5.61,12.55,8.41,18.82c0.79,1.76,3.37,0.24,2.59-1.51
					c-2.8-6.27-5.61-12.55-8.41-18.82C38.32,454.55,35.74,456.07,36.52,457.82L36.52,457.82z"/>
			</g>
		</g>
		<g>
			<g>
				<path class="st2" d="M53.72,456.3c-2.91,6.35-5.81,12.71-8.72,19.06c-0.8,1.74,1.79,3.27,2.59,1.51
					c2.91-6.35,5.81-12.71,8.72-19.06C57.11,456.07,54.52,454.54,53.72,456.3L53.72,456.3z"/>
			</g>
		</g>
		<g>
			<g>
				<path class="st2" d="M76.34,454.44c10.89-0.03,21.77-0.07,32.66-0.1c1.93-0.01,1.93-3.01,0-3c-10.89,0.03-21.77,0.07-32.66,0.1
					C74.41,451.44,74.41,454.44,76.34,454.44L76.34,454.44z"/>
			</g>
		</g>
		<path class="st7" d="M145,425H78c-1.1,0-2-0.9-2-2v-17c0-1.1,0.9-2,2-2h67c1.1,0,2,0.9,2,2v17C147,424.1,146.1,425,145,425z"/>
		<path class="st6" d="M148,383H66c-1.1,0-2-0.9-2-2v-8c0-1.1,0.9-2,2-2h82c1.1,0,2,0.9,2,2v8C150,382.1,149.1,383,148,383z"/>
		<path class="st6" d="M38,456v-82c0-1.1,0.9-2,2-2h13c1.1,0,2,0.9,2,2v82c0,1.1-0.9,2-2,2H40C38.9,458,38,457.1,38,456z"/>
		<path class="st7" d="M106,445H79c-1.1,0-2-0.9-2-2v-8c0-1.1,0.9-2,2-2h27c1.1,0,2,0.9,2,2v8C108,444.1,107.1,445,106,445z"/>
		<path class="st7" d="M145,445h-27c-1.1,0-2-0.9-2-2v-8c0-1.1,0.9-2,2-2h27c1.1,0,2,0.9,2,2v8C147,444.1,146.1,445,145,445z"/>
		<g>
			<g>
				<path class="st2" d="M67.36,372.06c-0.03,1.34-0.02,2.68,0.03,4.02c0.07,1.93,3.07,1.93,3,0c-0.05-1.34-0.05-2.68-0.03-4.02
					C70.4,370.13,67.4,370.13,67.36,372.06L67.36,372.06z"/>
			</g>
		</g>
		<g>
			<g>
				<path class="st2" d="M74.36,372.06c-0.03,1.34-0.02,2.68,0.03,4.02c0.07,1.93,3.07,1.93,3,0c-0.05-1.34-0.05-2.68-0.03-4.02
					C77.4,370.13,74.4,370.13,74.36,372.06L74.36,372.06z"/>
			</g>
		</g>
		<g>
			<g>
				<path class="st2" d="M81.36,372.06c-0.03,1.34-0.02,2.68,0.03,4.02c0.07,1.93,3.07,1.93,3,0c-0.05-1.34-0.05-2.68-0.03-4.02
					C84.4,370.13,81.4,370.13,81.36,372.06L81.36,372.06z"/>
			</g>
		</g>
		<g>
			<g>
				<path class="st2" d="M88.36,372.06c-0.03,1.34-0.02,2.68,0.03,4.02c0.07,1.93,3.07,1.93,3,0c-0.05-1.34-0.05-2.68-0.03-4.02
					C91.4,370.13,88.4,370.13,88.36,372.06L88.36,372.06z"/>
			</g>
		</g>
		<g>
			<g>
				<path class="st2" d="M95.36,372.06c-0.03,1.34-0.02,2.68,0.03,4.02c0.07,1.93,3.07,1.93,3,0c-0.05-1.34-0.05-2.68-0.03-4.02
					C98.4,370.13,95.4,370.13,95.36,372.06L95.36,372.06z"/>
			</g>
		</g>
		<g>
			<g>
				<path class="st2" d="M102.36,372.06c-0.03,1.34-0.02,2.68,0.03,4.02c0.07,1.93,3.07,1.93,3,0c-0.05-1.34-0.05-2.68-0.03-4.02
					C105.4,370.13,102.4,370.13,102.36,372.06L102.36,372.06z"/>
			</g>
		</g>
		<g>
			<g>
				<path class="st2" d="M109.36,372.06c-0.03,1.34-0.02,2.68,0.03,4.02c0.07,1.93,3.07,1.93,3,0c-0.05-1.34-0.05-2.68-0.03-4.02
					C112.4,370.13,109.4,370.13,109.36,372.06L109.36,372.06z"/>
			</g>
		</g>
		<g>
			<g>
				<path class="st2" d="M116.36,372.06c-0.03,1.34-0.02,2.68,0.03,4.02c0.07,1.93,3.07,1.93,3,0c-0.05-1.34-0.05-2.68-0.03-4.02
					C119.4,370.13,116.4,370.13,116.36,372.06L116.36,372.06z"/>
			</g>
		</g>
		<g>
			<g>
				<path class="st2" d="M123.36,372.06c-0.03,1.34-0.02,2.68,0.03,4.02c0.07,1.93,3.07,1.93,3,0c-0.05-1.34-0.05-2.68-0.03-4.02
					C126.4,370.13,123.4,370.13,123.36,372.06L123.36,372.06z"/>
			</g>
		</g>
		<g>
			<g>
				<path class="st2" d="M130.36,372.06c-0.03,1.34-0.02,2.68,0.03,4.02c0.07,1.93,3.07,1.93,3,0c-0.05-1.34-0.05-2.68-0.03-4.02
					C133.4,370.13,130.4,370.13,130.36,372.06L130.36,372.06z"/>
			</g>
		</g>
		<g>
			<g>
				<path class="st2" d="M137.36,372.06c-0.03,1.34-0.02,2.68,0.03,4.02c0.07,1.93,3.07,1.93,3,0c-0.05-1.34-0.05-2.68-0.03-4.02
					C140.4,370.13,137.4,370.13,137.36,372.06L137.36,372.06z"/>
			</g>
		</g>
		<g>
			<g>
				<path class="st2" d="M143.36,372.06c-0.03,1.34-0.02,2.68,0.03,4.02c0.07,1.93,3.07,1.93,3,0c-0.05-1.34-0.05-2.68-0.03-4.02
					C146.4,370.13,143.4,370.13,143.36,372.06L143.36,372.06z"/>
			</g>
		</g>
		<g>
			<g>
				<path class="st2" d="M38.66,381.12c5.26,0,10.52,0,15.79,0c1.93,0,1.93-3,0-3c-5.26,0-10.52,0-15.79,0
					C36.73,378.12,36.73,381.12,38.66,381.12L38.66,381.12z"/>
			</g>
		</g>
	</g>
	<g>
		<g>
			<path class="st2" d="M490.26,462.98c2.57,0,2.58-4,0-4C487.68,458.98,487.68,462.98,490.26,462.98L490.26,462.98z"/>
		</g>
	</g>
	<g>
		<g>
			<path class="st2" d="M490.26,463.07c2.57,0,2.58-4,0-4C487.68,459.07,487.68,463.07,490.26,463.07L490.26,463.07z"/>
		</g>
	</g>
	<g>
		<g>
			<path class="st2" d="M490.19,463.11c2.57,0,2.58-4,0-4C487.62,459.11,487.61,463.11,490.19,463.11L490.19,463.11z"/>
		</g>
	</g>
	<g>
		<g>
			<path class="st2" d="M490.29,463.01c2.57,0,2.58-4,0-4C487.71,459.01,487.71,463.01,490.29,463.01L490.29,463.01z"/>
		</g>
	</g>
	<g>
		<g>
			<path class="st2" d="M488.28,449.8c2.57,0,2.58-4,0-4C485.7,445.8,485.7,449.8,488.28,449.8L488.28,449.8z"/>
		</g>
	</g>
	<g>
		<g>
			<path class="st2" d="M488.28,449.8c2.57,0,2.58-4,0-4C485.7,445.8,485.7,449.8,488.28,449.8L488.28,449.8z"/>
		</g>
	</g>
	<g>
		<g>
			<path class="st2" d="M488.28,449.8c2.57,0,2.58-4,0-4C485.7,445.8,485.7,449.8,488.28,449.8L488.28,449.8z"/>
		</g>
	</g>
	<g>
		<g>
			<path class="st2" d="M488.28,449.8c2.57,0,2.58-4,0-4C485.7,445.8,485.7,449.8,488.28,449.8L488.28,449.8z"/>
		</g>
	</g>
	<g>
		<g>
			<path class="st2" d="M488.28,449.8c2.57,0,2.58-4,0-4C485.7,445.8,485.7,449.8,488.28,449.8L488.28,449.8z"/>
		</g>
	</g>
	<g>
		<g>
			<path class="st2" d="M488.24,449.8c2.57,0,2.58-4,0-4C485.67,445.8,485.67,449.8,488.24,449.8L488.24,449.8z"/>
		</g>
	</g>
	<g>
		<g>
			<path class="st2" d="M488.24,449.8c2.57,0,2.58-4,0-4C485.67,445.8,485.67,449.8,488.24,449.8L488.24,449.8z"/>
		</g>
	</g>
	<g>
		<g>
			<path class="st2" d="M488.24,449.8c2.57,0,2.58-4,0-4C485.67,445.8,485.67,449.8,488.24,449.8L488.24,449.8z"/>
		</g>
	</g>
	<g>
		<g>
			<path class="st2" d="M488.21,449.77c2.57,0,2.58-4,0-4C485.64,445.77,485.63,449.77,488.21,449.77L488.21,449.77z"/>
		</g>
	</g>
	<g>
		<g>
			<path class="st2" d="M488.21,449.77c2.57,0,2.58-4,0-4C485.64,445.77,485.63,449.77,488.21,449.77L488.21,449.77z"/>
		</g>
	</g>
	<g>
		<g>
			<path class="st2" d="M488.21,449.77c2.57,0,2.58-4,0-4C485.64,445.77,485.63,449.77,488.21,449.77L488.21,449.77z"/>
		</g>
	</g>
	<g>
		<g>
			<path class="st2" d="M488.24,449.77c2.57,0,2.58-4,0-4C485.67,445.77,485.67,449.77,488.24,449.77L488.24,449.77z"/>
		</g>
	</g>
	<g>
		<g>
			<path class="st2" d="M488.24,449.77c2.57,0,2.58-4,0-4C485.67,445.77,485.67,449.77,488.24,449.77L488.24,449.77z"/>
		</g>
	</g>
	<g>
		<g>
			<path class="st2" d="M491.8,440.18c-1.74,2.27-3.53,4.51-5.08,6.92c-1.4,2.17,2.06,4.18,3.45,2.02c1.55-2.41,3.34-4.65,5.08-6.92
				c0.66-0.86,0.13-2.23-0.72-2.74C493.51,438.85,492.45,439.33,491.8,440.18L491.8,440.18z"/>
		</g>
	</g>
	<g>
		<g>
			<path class="st2" d="M481.06,441.28c1.1,1.55,2.17,3.13,3.19,4.74c0.88,1.39,1.58,2.92,3.02,3.8c2.2,1.34,4.22-2.12,2.02-3.45
				c-0.94-0.57-1.64-2.45-2.24-3.38c-0.82-1.26-1.67-2.5-2.54-3.73C483.04,437.18,479.57,439.17,481.06,441.28L481.06,441.28z"/>
		</g>
	</g>
	<g>
		<g>
			<path class="st2" d="M575.88,449.99c2.57,0,2.58-4,0-4C573.31,445.99,573.3,449.99,575.88,449.99L575.88,449.99z"/>
		</g>
	</g>
	<g>
		<g>
			<path class="st2" d="M575.98,449.99c2.57,0,2.58-4,0-4C573.4,445.99,573.4,449.99,575.98,449.99L575.98,449.99z"/>
		</g>
	</g>
	<g>
		<g>
			<path class="st2" d="M575.98,449.99c2.57,0,2.58-4,0-4C573.4,445.99,573.4,449.99,575.98,449.99L575.98,449.99z"/>
		</g>
	</g>
	<g>
		<g>
			<path class="st2" d="M575.98,449.99c2.57,0,2.58-4,0-4C573.4,445.99,573.4,449.99,575.98,449.99L575.98,449.99z"/>
		</g>
	</g>
	<g>
		<g>
			<path class="st2" d="M576.01,450.12c2.57,0,2.58-4,0-4C573.44,446.12,573.43,450.12,576.01,450.12L576.01,450.12z"/>
		</g>
	</g>
	<g>
		<g>
			<path class="st2" d="M576.01,450.12c2.57,0,2.58-4,0-4C573.44,446.12,573.43,450.12,576.01,450.12L576.01,450.12z"/>
		</g>
	</g>
	<g>
		<g>
			<path class="st2" d="M576.01,450.12c2.57,0,2.58-4,0-4C573.44,446.12,573.43,450.12,576.01,450.12L576.01,450.12z"/>
		</g>
	</g>
	<g>
		<g>
			<path class="st2" d="M576.07,450.18c2.57,0,2.58-4,0-4C573.5,446.18,573.5,450.18,576.07,450.18L576.07,450.18z"/>
		</g>
	</g>
	<g>
		<g>
			<path class="st2" d="M576.11,450.21c2.57,0,2.58-4,0-4C573.53,446.21,573.53,450.21,576.11,450.21L576.11,450.21z"/>
		</g>
	</g>
	<g>
		<g>
			<path class="st2" d="M574.05,447.03c-0.82,1.1-1.96,2.02-2.9,3.01c-1,1.04-1.98,2.1-2.95,3.16c-1.72,1.9,1.1,4.74,2.83,2.83
				c2.11-2.34,4.59-4.47,6.48-6.98c0.65-0.87,0.13-2.23-0.72-2.74C575.78,445.7,574.7,446.17,574.05,447.03L574.05,447.03z"/>
		</g>
	</g>
	<g>
		<g>
			<path class="st2" d="M574.3,448.9c1.18,2.81,3.22,5.11,5.05,7.51c0.66,0.87,1.72,1.3,2.74,0.72c0.85-0.48,1.37-1.88,0.72-2.74
				c-1.56-2.05-3.64-4.16-4.65-6.56c-0.42-1-1.32-1.7-2.46-1.4C574.76,446.69,573.88,447.91,574.3,448.9L574.3,448.9z"/>
		</g>
	</g>
	<g>
		<g>
			<path class="st2" d="M572.87,433.53c2.57,0,2.58-4,0-4C570.3,429.53,570.29,433.53,572.87,433.53L572.87,433.53z"/>
		</g>
	</g>
	<g>
		<g>
			<path class="st2" d="M572.83,433.57c2.57,0,2.58-4,0-4C570.26,429.57,570.25,433.57,572.83,433.57L572.83,433.57z"/>
		</g>
	</g>
	<g>
		<g>
			<path class="st2" d="M572.83,433.57c2.57,0,2.58-4,0-4C570.26,429.57,570.25,433.57,572.83,433.57L572.83,433.57z"/>
		</g>
	</g>
	<g>
		<g>
			<path class="st2" d="M510.18,454.7c0.13,0.21,0.16,0.24,0.08,0.1c0.04,0.14,0.08,0.28,0.11,0.43c0.08,0.33,0.16,0.66,0.26,0.99
				c0.21,0.7,0.46,1.39,0.74,2.06c0.41,1,1.33,1.71,2.46,1.4c0.94-0.26,1.81-1.46,1.4-2.46c-0.32-0.77-0.6-1.55-0.82-2.35
				c-0.21-0.75-0.33-1.54-0.78-2.19c-0.61-0.89-1.76-1.29-2.74-0.72C510.01,452.48,509.57,453.8,510.18,454.7L510.18,454.7z"/>
		</g>
	</g>
	<g>
		<g>
			<path class="st2" d="M512.53,456.26c-2.63,1.85-5.58,4.61-7.08,7.54c-1.52,2.97,1.34,6.67,3.51,8.56
				c2.01,1.75,5.17,3.03,7.74,1.7c1.36-0.71,2.48-2.33,3.54-3.4c1.94-1.95,1.71-2.34,4.47-0.97c2.3,1.14,4.33-2.31,2.02-3.45
				c-1.56-0.78-3.61-2.36-5.46-2.05c-1.89,0.32-3.05,2.79-4.27,4.01c-0.55,0.55-1.76,2.21-2.53,2.4c-1.7,0.43-4.17-2.13-4.65-3.47
				c-1.03-2.87,2.54-5.88,4.72-7.41C516.64,458.24,514.64,454.77,512.53,456.26L512.53,456.26z"/>
		</g>
	</g>
	<g>
		<g>
			<path class="st2" d="M523.94,468.2c-0.27,3.13-1.34,8.14,0.84,10.9c1.97,2.5,5.81,2.17,8.64,2.15c2.67-0.03,4.89-0.2,5.88-2.97
				c1.05-2.93,1.05-8.2,0.1-11.11c-0.31,0.75-0.61,1.51-0.92,2.26c1.23-0.72,2.41-1.46,3.59-2.25c-0.81-0.1-1.62-0.21-2.42-0.31
				c2.45,2.67,5.28,6.23,8.83,7.43c3.48,1.17,5-1.08,7.09-3.7c1.59-1.99,3.81-4.26,2.76-6.96c-1.1-2.83-5.16-4.76-7.12-6.96
				c-1.72-1.92-4.54,0.91-2.83,2.83c1.1,1.23,2.23,2.31,3.5,3.36c1.78,1.48,2.37,1.3,2.11,3.22c-0.71,1.06-1.49,2.07-2.34,3.02
				c-1.08,2.13-2.61,1.98-4.59-0.45c-1.7-1.24-3.16-3.08-4.57-4.62c-0.57-0.62-1.72-0.79-2.42-0.31c-1.18,0.79-2.36,1.54-3.59,2.25
				c-0.73,0.43-1.19,1.42-0.92,2.26c0.51,1.56,0.25,3.22,0.19,4.81c-0.1,2.72,0.18,3.77-3.06,4.2c-0.74-0.01-1.48-0.02-2.22-0.02
				c-2.1,0.17-3.02-0.54-2.77-2.14c-0.68-1.86,0.08-4.95,0.25-6.87C528.16,465.63,524.16,465.65,523.94,468.2L523.94,468.2z"/>
		</g>
	</g>
	<g>
		<g>
			<path class="st2" d="M552.16,458.04c0.06-1.32,0.36-2.56,0.81-3.8c0.38-1.01-0.42-2.19-1.4-2.46c-1.12-0.31-2.08,0.38-2.46,1.4
				c-0.58,1.56-0.88,3.2-0.96,4.86c-0.05,1.08,0.96,2,2,2C551.29,460.04,552.11,459.12,552.16,458.04L552.16,458.04z"/>
		</g>
	</g>
	<g>
		<g>
			<path class="st2" d="M551.21,455.67c2.24-0.27,4.48-0.42,6.74-0.42c1.31,0,2.65,0.15,3.87-0.43c2.58-1.25,2.64-4.55,2.63-7.02
				c-0.01-2.38,0.05-6.07-2.46-7.38c-1.51-0.79-3.7-0.39-5.35-0.39c-0.94,0-2.51,0.34-3.34,0.01c-1.04-0.41-1.29-1.07-1.88-2.03
				c-1.35-2.19-4.81-0.18-3.45,2.02c1.01,1.64,1.68,3.5,3.68,3.94c1.21,0.27,2.64,0.07,3.87,0.06c0.7,0,4-0.45,4.45-0.01
				c0.94,0.9,0.9,6.52-0.23,7.27c-0.66,0.44-3.22-0.02-4.06,0.01c-1.5,0.06-3,0.2-4.49,0.38
				C548.69,451.97,548.66,455.97,551.21,455.67L551.21,455.67z"/>
		</g>
	</g>
	<g>
		<g>
			<path class="st2" d="M550.87,439.94c2.17-2.8,5.22-5.86,6.39-9.24c1.12-3.25-0.78-6-3.22-7.97c-2.17-1.75-4.87-3.34-7.63-1.97
				c-1.22,0.6-2.08,1.74-2.9,2.79c-0.72,0.93-2.02,3.75-3.01,4.23c0.67,0,1.35,0,2.02,0c-1.54-0.73-2.84-1.53-4.49-1.97
				c-2.49-0.66-3.55,3.2-1.06,3.86c1.76,0.47,3.44,2.21,5.32,1.67c1.66-0.48,2.31-2.4,3.17-3.69c0.52-0.77,1.48-2.58,2.35-3.01
				c1.4-0.69,3.64,0.74,4.5,1.83c2.74,3.46-2.34,8.15-4.26,10.64C546.48,439.12,549.29,441.98,550.87,439.94L550.87,439.94z"/>
		</g>
	</g>
	<g>
		<g>
			<path class="st2" d="M539.12,427.64c0.23-3.21-0.49-7.06-1.27-10.16c-0.73-2.92-3.5-3.2-6.16-3.28
				c-2.45-0.07-6.51-0.01-7.46,2.79c-0.49,1.43-0.43,3.17-0.57,4.65c-0.2,2.04-0.36,4.09-0.48,6.14c-0.16,2.57,3.84,2.56,4,0
				c0.13-2.05,0.28-4.09,0.48-6.14c0.09-0.93-0.11-2.61,0.79-3.18c0.72-0.45,2.41-0.29,3.24-0.26c0.64,0.02,2.07,0.05,2.3,0.34
				c0.41,0.51,0.37,2.25,0.48,2.92c0.33,2.05,0.8,4.09,0.65,6.18C534.93,430.21,538.93,430.2,539.12,427.64L539.12,427.64z"/>
		</g>
	</g>
	<g>
		<g>
			<path class="st2" d="M524.44,426.53c-0.48,0.17-1.77,0.86-2.33,0.83c-0.45-0.03-0.66-0.42-1.27-1.14
				c-1.22-1.44-3.09-2.78-4.63-3.88c-2.45-1.74-4.95-1.84-7.11,0.38c-1.81,1.86-4.66,5.05-4.27,7.88c0.46,3.35,4.8,5.56,6.64,8.13
				c1.48,2.08,4.95,0.08,3.45-2.02c-1.43-2-3.39-3.39-4.91-5.26c-1.2-1.48-1.09-1.93,0.01-3.42c0.37-0.49,0.75-0.99,1.12-1.48
				c1.65-1.25,3-1.22,4.05,0.07c1.99,1.09,3.32,3.8,5.44,4.62c1.65,0.64,3.3-0.31,4.87-0.87
				C527.91,429.54,526.87,425.67,524.44,426.53L524.44,426.53z"/>
		</g>
	</g>
	<g>
		<g>
			<path class="st2" d="M512.39,436.85c-0.55,0.61-1.07,1.2-1.45,1.93c-0.2,0.45-0.38,0.91-0.54,1.37c0.68-0.08,0.66-0.12-0.08-0.11
				c-2.01,0.47-4.72-0.01-6.83,0.25c-3.68,0.45-4.57,1.66-4.77,5.28c-0.17,3.18-0.57,7.05,2.29,9.25c2.95,2.26,7.93,1.34,11.27,0.78
				c2.53-0.42,1.46-4.28-1.06-3.86c-2.52,0.42-8.34,1.44-8.64-2.44c-0.09-1.21,0.33-2.55,0.13-3.73c0.33-0.66,0.2-1.03-0.39-1.1
				c0.76-0.14,1.53-0.24,2.3-0.3c2.24-0.22,5.09,0.43,7.21-0.18c2.22-0.64,2.01-2.78,3.38-4.31
				C516.94,437.77,514.12,434.93,512.39,436.85L512.39,436.85z"/>
		</g>
	</g>
	<g>
		<g>
			<path class="st2" d="M501.23,445.74c2.57,0,2.58-4,0-4C498.66,441.74,498.66,445.74,501.23,445.74L501.23,445.74z"/>
		</g>
	</g>
	<path class="st6" d="M92,205"/>
	<g>
		<g>
			<path class="st2" d="M92.52,206.96c3.48,1.54,6.41,3.96,9.84,5.55c1.74,0.81,3.27-1.78,1.51-2.59c-3.43-1.59-6.36-4.02-9.84-5.55
				C92.29,203.59,90.76,206.18,92.52,206.96L92.52,206.96z"/>
		</g>
	</g>
	<g>
		<g>
			<path class="st2" d="M91.87,206.87c4.28,2.55,8.55,5.11,12.82,7.68c2.21,1.33,4.22-2.12,2.02-3.45
				c-4.27-2.57-8.54-5.13-12.82-7.68C91.67,202.1,89.65,205.55,91.87,206.87L91.87,206.87z"/>
		</g>
	</g>
	<g>
		<g>
			<path class="st2" d="M106.82,214.54c4.51-2.01,8.74-4.88,12.93-7.47c2.19-1.35,0.18-4.81-2.02-3.45
				c-4.19,2.59-8.43,5.46-12.93,7.47C102.45,212.14,104.49,215.58,106.82,214.54L106.82,214.54z"/>
		</g>
	</g>
	<g>
		<g>
			<path class="st2" d="M103.52,212.73c0.25,4.99,0.35,9.98,0.3,14.98c-0.03,2.57,3.97,2.58,4,0c0.05-5-0.05-9.99-0.3-14.98
				C107.39,210.16,103.39,210.15,103.52,212.73L103.52,212.73z"/>
		</g>
	</g>
	<g>
		<g>
			<path class="st2" d="M90.29,205.4c0.54,5.12,0.26,10.4,0.13,15.54c-0.06,2.57,3.94,2.57,4,0c0.13-5.14,0.41-10.42-0.13-15.54
				C94.02,202.86,90.02,202.83,90.29,205.4L90.29,205.4z"/>
		</g>
	</g>
	<g>
		<g>
			<path class="st2" d="M91.63,222.47c4.27,2.81,8.46,6.02,13.35,7.65c2.45,0.82,3.5-3.05,1.06-3.86c-4.5-1.5-8.47-4.66-12.4-7.24
				C91.49,217.6,89.48,221.06,91.63,222.47L91.63,222.47z"/>
		</g>
	</g>
	<g>
		<g>
			<path class="st2" d="M106.72,230.02c4.57-2.82,9.25-5.45,14.03-7.88c2.29-1.17,0.27-4.62-2.02-3.45
				c-4.79,2.44-9.46,5.06-14.03,7.88C102.51,227.92,104.52,231.38,106.72,230.02L106.72,230.02z"/>
		</g>
	</g>
	<g>
		<g>
			<path class="st2" d="M119.85,222.3c2.57,0,2.58-4,0-4C117.28,218.3,117.27,222.3,119.85,222.3L119.85,222.3z"/>
		</g>
	</g>
	<g>
		<g>
			<path class="st2" d="M117.25,205.31c0.06,5,0.16,9.98,0.71,14.95c0.28,2.53,4.29,2.56,4,0c-0.56-4.97-0.65-9.96-0.71-14.95
				C121.22,202.74,117.22,202.73,117.25,205.31L117.25,205.31z"/>
		</g>
	</g>
	<g>
		<g>
			<path class="st2" d="M93.05,206.74c4.83-1.83,8.94-5.27,13.48-7.67c2.28-1.2,0.26-4.66-2.02-3.45c-4.2,2.22-8.07,5.58-12.52,7.27
				C89.61,203.79,90.64,207.66,93.05,206.74L93.05,206.74z"/>
		</g>
	</g>
	<g>
		<g>
			<path class="st2" d="M105.32,199.43c2.16,0.85,4.07,2.31,6.15,3.33c1.77,0.87,4.78,1.76,5.99,3.4c1.51,2.05,4.99,0.05,3.45-2.02
				c-1.61-2.17-4.27-3.31-6.64-4.45c-2.68-1.29-5.13-3.02-7.9-4.11C103.98,194.63,102.94,198.5,105.32,199.43L105.32,199.43z"/>
		</g>
	</g>
	<polyline class="st4" points="157.5,372.5 157.5,391.4 157.5,445.5 	"/>
	<line class="st4" x1="64" y1="392" x2="157" y2="392"/>
	<line class="st4" x1="64.24" y1="474" x2="64.24" y2="395"/>
	<line class="st4" x1="68" y1="474" x2="165" y2="474"/>
	<line class="st4" x1="177" y1="386" x2="177" y2="461"/>
	<g>
		<g>
			<path class="st2" d="M64.19,394.04c2.57,0,2.58-4,0-4C61.62,390.04,61.61,394.04,64.19,394.04L64.19,394.04z"/>
		</g>
	</g>
	<g>
		<g>
			<path class="st2" d="M64.13,394.87c2.57,0,2.58-4,0-4C61.55,390.87,61.55,394.87,64.13,394.87L64.13,394.87z"/>
		</g>
	</g>
	<g>
		<g>
			<path class="st2" d="M64,394.23c2.57,0,2.58-4,0-4C61.43,390.23,61.42,394.23,64,394.23L64,394.23z"/>
		</g>
	</g>
	<g>
		<g>
			<path class="st2" d="M63.94,396.53c2.57,0,2.58-4,0-4C61.36,392.53,61.36,396.53,63.94,396.53L63.94,396.53z"/>
		</g>
	</g>
	<g>
		<g>
			<path class="st2" d="M63.94,396.53c2.57,0,2.58-4,0-4C61.36,392.53,61.36,396.53,63.94,396.53L63.94,396.53z"/>
		</g>
	</g>
	<g>
		<g>
			<path class="st2" d="M61.94,394.15c0,0.11,0,0.21,0,0.32c0,1.05,0.92,2.05,2,2c1.08-0.05,2-0.88,2-2c0-0.11,0-0.21,0-0.32
				c0-1.05-0.92-2.05-2-2C62.85,392.2,61.94,393.03,61.94,394.15L61.94,394.15z"/>
		</g>
	</g>
	<g>
		<g>
			<path class="st2" d="M62,394.47c0,0.3,0,0.6,0,0.89c0,1.05,0.92,2.05,2,2c1.08-0.05,2-0.88,2-2c0-0.3,0-0.6,0-0.89
				c0-1.05-0.92-2.05-2-2C62.92,392.52,62,393.35,62,394.47L62,394.47z"/>
		</g>
	</g>
	<g>
		<g>
			<path class="st2" d="M63.94,396.21c2.57,0,2.58-4,0-4C61.36,392.21,61.36,396.21,63.94,396.21L63.94,396.21z"/>
		</g>
	</g>
	<g>
		<g>
			<path class="st2" d="M63.81,395.06c2.57,0,2.58-4,0-4C61.23,391.06,61.23,395.06,63.81,395.06L63.81,395.06z"/>
		</g>
	</g>
	<g>
		<g>
			<path class="st2" d="M63.87,394.49c2.57,0,2.58-4,0-4C61.3,390.49,61.29,394.49,63.87,394.49L63.87,394.49z"/>
		</g>
	</g>
	<g>
		<g>
			<path class="st2" d="M63.94,394.36c2.57,0,2.58-4,0-4C61.36,390.36,61.36,394.36,63.94,394.36L63.94,394.36z"/>
		</g>
	</g>
	<g>
		<g>
			<path class="st2" d="M63.94,395.83c2.57,0,2.58-4,0-4C61.36,391.83,61.36,395.83,63.94,395.83L63.94,395.83z"/>
		</g>
	</g>
	<g>
		<g>
			<path class="st2" d="M64.19,476.38c2.57,0,2.58-4,0-4C61.62,472.38,61.61,476.38,64.19,476.38L64.19,476.38z"/>
		</g>
	</g>
	<g>
		<g>
			<path class="st2" d="M68.4,471.99c-1.15,0.04-2.3,0.09-3.45,0.13c-1.08,0.04-2,0.89-2,2c0,1.05,0.92,2.04,2,2
				c1.15-0.04,2.3-0.09,3.45-0.13c1.08-0.04,2-0.89,2-2C70.4,472.94,69.49,471.95,68.4,471.99L68.4,471.99z"/>
		</g>
	</g>
	<g>
		<g>
			<path class="st2" d="M64.77,476.13c2.57,0,2.58-4,0-4C62.19,472.13,62.19,476.13,64.77,476.13L64.77,476.13z"/>
		</g>
	</g>
	<g>
		<g>
			<path class="st2" d="M64.89,476.26c2.57,0,2.58-4,0-4C62.32,472.26,62.32,476.26,64.89,476.26L64.89,476.26z"/>
		</g>
	</g>
	<g>
		<g>
			<path class="st2" d="M64.89,476.26c0.02,0,0.04,0,0.06,0c1.05,0,2.05-0.92,2-2c-0.05-1.08-0.88-2-2-2c-0.02,0-0.04,0-0.06,0
				c-1.05,0-2.05,0.92-2,2C62.94,475.34,63.77,476.26,64.89,476.26L64.89,476.26z"/>
		</g>
	</g>
	<g>
		<g>
			<path class="st2" d="M66.17,476c0.04,0,0.09,0,0.13,0c1.05,0,2.05-0.92,2-2c-0.05-1.08-0.88-2-2-2c-0.04,0-0.09,0-0.13,0
				c-1.05,0-2.05,0.92-2,2C64.22,475.08,65.05,476,66.17,476L66.17,476z"/>
		</g>
	</g>
	<g>
		<g>
			<path class="st2" d="M157.39,448c7.54-0.13,13.71,1.52,16.54,9.19c3.1,8.4-2.66,15.24-11.31,14.67c-2.57-0.17-2.56,3.83,0,4
				c9.38,0.62,18.05-6.79,16.06-16.62c-0.94-4.65-3.43-9.49-7.36-12.27c-4.12-2.91-9.05-3.04-13.93-2.96
				C154.82,444.05,154.81,448.05,157.39,448L157.39,448z"/>
		</g>
	</g>
	<g>
		<g>
			<path class="st2" d="M157.39,374.07c3.8,0.02,7.98-0.42,11.37,1.61c3.86,2.31,6.68,6.8,6.37,11.32c-0.17,2.57,3.83,2.56,4,0
				c0.36-5.36-2.58-10.41-6.75-13.66c-4.46-3.48-9.62-3.25-15-3.27C154.81,370.06,154.81,374.06,157.39,374.07L157.39,374.07z"/>
		</g>
	</g>
	<g>
		<g>
			<path class="st2" d="M175.11,385.34c0,0.17,0,0.34,0,0.51c0,1.05,0.92,2.05,2,2c1.08-0.05,2-0.88,2-2c0-0.17,0-0.34,0-0.51
				c0-1.05-0.92-2.05-2-2C176.02,383.39,175.11,384.22,175.11,385.34L175.11,385.34z"/>
		</g>
	</g>
	<g>
		<g>
			<path class="st2" d="M175.04,385.85c0,0.02,0,0.04,0,0.06c0,1.05,0.92,2.05,2,2c1.08-0.05,2-0.88,2-2c0-0.02,0-0.04,0-0.06
				c0-1.05-0.92-2.05-2-2C175.96,383.9,175.04,384.73,175.04,385.85L175.04,385.85z"/>
		</g>
	</g>
	<g>
		<g>
			<path class="st2" d="M179.04,385.85c0-0.32,0-0.64,0-0.96c0-1.05-0.92-2.05-2-2c-1.08,0.05-2,0.88-2,2c0,0.32,0,0.64,0,0.96
				c0,1.05,0.92,2.05,2,2C178.13,387.8,179.04,386.97,179.04,385.85L179.04,385.85z"/>
		</g>
	</g>
	<g>
		<g>
			<path class="st2" d="M175.05,384.38c-0.03,0.53-0.01,1.06,0.05,1.6c0.12,1.04,0.83,2.05,2,2c0.98-0.04,2.13-0.89,2-2
				c-0.06-0.53-0.08-1.06-0.05-1.6c0.05-1.05-0.96-2.05-2-2C175.92,382.43,175.1,383.26,175.05,384.38L175.05,384.38z"/>
		</g>
	</g>
	<g>
		<g>
			<path class="st2" d="M175.11,384.58c-0.02,0.21-0.05,0.43-0.07,0.64c-0.11,1.04,1,2.04,2,2c1.18-0.05,1.88-0.88,2-2
				c0.02-0.21,0.05-0.43,0.07-0.64c0.12-1.04-1-2.04-2-2C175.93,382.63,175.24,383.46,175.11,384.58L175.11,384.58z"/>
		</g>
	</g>
	<path class="st4" d="M511.51,281.5h5.99c1.1,0,2,0.9,2,2v70c0,1.1-0.9,2-2,2h-53c-1.1,0-2-0.9-2-2v-70c0-1.1,0.9-2,2-2h5.14"/>
	<path class="st4" d="M511,275h15c1.65,0,3,1.35,3,3v83c0,1.65-1.35,3-3,3h-70c-1.65,0-3-1.35-3-3v-83c0-1.65,1.35-3,3-3h14.4"/>
	<g>
		<g>
			<path class="st2" d="M472.16,283.57c0.53-2.21-0.43-4.8,0.51-6.84c1.08-2.36,3.73-2.48,5.99-2.37c2.57,0.13,2.57-3.87,0-4
				c-3.13-0.16-6.35,0.36-8.47,2.89c-0.87,1.04-1.48,2.26-1.72,3.6c-0.35,1.89,0.29,3.79-0.16,5.65
				C467.7,285,471.56,286.07,472.16,283.57L472.16,283.57z"/>
		</g>
	</g>
	<line class="st4" x1="470.34" y1="283.24" x2="511.3" y2="283.24"/>
	<g>
		<g>
			<path class="st2" d="M511.69,285.2c0.53-0.17,1.01-0.45,1.29-0.96c0.3-0.54,0.24-1.13,0.15-1.71c-0.14-0.8-1.12-1.25-1.85-1.05
				c-0.85,0.23-1.18,1.04-1.05,1.85c-0.19-0.38,0.03-0.72,0.66-1.02c-0.77,0.25-1.27,1.04-1.05,1.85
				C510.05,284.91,510.91,285.45,511.69,285.2L511.69,285.2z"/>
		</g>
	</g>
	<g>
		<g>
			<path class="st2" d="M470.81,282.31c0.11,0.11,0.22,0.21,0.33,0.31c-0.05-0.09-0.09-0.17-0.13-0.26c0.07,0.25,0.14,0.5,0.2,0.76
				c-0.01-0.05-0.01-0.11-0.02-0.16c-0.1-0.78-0.62-1.54-1.5-1.5c-0.73,0.03-1.61,0.67-1.5,1.5c0.13,1.01,0.7,2.08,1.81,2.25
				c0.77,0.12,1.65-0.2,1.85-1.05C472.03,283.43,471.64,282.44,470.81,282.31L470.81,282.31z"/>
		</g>
	</g>
	<line class="st4" x1="478.5" y1="272.5" x2="505.5" y2="272.5"/>
	<g>
		<g>
			<path class="st2" d="M504.74,274.39c0.86,0.15,1.99,0.21,2.78,0.58c0.89,0.43,1.35,1.39,1.67,2.28c0.64,1.77,0.29,3.67,0.65,5.49
				c0.49,2.52,4.35,1.46,3.86-1.06c-0.26-1.33-0.04-2.7-0.28-4.04c-0.23-1.25-0.68-2.46-1.32-3.56c-1.48-2.53-3.53-3.06-6.3-3.55
				C503.28,270.08,502.2,273.94,504.74,274.39L504.74,274.39z"/>
		</g>
	</g>
	<g>
		<g>
			<path class="st2" d="M478.88,271.5c-1.8,0-3.59,0-5.39,0c-1.93,0-1.93,3,0,3c1.8,0,3.59,0,5.39,0
				C480.81,274.5,480.81,271.5,478.88,271.5L478.88,271.5z"/>
		</g>
	</g>
	<g>
		<g>
			<path class="st2" d="M477.92,273.33c2.45,0.06,4.9,0.12,7.35,0.18c-0.13-0.98-0.27-1.96-0.4-2.95c-0.24,0.05-0.48,0.1-0.72,0.15
				c-1.89,0.39-1.09,3.28,0.8,2.89c0.24-0.05,0.48-0.1,0.72-0.15c1.7-0.35,1.25-2.91-0.4-2.95c-2.45-0.06-4.9-0.12-7.35-0.18
				C475.99,270.29,475.99,273.29,477.92,273.33L477.92,273.33z"/>
		</g>
	</g>
	<g>
		<g>
			<path class="st2" d="M480.7,271.81c1-4.65,5.86-4.84,9.78-4.87c4.68-0.04,8.87-0.92,10.27,5.2c0.57,2.51,4.43,1.45,3.86-1.06
				c-1.78-7.79-7.15-8.19-14.13-8.14c-6.17,0.05-12.11,0.69-13.64,7.81C476.3,273.25,480.16,274.33,480.7,271.81L480.7,271.81z"/>
		</g>
	</g>
	<g>
		<path class="st4" d="M581.25,279.5c0,7.27-5.35,13.29-12.33,14.34c-0.71,0.11-1.43,0.16-2.17,0.16c-8.01,0-14.5-6.49-14.5-14.5
			s6.49-14.5,14.5-14.5S581.25,271.49,581.25,279.5z"/>
	</g>
	<g>
		<path class="st5" d="M571.75,279c0,2.51-1.85,4.58-4.25,4.94c-0.24,0.04-0.49,0.06-0.75,0.06c-2.76,0-5-2.24-5-5s2.24-5,5-5
			S571.75,276.24,571.75,279z"/>
	</g>
	<g>
		<path class="st4" d="M586.75,327c0,2.51-1.85,4.58-4.25,4.94c-0.24,0.04-0.49,0.06-0.75,0.06c-2.76,0-5-2.24-5-5s2.24-5,5-5
			S586.75,324.24,586.75,327z"/>
	</g>
	<g>
		<path class="st4" d="M586.75,343c0,2.51-1.85,4.58-4.25,4.94c-0.24,0.04-0.49,0.06-0.75,0.06c-2.76,0-5-2.24-5-5s2.24-5,5-5
			S586.75,340.24,586.75,343z"/>
	</g>
	<g>
		<path class="st4" d="M586.75,359c0,2.51-1.85,4.58-4.25,4.94c-0.24,0.04-0.49,0.06-0.75,0.06c-2.76,0-5-2.24-5-5s2.24-5,5-5
			S586.75,356.24,586.75,359z"/>
	</g>
	<path class="st6" d="M502,232v-27.86c0-1.18,0.84-2.14,1.86-2.14h9.29c1.02,0,1.86,0.96,1.86,2.14V232"/>
	<path class="st6" d="M522,232v-36.21c0-1.53,0.84-2.79,1.86-2.79h9.29c1.02,0,1.86,1.25,1.86,2.79V232"/>
	<path class="st6" d="M543,232v-44.57c0-1.89,0.84-3.43,1.86-3.43h9.29c1.02,0,1.86,1.54,1.86,3.43V232"/>
	<path class="st6" d="M371,93"/>
	<g>
		<g>
			<path class="st2" d="M371.52,94.96c3.48,1.54,6.41,3.96,9.84,5.55c1.74,0.81,3.27-1.78,1.51-2.59c-3.43-1.59-6.36-4.02-9.84-5.55
				C371.29,91.59,369.76,94.18,371.52,94.96L371.52,94.96z"/>
		</g>
	</g>
	<g>
		<g>
			<path class="st2" d="M370.87,94.87c4.28,2.55,8.55,5.11,12.82,7.68c2.21,1.33,4.22-2.12,2.02-3.45
				c-4.27-2.57-8.54-5.13-12.82-7.68C370.67,90.1,368.65,93.55,370.87,94.87L370.87,94.87z"/>
		</g>
	</g>
	<g>
		<g>
			<path class="st2" d="M385.82,102.54c4.51-2.01,8.74-4.88,12.93-7.47c2.19-1.35,0.18-4.81-2.02-3.45
				c-4.19,2.59-8.43,5.46-12.93,7.47C381.45,100.14,383.49,103.58,385.82,102.54L385.82,102.54z"/>
		</g>
	</g>
	<g>
		<g>
			<path class="st2" d="M382.52,100.73c0.25,4.99,0.35,9.98,0.3,14.98c-0.03,2.57,3.97,2.58,4,0c0.05-5-0.05-9.99-0.3-14.98
				C386.39,98.16,382.39,98.15,382.52,100.73L382.52,100.73z"/>
		</g>
	</g>
	<g>
		<g>
			<path class="st2" d="M369.29,93.4c0.54,5.12,0.26,10.4,0.13,15.54c-0.06,2.57,3.94,2.57,4,0c0.13-5.14,0.41-10.42-0.13-15.54
				C373.02,90.86,369.02,90.83,369.29,93.4L369.29,93.4z"/>
		</g>
	</g>
	<g>
		<g>
			<path class="st2" d="M370.63,110.47c4.27,2.81,8.46,6.02,13.35,7.65c2.45,0.82,3.5-3.05,1.06-3.86c-4.5-1.5-8.47-4.66-12.4-7.24
				C370.49,105.6,368.48,109.06,370.63,110.47L370.63,110.47z"/>
		</g>
	</g>
	<g>
		<g>
			<path class="st2" d="M385.72,118.02c4.57-2.82,9.25-5.45,14.03-7.88c2.29-1.17,0.27-4.62-2.02-3.45
				c-4.79,2.44-9.46,5.06-14.03,7.88C381.51,115.92,383.52,119.38,385.72,118.02L385.72,118.02z"/>
		</g>
	</g>
	<g>
		<g>
			<path class="st2" d="M398.85,110.3c2.57,0,2.58-4,0-4C396.28,106.3,396.27,110.3,398.85,110.3L398.85,110.3z"/>
		</g>
	</g>
	<g>
		<g>
			<path class="st2" d="M396.25,93.31c0.06,5,0.16,9.98,0.71,14.95c0.28,2.53,4.29,2.56,4,0c-0.56-4.97-0.65-9.96-0.71-14.95
				C400.22,90.74,396.22,90.73,396.25,93.31L396.25,93.31z"/>
		</g>
	</g>
	<g>
		<g>
			<path class="st2" d="M372.05,94.74c4.83-1.83,8.94-5.27,13.48-7.67c2.28-1.2,0.26-4.66-2.02-3.45c-4.2,2.22-8.07,5.58-12.52,7.27
				C368.61,91.79,369.64,95.66,372.05,94.74L372.05,94.74z"/>
		</g>
	</g>
	<g>
		<g>
			<path class="st2" d="M384.32,87.43c2.16,0.85,4.07,2.31,6.15,3.33c1.77,0.87,4.78,1.76,5.99,3.4c1.51,2.05,4.99,0.05,3.45-2.02
				c-1.61-2.17-4.27-3.31-6.64-4.45c-2.68-1.29-5.13-3.02-7.9-4.11C382.98,82.63,381.94,86.5,384.32,87.43L384.32,87.43z"/>
		</g>
	</g>
	<path class="st6" d="M417.81,246H403c-1.65,0-3-1.35-3-3v-38c0-1.65,1.35-3,3-3h51c1.65,0,3,1.35,3,3v38c0,1.65-1.35,3-3,3h-20.36"
		/>
	<path class="st6" d="M458.15,195H445c-1.65,0-3-1.35-3-3v-23c0-1.65,1.35-3,3-3h33c1.65,0,3,1.35,3,3v23c0,1.65-1.35,3-3,3h-9.38"
		/>
	<g>
		<g>
			<path class="st2" d="M456.59,196.7c2.07,1.74,3.81,3.82,5.88,5.56c1.87,1.57,3.15,3.64,5.17,5.05c2.11,1.48,4.11-1.98,2.02-3.45
				c-1.83-1.29-3.08-3.35-4.81-4.8c-1.92-1.62-3.51-3.58-5.43-5.19C457.46,192.23,454.61,195.04,456.59,196.7L456.59,196.7z"/>
		</g>
	</g>
	<g>
		<g>
			<path class="st2" d="M466.77,195c-0.32,3.45-0.38,6.89-0.16,10.35c0.16,2.56,4.16,2.57,4,0c-0.22-3.46-0.16-6.9,0.16-10.35
				C471.01,192.43,467.01,192.45,466.77,195L466.77,195z"/>
		</g>
	</g>
</g>
<g>
	<path class="st9" d="M328.75,250.22c2.33,0.12,5-0.36,7.1-1.43c0.68-0.34,1.66-0.8,2.13-1.4c2.5-3.2-1.54-5.76-4.01-5.45
		c0,0,0,0,0,0.01c-0.08,0.15-0.27,0.18-0.41,0.11c-0.01-0.01-0.02-0.01-0.03-0.02c-0.04,0.01-0.09,0.02-0.13,0.03
		c-0.15,0.06-0.26-0.01-0.32-0.12c-1.87,0.11-3.7,0.38-5.44,1.16c-0.91,0.41-2.2,1-2.78,1.85
		C321.81,249.44,326.78,250.12,328.75,250.22z"/>
	<path class="st9" d="M376,147.85c0.47-0.67,0.97-1.33,1.49-1.96c1.87-2.58,3.56-5.27,4.99-8.13c0.9-1.8,2.18-3.96,2.6-5.94
		c1.15-5.43-2.91-9.01-7.45-6.68c-6.68,3.44-10.74,14.26-13.34,20.83c-5.38,13.57-7.96,28.01-11.94,42.01
		c-2.22,7.8-4.87,15.48-7.96,22.98c-2.55,6.19-5,14.17-9.41,19.29c-3.08,3.58-7.04,3.4-11.35,2.6c-3.68-0.69-8.93-2.08-11.92,1.12
		c-2.59,2.76-1.3,11.04-1.02,15.21c0.04,0.05,0.09,0.1,0.13,0.15c0.12,0.16,0.04,0.31-0.1,0.39c0,0.06,0.01,0.13,0.01,0.19
		c0.01,0.39-0.59,0.38-0.6,0c-0.01-0.16-0.02-0.35-0.03-0.52c-3.04-3.86-9.42-6.06-9.18-11.75c0.23-5.51,5.99-11.7,10.12-14.83
		c7-5.3,15.04-9.45,21.34-15.67c6.9-6.82,7.14-19.24,0.2-26.32c-1.17-1.27-2.59-2.16-4.24-2.67c-2.14,1.68-2.28,3.04-0.41,4.08
		c0.73,1.11,2.34,1.88,3.27,2.82c1.37,1.38,2.47,2.82,2.62,4.84c0.46,5.87-6.99,11.05-10.8,14.31c-5.98,5.12-12.82,9.07-18.97,13.97
		c-3.26,2.6-6.34,5.48-8.8,8.87c-2.26,3.11-6.98,10.39-4.47,14.35c0.04,0.06,0.04,0.11,0.04,0.17c0.01,0.01,0.03,0.01,0.04,0.02
		c0.35,0.15,0.2,0.73-0.16,0.58c-1.99-0.83-4.04-1.63-5.8-2.9c-1.65-1.19-2.76-2.89-4.37-4.11c-2.71-2.99-4.48-0.71-5.31,6.84
		c0.64,0.54,1.29,1.07,1.93,1.61c1.24,0.81,2.73,1.45,4.13,1.89c2.93,0.9,6.02,1.12,9.06,1.11c3.6-0.01,6.8-0.17,9.74,2.24
		c1.32,1.08,2.36,2.48,3.2,3.95c0.12,0.21,0.66,1.82,1,2.95c0.1,0.02,0.18,0.1,0.21,0.19c0.11,0.12,0.1,0.33-0.04,0.44
		c0,0.01,0.01,0.02,0.01,0.03c0.08-0.12,0.22-0.19,0.37-0.08c0.09,0.07,0.18,0.13,0.27,0.2c0.15,0.11,0.18,0.25,0.11,0.41
		c-0.04,0.1-0.09,0.2-0.13,0.31c-0.11,0.26-0.47,0.14-0.55-0.07c-0.09-0.25-0.19-0.49-0.29-0.74c-0.04,0-0.06-0.02-0.09-0.04
		c-0.04,0.02-0.07,0.06-0.13,0.06c-0.03,0-0.04-0.02-0.07-0.03c-4.16,1.04-8.36,1.94-12.59,0.68c-3.76-1.12-7.36-3.34-10.69-5.34
		c-8.75-5.25-15.46-13.86-26.65-12.54c-11.92,1.41-18.35,13.59-21.05,24.1c-2.72,10.53-2.16,21.48-1.12,32.2
		c3.55,0.11,5.3-0.97,5.24-3.25c0.03-0.53,0.06-1.06,0.09-1.59c0.07-1.25,0.15-2.49,0.24-3.73c0.17-2.18,0.38-4.35,0.64-6.52
		c0.52-4.36,1.23-8.7,2.11-13c1.15-5.57,2.16-13.28,7.55-16.52c9.49-5.71,22.33,6.15,26.22,13.97c3.06,6.15,3.09,13.44,3.06,20.16
		c-0.03,6.09-1.14,11.33-4.91,16.23c-3.57,4.64-8.14,9.21-13.61,11.55c-6.06,2.58-8.22-3.74-13.56-5.97
		c-7.27-3.03-21.84-5.67-27.86,0.66c-6.26,6.59-5.19,16.94-5.21,25.42c0.03,0.05,0.06,0.1,0.05,0.17
		c-0.23,5.05-0.7,10.32-0.33,15.37c-0.38,3.12,1.24,3.75,4.85,1.88c0.29-1.6,0.42-3.2,0.39-4.82c0.02-2.3-0.25-4.6-0.34-6.9
		c-0.29-7.34,1.17-14.78,5.41-20.92c3.47-5.04,8.03-4.78,13.37-2.65c6.78,2.71,9.79,8.63,12.05,15.24
		c4.52,13.23,2.79,29.38-9.02,38.31c-1.64,1.24-4.17,3.28-6.37,3.23c-0.73-0.02-2.31-0.94-2.83-1.16c-4.41-1.87-8.5-3.49-12.7,0.16
		c-7.91,6.86-8.51,19.97-4.65,28.93c0.07,0.15,0,0.3-0.1,0.38c1.05,2.37,2.13,4.74,3.28,7.06c0.38,0.76,0.76,1.52,1.15,2.28
		c1.28,3.09,3.4,1.53,6.37-4.69c-0.17-0.86-1.21-2.21-1.67-3.06c-2.15-3.92-4.41-7.96-5.07-12.45c-0.83-5.62,3.41-11.29,9.81-9.38
		c2.86,0.85,4.61,3.88,6.22,6.17c2.78,3.97,5.34,8.14,7.52,12.48c2.62,5.23,4.14,11.49-0.95,15.72c-3.66,3.04-8.2,5.1-12,8.03
		c-4.25,3.28-11.72,8.41-12.01,14.3c-0.25,4.91,3.47,13.62,7,17.12c2.01,2,7.22,2.96,7.55-0.66c0.14-1.52-1.27-3.25-1.94-4.69
		c-1.1-2.38-2.72-4.63-3.71-7.05c-2.42-5.94,4.7-10.72,8.8-13.93c7.34-5.72,20.18-11.27,23.24-20.69c2.1-6.45-2.81-14.02-5.28-19.78
		c-1.14-2.65-2.94-4.53-1.4-7c1.85-2.97,5.9-5.43,8.37-7.94c3.64-3.71,6.6-7.71,8.11-12.72c0-0.01,0-0.01,0-0.02
		c3.39-10.33,4.35-20.99,2.84-31.76c-0.02-0.14,0.01-0.25,0.14-0.34c11.7-7.98,22.35-17.74,27.88-31.05
		c1.96-5.22,2.63-10.37,2.57-15.93c-0.04-3.52-0.21-7.05,1.09-10.39c0.81-2.1,4.11-7.63,6.82-5.16c0.07,0.07,0.11,0.2,0.08,0.29
		c-0.1,0.28-0.6,0.84-0.67,1.04c-1.34,1.28-2.27,2.81-2.79,4.59c-0.29,0.91-0.53,1.84-0.71,2.78c-1.08,5.04-0.95,9.71-0.37,14.77
		c0.99,8.68-1.01,14.52-6.13,21.55c-2.47,3.39-5.05,6.7-7.65,9.98c-1.1,1.36-2.2,2.74-3.28,4.12c2.13,2.66,3.79,2.88,4.99,0.66
		c1.97-1.35,4.09-5,5.45-6.8c5.67-7.42,10.99-15.16,15.71-23.22c2.47-4.22,4.77-8.63,5.92-13.41c1.29-5.37-0.3-8.9-1-14.01
		c-0.57-4.17,1.9-8.22,6.59-6.8c4.96,1.5,6.05,7.33,5.49,11.74c-1.09,8.64-4.86,17.51-7.96,25.59c0,0.05,0,0.11-0.04,0.17
		c-0.42,0.67-0.52,1.44-0.81,2.16c-0.13,0.31-0.29,0.61-0.46,0.9c0.01,0.06,0.01,0.12-0.02,0.18
		c-7.45,17.52-18.16,33.14-28.48,49.04c-4.85,7.47-9.67,14.54-15.79,21.04c-3.1,3.29-6.35,6.44-9.57,9.61
		c-2.35,2.32-4.4,3.68-3.84,7.96c0.27,2.07,1.61,4.27,2.05,6.38c3.26,15.78-6.57,30.28-14.34,43.07
		c-9.65,15.87-21.71,30.63-23.52,49.78c0.08,0.04,0.14,0.12,0.13,0.25c-0.6,6.41-0.69,12.82-0.43,19.25
		c0.13,3.22,0.33,6.43,0.56,9.64c0.15,2.08-0.66,3.81,1.89,3.99c2.4,0.18,2.15-1.27,2.99-3.42c0.11-0.29,0.46-0.28,0.58,0
		c1.68,4.06,3.33,8.13,5.04,12.17c2.63,6.18,6.08,10.17,13.16,10.72c8.68,0.68,17.15-2.91,24.09-7.88
		c2.47-1.77,7.32-6.98,10.97-4.72c1.6,0.99,1.77,2.87,1.75,4.56c-0.02,1.38-0.47,2.77-0.45,4.13c0.1,6,7.06,0.23,8.59-1.94
		c0.11-0.15,0.28-0.16,0.41-0.09c4.57-6.8,9.19-13.61,14.69-19.7c5.98-6.62,13.05-11.54,20.46-16.43c4.32-2.85,8.68-5.64,13.07-8.37
		c2.2-1.36,4.41-2.71,6.62-4.05c0.98-0.58,1.96-1.17,2.93-1.78c0.43-6.22-0.88-8.21-3.91-5.98c-4.32,1.03-9.2,4.83-13.09,6.98
		c-3.92,2.17-7.85,4.36-11.67,6.72c-8.25,5.1-13.78,11.84-18.74,20.06c-2.17,3.59-4.17,7.31-6.53,10.79
		c-0.93,1.36-2.19,3.78-4.11,3.88c-2.3,0.12-2.91-2.2-3.76-3.89c-2.36-4.73-4.69-9.46-8.05-13.58c-7.51-9.21-17.26-11.56-28.69-9.1
		c-0.38,0.08-0.54-0.5-0.16-0.58c0.21-0.04,0.41-0.08,0.62-0.13c1.79-10.02,7.05-18.56,13.3-26.44
		c7.49-9.46,15.66-18.42,23.54-27.56c4.42-5.13,9.15-10.13,13.16-15.59c1.71-2.33,3.19-4.76,4.42-7.37
		c0.83-1.78,1.48-3.96,3.03-5.29c1.27-1.09,3.36-1.78,4.93-0.89c2.85,1.63,1.15,5.69,1.07,8.26l0,0c0.3-0.24,0.73,0.19,0.42,0.42
		c1.94,2.84,3.79,3.46,5.56,1.86c0.53-0.36,1.05-0.72,1.58-1.08c1.32-0.9,2.63-1.81,3.95-2.71c2.63-1.81,5.27-3.61,7.9-5.42
		c4.93-3.38,9.83-6.81,14.79-10.14c6.85-4.6,15.1-8.76,23-4.13c0.15,0.09,0.21,0.35,0.06,0.47c-13.63,11.08-25.74,23.92-35.83,38.32
		c-4.33,6.18-8.58,12.65-11.72,19.52c-1.71,3.74-3.09,7.62-3.85,11.67c0.22-1.2-0.83,4.09-0.56,4.56c2.2,1.24,4.4,2.48,6.6,3.73
		c0.31-0.41,0.61-0.82,0.92-1.22c1.45-1.41,2.33-3.75,3.09-5.57c2.77-6.65,3.92-13.81,6.99-20.36c2.82-6.02,6.58-11.57,10.75-16.74
		c5.18-6.41,11.04-12.23,16.87-18.04c2.77-2.75,5.69-5.43,8.25-8.39c1.98-2.29,3.58-4.84,4.45-7.76c1.14-3.82,1.11-4.9-1.37-8.01
		c-2.13-2.67-2.49-3.11-5.6-3.26c-1.34-0.06-2.8,0.06-4.12,0.29c-1.96,0.33-3.88,0.93-5.74,1.61c-4.19,1.55-8.26,3.51-12.23,5.57
		c-6.98,3.61-16.6,7.96-21.15,14.55c-0.17,0.24-0.5,0.12-0.56-0.09c-0.07-0.04-0.14-0.07-0.22-0.11c-0.15-0.07-0.17-0.26-0.11-0.4
		c-2.2-1.27-2.85-7.27-2.85-9.03c-0.02-4.33,1.57-8.42,3.14-12.39c2.07-5.24,4.07-10.49,5.82-15.85c1.38-4.24,2.33-8.66,4.5-12.57
		c7.43-22.6,19.08-43.81,23.16-67.44c0,0,0,0,0,0c0.11-1.34,0.29-2.67,0.52-3.99c0-0.03,0.02-0.04,0.03-0.06
		c3.5-19.98,2.96-41.5-9.01-58.7c-0.11-0.15-0.04-0.3,0.08-0.38c-0.13-0.02-0.24-0.11-0.22-0.28c2.34-19.45,7.45-38.63,15.71-56.43
		c4.14-8.93,10.03-15.83,16.57-23.07c0.92-1.02,1.84-2.04,2.7-3.12c2.33-2.95,2.02-2.04-0.91-6.13c-3-4.19-2.8-4.18-6.41-1.67
		c-1.02,0.71-1.94,1.49-2.83,2.34c-3.82,3.64-6.5,8.07-8.27,13.01c-0.13,0.36-0.71,0.2-0.58-0.16c0.9-2.52,2.41-5.75,4.39-8.77
		c0-0.07,0.01-0.14,0.07-0.2C375.59,148.41,375.79,148.13,376,147.85z M343.27,247.28c-0.55,5.14-6.08,6.92-10.53,7.03
		c-4.25,0.11-11.27-1.45-11.6-6.76c-0.31-5.08,5.4-7.29,9.63-7.97c0.03-0.03,0.07-0.05,0.11-0.06c0.86-0.28,1.74-0.46,2.65-0.55
		c0.02,0,0.04,0,0.06,0.01C338.66,237.49,343.84,241.89,343.27,247.28z"/>
	<path d="M388.33,139.57c-2.91-0.06-5.6,1.29-7.98,3.35c-1.88,2.79-3.68,5.09-4.56,6.18c-0.19,0.24-0.49,0.02-0.49-0.22
		c-1.98,3.02-3.49,6.25-4.39,8.77c-0.13,0.36,0.45,0.52,0.58,0.16c1.76-4.94,4.45-9.37,8.27-13.01c0.89-0.85,1.81-1.63,2.83-2.34
		c3.61-2.5,3.41-2.51,6.41,1.67c2.93,4.09,3.24,3.18,0.91,6.13c-0.85,1.08-1.78,2.1-2.7,3.12c-6.54,7.24-12.43,14.14-16.57,23.07
		c-8.25,17.8-13.37,36.97-15.71,56.43c-0.02,0.17,0.09,0.26,0.22,0.28c0.07-0.05,0.16-0.07,0.24-0.05c0.07-0.05,0.13-0.12,0.14-0.22
		c1.7-14.18,4.89-28.13,9.71-41.57c2.47-6.9,5.19-13.86,8.8-20.26c3.63-6.44,8.67-11.78,13.59-17.23c2.37-2.63,5.8-5.8,5.47-9.69
		C392.88,141.43,391.04,139.62,388.33,139.57z"/>
	<path d="M310.73,249.91c0-0.06-0.01-0.13-0.01-0.19c-0.13,0.07-0.31,0.07-0.42-0.08c-0.06-0.08-0.14-0.16-0.2-0.25
		c0.01,0.17,0.03,0.36,0.03,0.52C310.14,250.29,310.74,250.29,310.73,249.91z"/>
	<path d="M311.71,233.97c3-3.2,8.24-1.8,11.92-1.12c4.3,0.8,8.27,0.98,11.35-2.6c4.41-5.13,6.86-13.1,9.41-19.29
		c3.09-7.5,5.74-15.18,7.96-22.98c3.98-14,6.56-28.44,11.94-42.01c2.6-6.56,6.66-17.39,13.34-20.83c4.54-2.34,8.6,1.25,7.45,6.68
		c-0.42,1.98-1.7,4.14-2.6,5.94c-1.43,2.86-3.12,5.55-4.99,8.13c-0.52,0.63-1.01,1.29-1.49,1.96c-0.21,0.27-0.42,0.56-0.63,0.83
		c-0.05,0.06-0.07,0.13-0.07,0.2c0,0.25,0.3,0.46,0.49,0.22c0.87-1.09,2.67-3.39,4.56-6.18c4.49-6.66,9.47-16.17,3.51-18.95
		c-9.62-4.5-17.07,14.38-19.5,20.23c-5.41,12.98-8.05,26.87-11.7,40.39c-2.16,8.01-4.75,15.9-7.81,23.61
		c-1.6,4.04-3.32,8.03-5.16,11.96c-2.09,4.46-4.2,10.87-9.4,12.16c-5.71,1.41-12.68-3.26-18.08,0.48
		c-4.26,2.95-2.69,10.61-2.2,15.58c0.23,0.26,0.46,0.53,0.67,0.81C310.41,245.01,309.12,236.73,311.71,233.97z"/>
	<path d="M290.79,241.38c-2.51-3.97,2.2-11.24,4.47-14.35c2.46-3.39,5.54-6.27,8.8-8.87c6.15-4.9,12.99-8.85,18.97-13.97
		c3.81-3.26,11.26-8.45,10.8-14.31c-0.16-2.01-1.25-3.46-2.62-4.84c-0.93-0.94-2.54-1.71-3.27-2.82c-1.87-1.04-1.74-2.4,0.41-4.08
		c1.65,0.51,3.06,1.4,4.24,2.67c6.94,7.08,6.7,19.5-0.2,26.32c-6.29,6.22-14.34,10.37-21.34,15.67c-4.13,3.13-9.89,9.32-10.12,14.83
		c-0.24,5.7,6.14,7.89,9.18,11.75c0.07,0.08,0.14,0.16,0.2,0.25c0.11,0.15,0.29,0.15,0.42,0.08c0.14-0.07,0.21-0.23,0.1-0.39
		c-0.04-0.05-0.09-0.1-0.13-0.15c-0.22-0.28-0.44-0.55-0.67-0.81c-1.19-1.34-2.55-2.43-3.99-3.58c-1.03-0.83-2.18-1.62-2.94-2.74
		c-2.36-3.48-0.98-7.24,1.04-10.47c4.69-7.53,12.24-11.44,19.2-16.54c4.64-3.4,10.44-6.94,13.16-12.22
		c2.39-4.63,2.21-10.25,0.66-15.11c-1.23-3.85-3.59-7.98-7.43-9.71c-1.27-0.57-5.31-1.56-5.27,1.12c0.03,1.77,3.7,4.06,4.82,5.03
		c2.53,2.18,3.19,2.87,3.04,6.56c-0.17,4.13-1.72,5.62-4.54,8.32c-5.5,5.28-11.5,9.68-17.75,14.03
		c-5.62,3.92-11.21,8.07-15.28,13.66c-2.37,3.26-6.75,10.26-4.7,14.49c0.26,0.11,0.53,0.22,0.8,0.34
		C290.84,241.5,290.83,241.44,290.79,241.38z"/>
	<path d="M304.31,255.73c-0.34-1.13-0.88-2.74-1-2.95c-0.84-1.47-1.88-2.87-3.2-3.95c-2.94-2.41-6.14-2.25-9.74-2.24
		c-3.04,0.01-6.14-0.21-9.06-1.11c-1.41-0.43-2.89-1.08-4.13-1.89c-0.64-0.54-1.29-1.07-1.93-1.61c0.83-7.55,2.6-9.83,5.31-6.84
		c1.61,1.22,2.72,2.92,4.37,4.11c1.76,1.27,3.81,2.07,5.8,2.9c0.36,0.15,0.51-0.43,0.16-0.58c-0.01-0.01-0.03-0.01-0.04-0.02
		c-0.27-0.11-0.53-0.22-0.8-0.34c-2.4-1.02-4.56-2.09-6.5-3.96c-0.89-0.85-1.6-1.91-2.57-2.68c-1.16-0.92-2.57-1.87-4.15-1.68
		c-3.44,0.4-4.64,4.47-3.48,7.29c1.72,4.18,7.04,5.95,11.08,6.62c2.84,0.47,5.62,0.26,8.47,0.34c5.94,0.16,9.06,3.67,11.15,8.64
		c0.05-0.01,0.1-0.03,0.16-0.04C304.23,255.72,304.27,255.72,304.31,255.73z"/>
	<path d="M304.29,256.41c0.1,0.24,0.19,0.49,0.29,0.74c0.08,0.21,0.44,0.33,0.55,0.07c0.04-0.1,0.09-0.2,0.13-0.31
		c0.07-0.16,0.04-0.3-0.11-0.41c-0.09-0.07-0.18-0.13-0.27-0.2c-0.15-0.11-0.3-0.04-0.37,0.08c0-0.01-0.01-0.02-0.01-0.03
		c-0.05,0.04-0.09,0.07-0.17,0.07C304.3,256.43,304.3,256.42,304.29,256.41z"/>
	<path d="M231.35,296.21c0.01,0.11,0.07,0.19,0.15,0.23c-0.06-0.13-0.11-0.26-0.16-0.39C231.34,296.1,231.34,296.16,231.35,296.21z"
		/>
	<path d="M231.79,295.5c0.03,0,0.06,0,0.09,0c-1.03-10.72-1.59-21.67,1.12-32.2c2.71-10.51,9.13-22.7,21.05-24.1
		c11.19-1.32,17.9,7.29,26.65,12.54c3.33,2,6.94,4.22,10.69,5.34c4.23,1.26,8.43,0.36,12.59-0.68c-0.3-0.08-0.29-0.57,0.07-0.57
		c0.06,0,0.09,0.03,0.13,0.06c0.04-0.02,0.07-0.06,0.13-0.06c0.09,0,0.16,0.04,0.21,0.09c-0.04-0.09-0.11-0.17-0.21-0.19
		c-0.04-0.01-0.08-0.01-0.13,0.01c-0.05,0.01-0.1,0.03-0.16,0.04c-4.12,1.03-8.27,1.97-12.46,0.73c-2.87-0.85-5.62-2.49-8.22-3.94
		c-5.02-2.81-9.23-6.43-13.86-9.78c-6.29-4.56-14.69-5.85-21.82-2.39c-7.89,3.83-12.45,13.08-14.79,21.11
		c-3.22,11.02-2.69,22.6-1.61,33.91C231.41,295.23,231.73,295.23,231.79,295.5z"/>
	<path d="M304.19,256.37c0.03,0.02,0.06,0.04,0.09,0.04c0.01,0,0.02,0.01,0.03,0.01c0.08,0,0.12-0.04,0.17-0.07
		c0.13-0.11,0.15-0.31,0.04-0.44c-0.05-0.05-0.11-0.09-0.21-0.09c-0.06,0-0.09,0.03-0.13,0.06
		C304.38,255.99,304.38,256.27,304.19,256.37z"/>
	<path d="M304.19,256.37c0.19-0.11,0.19-0.38,0-0.49c-0.04-0.02-0.07-0.06-0.13-0.06c-0.36,0-0.37,0.49-0.07,0.57
		c0.03,0.01,0.04,0.03,0.07,0.03C304.12,256.43,304.15,256.39,304.19,256.37z"/>
	<path d="M211.89,332.9c0.01-8.48-1.05-18.84,5.21-25.42c6.02-6.34,20.59-3.7,27.86-0.66c5.34,2.23,7.5,8.55,13.56,5.97
		c5.47-2.33,10.04-6.91,13.61-11.55c3.77-4.9,4.88-10.14,4.91-16.23c0.03-6.72,0.01-14.01-3.06-20.16
		c-3.9-7.82-16.73-19.67-26.22-13.97c-5.4,3.25-6.4,10.96-7.55,16.52c-0.89,4.3-1.59,8.64-2.11,13c-0.26,2.17-0.47,4.34-0.64,6.52
		c-0.1,1.24-0.17,2.49-0.24,3.73c-0.03,0.53-0.06,1.06-0.09,1.59c0.06,2.28-1.69,3.36-5.24,3.25c-0.03,0-0.06,0-0.09,0
		c-0.07-0.27-0.38-0.26-0.52-0.1c-0.05,0.06-0.08,0.15-0.06,0.25c0.03,0.14,0.08,0.27,0.12,0.4c0.05,0.14,0.1,0.27,0.16,0.39
		c0.94,1.98,3.27,2.22,4.9,0.33c1.08-1.24,1.19-2.99,1.32-4.53c0.38-4.57,0.6-9.1,1.2-13.65c0.99-7.53,1.65-18.05,6.26-24.35
		c6.63-9.06,19.1-0.98,24.53,5.39c6.04,7.07,6.64,15.66,6.7,24.57c0.07,9.57-3.47,16.67-10.61,23.01
		c-3.76,3.34-8.47,7.16-13.47,3.97c-2.51-1.6-4.19-3.72-7.1-4.93c-5.39-2.25-11.9-2.85-17.7-2.97c-16.87-0.35-16.15,18-16.25,30.22
		c0,0.03,0.02,0.04,0.03,0.07c0.01-0.16,0.02-0.33,0.02-0.49C211.36,332.76,211.75,332.71,211.89,332.9z"/>
	<path d="M211.37,399.45c0.1,0.22,0.2,0.43,0.29,0.65c0.1-0.08,0.17-0.23,0.1-0.38c-3.86-8.95-3.26-22.07,4.65-28.93
		c4.2-3.64,8.3-2.03,12.7-0.16c0.53,0.22,2.11,1.15,2.83,1.16c2.2,0.05,4.73-1.99,6.37-3.23c11.81-8.93,13.54-25.08,9.02-38.31
		c-2.26-6.62-5.27-12.54-12.05-15.24c-5.34-2.13-9.9-2.39-13.37,2.65c-4.24,6.15-5.7,13.58-5.41,20.92c0.09,2.3,0.37,4.6,0.34,6.9
		c0.03,1.62-0.1,3.23-0.39,4.82c-3.61,1.87-5.23,1.24-4.85-1.88c-0.37-5.05,0.1-10.32,0.33-15.37c0-0.07-0.02-0.13-0.05-0.17
		c-0.14-0.19-0.53-0.14-0.55,0.17c-0.01,0.16-0.02,0.32-0.02,0.49c-0.24,4.9-0.69,10-0.31,14.88c0.11,1.46,0.15,3.59,1.58,4.5
		c4.35,2.77,4.85-5.27,4.86-7.44c0.03-9.95-1.4-21.06,6.17-29.09c5.57-5.91,16.11,0.42,19.44,5.79c2.51,4.03,4.14,8.78,5.14,13.4
		c2.15,9.96,0.58,20.74-6.19,28.65c-1.5,1.75-3.22,3.32-5.14,4.61c-3.01,2.03-5.63,1.52-9.04,0.52c-2.6-0.77-4.75-1.92-7.52-1.35
		c-5.5,1.13-8.8,7.69-10.3,12.55c-1.92,6.25-1.47,12.77,0.95,18.77C211.1,399.26,211.28,399.26,211.37,399.45z"/>
	<path d="M265.04,359.25c-1.51,5.01-4.46,9-8.11,12.72c-2.47,2.51-6.52,4.97-8.37,7.94c-1.54,2.47,0.26,4.36,1.4,7
		c2.48,5.76,7.38,13.32,5.28,19.78c-3.07,9.42-15.9,14.97-23.24,20.69c-4.11,3.2-11.22,7.99-8.8,13.93c0.99,2.42,2.6,4.67,3.71,7.05
		c0.66,1.43,2.08,3.17,1.94,4.69c-0.33,3.62-5.54,2.66-7.55,0.66c-3.53-3.5-7.24-12.22-7-17.12c0.3-5.9,7.76-11.03,12.01-14.3
		c3.8-2.92,8.34-4.99,12-8.03c5.09-4.23,3.57-10.49,0.95-15.72c-2.17-4.34-4.73-8.5-7.52-12.48c-1.61-2.3-3.36-5.32-6.22-6.17
		c-6.4-1.91-10.65,3.75-9.81,9.38c0.66,4.49,2.92,8.53,5.07,12.45c0.46,0.84,1.5,2.2,1.67,3.06c-2.96,6.22-5.09,7.78-6.37,4.69
		c-0.39-0.76-0.77-1.51-1.15-2.28c-1.15-2.33-2.23-4.69-3.28-7.06c-0.1-0.22-0.2-0.43-0.29-0.65c-0.08-0.19-0.26-0.19-0.4-0.1
		c-0.12,0.08-0.2,0.23-0.12,0.4c1.43,3.26,5.62,17.81,11.52,13.3c5.94-4.55-3.5-15.46-5.03-19.91c-1.36-3.95-2.88-9.99,3.03-12.02
		c4.89-1.68,8.31,1.61,10.87,5.23c3.38,4.8,7.07,10.21,9.01,15.79c1.66,4.79,1.08,9.27-3.35,12.39c-1.69,1.19-3.56,2.13-5.29,3.25
		c-4.36,2.83-8.47,6.06-12.25,9.64c-2.23,2.11-4.93,4.33-5.52,7.51c-0.82,4.41,1.66,9.44,3.54,13.28
		c1.33,2.73,6.83,13.39,11.59,9.02c1.89-1.74,0.34-4.81-0.4-6.64c-0.91-2.24-2.26-4.33-3.15-6.57c-2.17-5.48-0.51-9.63,3.38-13.19
		c7.33-6.7,16.82-10.94,23.48-18.39c7.47-8.34,2.01-17.03-1.79-25.85c-2.15-4.99-0.4-7.32,3-10.5c1.86-1.74,3.72-3.48,5.44-5.37
		c3.07-3.39,5.46-7.11,6.75-11.52c0-0.01,0-0.02,0-0.04c-0.02,0.07-0.04,0.14-0.07,0.21C265.5,359.75,264.94,359.6,265.04,359.25z"
		/>
	<path d="M295.88,296.15c0.01-0.02,0.02-0.05,0.02-0.07c-5.54,13.31-16.19,23.07-27.88,31.05c-0.12,0.08-0.16,0.2-0.14,0.34
		c1.52,10.77,0.55,21.43-2.84,31.76c0,0.01,0,0.01,0,0.02c-0.09,0.35,0.46,0.5,0.58,0.14c0.02-0.07,0.04-0.14,0.07-0.21
		c2.03-6.25,3.29-12.67,3.52-19.25c0.12-3.37-1-7.52-0.49-10.76c0.49-3.09,3.8-4.43,6.07-6.18c9.22-7.15,17.11-15.8,21.65-26.65
		C296.27,296.65,295.74,296.49,295.88,296.15z"/>
	<path d="M296.48,296.23C296.48,296.23,296.48,296.23,296.48,296.23C296.48,296.23,296.48,296.23,296.48,296.23
		C296.48,296.23,296.48,296.23,296.48,296.23z"/>
	<path d="M320.06,297.47c3.1-8.08,6.87-16.95,7.96-25.59c0.56-4.41-0.54-10.24-5.49-11.74c-4.69-1.42-7.16,2.63-6.59,6.8
		c0.7,5.12,2.29,8.64,1,14.01c-1.15,4.78-3.45,9.2-5.92,13.41c-4.72,8.06-10.04,15.8-15.71,23.22c-1.37,1.79-3.49,5.45-5.45,6.8
		c-1.2,2.22-2.86,2-4.99-0.66c1.08-1.38,2.18-2.75,3.28-4.12c2.6-3.29,5.19-6.59,7.65-9.98c5.12-7.04,7.11-12.87,6.13-21.55
		c-0.58-5.06-0.71-9.73,0.37-14.77c0.18-0.94,0.42-1.87,0.71-2.78c0.52-1.78,1.45-3.31,2.79-4.59c0.07-0.2,0.56-0.76,0.67-1.04
		c0.03-0.09,0-0.23-0.08-0.29c-2.7-2.47-6,3.06-6.82,5.16c-1.3,3.34-1.12,6.87-1.09,10.39c0.06,5.56-0.61,10.71-2.57,15.93
		c-0.01,0.02-0.02,0.05-0.02,0.07c-0.13,0.35,0.4,0.5,0.56,0.19c0.01-0.01,0.02-0.02,0.02-0.03c0.01-0.02,0.02-0.05,0.02-0.07
		c0,0,0-0.01,0-0.01c1.19-3.17,2.07-6.4,2.42-9.77c0.45-4.36-0.24-8.77,0.41-13.11c0.34-2.28,1.14-5.83,3.19-7.2
		c0.48-0.11,0.95-0.21,1.43-0.32c1.52-0.62,1.83-0.55,0.95,0.19c-0.2,1.07-0.39,0.26-0.53,0.57c-1.22,2.75-2.35,4.89-2.9,7.96
		c-1.32,7.43,1.15,14.64,0.05,21.96c-1.37,9.09-9.46,17.32-15,24.19c-1.2,1.49-4.75,5.2-1.9,7.06c3.53,2.31,8.57-6.44,10.07-8.37
		c4.66-6,9.04-12.22,13.12-18.63c3.9-6.12,7.99-12.52,9.73-19.65c0.79-3.25,1.07-6.49,0.27-9.76c-0.18-0.76-0.48-1.48-0.68-2.24
		c-0.97-3.7-1.17-3.14,2.79-5.69c3.16-2.04,3.19-3.14,5.36-0.77c1.72,1.87,2.29,4.32,2.33,6.75c0.07,4.74-1.93,9.79-3.33,14.26
		c-1.45,4.61-3.06,9.16-4.79,13.67c-0.01,0.03-0.01,0.06-0.01,0.09c0.01-0.02,0.02-0.05,0.04-0.07
		C319.67,297.07,320.05,297.22,320.06,297.47z"/>
	<path d="M225.24,487.77c1.81-19.14,13.87-33.9,23.52-49.78c7.78-12.79,17.6-27.3,14.34-43.07c-0.44-2.11-1.78-4.32-2.05-6.38
		c-0.56-4.29,1.49-5.65,3.84-7.96c3.22-3.17,6.47-6.32,9.57-9.61c6.13-6.5,10.95-13.57,15.79-21.04
		c10.31-15.9,21.03-31.52,28.48-49.04c0.03-0.06,0.03-0.12,0.02-0.18c-0.17,0.31-0.34,0.62-0.47,0.95c-0.1,0.27-0.47,0.25-0.57,0.05
		c-5.85,13.45-13.54,25.86-21.56,38.11c-4.13,6.3-8.04,12.8-12.37,18.97c-4.56,6.49-10.05,12.22-15.67,17.79
		c-2.58,2.56-8.72,6.28-8.41,10.47c0.11,1.51,1.49,3.35,1.98,4.87c0.65,2.01,1.09,4.13,1.3,6.24c0.38,3.83,0,7.7-0.9,11.43
		c-3.32,13.74-12.48,26.42-20.2,38.04c-8.32,12.53-16.07,25.51-17.32,40.83c-0.01,0.13,0.05,0.21,0.14,0.26
		c0.02-0.23,0.03-0.45,0.05-0.68C224.79,487.76,225.07,487.68,225.24,487.77z"/>
	<path d="M318.28,301.64c0.13-0.33,0.3-0.64,0.47-0.95c0.16-0.29,0.33-0.59,0.46-0.9c0.3-0.72,0.39-1.49,0.81-2.16
		c0.04-0.06,0.04-0.12,0.04-0.17c-0.02-0.24-0.39-0.4-0.56-0.13c-0.01,0.02-0.02,0.05-0.04,0.07c-0.37,0.62-0.5,1.31-0.74,1.98
		c-0.26,0.73-0.74,1.37-1.02,2.1c-0.03,0.08-0.02,0.16,0.01,0.21C317.81,301.89,318.18,301.92,318.28,301.64z"/>
	<path d="M293.97,535.25c0.18-0.27,0.36-0.54,0.54-0.81c-0.13-0.07-0.3-0.06-0.41,0.09c-1.53,2.17-8.5,7.94-8.59,1.94
		c-0.02-1.37,0.44-2.76,0.45-4.13c0.02-1.69-0.15-3.57-1.75-4.56c-3.66-2.26-8.51,2.95-10.97,4.72c-6.94,4.97-15.41,8.56-24.09,7.88
		c-7.07-0.55-10.53-4.55-13.16-10.72c-1.72-4.04-3.36-8.11-5.04-12.17c-0.12-0.28-0.47-0.29-0.58,0c-0.83,2.15-0.59,3.6-2.99,3.42
		c-2.54-0.19-1.74-1.91-1.89-3.99c-0.23-3.21-0.43-6.42-0.56-9.64c-0.26-6.43-0.17-12.84,0.43-19.25c0.01-0.13-0.05-0.21-0.13-0.25
		c-0.17-0.09-0.45-0.01-0.47,0.25c-0.02,0.23-0.03,0.45-0.05,0.68c-0.77,8.76-0.53,17.52,0.05,26.29c0.11,1.62-0.74,9.59,1.92,9.92
		c1.26,0.15,1.69-1.03,2.19-1.91c0.6-1.06,0.68-3.71,2.22-3.61c0.48,0.03,2.24,5.41,2.52,6.09c2.05,4.96,3.81,11.42,9.03,13.99
		c4.91,2.42,11.34,1.88,16.47,0.55c3.29-0.85,6.45-2.18,9.42-3.82c3.3-1.81,6.04-4.75,9.31-6.47c3.08-1.62,7.13,0.3,7.41,3.89
		c0.11,1.38-0.72,2.92-0.52,4.28c0.18,1.18-0.1,1.63,1.01,2.25c2.89,1.63,6.53-2.25,8.29-4.54
		C293.93,535.54,293.87,535.4,293.97,535.25z"/>
	<path d="M254.19,499.37c0-0.02,0.01-0.05,0.01-0.07c-0.21,0.04-0.41,0.08-0.62,0.13c-0.38,0.08-0.22,0.66,0.16,0.58
		c11.42-2.46,21.17-0.12,28.69,9.1c3.36,4.12,5.69,8.86,8.05,13.58c0.84,1.69,1.45,4.01,3.76,3.89c1.92-0.1,3.18-2.51,4.11-3.88
		c2.36-3.48,4.36-7.2,6.53-10.79c4.96-8.22,10.49-14.96,18.74-20.06c3.82-2.36,7.75-4.55,11.67-6.72c3.89-2.15,8.77-5.96,13.09-6.98
		c3.04-2.24,4.34-0.25,3.91,5.98c-0.97,0.6-1.95,1.2-2.93,1.78c-2.21,1.34-4.42,2.68-6.62,4.05c-4.39,2.73-8.75,5.52-13.07,8.37
		c-7.41,4.89-14.47,9.8-20.46,16.43c-5.5,6.09-10.12,12.9-14.69,19.7c-0.18,0.27-0.36,0.54-0.54,0.81c-0.1,0.15-0.04,0.29,0.07,0.37
		c0.13,0.09,0.33,0.1,0.44-0.07c4.72-7.03,9.45-14.09,15.14-20.39c6.14-6.8,13.53-11.86,21.15-16.87
		c7.31-4.81,15.4-8.89,22.42-14.09c2.14-1.59,4.7-5.05,2.17-7.56c-1.22-1.21-2.69-0.95-4.16-0.54c-3.87,1.1-7.81,3.93-11.34,5.83
		c-7.23,3.9-14.84,7.7-21.42,12.66c-5.36,4.04-9.34,9.33-12.86,14.99c-1.94,3.12-3.75,6.33-5.67,9.47
		c-0.89,1.46-1.75,3.24-2.92,4.48c-3.76,4-5.76-0.74-7.16-3.55c-3.41-6.83-7.59-13.56-14.08-17.85c-6.45-4.27-13.61-4.38-20.92-2.97
		c-0.02,0.12-0.05,0.24-0.07,0.36C254.7,499.91,254.12,499.75,254.19,499.37z"/>
	<path d="M316.58,416.15c-1.57-0.9-3.66-0.2-4.93,0.89c-1.56,1.34-2.2,3.51-3.03,5.29c-1.22,2.62-2.71,5.05-4.42,7.37
		c-4.02,5.46-8.74,10.46-13.16,15.59c-7.88,9.14-16.05,18.09-23.54,27.56c-6.24,7.89-11.51,16.42-13.3,26.44
		c0,0.02-0.01,0.05-0.01,0.07c-0.07,0.38,0.51,0.54,0.58,0.16c0.02-0.12,0.05-0.24,0.07-0.36c3.31-17.82,17.53-31.29,28.91-44.49
		c6.27-7.27,12.76-14.41,18.8-21.88c2.19-2.7,4.26-5.5,5.85-8.61c0.49-0.97,0.94-1.96,1.35-2.96c0.93-3.09,3.56-3.71,7.89-1.83
		c0.27,1.3-0.61,3.75-0.58,5.31c0,0.1,0.04,0.17,0.1,0.21c0.15-0.18,0.31-0.35,0.51-0.51C317.73,421.84,319.43,417.79,316.58,416.15
		z"/>
	<path d="M330.67,413.86c-0.06,0.06-0.13,0.12-0.19,0.18c-0.1,0.09-0.24,0.11-0.36,0.05c-0.01,0-0.01-0.01-0.02-0.01
		c0.06,0.21,0.4,0.33,0.56,0.09c4.55-6.59,14.17-10.94,21.15-14.55c3.97-2.05,8.04-4.02,12.23-5.57c1.86-0.69,3.78-1.28,5.74-1.61
		c1.32-0.22,2.78-0.35,4.12-0.29c3.12,0.14,3.48,0.58,5.6,3.26c2.48,3.12,2.51,4.2,1.37,8.01c-0.87,2.92-2.47,5.47-4.45,7.76
		c-2.56,2.95-5.48,5.63-8.25,8.39c-5.84,5.81-11.7,11.63-16.87,18.04c-4.17,5.17-7.93,10.71-10.75,16.74
		c-3.07,6.56-4.22,13.71-6.99,20.36c-0.76,1.82-1.64,4.16-3.09,5.57c-0.31,0.41-0.61,0.81-0.92,1.22c-2.2-1.24-4.4-2.48-6.6-3.73
		c-0.27-0.47,0.79-5.76,0.56-4.56c0.76-4.05,2.13-7.93,3.85-11.67c3.14-6.87,7.4-13.34,11.72-19.52
		c10.08-14.4,22.19-27.24,35.83-38.32c0.15-0.12,0.09-0.38-0.06-0.47c-7.9-4.63-16.15-0.47-23,4.13
		c-4.96,3.33-9.86,6.76-14.79,10.14c-2.63,1.81-5.27,3.61-7.9,5.42c-1.32,0.9-2.63,1.81-3.95,2.71c-0.53,0.36-1.05,0.72-1.58,1.08
		c-1.76,1.6-3.62,0.99-5.56-1.86c0.3-0.24-0.12-0.66-0.42-0.42l0,0c-0.2,0.16-0.36,0.33-0.51,0.51c-0.73,0.87-0.85,1.99-0.03,3.03
		c2.62,3.34,8-1.54,9.99-2.9c5.79-3.97,11.59-7.95,17.38-11.92c5.81-3.98,12.06-9.39,19.1-10.96c2.08-0.46,10.45-1.43,9.58,2.17
		c-0.19,0.79-3.24,2.72-3.9,3.29c-1.28,1.11-2.55,2.25-3.81,3.39c-5.01,4.6-9.78,9.46-14.26,14.58
		c-8.01,9.15-15.28,19.09-21.27,29.67c-2.61,4.62-4.92,9.45-6.28,14.59c-0.87,3.32-2.67,9.09-0.22,12.18
		c6.32,7.95,12.31-11.63,13.28-15c4-13.88,11.08-25.14,20.82-35.75c4.62-5.03,9.53-9.77,14.35-14.61c3.9-3.91,7.93-7.69,9.56-13.13
		c1.03-3.44,1.63-7.74-1.5-10.24c-4.1-3.27-10.86-1.67-15.27-0.17c-6.84,2.33-13.43,5.86-19.65,9.48c-5,2.92-10.91,5.91-14.46,10.62
		c0.06,0.05,0.1,0.11,0.12,0.18C330.77,413.58,330.79,413.75,330.67,413.86z"/>
	<path d="M355.07,233.53c11.97,17.2,12.51,38.73,9.01,58.7c0.12-0.29,0.62-0.13,0.55,0.22c-0.01,0.05-0.01,0.1-0.02,0.15
		c0.01-0.02,0.02-0.03,0.02-0.05c3.56-20.18,3.05-41.95-9.04-59.33c-0.05-0.08-0.12-0.11-0.19-0.13c-0.09-0.02-0.17,0.01-0.24,0.05
		C355.03,233.24,354.96,233.38,355.07,233.53z"/>
	<path d="M340.86,364.17c0.02-0.07,0.05-0.14,0.07-0.22c-0.07,0.13-0.14,0.26-0.21,0.38C340.78,364.3,340.83,364.25,340.86,364.17z"
		/>
	<path d="M363.54,296.3c-4.09,23.63-15.73,44.84-23.16,67.44c0.07-0.13,0.14-0.27,0.21-0.4c0.14-0.24,0.45-0.15,0.54,0.05
		c7.46-22.48,19.01-43.6,23.03-67.14c0.01-0.04,0-0.07,0-0.1c0,0.05-0.01,0.1-0.02,0.15C364.1,296.68,363.51,296.68,363.54,296.3z"
		/>
	<path d="M340.58,363.34c-0.08,0.13-0.14,0.27-0.21,0.4c-2.18,3.91-3.13,8.34-4.5,12.57c-1.74,5.36-3.74,10.61-5.82,15.85
		c-1.57,3.97-3.16,8.06-3.14,12.39c0.01,1.76,0.65,7.75,2.85,9.03c-0.06,0.14-0.04,0.32,0.11,0.4c0.07,0.04,0.14,0.07,0.22,0.11
		c0.01,0,0.01,0.01,0.02,0.01c0.12,0.06,0.26,0.05,0.36-0.05c0.06-0.06,0.13-0.12,0.19-0.18c0.12-0.11,0.1-0.28,0.01-0.4
		c-0.02-0.07-0.06-0.13-0.12-0.18c-0.02-0.01-0.03-0.02-0.05-0.03c-6.4-8.03-0.97-17.89,2.15-26.07c2.79-7.31,4.27-15.97,8.05-22.84
		c0.07-0.13,0.14-0.26,0.21-0.38c0.06-0.1,0.11-0.21,0.17-0.31c0.05-0.09,0.05-0.18,0.02-0.25
		C341.04,363.19,340.73,363.1,340.58,363.34z"/>
	<path d="M364.08,292.24c-0.01,0.02-0.02,0.04-0.03,0.06c-0.23,1.32-0.4,2.65-0.52,3.99c0,0,0,0,0,0c-0.03,0.38,0.57,0.38,0.6,0
		c0-0.05,0.01-0.1,0.02-0.15c0.1-1.19,0.26-2.37,0.46-3.54c0.01-0.05,0.01-0.1,0.02-0.15C364.69,292.11,364.2,291.95,364.08,292.24z
		"/>
	<path d="M333.59,238.98c0.32,0.03,0.3,0.56-0.06,0.59c-0.16,0.02-0.31,0.05-0.47,0.07c0.06,0.05,0.15,0.07,0.25,0.04
		c6.56-2.38,12.47,6.17,7.64,11.21c-2.24,2.34-6.08,2.89-9.15,2.82c-3.52-0.09-8.88-1.29-9.93-5.3c-1.48-5.62,5.75-7.88,9.75-8.34
		c0.13-0.02,0.21-0.1,0.25-0.19c-0.28,0.07-0.56,0.14-0.83,0.23c-0.32,0.11-0.48-0.32-0.27-0.51c-4.23,0.67-9.94,2.89-9.63,7.97
		c0.33,5.3,7.35,6.86,11.6,6.76c4.45-0.11,9.99-1.89,10.53-7.03C343.84,241.89,338.66,237.49,333.59,238.98z"/>
	<path d="M331.04,240.1c0.27-0.09,0.55-0.16,0.83-0.23c0.39-0.1,0.79-0.17,1.19-0.23c0.16-0.02,0.31-0.06,0.47-0.07
		c0.36-0.04,0.38-0.56,0.06-0.59c-0.02,0-0.04-0.01-0.06-0.01c-0.9,0.09-1.78,0.27-2.65,0.55c-0.05,0.02-0.08,0.04-0.11,0.06
		C330.56,239.78,330.72,240.21,331.04,240.1z"/>
	<path d="M323.55,245.87c-1.18,3.32,2.57,4.87,5.2,4.94c3.3,0.09,9.27-0.8,10.64-4.44c1.24-3.3-2.7-4.96-5.38-4.93
		c-0.05-0.08-0.12-0.14-0.24-0.13C330.48,241.43,324.88,242.16,323.55,245.87z M327.63,243.11c1.73-0.78,3.56-1.05,5.44-1.16
		c0.06,0.11,0.17,0.18,0.32,0.12c0.04-0.02,0.09-0.02,0.13-0.03c0.01,0.01,0.02,0.01,0.03,0.02c0.14,0.07,0.33,0.04,0.41-0.11
		c0,0,0,0,0-0.01c2.47-0.31,6.51,2.25,4.01,5.45c-0.47,0.6-1.45,1.06-2.13,1.4c-2.1,1.07-4.76,1.55-7.1,1.43
		c-1.97-0.1-6.94-0.78-3.9-5.26C325.43,244.1,326.72,243.51,327.63,243.11z"/>
</g>
</svg>
