<?xml version="1.0" encoding="utf-8"?>
<!-- Generator: Adobe Illustrator 23.0.1, SVG Export Plug-In . SVG Version: 6.00 Build 0)  -->
<svg version="1.1" id="Layer_1" xmlns="http://www.w3.org/2000/svg" xmlns:xlink="http://www.w3.org/1999/xlink" x="0px" y="0px"
	 viewBox="0 0 1920 1080" style="enable-background:new 0 0 1920 1080;" xml:space="preserve">
<style type="text/css">
	.st0{fill:#FFFFFF;}
	.st1{fill:#4D75F2;}
	.st2{fill:none;stroke:#4D75F2;stroke-width:5;stroke-miterlimit:10;}
	.st3{fill:none;stroke:#4D75F2;stroke-width:4;stroke-miterlimit:10;}
	.st4{fill:none;stroke:#FFFFFF;stroke-width:4;stroke-miterlimit:10;}
	.st5{fill:none;stroke:#4D75F2;stroke-width:3.5;stroke-miterlimit:10;}
	.st6{fill:none;stroke:#FFFFFF;stroke-width:3.5;stroke-miterlimit:10;}
	.st7{fill:none;stroke:#FFFFFF;stroke-width:3;stroke-miterlimit:10;}
	.st8{fill:#2FD3D4;}
</style>
<g>
	<g>
		<g>
			<path class="st0" d="M1366.47,604.44c14.82-0.09,29.65-0.16,44.47-0.25c4-0.02,4-6.71,0-6.68c-14.82,0.09-29.65,0.16-44.47,0.25
				C1362.47,597.78,1362.47,604.46,1366.47,604.44L1366.47,604.44z"/>
		</g>
	</g>
	<g>
		<g>
			<path class="st0" d="M1366.47,577.44c21.87-0.04,43.76-0.11,65.64-0.16c4,0,4-6.68,0-6.68c-21.87,0.04-43.76,0.11-65.64,0.16
				C1362.47,570.75,1362.47,577.44,1366.47,577.44L1366.47,577.44z"/>
		</g>
	</g>
	<g>
		<g>
			<path class="st0" d="M1366.47,550.7c21.87-0.04,43.76-0.11,65.64-0.16c4,0,4-6.68,0-6.68c-21.87,0.04-43.76,0.11-65.64,0.16
				C1362.47,544.02,1362.47,550.7,1366.47,550.7L1366.47,550.7z"/>
		</g>
	</g>
	<g>
		<g>
			<path class="st0" d="M1366.47,523.97c21.87-0.04,43.76-0.11,65.64-0.16c4,0,4-6.68,0-6.68c-21.87,0.04-43.76,0.11-65.64,0.16
				C1362.47,517.28,1362.47,523.97,1366.47,523.97L1366.47,523.97z"/>
		</g>
	</g>
	<g>
		<g>
			<path class="st0" d="M1223.43,356.88c21.87-0.04,43.76-0.11,65.64-0.16c4,0,4-6.68,0-6.68c-21.87,0.04-43.76,0.11-65.64,0.16
				C1219.42,350.19,1219.42,356.88,1223.43,356.88L1223.43,356.88z"/>
		</g>
	</g>
	<g>
		<g>
			<path class="st0" d="M765.26,80.91c25.33-0.04,50.67-0.11,76-0.16c4,0,4-6.68,0-6.68c-25.33,0.04-50.67,0.11-76,0.16
				C761.26,74.23,761.26,80.91,765.26,80.91L765.26,80.91z"/>
		</g>
	</g>
	<g>
		<g>
			<path class="st0" d="M706.51,80.98c13.83-0.04,27.63-0.11,41.46-0.16c4-0.02,4-6.71,0-6.68c-13.83,0.04-27.63,0.11-41.46,0.16
				C702.51,74.3,702.51,80.98,706.51,80.98L706.51,80.98z"/>
		</g>
	</g>
	<g>
		<g>
			<path class="st0" d="M799.8,107.72c13.83-0.04,27.63-0.11,41.46-0.16c4-0.02,4-6.71,0-6.68c-13.83,0.04-27.63,0.11-41.46,0.16
				C795.8,101.03,795.8,107.72,799.8,107.72L799.8,107.72z"/>
		</g>
	</g>
	<g>
		<g>
			<path class="st0" d="M768.7,108.41c6.22-0.02,12.44-0.04,18.66-0.07c4-0.02,4-6.71,0-6.68c-6.22,0.02-12.44,0.04-18.66,0.07
				C764.7,101.74,764.7,108.43,768.7,108.41L768.7,108.41z"/>
		</g>
	</g>
	<g>
		<g>
			<path class="st0" d="M731.39,105.8c6.9-0.02,13.83-0.02,20.73-0.04c4,0,4-6.68,0-6.68c-6.9,0.02-13.83,0.02-20.73,0.04
				C727.39,99.12,727.39,105.8,731.39,105.8L731.39,105.8z"/>
		</g>
	</g>
	<g>
		<g>
			<path class="st0" d="M745.9,131.44c6.9-0.02,13.83-0.02,20.73-0.04c4,0,4-6.68,0-6.68c-6.9,0.02-13.83,0.02-20.73,0.04
				C741.9,124.78,741.9,131.46,745.9,131.44L745.9,131.44z"/>
		</g>
	</g>
	<g>
		<g>
			<path class="st0" d="M783.22,132.24c17.97-0.04,35.93-0.11,53.9-0.16c4-0.02,4-6.71,0-6.68c-17.97,0.04-35.93,0.11-53.9,0.16
				C779.22,125.56,779.22,132.24,783.22,132.24L783.22,132.24z"/>
		</g>
	</g>
	<g>
		<g>
			<path class="st0" d="M1302.2,250.16c15.65-0.07,31.33-0.11,46.98-0.18c4-0.02,4-6.71,0-6.68c-15.65,0.07-31.32,0.11-46.98,0.18
				C1298.2,243.5,1298.2,250.19,1302.2,250.16L1302.2,250.16z"/>
		</g>
	</g>
	<g>
		<g>
			<path class="st1" d="M1223.43,334.6c21.87-0.04,43.76-0.11,65.64-0.16c4,0,4-6.68,0-6.68c-21.87,0.04-43.76,0.11-65.64,0.16
				C1219.42,327.92,1219.42,334.6,1223.43,334.6L1223.43,334.6z"/>
		</g>
	</g>
	<g>
		<g>
			<path class="st1" d="M1237.69,439.09c11.4-12.1,22.78-24.22,34.19-36.31c3.79-4.03-2.07-10.34-5.87-6.3
				c-11.4,12.1-22.78,24.22-34.19,36.31C1228.01,436.84,1233.87,443.14,1237.69,439.09L1237.69,439.09z"/>
		</g>
	</g>
	<g>
		<g>
			<path class="st1" d="M1237.92,436.43c-1.16-11.85-2.3-23.68-3.46-35.53c-0.41-4.23-6.63-4.28-6.22,0
				c1.16,11.85,2.3,23.68,3.46,35.53C1232.11,440.67,1238.33,440.71,1237.92,436.43L1237.92,436.43z"/>
		</g>
	</g>
	<g>
		<g>
			<path class="st1" d="M1401.71,372.67c46.06-0.07,92.13-0.11,138.19-0.18c4,0,4-6.68,0-6.68c-46.06,0.07-92.13,0.11-138.19,0.18
				C1397.71,365.99,1397.71,372.67,1401.71,372.67L1401.71,372.67z"/>
		</g>
	</g>
	<g>
		<g>
			<path class="st1" d="M1298.06,948.11c26.02-0.09,52.06-0.18,78.07-0.29c4-0.02,4-6.71,0-6.68c-26.02,0.09-52.06,0.18-78.07,0.29
				C1294.06,941.44,1294.06,948.13,1298.06,948.11L1298.06,948.11z"/>
		</g>
	</g>
	<g>
		<g>
			<path class="st1" d="M1264.89,973.06c8.75-0.13,17.5-0.25,26.25-0.38c4-0.07,4-6.75,0-6.68c-8.75,0.13-17.5,0.24-26.25,0.38
				C1260.89,966.44,1260.89,973.12,1264.89,973.06L1264.89,973.06z"/>
		</g>
	</g>
	<g>
		<g>
			<path class="st1" d="M1279.4,999.79c8.75-0.13,17.5-0.25,26.25-0.38c4-0.07,4-6.75,0-6.68c-8.75,0.13-17.5,0.25-26.25,0.38
				C1275.4,993.17,1275.4,999.86,1279.4,999.79L1279.4,999.79z"/>
		</g>
	</g>
	<g>
		<g>
			<path class="st1" d="M1304.28,973.3c5.99-0.16,11.96-0.29,17.95-0.45c4-0.09,4-6.77,0-6.68c-5.99,0.16-11.96,0.29-17.95,0.45
				C1300.28,966.71,1300.28,973.39,1304.28,973.3L1304.28,973.3z"/>
		</g>
	</g>
	<g>
		<g>
			<path class="st1" d="M1335.37,973.41c14.28-0.16,28.55-0.31,42.83-0.49c4-0.04,4-6.73,0-6.68c-14.28,0.16-28.55,0.31-42.83,0.49
				C1331.37,966.77,1331.37,973.46,1335.37,973.41L1335.37,973.41z"/>
		</g>
	</g>
	<g>
		<g>
			<path class="st1" d="M1318.79,1000.21c17.73-0.18,35.47-0.33,53.2-0.51c4-0.04,4-6.73,0-6.68c-17.73,0.18-35.47,0.33-53.2,0.51
				C1314.79,993.58,1314.79,1000.26,1318.79,1000.21L1318.79,1000.21z"/>
		</g>
	</g>
	<g>
		<g>
			<path class="st1" d="M1302.2,270.26c9.43-0.04,18.89-0.09,28.32-0.13c4-0.02,4-6.71,0-6.68c-9.43,0.04-18.89,0.09-28.32,0.13
				C1298.2,263.6,1298.2,270.28,1302.2,270.26L1302.2,270.26z"/>
		</g>
	</g>
	<g>
		<g>
			<path class="st0" d="M1223.43,379.42c12.21-0.04,24.4-0.09,36.61-0.13c4-0.02,4-6.71,0-6.68c-12.21,0.04-24.4,0.09-36.61,0.13
				C1219.42,372.74,1219.42,379.42,1223.43,379.42L1223.43,379.42z"/>
		</g>
	</g>
	<g>
		<g>
			<g>
				<path class="st0" d="M666.58,456.29c-4.6,2.54-9.18,3.23-14.04,4.79c-2.99,0.96-6.57,3.63-9.54,4.23
					c-6.09,1.25-10.51-3.9-16.19-1.54c-2.18,0.89-2.94,2.92-4.79,4.12c-4.89,3.25-6.32,1.4-10.43,3.52
					c-2.9,1.49-4.77,4.75-4.37,8.22c0.68,5.93,11.34,7.78,1.18,6.82c-3.13-0.29-6.05-0.45-8.38,2.18c-2.63,2.99-0.66,2.78-1.87,5.93
					c-0.56,1.45-1.66,3.23-2.32,4.72c-1.31,2.96-1.93,5.44,0.04,8.35c2.43,3.61,6.63,3.63,10.2,2.29c4.56-1.72,5.78-5.26,11.28-5.64
					c2.28-0.16,4.02,1.31,6.49,0.76c1.18-0.27,5.99-4.01,6.41-3.88c-0.39-0.13-1.97,2.54-2.05,2.96c-1.2,5.66-0.06,9.51,3.94,13.75
					c2.45,2.58,5.27,4.66,8.81,3.45c3.65-1.23,3.92-6.02,9.04-4.05c2.88,1.09,6.32,7.98,9.04,10.14c2.84,2.25,6.07,4.28,9.56,2.27
					c0.79-0.45,2.47-2.96,2.86-3.1c3.71-1.16,9.91,5.59,12.17,7.6c3.07,2.72,7.48-1.98,4.4-4.72c-3.81-3.39-8.5-8.38-13.43-9.74
					c-3.94-1.09-4.44,0.87-7.53,1.92c-0.73,2.23-1.93,2.23-3.65,0.02c-2.11-0.87-3.84-2.29-5.16-4.26c-2.09-2.16-3.63-5.5-6.22-7.11
					c-2.34-1.45-5.02-2.12-7.61-0.91c-2.99,1.36-3.61,6.26-7.9,3.77c-9.74-5.66-0.75-6.37-0.12-9.4c0.64-3.14,1.82-5.01-0.95-7.75
					c-2.49-2.45-5.29-1.34-8.06-0.6c-3.48,0.91-7.15,1.58-10.82,2.03c-1.7,0.2-3.13,0.16-4.91,0.89c-1.08,0.45-9.25,7.26-10.24,4.63
					c-0.08-0.22,2.45-1.94,2.53-2.52c0.93-6.3,3.57-6.68,9.41-6.57c6.07,0.11,13.21-4.54,7.21-10.96c-0.62-0.67-3.94-2.45-3.96-2.65
					c-0.27-3.65,3.59-2.5,5.02-3.61c1.31-1.02,3.42-3.27,4.79-4.1c3.88-2.34,5.49-0.98,9-0.42c7.07,1.11,8.62-0.87,15.78-3.7
					c6.18-2.45,12.58-3.16,18.51-6.44C673.28,460.09,670.15,454.32,666.58,456.29L666.58,456.29z"/>
			</g>
		</g>
		<g>
			<g>
				<path class="st0" d="M612.25,514.48c-7.4-0.78-19.98,2.34-24.13,9.74c-3.52,6.3-1.08,14.88,4.29,18.94
					c3.38,2.54,6.76,2.52,10.64,2.92c4.64,0.47,5.91,0.25,7.88,4.97c1.66,3.97,0.87,9.82,1.39,14.15
					c0.89,7.46,5.12,13.77,12.96,12.14c8.73-1.8,10.99-11.36,11.46-19.45c0.25-4.19-1.93-5.08,0.83-9.94
					c0.75-1.31,2.47-2.12,3.38-3.45c1.37-2.07,2.63-4.86,1.62-7.35c-1.14-2.78-3.52-1.87-5.51-3.25c-3.94-2.74-2.76-6.28-5.25-10.23
					c-1.82-2.87-3.98-4.37-7.07-5.26c-2.01-0.58-3.94,0.02-6.01-0.58c-2.7-0.76-4.64-2.23-7.38-2.94c-3.9-1.02-5.56,5.44-1.66,6.44
					c3.07,0.8,7.07,3.12,10.16,4.17c13.16,4.43,4.19,7.04,10.22,13.19c3.28,3.32,5.06-0.6,2.22,5.01c-1.87,3.68-2.51,4.08-2.7,8.89
					c-0.29,7.91,4.83,11.25-5.33,9.94c-7.98-1.05-5.72-1.65-6.7-8.98c-0.56-4.14-0.85-8.87-3.61-12.1c-2.88-3.36-4.42-2.25-7.9-2.63
					c-26.72-2.94-5.06-18.89,6.18-17.69C616.23,521.58,616.21,514.88,612.25,514.48L612.25,514.48z"/>
			</g>
		</g>
		<g>
			<g>
				<path class="st0" d="M553.29,442.65c1.33,4.23,2.34,11.45,7.98,10.74c2.03-0.27,3.94-3.63,5.27-3.72
					c2.51-0.16,6.68,7.33,8.25,9.69c1.99,2.96,16.11,4.75,1,12.97c-3.52,1.92-6.88,0.42-9.23-2.38c-2.22-2.63-3.21-6.51-5.72-8.71
					c-1.66-1.45-2.8-1.72-5-1.76c-2.09-0.04-4.93,1.45-7.05,0.74c-2.03-0.69-4.1-3.1-6.03-4.17c-3.55-1.98-6.7,3.79-3.13,5.77
					c4.56,2.54,7.63,6.02,12.96,6.15c4.31,0.11,3.88-2.61,6.47,3.1c0.85,1.87,1.66,3.77,3.11,5.21c5.64,5.59,17.21,4.32,21.83-2.12
					c7.36-10.27-3.01-16.69-7.34-24.24c-2.14-3.7-3.69-7.44-8.35-7.8c-1.66-0.13-3.32,0.49-4.64,1.45c-1.14,0.76-1.99,1.8-2.53,3.12
					c-0.6-1.94-1.22-3.9-1.82-5.84C558.01,436.81,552,438.55,553.29,442.65L553.29,442.65z"/>
			</g>
		</g>
		<g>
			<g>
				<path class="st0" d="M533.42,472.95c3.28-0.18,7.15,1.23,5.66,3.92c-0.39,0.71-3.57,1.89-4.29,2.54
					c-1.89,1.67-3.57,4.05-3.67,6.82c-0.21,5.28,3.75,6.97,8.11,7.78c2.16,0.4,3.75,0.56,5.58-0.65c0.6-0.4,1.24-1.47,1.82-1.76
					c0.29-0.6,0.6-1.23,0.89-1.83c5.35,1.43,6.57,2.7,3.67,3.81c-1.26,2.25-5.35,2.85-6.86,5.59c-1.43,2.61-1.58,5.21-0.93,8.18
					c1.22,5.75,3.36,5.88-2.16,8.89c-2.72,1.49-5.45,2.21-7.42,4.97c-2.92,4.12-2.32,8.78,0.77,12.41c2.76,3.23,7.71,7.4,11.15,9.87
					c2.24,1.63,4.08,2.41,6.8,2.78c1.7,0.25,3.71-0.56,5.35-0.13c8.52,2.12,9.72,9.67,10.2,16.62c0.5,7.51-1.08,15.1-2.51,22.39
					c-0.81,4.19,5.18,5.99,5.99,1.78c2.24-11.54,4.58-23.97,0.79-35.42c-3.05-9.25-7.57-10.78-15.84-11.96
					c-1.72-0.24-13.58-6.1-14.93-9.62c-2.92-7.66,5.8-7.04,9.49-10.72c1.62-1.6,2.09-2.54,2.14-4.77c0.04-2.27-1.91-3.39-2.32-5.35
					c-1.82-8.64,0-7.53,4.62-10.4c5.54-3.43,8.96-8.02,4.19-14.59c-4.91-6.75-11.07-4.81-16.29-0.31c-0.89,0.76-1.95,6.42-4.58,3.14
					c-2.8-3.48,4.6-4.14,5.64-5.17c2.18-2.12,3.36-2.74,3.28-6.44c-0.17-8.06-8.46-9.38-14.37-9.07
					C529.44,466.47,529.4,473.15,533.42,472.95L533.42,472.95z"/>
			</g>
		</g>
		<ellipse class="st2" cx="604.93" cy="507.68" rx="81.89" ry="88"/>
	</g>
	<g>
		<path class="st2" d="M803.95,271.53c0,34.64-23.74,63.32-54.67,68.31c-3.13,0.51-6.34,0.76-9.6,0.76
			c-35.49,0-64.27-30.92-64.27-69.06s28.78-69.06,64.27-69.06S803.95,233.39,803.95,271.53z"/>
	</g>
	<g>
		<path class="st3" d="M1015.8,54.8c-5.43,8.87-16,11.92-24.71,7.57c-0.87-0.45-1.74-0.96-2.57-1.54
			c-9.08-6.42-11.61-19.56-5.62-29.32c5.99-9.76,18.2-12.48,27.28-6.04C1019.26,31.92,1021.77,45.05,1015.8,54.8z"/>
	</g>
	<g>
		<path class="st3" d="M1256.41,170.16c0,16.2-11.09,29.61-25.56,31.95c-1.47,0.25-2.96,0.36-4.5,0.36
			c-16.61,0-30.06-14.46-30.06-32.3s13.45-32.3,30.06-32.3S1256.41,152.32,1256.41,170.16z"/>
	</g>
	<g>
		<path class="st4" d="M1490.15,849.39c0,10.47-7.17,19.16-16.52,20.65c-0.95,0.16-1.91,0.22-2.9,0.22
			c-10.74,0-19.45-9.36-19.45-20.9c0-11.54,8.71-20.9,19.45-20.9S1490.15,837.85,1490.15,849.39z"/>
	</g>
	<line class="st5" x1="752.12" y1="492.09" x2="779.07" y2="449.76"/>
	<line class="st5" x1="841.26" y1="451.99" x2="874.43" y2="407.43"/>
	<line class="st5" x1="789.44" y1="447.53" x2="828.83" y2="456.44"/>
	<g>
		<g>
			<path class="st6" d="M756.27,496.27c0,3.21-2.2,5.88-5.08,6.33c-0.29,0.04-0.58,0.07-0.89,0.07c-3.3,0-5.97-2.87-5.97-6.42
				s2.67-6.42,5.97-6.42S756.27,492.73,756.27,496.27z"/>
		</g>
		<g>
			<path class="st6" d="M789.44,445.03c0,3.21-2.2,5.88-5.08,6.33c-0.29,0.04-0.58,0.07-0.89,0.07c-3.3,0-5.97-2.87-5.97-6.42
				c0-3.54,2.67-6.42,5.97-6.42S789.44,441.49,789.44,445.03z"/>
		</g>
		<g>
			<path class="st6" d="M841.26,458.4c0,3.21-2.2,5.88-5.08,6.33c-0.29,0.04-0.58,0.07-0.89,0.07c-3.3,0-5.97-2.87-5.97-6.42
				s2.67-6.42,5.97-6.42C838.59,451.96,841.26,454.86,841.26,458.4z"/>
		</g>
		<g>
			<path class="st6" d="M884.8,402.71c0,3.21-2.2,5.88-5.08,6.33c-0.29,0.04-0.58,0.07-0.89,0.07c-3.3,0-5.97-2.87-5.97-6.42
				s2.67-6.42,5.97-6.42C882.13,396.27,884.8,399.16,884.8,402.71z"/>
		</g>
	</g>
	<g>
		<path class="st3" d="M1380.8,850.5c0-53.98,40.72-97.76,90.97-97.76c38.25,0,70.98,25.38,84.42,61.31"/>
		<path class="st3" d="M1562.71,850.5c0,49.01-33.58,89.63-77.37,96.67c-4.44,0.71-8.98,1.09-13.58,1.09
			c-40.82,0-75.36-28.9-86.86-68.68"/>
	</g>
	<g>
		<path class="st4" d="M1236.71,169.05c0,5.59-3.84,10.2-8.81,11.01c-0.5,0.09-1.02,0.13-1.55,0.13c-5.72,0-10.37-4.99-10.37-11.14
			c0-6.15,4.64-11.14,10.37-11.14C1232.07,157.91,1236.71,162.9,1236.71,169.05z"/>
	</g>
	<g>
		<path class="st7" d="M1007.63,43.17c0,4.48-3.07,8.18-7.05,8.82c-0.39,0.07-0.81,0.09-1.24,0.09c-4.58,0-8.29-3.99-8.29-8.91
			s3.71-8.91,8.29-8.91S1007.63,38.25,1007.63,43.17z"/>
	</g>
	<polyline class="st2" points="790.91,229.82 740.72,270.42 747.79,340.59 	"/>
	<path class="st1" d="M1355.75,528.85h-10.37c-2.28,0-4.15-2.01-4.15-4.46v-6.68c0-2.45,1.87-4.46,4.15-4.46h10.37
		c2.28,0,4.15,2.01,4.15,4.46v6.68C1359.9,526.84,1358.03,528.85,1355.75,528.85z"/>
	<path class="st1" d="M1355.75,554.47h-10.37c-2.28,0-4.15-2.01-4.15-4.46v-6.68c0-2.45,1.87-4.46,4.15-4.46h10.37
		c2.28,0,4.15,2.01,4.15,4.46v6.68C1359.9,552.46,1358.03,554.47,1355.75,554.47z"/>
	<path class="st1" d="M1355.4,581.2h-10.37c-2.28,0-4.15-2.01-4.15-4.46v-6.68c0-2.45,1.87-4.46,4.15-4.46h10.37
		c2.28,0,4.15,2.01,4.15,4.46v6.68C1359.55,579.2,1357.68,581.2,1355.4,581.2z"/>
	<path class="st1" d="M1355.4,607.93h-10.37c-2.28,0-4.15-2.01-4.15-4.46v-6.68c0-2.45,1.87-4.46,4.15-4.46h10.37
		c2.28,0,4.15,2.01,4.15,4.46v6.68C1359.55,605.93,1357.68,607.93,1355.4,607.93z"/>
	<g>
		<g>
			<g>
				<path class="st1" d="M607.71,865.12c22.58-0.07,45.13-0.16,67.71-0.22c4-0.02,4-6.71,0-6.68c-22.58,0.07-45.13,0.16-67.71,0.22
					C603.7,858.43,603.7,865.12,607.71,865.12L607.71,865.12z"/>
			</g>
		</g>
		<g>
			<g>
				<path class="st1" d="M607.71,882.94c22.58-0.07,45.13-0.16,67.71-0.22c4-0.02,4-6.71,0-6.68c-22.58,0.07-45.13,0.16-67.71,0.22
					C603.7,876.26,603.7,882.94,607.71,882.94L607.71,882.94z"/>
			</g>
		</g>
		<g>
			<g>
				<path class="st1" d="M526.85,882.94c22.58-0.07,45.13-0.16,67.71-0.22c4-0.02,4-6.71,0-6.68c-22.58,0.07-45.13,0.16-67.71,0.22
					C522.85,876.26,522.85,882.94,526.85,882.94L526.85,882.94z"/>
			</g>
		</g>
		<g>
			<g>
				<path class="st1" d="M444.3,872.65c5.8,13.97,11.63,27.96,17.44,41.93c1.64,3.92,6.99,0.53,5.37-3.36
					c-5.8-13.97-11.63-27.96-17.44-41.93C448.03,865.36,442.68,868.75,444.3,872.65L444.3,872.65z"/>
			</g>
		</g>
		<g>
			<g>
				<path class="st1" d="M479.96,869.26c-6.03,14.15-12.04,28.32-18.08,42.46c-1.66,3.88,3.71,7.29,5.37,3.36
					c6.03-14.15,12.04-28.32,18.08-42.46C486.99,868.75,481.62,865.34,479.96,869.26L479.96,869.26z"/>
			</g>
		</g>
		<g>
			<g>
				<path class="st1" d="M526.85,865.12c22.58-0.07,45.13-0.16,67.71-0.22c4-0.02,4-6.71,0-6.68c-22.58,0.07-45.13,0.16-67.71,0.22
					C522.85,858.43,522.85,865.12,526.85,865.12L526.85,865.12z"/>
			</g>
		</g>
		<path class="st6" d="M669.19,799.53h-138.9c-2.28,0-4.15-2.01-4.15-4.46V757.2c0-2.45,1.87-4.46,4.15-4.46h138.9
			c2.28,0,4.15,2.01,4.15,4.46v37.87C673.34,797.53,671.47,799.53,669.19,799.53z"/>
		<path class="st5" d="M675.41,705.96h-170c-2.28,0-4.15-2.01-4.15-4.46v-17.82c0-2.45,1.87-4.46,4.15-4.46h170
			c2.28,0,4.15,2.01,4.15,4.46v17.82C679.56,703.96,677.69,705.96,675.41,705.96z"/>
		<path class="st5" d="M447.37,868.59V685.91c0-2.45,1.87-4.46,4.15-4.46h26.95c2.28,0,4.15,2.01,4.15,4.46v182.68
			c0,2.45-1.87,4.46-4.15,4.46h-26.95C449.24,873.05,447.37,871.04,447.37,868.59z"/>
		<path class="st6" d="M588.34,844.09h-55.97c-2.28,0-4.15-2.01-4.15-4.46v-17.82c0-2.45,1.87-4.46,4.15-4.46h55.97
			c2.28,0,4.15,2.01,4.15,4.46v17.82C592.49,842.08,590.62,844.09,588.34,844.09z"/>
		<path class="st6" d="M669.19,844.09h-55.97c-2.28,0-4.15-2.01-4.15-4.46v-17.82c0-2.45,1.87-4.46,4.15-4.46h55.97
			c2.28,0,4.15,2.01,4.15,4.46v17.82C673.34,842.08,671.47,844.09,669.19,844.09z"/>
		<g>
			<g>
				<path class="st1" d="M508.24,681.59c-0.06,2.99-0.04,5.97,0.06,8.96c0.15,4.3,6.36,4.3,6.22,0c-0.1-2.99-0.1-5.97-0.06-8.96
					C514.54,677.29,508.32,677.29,508.24,681.59L508.24,681.59z"/>
			</g>
		</g>
		<g>
			<g>
				<path class="st1" d="M522.75,681.59c-0.06,2.99-0.04,5.97,0.06,8.96c0.15,4.3,6.36,4.3,6.22,0c-0.1-2.99-0.1-5.97-0.06-8.96
					C529.05,677.29,522.83,677.29,522.75,681.59L522.75,681.59z"/>
			</g>
		</g>
		<g>
			<g>
				<path class="st1" d="M537.26,681.59c-0.06,2.99-0.04,5.97,0.06,8.96c0.15,4.3,6.36,4.3,6.22,0c-0.1-2.99-0.1-5.97-0.06-8.96
					C543.56,677.29,537.34,677.29,537.26,681.59L537.26,681.59z"/>
			</g>
		</g>
		<g>
			<g>
				<path class="st1" d="M551.77,681.59c-0.06,2.99-0.04,5.97,0.06,8.96c0.15,4.3,6.36,4.3,6.22,0c-0.1-2.99-0.1-5.97-0.06-8.96
					C558.07,677.29,551.86,677.29,551.77,681.59L551.77,681.59z"/>
			</g>
		</g>
		<g>
			<g>
				<path class="st1" d="M566.28,681.59c-0.06,2.99-0.04,5.97,0.06,8.96c0.15,4.3,6.36,4.3,6.22,0c-0.1-2.99-0.1-5.97-0.06-8.96
					C572.59,677.29,566.37,677.29,566.28,681.59L566.28,681.59z"/>
			</g>
		</g>
		<g>
			<g>
				<path class="st1" d="M580.8,681.59c-0.06,2.99-0.04,5.97,0.06,8.96c0.15,4.3,6.36,4.3,6.22,0c-0.1-2.99-0.1-5.97-0.06-8.96
					C587.1,677.29,580.88,677.29,580.8,681.59L580.8,681.59z"/>
			</g>
		</g>
		<g>
			<g>
				<path class="st1" d="M595.31,681.59c-0.06,2.99-0.04,5.97,0.06,8.96c0.15,4.3,6.36,4.3,6.22,0c-0.1-2.99-0.1-5.97-0.06-8.96
					C601.61,677.29,595.39,677.29,595.31,681.59L595.31,681.59z"/>
			</g>
		</g>
		<g>
			<g>
				<path class="st1" d="M609.82,681.59c-0.06,2.99-0.04,5.97,0.06,8.96c0.15,4.3,6.36,4.3,6.22,0c-0.1-2.99-0.1-5.97-0.06-8.96
					C616.12,677.29,609.9,677.29,609.82,681.59L609.82,681.59z"/>
			</g>
		</g>
		<g>
			<g>
				<path class="st1" d="M624.33,681.59c-0.06,2.99-0.04,5.97,0.06,8.96c0.15,4.3,6.36,4.3,6.22,0c-0.1-2.99-0.1-5.97-0.06-8.96
					C630.63,677.29,624.41,677.29,624.33,681.59L624.33,681.59z"/>
			</g>
		</g>
		<g>
			<g>
				<path class="st1" d="M638.84,681.59c-0.06,2.99-0.04,5.97,0.06,8.96c0.15,4.3,6.36,4.3,6.22,0c-0.1-2.99-0.1-5.97-0.06-8.96
					C645.15,677.29,638.93,677.29,638.84,681.59L638.84,681.59z"/>
			</g>
		</g>
		<g>
			<g>
				<path class="st1" d="M653.36,681.59c-0.06,2.99-0.04,5.97,0.06,8.96c0.15,4.3,6.36,4.3,6.22,0c-0.1-2.99-0.1-5.97-0.06-8.96
					C659.66,677.29,653.44,677.29,653.36,681.59L653.36,681.59z"/>
			</g>
		</g>
		<g>
			<g>
				<path class="st1" d="M665.79,681.59c-0.06,2.99-0.04,5.97,0.06,8.96c0.15,4.3,6.36,4.3,6.22,0c-0.1-2.99-0.1-5.97-0.06-8.96
					C672.1,677.29,665.88,677.29,665.79,681.59L665.79,681.59z"/>
			</g>
		</g>
		<g>
			<g>
				<path class="st1" d="M448.74,701.77c10.9,0,21.81,0,32.73,0c4,0,4-6.68,0-6.68c-10.9,0-21.81,0-32.73,0
					C444.74,695.09,444.74,701.77,448.74,701.77L448.74,701.77z"/>
			</g>
		</g>
	</g>
	<g>
		<g>
			<path class="st1" d="M1384.96,884.14c5.33,0,5.35-8.91,0-8.91C1379.61,875.23,1379.61,884.14,1384.96,884.14L1384.96,884.14z"/>
		</g>
	</g>
	<g>
		<g>
			<path class="st1" d="M1384.96,884.34c5.33,0,5.35-8.91,0-8.91C1379.61,875.43,1379.61,884.34,1384.96,884.34L1384.96,884.34z"/>
		</g>
	</g>
	<g>
		<g>
			<path class="st1" d="M1384.82,884.43c5.33,0,5.35-8.91,0-8.91C1379.49,875.52,1379.47,884.43,1384.82,884.43L1384.82,884.43z"/>
		</g>
	</g>
	<g>
		<g>
			<path class="st1" d="M1385.03,884.21c5.33,0,5.35-8.91,0-8.91C1379.68,875.3,1379.68,884.21,1385.03,884.21L1385.03,884.21z"/>
		</g>
	</g>
	<g>
		<g>
			<path class="st1" d="M1380.86,854.78c5.33,0,5.35-8.91,0-8.91S1375.51,854.78,1380.86,854.78L1380.86,854.78z"/>
		</g>
	</g>
	<g>
		<g>
			<path class="st1" d="M1380.86,854.78c5.33,0,5.35-8.91,0-8.91S1375.51,854.78,1380.86,854.78L1380.86,854.78z"/>
		</g>
	</g>
	<g>
		<g>
			<path class="st1" d="M1380.86,854.78c5.33,0,5.35-8.91,0-8.91S1375.51,854.78,1380.86,854.78L1380.86,854.78z"/>
		</g>
	</g>
	<g>
		<g>
			<path class="st1" d="M1380.86,854.78c5.33,0,5.35-8.91,0-8.91S1375.51,854.78,1380.86,854.78L1380.86,854.78z"/>
		</g>
	</g>
	<g>
		<g>
			<path class="st1" d="M1380.86,854.78c5.33,0,5.35-8.91,0-8.91S1375.51,854.78,1380.86,854.78L1380.86,854.78z"/>
		</g>
	</g>
	<g>
		<g>
			<path class="st1" d="M1380.78,854.78c5.33,0,5.35-8.91,0-8.91C1375.45,845.87,1375.45,854.78,1380.78,854.78L1380.78,854.78z"/>
		</g>
	</g>
	<g>
		<g>
			<path class="st1" d="M1380.78,854.78c5.33,0,5.35-8.91,0-8.91C1375.45,845.87,1375.45,854.78,1380.78,854.78L1380.78,854.78z"/>
		</g>
	</g>
	<g>
		<g>
			<path class="st1" d="M1380.78,854.78c5.33,0,5.35-8.91,0-8.91C1375.45,845.87,1375.45,854.78,1380.78,854.78L1380.78,854.78z"/>
		</g>
	</g>
	<g>
		<g>
			<path class="st1" d="M1380.71,854.71c5.33,0,5.35-8.91,0-8.91C1375.39,845.8,1375.36,854.71,1380.71,854.71L1380.71,854.71z"/>
		</g>
	</g>
	<g>
		<g>
			<path class="st1" d="M1380.71,854.71c5.33,0,5.35-8.91,0-8.91C1375.39,845.8,1375.36,854.71,1380.71,854.71L1380.71,854.71z"/>
		</g>
	</g>
	<g>
		<g>
			<path class="st1" d="M1380.71,854.71c5.33,0,5.35-8.91,0-8.91C1375.39,845.8,1375.36,854.71,1380.71,854.71L1380.71,854.71z"/>
		</g>
	</g>
	<g>
		<g>
			<path class="st1" d="M1380.78,854.71c5.33,0,5.35-8.91,0-8.91C1375.45,845.8,1375.45,854.71,1380.78,854.71L1380.78,854.71z"/>
		</g>
	</g>
	<g>
		<g>
			<path class="st1" d="M1380.78,854.71c5.33,0,5.35-8.91,0-8.91C1375.45,845.8,1375.45,854.71,1380.78,854.71L1380.78,854.71z"/>
		</g>
	</g>
	<g>
		<g>
			<path class="st1" d="M1388.16,833.35c-3.61,5.06-7.32,10.05-10.53,15.42c-2.9,4.83,4.27,9.31,7.15,4.5
				c3.21-5.37,6.92-10.36,10.53-15.42c1.37-1.92,0.27-4.97-1.49-6.1C1391.7,830.39,1389.5,831.46,1388.16,833.35L1388.16,833.35z"/>
		</g>
	</g>
	<g>
		<g>
			<path class="st1" d="M1365.89,835.8c2.28,3.45,4.5,6.97,6.61,10.56c1.82,3.1,3.28,6.51,6.26,8.47c4.56,2.99,8.75-4.72,4.19-7.69
				c-1.95-1.27-3.4-5.46-4.64-7.53c-1.7-2.81-3.46-5.57-5.27-8.31C1370,826.67,1362.8,831.1,1365.89,835.8L1365.89,835.8z"/>
		</g>
	</g>
	<g>
		<g>
			<path class="st1" d="M1562.47,855.2c5.33,0,5.35-8.91,0-8.91C1557.14,846.29,1557.12,855.2,1562.47,855.2L1562.47,855.2z"/>
		</g>
	</g>
	<g>
		<g>
			<path class="st1" d="M1562.67,855.2c5.33,0,5.35-8.91,0-8.91S1557.32,855.2,1562.67,855.2L1562.67,855.2z"/>
		</g>
	</g>
	<g>
		<g>
			<path class="st1" d="M1562.67,855.2c5.33,0,5.35-8.91,0-8.91S1557.32,855.2,1562.67,855.2L1562.67,855.2z"/>
		</g>
	</g>
	<g>
		<g>
			<path class="st1" d="M1562.67,855.2c5.33,0,5.35-8.91,0-8.91S1557.32,855.2,1562.67,855.2L1562.67,855.2z"/>
		</g>
	</g>
	<g>
		<g>
			<path class="st1" d="M1562.73,855.49c5.33,0,5.35-8.91,0-8.91C1557.41,846.58,1557.39,855.49,1562.73,855.49L1562.73,855.49z"/>
		</g>
	</g>
	<g>
		<g>
			<path class="st1" d="M1562.73,855.49c5.33,0,5.35-8.91,0-8.91C1557.41,846.58,1557.39,855.49,1562.73,855.49L1562.73,855.49z"/>
		</g>
	</g>
	<g>
		<g>
			<path class="st1" d="M1562.73,855.49c5.33,0,5.35-8.91,0-8.91C1557.41,846.58,1557.39,855.49,1562.73,855.49L1562.73,855.49z"/>
		</g>
	</g>
	<g>
		<g>
			<path class="st1" d="M1562.86,855.63c5.33,0,5.35-8.91,0-8.91C1557.53,846.72,1557.53,855.63,1562.86,855.63L1562.86,855.63z"/>
		</g>
	</g>
	<g>
		<g>
			<path class="st1" d="M1562.94,855.69c5.33,0,5.35-8.91,0-8.91S1557.59,855.69,1562.94,855.69L1562.94,855.69z"/>
		</g>
	</g>
	<g>
		<g>
			<path class="st1" d="M1558.67,848.61c-1.7,2.45-4.06,4.5-6.01,6.71c-2.07,2.32-4.1,4.68-6.12,7.04
				c-3.57,4.23,2.28,10.56,5.87,6.3c4.37-5.21,9.52-9.96,13.43-15.55c1.35-1.94,0.27-4.97-1.49-6.1
				C1562.26,845.65,1560.02,846.69,1558.67,848.61L1558.67,848.61z"/>
		</g>
	</g>
	<g>
		<g>
			<path class="st1" d="M1559.19,852.78c2.45,6.26,6.68,11.38,10.47,16.73c1.37,1.94,3.57,2.9,5.68,1.6
				c1.76-1.07,2.84-4.19,1.49-6.1c-3.23-4.57-7.55-9.27-9.64-14.61c-0.87-2.23-2.74-3.79-5.1-3.12
				C1560.14,847.85,1558.32,850.57,1559.19,852.78L1559.19,852.78z"/>
		</g>
	</g>
	<g>
		<g>
			<path class="st1" d="M1556.22,818.53c5.33,0,5.35-8.91,0-8.91C1550.9,809.62,1550.88,818.53,1556.22,818.53L1556.22,818.53z"/>
		</g>
	</g>
	<g>
		<g>
			<path class="st1" d="M1556.14,818.62c5.33,0,5.35-8.91,0-8.91C1550.81,809.71,1550.79,818.62,1556.14,818.62L1556.14,818.62z"/>
		</g>
	</g>
	<g>
		<g>
			<path class="st1" d="M1556.14,818.62c5.33,0,5.35-8.91,0-8.91C1550.81,809.71,1550.79,818.62,1556.14,818.62L1556.14,818.62z"/>
		</g>
	</g>
	<g>
		<g>
			<path class="st1" d="M1426.26,865.7c0.27,0.47,0.33,0.53,0.17,0.22c0.08,0.31,0.17,0.62,0.23,0.96c0.17,0.74,0.33,1.47,0.54,2.21
				c0.44,1.56,0.95,3.1,1.53,4.59c0.85,2.23,2.76,3.81,5.1,3.12c1.95-0.58,3.75-3.25,2.9-5.48c-0.66-1.72-1.24-3.45-1.7-5.24
				c-0.44-1.67-0.68-3.43-1.62-4.88c-1.26-1.98-3.65-2.87-5.68-1.6C1425.91,860.75,1425,863.69,1426.26,865.7L1426.26,865.7z"/>
		</g>
	</g>
	<g>
		<g>
			<path class="st1" d="M1431.13,869.17c-5.45,4.12-11.57,10.27-14.68,16.8c-3.15,6.62,2.78,14.86,7.28,19.07
				c4.17,3.9,10.72,6.75,16.05,3.79c2.82-1.58,5.14-5.19,7.34-7.57c4.02-4.34,3.55-5.21,9.27-2.16c4.77,2.54,8.98-5.15,4.19-7.69
				c-3.23-1.74-7.48-5.26-11.32-4.57c-3.92,0.71-6.32,6.22-8.85,8.93c-1.14,1.23-3.65,4.92-5.24,5.35
				c-3.52,0.96-8.65-4.75-9.64-7.73c-2.14-6.39,5.27-13.1,9.79-16.51C1439.65,873.58,1435.51,865.85,1431.13,869.17L1431.13,869.17z
				"/>
		</g>
	</g>
	<g>
		<g>
			<path class="st1" d="M1454.79,895.77c-0.56,6.97-2.78,18.13,1.74,24.28c4.08,5.57,12.04,4.83,17.91,4.79
				c5.54-0.07,10.14-0.45,12.19-6.62c2.18-6.53,2.18-18.27,0.21-24.75c-0.64,1.67-1.26,3.36-1.91,5.03c2.55-1.6,5-3.25,7.44-5.01
				c-1.68-0.22-3.36-0.47-5.02-0.69c5.08,5.95,10.95,13.88,18.31,16.55c7.21,2.61,10.37-2.41,14.7-8.24
				c3.3-4.43,7.9-9.49,5.72-15.51c-2.28-6.3-10.7-10.6-14.76-15.51c-3.57-4.28-9.41,2.03-5.87,6.3c2.28,2.74,4.62,5.15,7.26,7.49
				c3.69,3.3,4.91,2.9,4.37,7.17c-1.47,2.36-3.09,4.61-4.85,6.73c-2.24,4.75-5.41,4.41-9.52-1c-3.52-2.76-6.55-6.86-9.47-10.29
				c-1.18-1.38-3.57-1.76-5.02-0.69c-2.45,1.76-4.89,3.43-7.44,5.01c-1.51,0.96-2.47,3.16-1.91,5.03c1.06,3.48,0.52,7.17,0.39,10.72
				c-0.21,6.06,0.37,8.4-6.34,9.36c-1.53-0.02-3.07-0.04-4.6-0.04c-4.35,0.38-6.26-1.2-5.74-4.77c-1.41-4.14,0.17-11.03,0.52-15.31
				C1463.54,890.05,1455.24,890.09,1454.79,895.77L1454.79,895.77z"/>
		</g>
	</g>
	<g>
		<g>
			<path class="st1" d="M1513.29,873.14c0.12-2.94,0.75-5.7,1.68-8.47c0.79-2.25-0.87-4.88-2.9-5.48c-2.32-0.69-4.31,0.85-5.1,3.12
				c-1.2,3.48-1.82,7.13-1.99,10.83c-0.1,2.41,1.99,4.46,4.15,4.46C1511.49,877.59,1513.19,875.54,1513.29,873.14L1513.29,873.14z"
				/>
		</g>
	</g>
	<g>
		<g>
			<path class="st1" d="M1511.32,867.86c4.64-0.6,9.29-0.94,13.97-0.94c2.72,0,5.49,0.33,8.02-0.96c5.35-2.78,5.47-10.14,5.45-15.64
				c-0.02-5.3,0.1-13.52-5.1-16.44c-3.13-1.76-7.67-0.87-11.09-0.87c-1.95,0-5.2,0.76-6.92,0.02c-2.16-0.91-2.67-2.38-3.9-4.52
				c-2.8-4.88-9.97-0.4-7.15,4.5c2.09,3.65,3.48,7.8,7.63,8.78c2.51,0.6,5.47,0.16,8.02,0.13c1.45,0,8.29-1,9.23-0.02
				c1.95,2.01,1.87,14.53-0.48,16.2c-1.37,0.98-6.68-0.04-8.42,0.02c-3.11,0.13-6.22,0.45-9.31,0.85
				C1506.1,859.62,1506.03,868.53,1511.32,867.86L1511.32,867.86z"/>
		</g>
	</g>
	<g>
		<g>
			<path class="st1" d="M1510.62,832.81c4.5-6.24,10.82-13.06,13.25-20.59c2.32-7.24-1.62-13.37-6.68-17.76
				c-4.5-3.9-10.1-7.44-15.82-4.39c-2.53,1.34-4.31,3.88-6.01,6.22c-1.49,2.07-4.19,8.35-6.24,9.42c1.39,0,2.8,0,4.19,0
				c-3.19-1.63-5.89-3.41-9.31-4.39c-5.16-1.47-7.36,7.13-2.2,8.6c3.65,1.05,7.13,4.92,11.03,3.72c3.44-1.07,4.79-5.35,6.57-8.22
				c1.08-1.72,3.07-5.75,4.87-6.71c2.9-1.54,7.55,1.65,9.33,4.08c5.68,7.71-4.85,18.16-8.83,23.7
				C1501.52,830.99,1507.34,837.36,1510.62,832.81L1510.62,832.81z"/>
		</g>
	</g>
	<g>
		<g>
			<path class="st1" d="M1486.26,805.41c0.48-7.15-1.02-15.73-2.63-22.64c-1.51-6.51-7.26-7.13-12.77-7.31
				c-5.08-0.16-13.5-0.02-15.47,6.22c-1.02,3.19-0.89,7.06-1.18,10.36c-0.41,4.54-0.75,9.11-0.99,13.68c-0.33,5.73,7.96,5.7,8.29,0
				c0.27-4.57,0.58-9.11,1-13.68c0.19-2.07-0.23-5.81,1.64-7.08c1.49-1,5-0.65,6.72-0.58c1.33,0.04,4.29,0.11,4.77,0.76
				c0.85,1.14,0.77,5.01,0.99,6.51c0.68,4.57,1.66,9.11,1.35,13.77C1477.57,811.14,1485.86,811.11,1486.26,805.41L1486.26,805.41z"
				/>
		</g>
	</g>
	<g>
		<g>
			<path class="st1" d="M1455.82,802.94c-1,0.38-3.67,1.92-4.83,1.85c-0.93-0.07-1.37-0.94-2.63-2.54c-2.53-3.21-6.41-6.19-9.6-8.64
				c-5.08-3.88-10.26-4.1-14.74,0.85c-3.75,4.14-9.66,11.25-8.85,17.56c0.95,7.46,9.95,12.39,13.77,18.11
				c3.07,4.63,10.26,0.18,7.15-4.5c-2.96-4.46-7.03-7.55-10.18-11.72c-2.49-3.3-2.26-4.3,0.02-7.62c0.77-1.09,1.55-2.21,2.32-3.3
				c3.42-2.78,6.22-2.72,8.4,0.16c4.13,2.43,6.88,8.47,11.28,10.29c3.42,1.43,6.84-0.69,10.1-1.94
				C1463.02,809.64,1460.86,801.02,1455.82,802.94L1455.82,802.94z"/>
		</g>
	</g>
	<g>
		<g>
			<path class="st1" d="M1430.84,825.93c-1.14,1.36-2.22,2.67-3.01,4.3c-0.41,1-0.79,2.03-1.12,3.05c1.41-0.18,1.37-0.27-0.17-0.25
				c-4.17,1.05-9.79-0.02-14.16,0.56c-7.63,1-9.47,3.7-9.89,11.76c-0.35,7.08-1.18,15.71,4.75,20.61
				c6.12,5.03,16.44,2.99,23.36,1.74c5.24-0.94,3.03-9.54-2.2-8.6c-5.22,0.94-17.29,3.21-17.91-5.44c-0.19-2.7,0.68-5.68,0.27-8.31
				c0.68-1.47,0.41-2.29-0.81-2.45c1.58-0.31,3.17-0.53,4.77-0.67c4.64-0.49,10.55,0.96,14.95-0.4c4.6-1.43,4.17-6.19,7.01-9.6
				C1440.27,827.98,1434.43,821.65,1430.84,825.93L1430.84,825.93z"/>
		</g>
	</g>
	<g>
		<g>
			<path class="st1" d="M1407.71,845.74c5.33,0,5.35-8.91,0-8.91C1402.38,836.82,1402.38,845.74,1407.71,845.74L1407.71,845.74z"/>
		</g>
	</g>
	<path class="st5" d="M559.32,309.4"/>
	<g>
		<g>
			<path class="st1" d="M560.4,313.77c7.21,3.43,13.29,8.82,20.4,12.36c3.61,1.8,6.78-3.97,3.13-5.77
				c-7.11-3.54-13.19-8.96-20.4-12.36C559.92,306.26,556.75,312.03,560.4,313.77L560.4,313.77z"/>
		</g>
	</g>
	<g>
		<g>
			<path class="st1" d="M559.05,313.57c8.87,5.68,17.73,11.38,26.58,17.11c4.58,2.96,8.75-4.72,4.19-7.69
				c-8.85-5.73-17.7-11.43-26.58-17.11C558.63,302.94,554.45,310.63,559.05,313.57L559.05,313.57z"/>
		</g>
	</g>
	<g>
		<g>
			<path class="st1" d="M590.04,330.66c9.35-4.48,18.12-10.87,26.81-16.64c4.54-3.01,0.37-10.72-4.19-7.69
				c-8.69,5.77-17.48,12.16-26.81,16.64C580.98,325.31,585.21,332.97,590.04,330.66L590.04,330.66z"/>
		</g>
	</g>
	<g>
		<g>
			<path class="st1" d="M583.2,326.62c0.52,11.12,0.73,22.23,0.62,33.37c-0.06,5.73,8.23,5.75,8.29,0
				c0.1-11.14-0.1-22.26-0.62-33.37C591.22,320.9,582.93,320.88,583.2,326.62L583.2,326.62z"/>
		</g>
	</g>
	<g>
		<g>
			<path class="st1" d="M555.77,310.29c1.12,11.41,0.54,23.17,0.27,34.62c-0.12,5.73,8.17,5.73,8.29,0
				c0.27-11.45,0.85-23.21-0.27-34.62C563.51,304.64,555.21,304.57,555.77,310.29L555.77,310.29z"/>
		</g>
	</g>
	<g>
		<g>
			<path class="st1" d="M558.55,348.32c8.85,6.26,17.54,13.41,27.68,17.04c5.08,1.83,7.26-6.79,2.2-8.6
				c-9.33-3.34-17.56-10.38-25.71-16.13C558.26,337.47,554.09,345.18,558.55,348.32L558.55,348.32z"/>
		</g>
	</g>
	<g>
		<g>
			<path class="st1" d="M589.83,365.14c9.47-6.28,19.18-12.14,29.09-17.56c4.75-2.61,0.56-10.29-4.19-7.69
				c-9.93,5.44-19.61,11.27-29.09,17.56C581.11,360.47,585.27,368.17,589.83,365.14L589.83,365.14z"/>
		</g>
	</g>
	<g>
		<g>
			<path class="st1" d="M617.05,347.94c5.33,0,5.35-8.91,0-8.91C611.73,339.03,611.71,347.94,617.05,347.94L617.05,347.94z"/>
		</g>
	</g>
	<g>
		<g>
			<path class="st1" d="M611.66,310.09c0.12,11.14,0.33,22.23,1.47,33.31c0.58,5.64,8.89,5.7,8.29,0
				c-1.16-11.07-1.35-22.19-1.47-33.31C619.9,304.37,611.6,304.35,611.66,310.09L611.66,310.09z"/>
		</g>
	</g>
	<g>
		<g>
			<path class="st1" d="M561.5,313.28c10.01-4.08,18.53-11.74,27.95-17.09c4.73-2.67,0.54-10.38-4.19-7.69
				c-8.71,4.95-16.73,12.43-25.96,16.2C554.36,306.71,556.5,315.33,561.5,313.28L561.5,313.28z"/>
		</g>
	</g>
	<g>
		<g>
			<path class="st1" d="M586.93,296.99c4.48,1.89,8.44,5.15,12.75,7.42c3.67,1.94,9.91,3.92,12.42,7.57
				c3.13,4.57,10.34,0.11,7.15-4.5c-3.34-4.83-8.85-7.37-13.77-9.91c-5.56-2.87-10.64-6.73-16.38-9.16
				C584.15,286.3,582,294.92,586.93,296.99L586.93,296.99z"/>
		</g>
	</g>
	<polyline class="st3" points="695.11,682.57 695.11,724.67 695.11,845.2 	"/>
	<line class="st3" x1="501.27" y1="726.01" x2="694.07" y2="726.01"/>
	<line class="st3" x1="501.77" y1="908.69" x2="501.77" y2="732.69"/>
	<line class="st3" x1="509.56" y1="908.69" x2="710.66" y2="908.69"/>
	<line class="st3" x1="735.53" y1="712.64" x2="735.53" y2="879.73"/>
	<g>
		<g>
			<path class="st1" d="M501.66,730.56c5.33,0,5.35-8.91,0-8.91C496.34,721.64,496.32,730.56,501.66,730.56L501.66,730.56z"/>
		</g>
	</g>
	<g>
		<g>
			<path class="st1" d="M501.54,732.4c5.33,0,5.35-8.91,0-8.91C496.19,723.49,496.19,732.4,501.54,732.4L501.54,732.4z"/>
		</g>
	</g>
	<g>
		<g>
			<path class="st1" d="M501.27,730.98c5.33,0,5.35-8.91,0-8.91C495.94,722.07,495.92,730.98,501.27,730.98L501.27,730.98z"/>
		</g>
	</g>
	<g>
		<g>
			<path class="st1" d="M501.15,736.1c5.33,0,5.35-8.91,0-8.91C495.8,727.19,495.8,736.1,501.15,736.1L501.15,736.1z"/>
		</g>
	</g>
	<g>
		<g>
			<path class="st1" d="M501.15,736.1c5.33,0,5.35-8.91,0-8.91C495.8,727.19,495.8,736.1,501.15,736.1L501.15,736.1z"/>
		</g>
	</g>
	<g>
		<g>
			<path class="st1" d="M497,730.8c0,0.25,0,0.47,0,0.71c0,2.34,1.91,4.57,4.15,4.46c2.24-0.11,4.15-1.96,4.15-4.46
				c0-0.25,0-0.47,0-0.71c0-2.34-1.91-4.57-4.15-4.46C498.89,726.46,497,728.31,497,730.8L497,730.8z"/>
		</g>
	</g>
	<g>
		<g>
			<path class="st1" d="M497.12,731.51c0,0.67,0,1.34,0,1.98c0,2.34,1.91,4.57,4.15,4.46c2.24-0.11,4.15-1.96,4.15-4.46
				c0-0.67,0-1.34,0-1.98c0-2.34-1.91-4.57-4.15-4.46C499.03,727.17,497.12,729.02,497.12,731.51L497.12,731.51z"/>
		</g>
	</g>
	<g>
		<g>
			<path class="st1" d="M501.15,735.39c5.33,0,5.35-8.91,0-8.91C495.8,726.48,495.8,735.39,501.15,735.39L501.15,735.39z"/>
		</g>
	</g>
	<g>
		<g>
			<path class="st1" d="M500.88,732.83c5.33,0,5.35-8.91,0-8.91C495.53,723.92,495.53,732.83,500.88,732.83L500.88,732.83z"/>
		</g>
	</g>
	<g>
		<g>
			<path class="st1" d="M501,731.56c5.33,0,5.35-8.91,0-8.91C495.67,722.65,495.65,731.56,501,731.56L501,731.56z"/>
		</g>
	</g>
	<g>
		<g>
			<path class="st1" d="M501.15,731.27c5.33,0,5.35-8.91,0-8.91C495.8,722.36,495.8,731.27,501.15,731.27L501.15,731.27z"/>
		</g>
	</g>
	<g>
		<g>
			<path class="st1" d="M501.15,734.54c5.33,0,5.35-8.91,0-8.91C495.8,725.63,495.8,734.54,501.15,734.54L501.15,734.54z"/>
		</g>
	</g>
	<g>
		<g>
			<path class="st1" d="M501.66,914c5.33,0,5.35-8.91,0-8.91C496.34,905.09,496.32,914,501.66,914L501.66,914z"/>
		</g>
	</g>
	<g>
		<g>
			<path class="st1" d="M510.39,904.22c-2.38,0.09-4.77,0.2-7.15,0.29c-2.24,0.09-4.15,1.98-4.15,4.46c0,2.34,1.91,4.54,4.15,4.46
				c2.38-0.09,4.77-0.2,7.15-0.29c2.24-0.09,4.15-1.98,4.15-4.46C514.54,906.33,512.65,904.13,510.39,904.22L510.39,904.22z"/>
		</g>
	</g>
	<g>
		<g>
			<path class="st1" d="M502.87,913.44c5.33,0,5.35-8.91,0-8.91C497.52,904.53,497.52,913.44,502.87,913.44L502.87,913.44z"/>
		</g>
	</g>
	<g>
		<g>
			<path class="st1" d="M503.12,913.73c5.33,0,5.35-8.91,0-8.91C497.79,904.82,497.79,913.73,503.12,913.73L503.12,913.73z"/>
		</g>
	</g>
	<g>
		<g>
			<path class="st1" d="M503.12,913.73c0.04,0,0.08,0,0.12,0c2.18,0,4.25-2.05,4.15-4.46c-0.1-2.41-1.82-4.46-4.15-4.46
				c-0.04,0-0.08,0-0.12,0c-2.18,0-4.25,2.05-4.15,4.46C499.07,911.68,500.79,913.73,503.12,913.73L503.12,913.73z"/>
		</g>
	</g>
	<g>
		<g>
			<path class="st1" d="M505.77,913.15c0.08,0,0.19,0,0.27,0c2.18,0,4.25-2.05,4.15-4.46s-1.82-4.46-4.15-4.46
				c-0.08,0-0.19,0-0.27,0c-2.18,0-4.25,2.05-4.15,4.46S503.45,913.15,505.77,913.15L505.77,913.15z"/>
		</g>
	</g>
	<g>
		<g>
			<path class="st1" d="M694.88,850.77c15.63-0.29,28.42,3.39,34.29,20.47c6.43,18.71-5.51,33.95-23.45,32.68
				c-5.33-0.38-5.31,8.53,0,8.91c19.45,1.38,37.42-15.13,33.29-37.03c-1.95-10.36-7.11-21.14-15.26-27.34
				c-8.54-6.48-18.76-6.77-28.88-6.59C689.55,841.97,689.53,850.88,694.88,850.77L694.88,850.77z"/>
		</g>
	</g>
	<g>
		<g>
			<path class="st1" d="M694.88,686.07c7.88,0.04,16.54-0.94,23.57,3.59c8,5.15,13.85,15.15,13.21,25.22c-0.35,5.73,7.94,5.7,8.29,0
				c0.75-11.94-5.35-23.19-13.99-30.43c-9.25-7.75-19.94-7.24-31.1-7.29C689.53,677.13,689.53,686.04,694.88,686.07L694.88,686.07z"
				/>
		</g>
	</g>
	<g>
		<g>
			<path class="st1" d="M731.62,711.17c0,0.38,0,0.76,0,1.14c0,2.34,1.91,4.57,4.15,4.46c2.24-0.11,4.15-1.96,4.15-4.46
				c0-0.38,0-0.76,0-1.14c0-2.34-1.91-4.57-4.15-4.46C733.5,706.83,731.62,708.68,731.62,711.17L731.62,711.17z"/>
		</g>
	</g>
	<g>
		<g>
			<path class="st1" d="M731.47,712.31c0,0.04,0,0.09,0,0.13c0,2.34,1.91,4.57,4.15,4.46c2.24-0.11,4.15-1.96,4.15-4.46
				c0-0.04,0-0.09,0-0.13c0-2.34-1.91-4.57-4.15-4.46C733.38,707.97,731.47,709.81,731.47,712.31L731.47,712.31z"/>
		</g>
	</g>
	<g>
		<g>
			<path class="st1" d="M739.76,712.31c0-0.71,0-1.43,0-2.14c0-2.34-1.91-4.57-4.15-4.46c-2.24,0.11-4.15,1.96-4.15,4.46
				c0,0.71,0,1.43,0,2.14c0,2.34,1.91,4.57,4.15,4.46C737.88,716.65,739.76,714.8,739.76,712.31L739.76,712.31z"/>
		</g>
	</g>
	<g>
		<g>
			<path class="st1" d="M731.49,709.03c-0.06,1.18-0.02,2.36,0.1,3.56c0.25,2.32,1.72,4.57,4.15,4.46c2.03-0.09,4.42-1.98,4.15-4.46
				c-0.12-1.18-0.17-2.36-0.1-3.56c0.1-2.34-1.99-4.57-4.15-4.46C733.3,704.69,731.6,706.54,731.49,709.03L731.49,709.03z"/>
		</g>
	</g>
	<g>
		<g>
			<path class="st1" d="M731.62,709.48c-0.04,0.47-0.1,0.96-0.15,1.43c-0.23,2.32,2.07,4.54,4.15,4.46c2.45-0.11,3.9-1.96,4.15-4.46
				c0.04-0.47,0.1-0.96,0.15-1.43c0.25-2.32-2.07-4.54-4.15-4.46C733.32,705.14,731.89,706.99,731.62,709.48L731.62,709.48z"/>
		</g>
	</g>
	<path class="st3" d="M1429.02,479.83h12.42c2.28,0,4.15,2.01,4.15,4.46v155.95c0,2.45-1.87,4.46-4.15,4.46h-109.88
		c-2.28,0-4.15-2.01-4.15-4.46V484.29c0-2.45,1.87-4.46,4.15-4.46h10.66"/>
	<path class="st3" d="M1427.96,465.35h31.1c3.42,0,6.22,3.01,6.22,6.68v184.91c0,3.68-2.8,6.68-6.22,6.68h-145.12
		c-3.42,0-6.22-3.01-6.22-6.68V472.04c0-3.68,2.8-6.68,6.22-6.68h29.85"/>
	<g>
		<g>
			<path class="st1" d="M1347.44,484.45c1.1-4.92-0.89-10.69,1.06-15.24c2.24-5.26,7.73-5.53,12.42-5.28c5.33,0.29,5.33-8.62,0-8.91
				c-6.49-0.36-13.16,0.8-17.56,6.44c-1.8,2.32-3.07,5.03-3.57,8.02c-0.73,4.21,0.6,8.44-0.33,12.59
				C1338.19,487.63,1346.2,490.01,1347.44,484.45L1347.44,484.45z"/>
		</g>
	</g>
	<line class="st3" x1="1343.67" y1="483.71" x2="1428.58" y2="483.71"/>
	<g>
		<g>
			<path class="st1" d="M1429.39,488.08c1.1-0.38,2.09-1,2.67-2.14c0.62-1.2,0.5-2.52,0.31-3.81c-0.29-1.78-2.32-2.78-3.84-2.34
				c-1.76,0.51-2.45,2.32-2.18,4.12c-0.39-0.85,0.06-1.6,1.37-2.27c-1.6,0.56-2.63,2.32-2.18,4.12
				C1425.99,487.43,1427.77,488.63,1429.39,488.08L1429.39,488.08z"/>
		</g>
	</g>
	<g>
		<g>
			<path class="st1" d="M1344.64,481.64c0.23,0.25,0.46,0.47,0.68,0.69c-0.1-0.2-0.19-0.38-0.27-0.58c0.15,0.56,0.29,1.11,0.41,1.69
				c-0.02-0.11-0.02-0.25-0.04-0.36c-0.21-1.74-1.29-3.43-3.11-3.34c-1.51,0.07-3.34,1.49-3.11,3.34c0.27,2.25,1.45,4.63,3.75,5.01
				c1.6,0.27,3.42-0.45,3.84-2.34C1347.17,484.13,1346.36,481.93,1344.64,481.64L1344.64,481.64z"/>
		</g>
	</g>
	<line class="st3" x1="1360.58" y1="459.78" x2="1416.56" y2="459.78"/>
	<g>
		<g>
			<path class="st1" d="M1414.98,463.99c1.78,0.33,4.13,0.47,5.76,1.29c1.85,0.96,2.8,3.1,3.46,5.08c1.33,3.94,0.6,8.18,1.35,12.23
				c1.02,5.61,9.02,3.25,8-2.36c-0.54-2.96-0.08-6.02-0.58-9c-0.48-2.78-1.41-5.48-2.74-7.93c-3.07-5.64-7.32-6.82-13.06-7.91
				C1411.96,454.39,1409.72,462.99,1414.98,463.99L1414.98,463.99z"/>
		</g>
	</g>
	<g>
		<g>
			<path class="st1" d="M1361.37,457.55c-3.73,0-7.44,0-11.17,0c-4,0-4,6.68,0,6.68c3.73,0,7.44,0,11.17,0
				C1365.37,464.24,1365.37,457.55,1361.37,457.55L1361.37,457.55z"/>
		</g>
	</g>
	<g>
		<g>
			<path class="st1" d="M1359.38,461.63c5.08,0.13,10.16,0.27,15.24,0.4c-0.27-2.18-0.56-4.37-0.83-6.57c-0.5,0.11-1,0.22-1.49,0.33
				c-3.92,0.87-2.26,7.31,1.66,6.44c0.5-0.11,1-0.22,1.49-0.33c3.52-0.78,2.59-6.48-0.83-6.57c-5.08-0.13-10.16-0.27-15.24-0.4
				C1355.38,454.86,1355.38,461.54,1359.38,461.63L1359.38,461.63z"/>
		</g>
	</g>
	<g>
		<g>
			<path class="st1" d="M1365.14,458.25c2.07-10.36,12.15-10.78,20.28-10.85c9.7-0.09,18.39-2.05,21.29,11.58
				c1.18,5.59,9.18,3.23,8-2.36c-3.69-17.35-14.82-18.25-29.29-18.13c-12.79,0.11-25.11,1.54-28.28,17.4
				C1356.02,461.45,1364.02,463.86,1365.14,458.25L1365.14,458.25z"/>
		</g>
	</g>
	<g>
		<path class="st3" d="M1573.6,475.38c0,16.2-11.09,29.61-25.56,31.95c-1.47,0.25-2.96,0.36-4.5,0.36
			c-16.61,0-30.06-14.46-30.06-32.3c0-17.85,13.45-32.3,30.06-32.3S1573.6,457.53,1573.6,475.38z"/>
	</g>
	<g>
		<path class="st4" d="M1553.9,474.26c0,5.59-3.84,10.2-8.81,11.01c-0.5,0.09-1.02,0.13-1.55,0.13c-5.72,0-10.37-4.99-10.37-11.14
			s4.64-11.14,10.37-11.14C1549.26,463.12,1553.9,468.11,1553.9,474.26z"/>
	</g>
	<g>
		<path class="st3" d="M1585,581.2c0,5.59-3.84,10.2-8.81,11.01c-0.5,0.09-1.02,0.13-1.55,0.13c-5.72,0-10.37-4.99-10.37-11.14
			c0-6.15,4.64-11.14,10.37-11.14C1580.36,570.06,1585,575.05,1585,581.2z"/>
	</g>
	<g>
		<path class="st3" d="M1585,616.85c0,5.59-3.84,10.2-8.81,11.01c-0.5,0.09-1.02,0.13-1.55,0.13c-5.72,0-10.37-4.99-10.37-11.14
			c0-6.15,4.64-11.14,10.37-11.14C1580.36,605.71,1585,610.7,1585,616.85z"/>
	</g>
	<g>
		<path class="st3" d="M1585,652.49c0,5.59-3.84,10.2-8.81,11.01c-0.5,0.09-1.02,0.13-1.55,0.13c-5.72,0-10.37-4.99-10.37-11.14
			c0-6.15,4.64-11.14,10.37-11.14C1580.36,641.35,1585,646.34,1585,652.49z"/>
	</g>
	<path class="st5" d="M1409.3,369.55v-62.07c0-2.63,1.74-4.77,3.86-4.77h19.26c2.11,0,3.86,2.14,3.86,4.77v62.07"/>
	<path class="st5" d="M1450.76,369.55v-80.67c0-3.41,1.74-6.22,3.86-6.22h19.26c2.11,0,3.86,2.78,3.86,6.22v80.67"/>
	<path class="st5" d="M1494.3,369.55v-99.3c0-4.21,1.74-7.64,3.86-7.64h19.26c2.11,0,3.86,3.43,3.86,7.64v99.3"/>
	<path class="st5" d="M1137.72,59.88"/>
	<g>
		<g>
			<path class="st1" d="M1138.8,64.25c7.21,3.43,13.29,8.82,20.4,12.36c3.61,1.8,6.78-3.97,3.13-5.77
				c-7.11-3.54-13.19-8.96-20.4-12.36C1138.32,56.74,1135.15,62.51,1138.8,64.25L1138.8,64.25z"/>
		</g>
	</g>
	<g>
		<g>
			<path class="st1" d="M1137.45,64.05c8.87,5.68,17.73,11.38,26.58,17.11c4.58,2.96,8.75-4.72,4.19-7.69
				c-8.85-5.73-17.7-11.43-26.58-17.11C1137.04,53.42,1132.85,61.11,1137.45,64.05L1137.45,64.05z"/>
		</g>
	</g>
	<g>
		<g>
			<path class="st1" d="M1168.45,81.14c9.35-4.48,18.12-10.87,26.81-16.64c4.54-3.01,0.37-10.72-4.19-7.69
				c-8.69,5.77-17.48,12.16-26.81,16.64C1159.39,75.79,1163.62,83.45,1168.45,81.14L1168.45,81.14z"/>
		</g>
	</g>
	<g>
		<g>
			<path class="st1" d="M1161.6,77.1c0.52,11.12,0.73,22.23,0.62,33.37c-0.06,5.73,8.23,5.75,8.29,0c0.1-11.14-0.1-22.26-0.62-33.37
				C1169.63,71.38,1161.33,71.36,1161.6,77.1L1161.6,77.1z"/>
		</g>
	</g>
	<g>
		<g>
			<path class="st1" d="M1134.18,60.77c1.12,11.41,0.54,23.17,0.27,34.62c-0.12,5.73,8.17,5.73,8.29,0
				c0.27-11.45,0.85-23.21-0.27-34.62C1141.91,55.12,1133.62,55.05,1134.18,60.77L1134.18,60.77z"/>
		</g>
	</g>
	<g>
		<g>
			<path class="st1" d="M1136.95,98.8c8.85,6.26,17.54,13.41,27.68,17.04c5.08,1.83,7.26-6.79,2.2-8.6
				c-9.33-3.34-17.56-10.38-25.71-16.13C1136.66,87.95,1132.5,95.66,1136.95,98.8L1136.95,98.8z"/>
		</g>
	</g>
	<g>
		<g>
			<path class="st1" d="M1168.24,115.62c9.47-6.28,19.18-12.14,29.09-17.56c4.75-2.61,0.56-10.29-4.19-7.69
				c-9.93,5.44-19.61,11.27-29.09,17.56C1159.51,110.95,1163.68,118.65,1168.24,115.62L1168.24,115.62z"/>
		</g>
	</g>
	<g>
		<g>
			<path class="st1" d="M1195.46,98.43c5.33,0,5.35-8.91,0-8.91C1190.13,89.51,1190.11,98.43,1195.46,98.43L1195.46,98.43z"/>
		</g>
	</g>
	<g>
		<g>
			<path class="st1" d="M1190.07,60.57c0.12,11.14,0.33,22.23,1.47,33.31c0.58,5.64,8.89,5.7,8.29,0
				c-1.16-11.07-1.35-22.19-1.47-33.31C1198.3,54.85,1190.01,54.83,1190.07,60.57L1190.07,60.57z"/>
		</g>
	</g>
	<g>
		<g>
			<path class="st1" d="M1139.9,63.76c10.01-4.08,18.53-11.74,27.95-17.09c4.73-2.67,0.54-10.38-4.19-7.69
				c-8.71,4.95-16.73,12.43-25.96,16.2C1132.77,57.19,1134.9,65.81,1139.9,63.76L1139.9,63.76z"/>
		</g>
	</g>
	<g>
		<g>
			<path class="st1" d="M1165.34,47.47c4.48,1.89,8.44,5.15,12.75,7.42c3.67,1.94,9.91,3.92,12.42,7.57
				c3.13,4.57,10.34,0.11,7.15-4.5c-3.34-4.83-8.85-7.37-13.77-9.91c-5.56-2.87-10.64-6.73-16.38-9.16
				C1162.56,36.78,1160.4,45.4,1165.34,47.47L1165.34,47.47z"/>
		</g>
	</g>
	<path class="st5" d="M1234.77,400.74h-30.7c-3.42,0-6.22-3.01-6.22-6.68V309.4c0-3.68,2.8-6.68,6.22-6.68h105.73
		c3.42,0,6.22,3.01,6.22,6.68v84.66c0,3.68-2.8,6.68-6.22,6.68h-42.21"/>
	<path class="st5" d="M1318.4,287.12h-27.26c-3.42,0-6.22-3.01-6.22-6.68V229.2c0-3.68,2.8-6.68,6.22-6.68h68.41
		c3.42,0,6.22,3.01,6.22,6.68v51.24c0,3.68-2.8,6.68-6.22,6.68h-19.45"/>
	<g>
		<g>
			<path class="st1" d="M1315.16,290.91c4.29,3.88,7.9,8.51,12.19,12.39c3.88,3.5,6.53,8.11,10.72,11.25
				c4.37,3.3,8.52-4.41,4.19-7.69c-3.79-2.87-6.39-7.46-9.97-10.69c-3.98-3.61-7.28-7.98-11.26-11.56
				C1316.96,280.95,1311.06,287.21,1315.16,290.91L1315.16,290.91z"/>
		</g>
	</g>
	<g>
		<g>
			<path class="st1" d="M1336.27,287.12c-0.66,7.69-0.79,15.35-0.33,23.06c0.33,5.7,8.62,5.73,8.29,0
				c-0.46-7.71-0.33-15.37,0.33-23.06C1345.06,281.4,1336.76,281.44,1336.27,287.12L1336.27,287.12z"/>
		</g>
	</g>
</g>
<g>
	<path class="st8" d="M1050.13,410.15c4.83,0.27,10.37-0.8,14.72-3.19c1.41-0.76,3.44-1.78,4.42-3.12
		c5.18-7.13-3.19-12.83-8.31-12.14c0,0,0,0,0,0.02c-0.17,0.33-0.56,0.4-0.85,0.25c-0.02-0.02-0.04-0.02-0.06-0.04
		c-0.08,0.02-0.19,0.04-0.27,0.07c-0.31,0.13-0.54-0.02-0.66-0.27c-3.88,0.25-7.67,0.85-11.28,2.58c-1.89,0.91-4.56,2.23-5.76,4.12
		C1035.74,408.41,1046.05,409.92,1050.13,410.15z"/>
	<path class="st8" d="M1148.09,182.08c0.97-1.49,2.01-2.96,3.09-4.37c3.88-5.75,7.38-11.74,10.34-18.11
		c1.87-4.01,4.52-8.82,5.39-13.23c2.38-12.1-6.03-20.07-15.44-14.88c-13.85,7.66-22.27,31.77-27.66,46.41
		c-11.15,30.23-16.5,62.4-24.75,93.59c-4.6,17.38-10.1,34.49-16.5,51.2c-5.29,13.79-10.37,31.57-19.51,42.98
		c-6.39,7.98-14.59,7.57-23.53,5.79c-7.63-1.54-18.51-4.63-24.71,2.5c-5.37,6.15-2.7,24.6-2.11,33.89c0.08,0.11,0.19,0.22,0.27,0.33
		c0.25,0.36,0.08,0.69-0.21,0.87c0,0.13,0.02,0.29,0.02,0.42c0.02,0.87-1.22,0.85-1.24,0c-0.02-0.36-0.04-0.78-0.06-1.16
		c-6.3-8.6-19.53-13.5-19.03-26.18c0.48-12.28,12.42-26.07,20.98-33.04c14.51-11.81,31.18-21.05,44.24-34.91
		c14.3-15.19,14.8-42.86,0.41-58.64c-2.43-2.83-5.37-4.81-8.79-5.95c-4.44,3.74-4.73,6.77-0.85,9.09c1.51,2.47,4.85,4.19,6.78,6.28
		c2.84,3.07,5.12,6.28,5.43,10.78c0.95,13.08-14.49,24.62-22.39,31.88c-12.4,11.41-26.58,20.21-39.33,31.12
		c-6.76,5.79-13.14,12.21-18.24,19.76c-4.69,6.93-14.47,23.15-9.27,31.97c0.08,0.13,0.08,0.25,0.08,0.38
		c0.02,0.02,0.06,0.02,0.08,0.04c0.73,0.33,0.41,1.63-0.33,1.29c-4.13-1.85-8.38-3.63-12.02-6.46c-3.42-2.65-5.72-6.44-9.06-9.16
		c-5.62-6.66-9.29-1.58-11.01,15.24c1.33,1.2,2.67,2.38,4,3.59c2.57,1.8,5.66,3.23,8.56,4.21c6.07,2.01,12.48,2.5,18.78,2.47
		c7.46-0.02,14.1-0.38,20.19,4.99c2.74,2.41,4.89,5.53,6.63,8.8c0.25,0.47,1.37,4.05,2.07,6.57c0.21,0.04,0.37,0.22,0.44,0.42
		c0.23,0.27,0.21,0.74-0.08,0.98c0,0.02,0.02,0.04,0.02,0.07c0.17-0.27,0.46-0.42,0.77-0.18c0.19,0.16,0.37,0.29,0.56,0.45
		c0.31,0.25,0.37,0.56,0.23,0.91c-0.08,0.22-0.19,0.45-0.27,0.69c-0.23,0.58-0.97,0.31-1.14-0.16c-0.19-0.56-0.39-1.09-0.6-1.65
		c-0.08,0-0.12-0.04-0.19-0.09c-0.08,0.04-0.15,0.13-0.27,0.13c-0.06,0-0.08-0.04-0.15-0.07c-8.62,2.32-17.33,4.32-26.1,1.51
		c-7.8-2.5-15.26-7.44-22.16-11.9c-18.14-11.7-32.05-30.88-55.25-27.94c-24.71,3.14-38.04,30.28-43.64,53.69
		c-5.64,23.46-4.48,47.85-2.32,71.74c7.36,0.25,10.99-2.16,10.86-7.24c0.06-1.18,0.12-2.36,0.19-3.54c0.15-2.78,0.31-5.55,0.5-8.31
		c0.35-4.86,0.79-9.69,1.33-14.53c1.08-9.71,2.55-19.38,4.37-28.96c2.38-12.41,4.48-29.59,15.65-36.8
		c19.67-12.72,46.29,13.7,54.36,31.12c6.34,13.7,6.41,29.94,6.34,44.91c-0.06,13.57-2.36,25.24-10.18,36.16
		c-7.4,10.34-16.88,20.52-28.22,25.73c-12.56,5.75-17.04-8.33-28.11-13.3c-15.07-6.75-45.28-12.63-57.76,1.47
		c-12.98,14.68-10.76,37.74-10.8,56.63c0.06,0.11,0.12,0.22,0.1,0.38c-0.48,11.25-1.45,22.99-0.68,34.24
		c-0.79,6.95,2.57,8.35,10.05,4.19c0.6-3.56,0.87-7.13,0.81-10.74c0.04-5.12-0.52-10.25-0.7-15.37
		c-0.6-16.35,2.43-32.93,11.22-46.61c7.19-11.23,16.65-10.65,27.72-5.9c14.06,6.04,20.3,19.23,24.98,33.95
		c9.37,29.47,5.78,65.45-18.7,85.35c-3.4,2.76-8.64,7.31-13.21,7.2c-1.51-0.04-4.79-2.09-5.87-2.58
		c-9.14-4.17-17.62-7.78-26.33,0.36c-16.4,15.28-17.64,44.49-9.64,64.45c0.15,0.33,0,0.67-0.21,0.85c2.18,5.28,4.42,10.56,6.8,15.73
		c0.79,1.69,1.58,3.39,2.38,5.08c2.65,6.88,7.05,3.41,13.21-10.45c-0.35-1.92-2.51-4.92-3.46-6.82
		c-4.46-8.73-9.14-17.73-10.51-27.74c-1.72-12.52,7.07-25.15,20.34-20.9c5.93,1.89,9.56,8.64,12.89,13.75
		c5.76,8.84,11.07,18.13,15.59,27.8c5.43,11.65,8.58,25.6-1.97,35.02c-7.59,6.77-17,11.36-24.88,17.89
		c-8.81,7.31-24.3,18.74-24.9,31.86c-0.52,10.94,7.19,30.34,14.51,38.14c4.17,4.46,14.97,6.59,15.65-1.47
		c0.29-3.39-2.63-7.24-4.02-10.45c-2.28-5.3-5.64-10.31-7.69-15.71c-5.02-13.23,9.74-23.88,18.24-31.03
		c15.22-12.74,41.84-25.11,48.18-46.09c4.35-14.37-5.83-31.23-10.95-44.07c-2.36-5.9-6.09-10.09-2.9-15.59
		c3.84-6.62,12.23-12.1,17.35-17.69c7.55-8.27,13.68-17.18,16.81-28.34c0-0.02,0-0.02,0-0.04c7.03-23.01,9.02-46.76,5.89-70.76
		c-0.04-0.31,0.02-0.56,0.29-0.76c24.26-17.78,46.33-39.52,57.8-69.17c4.06-11.63,5.45-23.1,5.33-35.49
		c-0.08-7.84-0.44-15.71,2.26-23.15c1.68-4.68,8.52-17,14.14-11.5c0.15,0.16,0.23,0.45,0.17,0.65c-0.21,0.62-1.24,1.87-1.39,2.32
		c-2.78,2.85-4.71,6.26-5.78,10.23c-0.6,2.03-1.1,4.1-1.47,6.19c-2.24,11.23-1.97,21.63-0.77,32.91
		c2.05,19.34-2.09,32.35-12.71,48.01c-5.12,7.55-10.47,14.93-15.86,22.23c-2.28,3.03-4.56,6.1-6.8,9.18
		c4.42,5.93,7.86,6.42,10.34,1.47c4.08-3.01,8.48-11.14,11.3-15.15c11.75-16.53,22.78-33.77,32.57-51.73
		c5.12-9.4,9.89-19.23,12.27-29.88c2.67-11.96-0.62-19.83-2.07-31.21c-1.18-9.29,3.94-18.31,13.66-15.15
		c10.28,3.34,12.54,16.33,11.38,26.15c-2.26,19.25-10.08,39.01-16.5,57.01c0,0.11,0,0.25-0.08,0.38c-0.87,1.49-1.08,3.21-1.68,4.81
		c-0.27,0.69-0.6,1.36-0.95,2.01c0.02,0.13,0.02,0.27-0.04,0.4c-15.44,39.03-37.65,73.83-59.04,109.25
		c-10.05,16.64-20.05,32.39-32.73,46.87c-6.43,7.33-13.16,14.35-19.84,21.41c-4.87,5.17-9.12,8.2-7.96,17.73
		c0.56,4.61,3.34,9.51,4.25,14.21c6.76,35.16-13.62,67.46-29.73,95.95c-20.01,35.36-45.01,68.24-48.76,110.9
		c0.17,0.09,0.29,0.27,0.27,0.56c-1.24,14.28-1.43,28.56-0.89,42.89c0.27,7.17,0.68,14.33,1.16,21.48c0.31,4.63-1.37,8.49,3.92,8.89
		c4.98,0.4,4.46-2.83,6.2-7.62c0.23-0.65,0.95-0.62,1.2,0c3.48,9.05,6.9,18.11,10.45,27.11c5.45,13.77,12.6,22.66,27.28,23.88
		c17.99,1.51,35.55-6.48,49.94-17.56c5.12-3.94,15.18-15.55,22.74-10.52c3.32,2.21,3.67,6.39,3.63,10.16
		c-0.04,3.07-0.97,6.17-0.93,9.2c0.21,13.37,14.64,0.51,17.81-4.32c0.23-0.33,0.58-0.36,0.85-0.2
		c9.47-15.15,19.05-30.32,30.45-43.89c12.4-14.75,27.05-25.71,42.42-36.6c8.96-6.35,17.99-12.57,27.1-18.65
		c4.56-3.03,9.14-6.04,13.72-9.02c2.03-1.29,4.06-2.61,6.07-3.97c0.89-13.86-1.82-18.29-8.11-13.32
		c-8.96,2.29-19.07,10.76-27.14,15.55c-8.13,4.83-16.27,9.71-24.19,14.97c-17.1,11.36-28.57,26.38-38.85,44.69
		c-4.5,8-8.64,16.29-13.54,24.04c-1.93,3.03-4.54,8.42-8.52,8.64c-4.77,0.27-6.03-4.9-7.8-8.67c-4.89-10.54-9.72-21.08-16.69-30.25
		c-15.57-20.52-35.78-25.75-59.48-20.27c-0.79,0.18-1.12-1.11-0.33-1.29c0.44-0.09,0.85-0.18,1.29-0.29
		c3.71-22.32,14.62-41.35,27.57-58.9c15.53-21.08,32.47-41.04,48.8-61.4c9.16-11.43,18.97-22.57,27.28-34.73
		c3.55-5.19,6.61-10.6,9.16-16.42c1.72-3.97,3.07-8.82,6.28-11.79c2.63-2.43,6.97-3.97,10.22-1.98c5.91,3.63,2.38,12.68,2.22,18.4
		l0,0c0.62-0.53,1.51,0.42,0.87,0.94c4.02,6.33,7.86,7.71,11.53,4.14c1.1-0.8,2.18-1.6,3.28-2.41c2.74-2.01,5.45-4.03,8.19-6.04
		c5.45-4.03,10.93-8.04,16.38-12.07c10.22-7.53,20.38-15.17,30.66-22.59c14.2-10.25,31.3-19.52,47.68-9.2
		c0.31,0.2,0.44,0.78,0.12,1.05c-28.26,24.68-53.36,53.29-74.28,85.37c-8.98,13.77-17.79,28.18-24.3,43.49
		c-3.55,8.33-6.41,16.98-7.98,26c0.46-2.67-1.72,9.11-1.16,10.16c4.56,2.76,9.12,5.53,13.68,8.31c0.64-0.91,1.26-1.83,1.91-2.72
		c3.01-3.14,4.83-8.35,6.41-12.41c5.74-14.82,8.13-30.77,14.49-45.36c5.85-13.41,13.64-25.78,22.29-37.29
		c10.74-14.28,22.89-27.25,34.97-40.19c5.74-6.13,11.8-12.1,17.1-18.69c4.1-5.1,7.42-10.78,9.23-17.29
		c2.36-8.51,2.3-10.92-2.84-17.85c-4.42-5.95-5.16-6.93-11.61-7.26c-2.78-0.13-5.8,0.13-8.54,0.65c-4.06,0.74-8.04,2.07-11.9,3.59
		c-8.69,3.45-17.12,7.82-25.35,12.41c-14.47,8.04-34.41,17.73-43.85,32.42c-0.35,0.53-1.04,0.27-1.16-0.2
		c-0.15-0.09-0.29-0.16-0.46-0.24c-0.31-0.16-0.35-0.58-0.23-0.89c-4.56-2.83-5.91-16.2-5.91-20.12c-0.04-9.65,3.25-18.76,6.51-27.6
		c4.29-11.67,8.44-23.37,12.07-35.31c2.86-9.45,4.83-19.29,9.33-28c15.4-50.35,39.56-97.6,48.01-150.25l0,0
		c0.23-2.99,0.6-5.95,1.08-8.89c0-0.07,0.04-0.09,0.06-0.13c7.26-44.51,6.14-92.46-18.68-130.77c-0.23-0.33-0.08-0.67,0.17-0.85
		c-0.27-0.04-0.5-0.25-0.46-0.62c4.85-43.33,15.44-86.06,32.57-125.72c8.58-19.89,20.79-35.27,34.35-51.4
		c1.91-2.27,3.81-4.54,5.6-6.95c4.83-6.57,4.19-4.54-1.89-13.66c-6.22-9.33-5.8-9.31-13.29-3.72c-2.11,1.58-4.02,3.32-5.87,5.21
		c-7.92,8.11-13.48,17.98-17.14,28.98c-0.27,0.8-1.47,0.45-1.2-0.36c1.87-5.61,5-12.81,9.1-19.54c0-0.16,0.02-0.31,0.15-0.45
		C1147.24,183.33,1147.65,182.7,1148.09,182.08z M1080.23,403.6c-1.14,11.45-12.6,15.42-21.83,15.66
		c-8.81,0.25-23.36-3.23-24.05-15.06c-0.64-11.32,11.19-16.24,19.96-17.76c0.06-0.07,0.15-0.11,0.23-0.13
		c1.78-0.62,3.61-1.02,5.49-1.23c0.04,0,0.08,0,0.12,0.02C1070.68,381.79,1081.42,391.59,1080.23,403.6z"/>
	<path d="M1173.65,163.63c-6.03-0.13-11.61,2.87-16.54,7.46c-3.9,6.22-7.63,11.34-9.45,13.77c-0.39,0.53-1.02,0.04-1.02-0.49
		c-4.1,6.73-7.24,13.92-9.1,19.54c-0.27,0.8,0.93,1.16,1.2,0.36c3.65-11.01,9.23-20.87,17.14-28.98c1.85-1.89,3.75-3.63,5.87-5.21
		c7.48-5.57,7.07-5.59,13.29,3.72c6.07,9.11,6.72,7.08,1.89,13.66c-1.76,2.41-3.69,4.68-5.6,6.95
		c-13.56,16.13-25.77,31.5-34.35,51.4c-17.1,39.66-27.72,82.36-32.57,125.72c-0.04,0.38,0.19,0.58,0.46,0.62
		c0.15-0.11,0.33-0.16,0.5-0.11c0.15-0.11,0.27-0.27,0.29-0.49c3.52-31.59,10.14-62.67,20.13-92.61
		c5.12-15.37,10.76-30.88,18.24-45.14c7.53-14.35,17.97-26.24,28.17-38.39c4.91-5.86,12.02-12.92,11.34-21.59
		C1183.08,167.78,1179.27,163.75,1173.65,163.63z"/>
	<path d="M1012.77,409.46c0-0.13-0.02-0.29-0.02-0.42c-0.27,0.16-0.64,0.16-0.87-0.18c-0.12-0.18-0.29-0.36-0.41-0.56
		c0.02,0.38,0.06,0.8,0.06,1.16C1011.55,410.3,1012.79,410.3,1012.77,409.46z"/>
	<path d="M1014.81,373.94c6.22-7.13,17.08-4.01,24.71-2.5c8.91,1.78,17.14,2.18,23.53-5.79c9.14-11.43,14.22-29.18,19.51-42.98
		c6.41-16.71,11.9-33.82,16.5-51.2c8.25-31.19,13.6-63.36,24.75-93.59c5.39-14.61,13.81-38.74,27.66-46.41
		c9.41-5.21,17.83,2.78,15.44,14.88c-0.87,4.41-3.52,9.22-5.39,13.23c-2.96,6.37-6.47,12.36-10.34,18.11
		c-1.08,1.4-2.09,2.87-3.09,4.37c-0.44,0.6-0.87,1.25-1.31,1.85c-0.1,0.13-0.15,0.29-0.15,0.45c0,0.56,0.62,1.02,1.02,0.49
		c1.8-2.43,5.54-7.55,9.45-13.77c9.31-14.84,19.63-36.02,7.28-42.22c-19.94-10.03-35.39,32.04-40.43,45.07
		c-11.22,28.92-16.69,59.86-24.26,89.98c-4.48,17.85-9.85,35.42-16.19,52.6c-3.32,9-6.88,17.89-10.7,26.65
		c-4.33,9.94-8.71,24.22-19.49,27.09c-11.84,3.14-26.29-7.26-37.48,1.07c-8.83,6.57-5.58,23.64-4.56,34.71
		c0.48,0.58,0.95,1.18,1.39,1.8C1012.11,398.54,1009.44,380.09,1014.81,373.94z"/>
	<path d="M971.44,390.45c-5.2-8.84,4.56-25.04,9.27-31.97c5.1-7.55,11.49-13.97,18.24-19.76c12.75-10.92,26.93-19.72,39.33-31.12
		c7.9-7.26,23.34-18.83,22.39-31.88c-0.33-4.48-2.59-7.71-5.43-10.78c-1.93-2.09-5.27-3.81-6.78-6.28
		c-3.88-2.32-3.61-5.35,0.85-9.09c3.42,1.14,6.34,3.12,8.79,5.95c14.39,15.77,13.89,43.44-0.41,58.64
		c-13.04,13.86-29.73,23.1-44.24,34.91c-8.56,6.97-20.5,20.76-20.98,33.04c-0.5,12.7,12.73,17.58,19.03,26.18
		c0.15,0.18,0.29,0.36,0.41,0.56c0.23,0.33,0.6,0.33,0.87,0.18c0.29-0.16,0.44-0.51,0.21-0.87c-0.08-0.11-0.19-0.22-0.27-0.33
		c-0.46-0.62-0.91-1.23-1.39-1.8c-2.47-2.99-5.29-5.41-8.27-7.98c-2.14-1.85-4.52-3.61-6.1-6.1c-4.89-7.75-2.03-16.13,2.16-23.33
		c9.72-16.78,25.38-25.49,39.8-36.85c9.62-7.57,21.64-15.46,27.28-27.22c4.95-10.31,4.58-22.84,1.37-33.66
		c-2.55-8.58-7.44-17.78-15.4-21.63c-2.63-1.27-11.01-3.48-10.93,2.5c0.06,3.94,7.67,9.05,9.99,11.21c5.25,4.86,6.61,6.39,6.3,14.61
		c-0.35,9.2-3.57,12.52-9.41,18.54c-11.4,11.76-23.84,21.57-36.8,31.26c-11.65,8.73-23.24,17.98-31.68,30.43
		c-4.91,7.26-13.99,22.86-9.74,32.28c0.54,0.25,1.1,0.49,1.66,0.76C971.54,390.72,971.52,390.59,971.44,390.45z"/>
	<path d="M999.46,422.42c-0.7-2.52-1.82-6.1-2.07-6.57c-1.74-3.27-3.9-6.39-6.63-8.8c-6.1-5.37-12.73-5.01-20.19-4.99
		c-6.3,0.02-12.73-0.47-18.78-2.47c-2.92-0.96-5.99-2.41-8.56-4.21c-1.33-1.2-2.67-2.38-4-3.59c1.72-16.82,5.39-21.9,11.01-15.24
		c3.34,2.72,5.64,6.51,9.06,9.16c3.65,2.83,7.9,4.61,12.02,6.46c0.75,0.33,1.06-0.96,0.33-1.29c-0.02-0.02-0.06-0.02-0.08-0.04
		c-0.56-0.25-1.1-0.49-1.66-0.76c-4.98-2.27-9.45-4.66-13.48-8.82c-1.85-1.89-3.32-4.26-5.33-5.97c-2.4-2.05-5.33-4.17-8.6-3.74
		c-7.13,0.89-9.62,9.96-7.21,16.24c3.57,9.31,14.59,13.26,22.97,14.75c5.89,1.05,11.65,0.58,17.56,0.76
		c12.31,0.36,18.78,8.18,23.12,19.25c0.1-0.02,0.21-0.07,0.33-0.09C999.3,422.4,999.38,422.4,999.46,422.42z"/>
	<path d="M999.42,423.94c0.21,0.53,0.39,1.09,0.6,1.65c0.17,0.47,0.91,0.74,1.14,0.16c0.08-0.22,0.19-0.45,0.27-0.69
		c0.15-0.36,0.08-0.67-0.23-0.91c-0.19-0.16-0.37-0.29-0.56-0.45c-0.31-0.25-0.62-0.09-0.77,0.18c0-0.02-0.02-0.04-0.02-0.07
		c-0.1,0.09-0.19,0.16-0.35,0.16C999.44,423.98,999.44,423.96,999.42,423.94z"/>
	<path d="M848.21,512.61c0.02,0.25,0.15,0.42,0.31,0.51c-0.12-0.29-0.23-0.58-0.33-0.87C848.19,512.36,848.19,512.49,848.21,512.61z
		"/>
	<path d="M849.12,511.02c0.06,0,0.12,0,0.19,0c-2.14-23.88-3.3-48.28,2.32-71.74c5.62-23.41,18.93-50.57,43.64-53.69
		c23.2-2.94,37.11,16.24,55.25,27.94c6.9,4.46,14.39,9.4,22.16,11.9c8.77,2.81,17.48,0.8,26.1-1.51c-0.62-0.18-0.6-1.27,0.15-1.27
		c0.12,0,0.19,0.07,0.27,0.13c0.08-0.04,0.15-0.13,0.27-0.13c0.19,0,0.33,0.09,0.44,0.2c-0.08-0.2-0.23-0.38-0.44-0.42
		c-0.08-0.02-0.17-0.02-0.27,0.02c-0.1,0.02-0.21,0.07-0.33,0.09c-8.54,2.29-17.14,4.39-25.83,1.63
		c-5.95-1.89-11.65-5.55-17.04-8.78c-10.41-6.26-19.14-14.33-28.73-21.79c-13.04-10.16-30.45-13.03-45.24-5.32
		c-16.36,8.53-25.81,29.14-30.66,47.03c-6.68,24.55-5.58,50.35-3.34,75.55C848.33,510.42,849,510.42,849.12,511.02z"/>
	<path d="M999.22,423.85c0.06,0.04,0.12,0.09,0.19,0.09c0.02,0,0.04,0.02,0.06,0.02c0.17,0,0.25-0.09,0.35-0.16
		c0.27-0.25,0.31-0.69,0.08-0.98c-0.1-0.11-0.23-0.2-0.44-0.2c-0.12,0-0.19,0.07-0.27,0.13C999.61,423,999.61,423.62,999.22,423.85z
		"/>
	<path d="M999.22,423.85c0.39-0.25,0.39-0.85,0-1.09c-0.08-0.04-0.15-0.13-0.27-0.13c-0.75,0-0.77,1.09-0.15,1.27
		c0.06,0.02,0.08,0.07,0.15,0.07C999.07,423.98,999.13,423.89,999.22,423.85z"/>
	<path d="M807.87,594.34c0.02-18.89-2.18-41.97,10.8-56.63c12.48-14.12,42.69-8.24,57.76-1.47c11.07,4.97,15.55,19.05,28.11,13.3
		c11.34-5.19,20.81-15.39,28.22-25.73c7.82-10.92,10.12-22.59,10.18-36.16c0.06-14.97,0.02-31.21-6.34-44.91
		c-8.09-17.42-34.68-43.82-54.36-31.12c-11.19,7.24-13.27,24.42-15.65,36.8c-1.85,9.58-3.3,19.25-4.37,28.96
		c-0.54,4.83-0.97,9.67-1.33,14.53c-0.21,2.76-0.35,5.55-0.5,8.31c-0.06,1.18-0.12,2.36-0.19,3.54c0.12,5.08-3.5,7.49-10.86,7.24
		c-0.06,0-0.12,0-0.19,0c-0.15-0.6-0.79-0.58-1.08-0.22c-0.1,0.13-0.17,0.33-0.12,0.56c0.06,0.31,0.17,0.6,0.25,0.89
		c0.1,0.31,0.21,0.6,0.33,0.87c1.95,4.41,6.78,4.95,10.16,0.74c2.24-2.76,2.47-6.66,2.74-10.09c0.79-10.18,1.24-20.27,2.49-30.41
		c2.05-16.78,3.42-40.21,12.98-54.25c13.74-20.18,39.6-2.18,50.85,12.01c12.52,15.75,13.77,34.89,13.89,54.74
		c0.15,21.32-7.19,37.14-22,51.26c-7.79,7.44-17.56,15.95-27.93,8.84c-5.2-3.56-8.69-8.29-14.72-10.98
		c-11.17-5.01-24.67-6.35-36.69-6.62c-34.97-0.78-33.48,40.1-33.69,67.33c0,0.07,0.04,0.09,0.06,0.16c0.02-0.36,0.04-0.74,0.04-1.09
		C806.77,594.03,807.58,593.92,807.87,594.34z"/>
	<path d="M806.79,742.61c0.21,0.49,0.41,0.96,0.6,1.45c0.21-0.18,0.35-0.51,0.21-0.85c-8-19.94-6.76-49.17,9.64-64.45
		c8.71-8.11,17.21-4.52,26.33-0.36c1.1,0.49,4.37,2.56,5.87,2.58c4.56,0.11,9.81-4.43,13.21-7.2c24.48-19.89,28.07-55.87,18.7-85.35
		c-4.69-14.75-10.93-27.94-24.98-33.95c-11.07-4.75-20.52-5.32-27.72,5.9c-8.79,13.7-11.82,30.25-11.22,46.61
		c0.19,5.12,0.77,10.25,0.7,15.37c0.06,3.61-0.21,7.2-0.81,10.74c-7.48,4.17-10.84,2.76-10.05-4.19
		c-0.77-11.25,0.21-22.99,0.68-34.24c0-0.16-0.04-0.29-0.1-0.38c-0.29-0.42-1.1-0.31-1.14,0.38c-0.02,0.36-0.04,0.71-0.04,1.09
		c-0.5,10.92-1.43,22.28-0.64,33.15c0.23,3.25,0.31,8,3.28,10.03c9.02,6.17,10.05-11.74,10.08-16.58
		c0.06-22.17-2.9-46.92,12.79-64.81c11.55-13.17,33.4,0.94,40.3,12.9c5.2,8.98,8.58,19.56,10.66,29.85
		c4.46,22.19,1.2,46.21-12.83,63.83c-3.11,3.9-6.68,7.4-10.66,10.27c-6.24,4.52-11.67,3.39-18.74,1.16
		c-5.39-1.72-9.85-4.28-15.59-3.01c-11.4,2.52-18.24,17.13-21.35,27.96c-3.98,13.92-3.05,28.45,1.97,41.82
		C806.23,742.19,806.6,742.19,806.79,742.61z"/>
	<path d="M918.05,653.05c-3.13,11.16-9.25,20.05-16.81,28.34c-5.12,5.59-13.52,11.07-17.35,17.69c-3.19,5.5,0.54,9.71,2.9,15.59
		c5.14,12.83,15.3,29.67,10.95,44.07c-6.36,20.99-32.96,33.35-48.18,46.09c-8.52,7.13-23.26,17.8-18.24,31.03
		c2.05,5.39,5.39,10.4,7.69,15.71c1.37,3.19,4.31,7.06,4.02,10.45c-0.68,8.06-11.49,5.93-15.65,1.47
		c-7.32-7.8-15.01-27.22-14.51-38.14c0.62-13.14,16.09-24.57,24.9-31.86c7.88-6.51,17.29-11.12,24.88-17.89
		c10.55-9.42,7.4-23.37,1.97-35.02c-4.5-9.67-9.81-18.94-15.59-27.8c-3.34-5.12-6.97-11.85-12.89-13.75
		c-13.27-4.26-22.08,8.35-20.34,20.9c1.37,10,6.05,19,10.51,27.74c0.95,1.87,3.11,4.9,3.46,6.82
		c-6.14,13.86-10.55,17.33-13.21,10.45c-0.81-1.69-1.6-3.36-2.38-5.08c-2.38-5.19-4.62-10.45-6.8-15.73
		c-0.21-0.49-0.41-0.96-0.6-1.45c-0.17-0.42-0.54-0.42-0.83-0.22c-0.25,0.18-0.41,0.51-0.25,0.89c2.96,7.26,11.65,39.68,23.88,29.63
		c12.31-10.14-7.26-34.44-10.43-44.36c-2.82-8.8-5.97-22.26,6.28-26.78c10.14-3.74,17.23,3.59,22.53,11.65
		c7.01,10.69,14.66,22.75,18.68,35.18c3.44,10.67,2.24,20.65-6.95,27.6c-3.5,2.65-7.38,4.75-10.97,7.24
		c-9.04,6.3-17.56,13.5-25.4,21.48c-4.62,4.7-10.22,9.65-11.44,16.73c-1.7,9.82,3.44,21.03,7.34,29.59
		c2.76,6.08,14.16,29.83,24.03,20.1c3.92-3.88,0.7-10.72-0.83-14.79c-1.89-4.99-4.69-9.65-6.53-14.64
		c-4.5-12.21-1.06-21.45,7.01-29.39c15.2-14.93,34.87-24.37,48.68-40.97c15.49-18.58,4.17-37.94-3.71-57.59
		c-4.46-11.12-0.83-16.31,6.22-23.39c3.86-3.88,7.71-7.75,11.28-11.96c6.36-7.55,11.32-15.84,13.99-25.66c0-0.02,0-0.04,0-0.09
		c-0.04,0.16-0.08,0.31-0.15,0.47C919.01,654.16,917.85,653.83,918.05,653.05z"/>
	<path d="M981.99,512.47c0.02-0.04,0.04-0.11,0.04-0.16c-11.49,29.65-33.56,51.4-57.8,69.17c-0.25,0.18-0.33,0.45-0.29,0.76
		c3.15,23.99,1.14,47.74-5.89,70.76c0,0.02,0,0.02,0,0.04c-0.19,0.78,0.95,1.11,1.2,0.31c0.04-0.16,0.08-0.31,0.15-0.47
		c4.21-13.92,6.82-28.23,7.3-42.89c0.25-7.51-2.07-16.75-1.02-23.97c1.02-6.88,7.88-9.87,12.58-13.77
		c19.11-15.93,35.47-35.2,44.88-59.37C982.8,513.59,981.7,513.23,981.99,512.47z"/>
	<path d="M983.23,512.65L983.23,512.65L983.23,512.65L983.23,512.65z"/>
	<path d="M1032.12,515.41c6.43-18,14.24-37.76,16.5-57.01c1.16-9.82-1.12-22.81-11.38-26.15c-9.72-3.16-14.84,5.86-13.66,15.15
		c1.45,11.41,4.75,19.25,2.07,31.21c-2.38,10.65-7.15,20.5-12.27,29.88c-9.79,17.96-20.81,35.2-32.57,51.73
		c-2.84,3.99-7.24,12.14-11.3,15.15c-2.49,4.95-5.93,4.46-10.34-1.47c2.24-3.07,4.52-6.13,6.8-9.18
		c5.39-7.33,10.76-14.68,15.86-22.23c10.61-15.68,14.74-28.67,12.71-48.01c-1.2-11.27-1.47-21.68,0.77-32.91
		c0.37-2.09,0.87-4.17,1.47-6.19c1.08-3.97,3.01-7.37,5.78-10.23c0.15-0.45,1.16-1.69,1.39-2.32c0.06-0.2,0-0.51-0.17-0.65
		c-5.6-5.5-12.44,6.82-14.14,11.5c-2.7,7.44-2.32,15.31-2.26,23.15c0.12,12.39-1.26,23.86-5.33,35.49
		c-0.02,0.04-0.04,0.11-0.04,0.16c-0.27,0.78,0.83,1.11,1.16,0.42c0.02-0.02,0.04-0.04,0.04-0.07c0.02-0.04,0.04-0.11,0.04-0.16
		v-0.02c2.47-7.06,4.29-14.26,5.02-21.77c0.93-9.71-0.5-19.54,0.85-29.21c0.7-5.08,2.36-12.99,6.61-16.04
		c1-0.25,1.97-0.47,2.96-0.71c3.15-1.38,3.79-1.23,1.97,0.42c-0.41,2.38-0.81,0.58-1.1,1.27c-2.53,6.13-4.87,10.89-6.01,17.73
		c-2.74,16.55,2.38,32.62,0.1,48.92c-2.84,20.25-19.61,38.59-31.1,53.89c-2.49,3.32-9.85,11.58-3.94,15.73
		c7.32,5.15,17.77-14.35,20.88-18.65c9.66-13.37,18.74-27.22,27.2-41.5c8.09-13.63,16.56-27.89,20.17-43.78
		c1.64-7.24,2.22-14.46,0.56-21.74c-0.37-1.69-1-3.3-1.41-4.99c-2.01-8.24-2.43-7,5.78-12.68c6.55-4.54,6.61-7,11.11-1.72
		c3.57,4.17,4.75,9.62,4.83,15.04c0.15,10.56-4,21.81-6.9,31.77c-3.01,10.27-6.34,20.41-9.93,30.45c-0.02,0.07-0.02,0.13-0.02,0.2
		c0.02-0.04,0.04-0.11,0.08-0.16C1031.31,514.52,1032.1,514.86,1032.12,515.41z"/>
	<path d="M835.54,939.37c3.75-42.64,28.75-75.52,48.76-110.9c16.13-28.49,36.49-60.82,29.73-95.95c-0.91-4.7-3.69-9.62-4.25-14.21
		c-1.16-9.56,3.09-12.59,7.96-17.73c6.68-7.06,13.41-14.08,19.84-21.41c12.71-14.48,22.7-30.23,32.73-46.87
		c21.37-35.42,43.6-70.22,59.04-109.25c0.06-0.13,0.06-0.27,0.04-0.4c-0.35,0.69-0.7,1.38-0.97,2.12c-0.21,0.6-0.97,0.56-1.18,0.11
		c-12.13,29.96-28.07,57.61-44.7,84.9c-8.56,14.04-16.67,28.52-25.64,42.26c-9.45,14.46-20.83,27.22-32.49,39.63
		c-5.35,5.7-18.08,13.99-17.44,23.33c0.23,3.36,3.09,7.46,4.1,10.85c1.35,4.48,2.26,9.2,2.7,13.9c0.79,8.53,0,17.15-1.87,25.46
		c-6.88,30.61-25.87,58.86-41.88,84.75c-17.25,27.91-33.32,56.83-35.91,90.96c-0.02,0.29,0.1,0.47,0.29,0.58
		c0.04-0.51,0.06-1,0.1-1.51C834.61,939.35,835.19,939.17,835.54,939.37z"/>
	<path d="M1028.43,524.7c0.27-0.74,0.62-1.43,0.97-2.12c0.33-0.65,0.68-1.31,0.95-2.01c0.62-1.6,0.81-3.32,1.68-4.81
		c0.08-0.13,0.08-0.27,0.08-0.38c-0.04-0.53-0.81-0.89-1.16-0.29c-0.02,0.04-0.04,0.11-0.08,0.16c-0.77,1.38-1.04,2.92-1.53,4.41
		c-0.54,1.63-1.53,3.05-2.11,4.68c-0.06,0.18-0.04,0.36,0.02,0.47C1027.45,525.26,1028.22,525.33,1028.43,524.7z"/>
	<path d="M978.03,1045.15c0.37-0.6,0.75-1.2,1.12-1.8c-0.27-0.16-0.62-0.13-0.85,0.2c-3.17,4.83-17.62,17.69-17.81,4.32
		c-0.04-3.05,0.91-6.15,0.93-9.2c0.04-3.77-0.31-7.95-3.63-10.16c-7.59-5.03-17.64,6.57-22.74,10.52
		c-14.39,11.07-31.95,19.07-49.94,17.56c-14.66-1.23-21.83-10.14-27.28-23.88c-3.57-9-6.97-18.07-10.45-27.11
		c-0.25-0.62-0.97-0.65-1.2,0c-1.72,4.79-1.22,8.02-6.2,7.62c-5.27-0.42-3.61-4.26-3.92-8.89c-0.48-7.15-0.89-14.3-1.16-21.48
		c-0.54-14.33-0.35-28.61,0.89-42.89c0.02-0.29-0.1-0.47-0.27-0.56c-0.35-0.2-0.93-0.02-0.97,0.56c-0.04,0.51-0.06,1-0.1,1.51
		c-1.6,19.52-1.1,39.03,0.1,58.57c0.23,3.61-1.53,21.37,3.98,22.1c2.61,0.33,3.5-2.29,4.54-4.26c1.24-2.36,1.41-8.27,4.6-8.04
		c1,0.07,4.64,12.05,5.22,13.57c4.25,11.05,7.9,25.44,18.72,31.17c10.18,5.39,23.51,4.19,34.14,1.23
		c6.82-1.89,13.37-4.86,19.53-8.51c6.84-4.03,12.52-10.58,19.3-14.41c6.39-3.61,14.78,0.67,15.36,8.67
		c0.23,3.07-1.49,6.51-1.08,9.54c0.37,2.63-0.21,3.63,2.09,5.01c5.99,3.63,13.54-5.01,17.19-10.11
		C977.95,1045.8,977.82,1045.48,978.03,1045.15z"/>
	<path d="M895.56,965.22c0-0.04,0.02-0.11,0.02-0.16c-0.44,0.09-0.85,0.18-1.29,0.29c-0.79,0.18-0.46,1.47,0.33,1.29
		c23.68-5.48,43.89-0.27,59.48,20.27c6.97,9.18,11.8,19.74,16.69,30.25c1.74,3.77,3.01,8.93,7.79,8.67
		c3.98-0.22,6.59-5.59,8.52-8.64c4.89-7.75,9.04-16.04,13.54-24.04c10.28-18.31,21.75-33.33,38.85-44.69
		c7.92-5.26,16.07-10.14,24.19-14.97c8.06-4.79,18.18-13.28,27.14-15.55c6.3-4.99,9-0.56,8.11,13.32c-2.01,1.34-4.04,2.67-6.07,3.97
		c-4.58,2.99-9.16,5.97-13.72,9.02c-9.1,6.08-18.14,12.3-27.1,18.65c-15.36,10.89-30,21.83-42.42,36.6
		c-11.4,13.57-20.98,28.74-30.45,43.89c-0.37,0.6-0.75,1.2-1.12,1.8c-0.21,0.33-0.08,0.65,0.15,0.82c0.27,0.2,0.68,0.22,0.91-0.16
		c9.79-15.66,19.59-31.39,31.39-45.43c12.73-15.15,28.05-26.42,43.85-37.58c15.15-10.72,31.93-19.81,46.48-31.39
		c4.44-3.54,9.74-11.25,4.5-16.84c-2.53-2.7-5.58-2.12-8.62-1.2c-8.02,2.45-16.19,8.76-23.51,12.99
		c-14.99,8.69-30.77,17.15-44.41,28.2c-11.11,9-19.36,20.79-26.66,33.4c-4.02,6.95-7.77,14.1-11.75,21.1
		c-1.85,3.25-3.63,7.22-6.05,9.98c-7.79,8.91-11.94-1.65-14.84-7.91c-7.07-15.22-15.74-30.21-29.19-39.77
		c-13.37-9.51-28.22-9.76-43.37-6.62c-0.04,0.27-0.1,0.53-0.15,0.8C896.62,966.42,895.41,966.06,895.56,965.22z"/>
	<path d="M1024.9,779.81c-3.25-2.01-7.59-0.45-10.22,1.98c-3.23,2.99-4.56,7.82-6.28,11.79c-2.53,5.84-5.62,11.25-9.16,16.42
		c-8.33,12.16-18.12,23.3-27.28,34.73c-16.34,20.36-33.27,40.3-48.8,61.4c-12.94,17.58-23.86,36.58-27.57,58.9
		c0,0.04-0.02,0.11-0.02,0.16c-0.15,0.85,1.06,1.2,1.2,0.36c0.04-0.27,0.1-0.53,0.15-0.8c6.86-39.7,36.34-69.71,59.93-99.12
		c13-16.2,26.45-32.1,38.97-48.75c4.54-6.02,8.83-12.25,12.13-19.18c1.02-2.16,1.95-4.37,2.8-6.59c1.93-6.88,7.38-8.27,16.36-4.08
		c0.56,2.9-1.26,8.35-1.2,11.83c0,0.22,0.08,0.38,0.21,0.47c0.31-0.4,0.64-0.78,1.06-1.14
		C1027.29,792.49,1030.81,783.47,1024.9,779.81z"/>
	<path d="M1054.11,774.71c-0.12,0.13-0.27,0.27-0.39,0.4c-0.21,0.2-0.5,0.25-0.75,0.11c-0.02,0-0.02-0.02-0.04-0.02
		c0.12,0.47,0.83,0.74,1.16,0.2c9.43-14.68,29.38-24.37,43.85-32.42c8.23-4.57,16.67-8.96,25.35-12.41
		c3.86-1.54,7.84-2.85,11.9-3.59c2.74-0.49,5.76-0.78,8.54-0.65c6.47,0.31,7.21,1.29,11.61,7.26c5.14,6.95,5.2,9.36,2.84,17.85
		c-1.8,6.51-5.12,12.19-9.23,17.29c-5.31,6.57-11.36,12.54-17.1,18.69c-12.11,12.94-24.26,25.91-34.97,40.19
		c-8.64,11.52-16.44,23.86-22.29,37.29c-6.36,14.61-8.75,30.54-14.49,45.36c-1.58,4.05-3.4,9.27-6.41,12.41
		c-0.64,0.91-1.26,1.8-1.91,2.72c-4.56-2.76-9.12-5.53-13.68-8.31c-0.56-1.05,1.64-12.83,1.16-10.16c1.58-9.02,4.42-17.67,7.98-26
		c6.51-15.31,15.34-29.72,24.3-43.49c20.9-32.08,46-60.69,74.28-85.37c0.31-0.27,0.19-0.85-0.12-1.05
		c-16.38-10.31-33.48-1.05-47.68,9.2c-10.28,7.42-20.44,15.06-30.66,22.59c-5.45,4.03-10.93,8.04-16.38,12.07
		c-2.74,2.01-5.45,4.03-8.19,6.04c-1.1,0.8-2.18,1.6-3.28,2.41c-3.65,3.56-7.5,2.21-11.53-4.14c0.62-0.53-0.25-1.47-0.87-0.94l0,0
		c-0.41,0.36-0.75,0.74-1.06,1.14c-1.51,1.94-1.76,4.43-0.06,6.75c5.43,7.44,16.59-3.43,20.71-6.46c12-8.84,24.03-17.71,36.03-26.56
		c12.04-8.87,25-20.92,39.6-24.42c4.31-1.02,21.66-3.19,19.86,4.83c-0.39,1.76-6.72,6.06-8.09,7.33c-2.65,2.47-5.29,5.01-7.9,7.55
		c-10.39,10.25-20.28,21.08-29.56,32.48c-16.61,20.38-31.68,42.53-44.1,66.1c-5.41,10.29-10.2,21.05-13.02,32.5
		c-1.8,7.4-5.54,20.25-0.46,27.14c13.1,17.71,25.52-25.91,27.53-33.42c8.29-30.92,22.97-56.01,43.16-79.65
		c9.58-11.21,19.76-21.77,29.75-32.55c8.09-8.71,16.44-17.13,19.82-29.25c2.14-7.66,3.38-17.24-3.11-22.81
		c-8.5-7.29-22.51-3.72-31.66-0.38c-14.18,5.19-27.84,13.06-40.74,21.12c-10.37,6.51-22.62,13.17-29.98,23.66
		c0.12,0.11,0.21,0.24,0.25,0.4C1054.32,774.09,1054.36,774.47,1054.11,774.71z"/>
	<path d="M1104.7,372.96c24.82,38.32,25.93,86.28,18.68,130.77c0.25-0.65,1.29-0.29,1.14,0.49c-0.02,0.11-0.02,0.22-0.04,0.33
		c0.02-0.04,0.04-0.07,0.04-0.11c7.38-44.96,6.32-93.46-18.74-132.18c-0.1-0.18-0.25-0.25-0.39-0.29c-0.19-0.04-0.35,0.02-0.5,0.11
		C1104.61,372.32,1104.47,372.63,1104.7,372.96z"/>
	<path d="M1075.24,664.01c0.04-0.16,0.1-0.31,0.15-0.49c-0.15,0.29-0.29,0.58-0.44,0.85
		C1075.07,664.3,1075.18,664.19,1075.24,664.01z"/>
	<path d="M1122.26,512.81c-8.48,52.64-32.61,99.9-48.01,150.25c0.15-0.29,0.29-0.6,0.44-0.89c0.29-0.53,0.93-0.33,1.12,0.11
		c15.47-50.08,39.41-97.13,47.74-149.58c0.02-0.09,0-0.16,0-0.22c0,0.11-0.02,0.22-0.04,0.33
		C1123.42,513.65,1122.19,513.65,1122.26,512.81z"/>
	<path d="M1074.66,662.16c-0.17,0.29-0.29,0.6-0.44,0.89c-4.52,8.71-6.49,18.58-9.33,28c-3.61,11.94-7.75,23.64-12.07,35.31
		c-3.25,8.84-6.55,17.96-6.51,27.6c0.02,3.92,1.35,17.27,5.91,20.12c-0.12,0.31-0.08,0.71,0.23,0.89c0.15,0.09,0.29,0.16,0.46,0.25
		c0.02,0,0.02,0.02,0.04,0.02c0.25,0.13,0.54,0.11,0.75-0.11c0.12-0.13,0.27-0.27,0.39-0.4c0.25-0.25,0.21-0.62,0.02-0.89
		c-0.04-0.16-0.12-0.29-0.25-0.4c-0.04-0.02-0.06-0.04-0.1-0.07c-13.27-17.89-2.01-39.86,4.46-58.08
		c5.78-16.29,8.85-35.58,16.69-50.88c0.15-0.29,0.29-0.58,0.44-0.85c0.12-0.22,0.23-0.47,0.35-0.69c0.1-0.2,0.1-0.4,0.04-0.56
		C1075.61,661.83,1074.97,661.63,1074.66,662.16z"/>
	<path d="M1123.38,503.76c-0.02,0.04-0.04,0.09-0.06,0.13c-0.48,2.94-0.83,5.9-1.08,8.89l0,0c-0.06,0.85,1.18,0.85,1.24,0
		c0-0.11,0.02-0.22,0.04-0.33c0.21-2.65,0.54-5.28,0.95-7.89c0.02-0.11,0.02-0.22,0.04-0.33
		C1124.64,503.47,1123.62,503.11,1123.38,503.76z"/>
	<path d="M1060.17,385.11c0.66,0.07,0.62,1.25-0.12,1.31c-0.33,0.04-0.64,0.11-0.97,0.16c0.12,0.11,0.31,0.16,0.52,0.09
		c13.6-5.3,25.85,13.75,15.84,24.97c-4.64,5.21-12.6,6.44-18.97,6.28c-7.3-0.2-18.41-2.87-20.59-11.81
		c-3.07-12.52,11.92-17.56,20.21-18.58c0.27-0.04,0.44-0.22,0.52-0.42c-0.58,0.16-1.16,0.31-1.72,0.51c-0.66,0.25-1-0.71-0.56-1.14
		c-8.77,1.49-20.61,6.44-19.96,17.76c0.68,11.81,15.24,15.28,24.05,15.06c9.23-0.25,20.71-4.21,21.83-15.66
		C1081.42,391.59,1070.68,381.79,1060.17,385.11z"/>
	<path d="M1054.88,387.6c0.56-0.2,1.14-0.36,1.72-0.51c0.81-0.22,1.64-0.38,2.47-0.51c0.33-0.04,0.64-0.13,0.97-0.16
		c0.75-0.09,0.79-1.25,0.12-1.31c-0.04,0-0.08-0.02-0.12-0.02c-1.87,0.2-3.69,0.6-5.49,1.23c-0.1,0.04-0.17,0.09-0.23,0.13
		C1053.88,386.89,1054.22,387.85,1054.88,387.6z"/>
	<path d="M1039.35,400.46c-2.45,7.4,5.33,10.85,10.78,11.01c6.84,0.2,19.22-1.78,22.06-9.89c2.57-7.35-5.6-11.05-11.15-10.98
		c-0.1-0.18-0.25-0.31-0.5-0.29C1053.72,390.56,1042.11,392.19,1039.35,400.46z M1047.81,394.31c3.59-1.74,7.38-2.34,11.28-2.58
		c0.12,0.25,0.35,0.4,0.66,0.27c0.08-0.04,0.19-0.04,0.27-0.07c0.02,0.02,0.04,0.02,0.06,0.04c0.29,0.16,0.68,0.09,0.85-0.25
		c0,0,0,0,0-0.02c5.12-0.69,13.5,5.01,8.31,12.14c-0.97,1.34-3.01,2.36-4.42,3.12c-4.35,2.38-9.87,3.45-14.72,3.19
		c-4.08-0.22-14.39-1.74-8.09-11.72C1043.25,396.51,1045.92,395.2,1047.81,394.31z"/>
</g>
</svg>
